<?xml version="1.0" encoding="UTF-8"?>
<svg id="Camada_1" data-name="Camada 1" xmlns="http://www.w3.org/2000/svg" version="1.1" xmlns:xlink="http://www.w3.org/1999/xlink" viewBox="0 0 528.7 494">
  <defs>
    <style>
      .cls-1 {
        fill: #212526;
      }

      .cls-1, .cls-2, .cls-3, .cls-4, .cls-5, .cls-6, .cls-7, .cls-8, .cls-9, .cls-10, .cls-11, .cls-12, .cls-13, .cls-14, .cls-15, .cls-16, .cls-17, .cls-18, .cls-19, .cls-20, .cls-21, .cls-22, .cls-23, .cls-24, .cls-25, .cls-26, .cls-27, .cls-28, .cls-29, .cls-30, .cls-31, .cls-32, .cls-33, .cls-34 {
        stroke-width: 0px;
      }

      .cls-2 {
        fill: #33373a;
      }

      .cls-3 {
        fill: #eac39f;
      }

      .cls-4 {
        fill: #d67e63;
      }

      .cls-5 {
        fill: #747d91;
      }

      .cls-6 {
        fill: #aa7152;
      }

      .cls-7 {
        fill: #702f28;
      }

      .cls-8 {
        fill: #ebe0d7;
      }

      .cls-9 {
        fill: #e2d3c7;
      }

      .cls-10 {
        fill: #ddcbbc;
      }

      .cls-11 {
        fill: #be8663;
      }

      .cls-12 {
        fill: none;
      }

      .cls-13 {
        fill: #d3aa88;
      }

      .cls-14 {
        fill: #9b574c;
      }

      .cls-35 {
        clip-path: url(#clippath-1);
      }

      .cls-15 {
        fill: #894a3f;
      }

      .cls-16 {
        fill: #f9f5f2;
      }

      .cls-17 {
        fill: #e5ab5e;
      }

      .cls-18 {
        fill: #dd816c;
      }

      .cls-19 {
        fill: #fbe1d2;
      }

      .cls-20 {
        fill: #d56037;
      }

      .cls-21 {
        fill: #6f7889;
      }

      .cls-22 {
        fill: #2f3335;
      }

      .cls-23 {
        fill: #f6bf6d;
      }

      .cls-36 {
        clip-path: url(#clippath);
      }

      .cls-24 {
        fill: #57657c;
      }

      .cls-25 {
        fill: #424649;
      }

      .cls-26 {
        fill: #d2915b;
      }

      .cls-27 {
        fill: #fff;
      }

      .cls-28 {
        fill: #a86556;
      }

      .cls-29 {
        fill: #c1512f;
      }

      .cls-30 {
        fill: #eab7a0;
      }

      .cls-31 {
        fill: #7f3d36;
      }

      .cls-32 {
        fill: #f6a383;
      }

      .cls-33 {
        fill: #914a47;
      }

      .cls-34 {
        fill: #8693a5;
      }
    </style>
    <clipPath id="clippath">
      <rect class="cls-12" x="32.8" y="16.5" width="465.1" height="464.5"/>
    </clipPath>
    <clipPath id="clippath-1">
      <rect class="cls-12" x="32.8" y="39" width="465.1" height="366.4"/>
    </clipPath>
  </defs>
  <g class="cls-36">
    <path class="cls-16" d="M394.5,455.5c2.9-.8,5.7-1.7,8.5-2.6,27.5-8.5,56.2-19.9,72.2-42.9,21.8-31.3,21.4-75.1,22-111.2.5-33.1.1-66.2-1.3-99.2-.5-12.5,1.9-24.9,1.2-37-.8-14.7-8.9-30.4-16.1-43.1-14-25-33.6-47.1-56.8-64.6-26.1-19.7-51.5-29.6-84.3-33.6-84.8-10.5-189.5-3.9-257.5,50.9-43.3,34.9-48.2,87.2-46.3,138,1,27.2,0,53.9-1.6,81.3-.6,10.5-1.2,20.9-.7,31.4,3.3,72.2,60.5,137.3,136.8,147.1,14.8,1.9,28.1,3.8,43.3,4.4,14.7.5,29,5.1,43.7,6.1,11,.7,22-.6,32.9-2.2,35.2-5,69.9-12.6,103.9-22.6Z"/>
  </g>
  <g class="cls-35">
    <path class="cls-10" d="M149.4,75.7c17.4-2.6,34.7-5.5,52.2-7.3,32-3.3,64.3-3.2,96.5-4.4,39.6-1.4,79-4.9,118.2-10.4,19.1-2.4,36.8-11.2,55.8-12.5,3.5-.2,7.1-.3,10.4,1.1,15.1,6.3,14.1,16.3,13.8,30.4-.8,29,1.7,58.2,1.2,87-1,57.5-4.8,115.4-3.6,172.6.4,17.3.4,35.8-8.7,50.4-4.8,7.6-13.6,15.7-21.9,19.1-9.9,4-23.9-.7-33.9-2.4-26.2-4.3-52.3-10.1-76.7-20.9-14.9-6.6-29.1-15-44.5-20-11.9-3.9-24.3-5.7-36.5-8.5-53.8-12.2-102.3-42.2-155.5-57.1-16.7-4.7-33.8-7.9-50.2-13.5-8.7-3-17.6-7-23.2-14.6-6.2-8.4-7.3-19.6-7.8-30.2-1.1-20.7-1.3-41.4-.7-62.1.4-13.4-3.1-67.8,5.8-78.7,8.6-10.4,34-7.9,46-9.4,21.2-2.6,42.4-5.5,63.5-8.7Z"/>
  </g>
  <path class="cls-16" d="M147.3,79.8c17.1-2.5,34.2-5.2,51.4-7,31.6-3.2,63.3-3,95-4.1,39-1.4,77.8-4.7,116.5-9.9,28-3.8,76.8-23.8,75.2,21.3-2.3,61.6-1.8,123.4-2.7,185-.1,8.6-.3,17.3-.4,25.9-.4,26.2,3.5,63.5-9.3,87.3-10.5,19.6-32,13.8-50.1,10.9-25.8-4.1-51.5-9.6-75.6-19.9-14.7-6.3-28.7-14.3-43.9-19.1-11.7-3.7-23.9-5.4-35.9-8.1-53-11.6-100.8-40.2-153.1-54.4-16.4-4.5-33.3-7.5-49.5-12.9-6.9-2.3-15.2-5.3-20.2-10.9-4.6-5.1-5.3-12.6-5.4-19.2-.2-12.7.6-25.3.4-38-.4-18.2-2.7-36.2-3.4-54.4-.7-18.1.5-36.7,7-53.6,5.4-14.1,29.4-9.1,41.4-10.6,20.9-2.5,41.7-5.2,62.5-8.3Z"/>
  <path class="cls-8" d="M153.8,87.9c16.3-2.4,32.6-4.9,48.9-6.5,30-3,60.2-2.8,90.4-3.9,37-1.3,74-4.4,110.8-9.2,18-2.4,37.9-11.2,56.3-6.7,26.1,6.4,18,48.6,16,67.5-5.7,54.1-4,108.6-4.3,163,0,13.5-.3,26.9-.7,40.3-.3,10.4,1.1,22.7-4.1,32-11.7,21-30.7,17.1-51,13.9-24.5-3.8-49-9-71.9-18.6-14-5.9-27.2-13.3-41.7-17.8-11.2-3.5-22.8-5.1-34.2-7.6-50.4-10.8-95.9-37.6-145.7-50.8-15.7-4.2-31.7-7-47.1-12-8.2-2.7-16.5-6.3-21.7-13-5.8-7.5-6.8-17.5-7.3-26.8-1-18.4-1.3-36.8-.7-55.2.4-12-2.9-62.9,5.4-72.6,8-9.3,31.9-7,43.1-8.3,19.9-2.3,39.7-4.9,59.4-7.7Z"/>
  <path class="cls-10" d="M229.9,116.9c-5.7-5.1-13.3-7.4-20.7-4.8-11,3.8-12.3,13.5-10.6,23.9.6,4,2.4,7.9,5.5,10.3,1.5,1.2,3.3,2,5.2,2.6,7.3,2.3,16,.6,21.5-4.8,5.5-5.4,7.4-14.6,3.8-21.4-1.2-2.2-2.9-4.2-4.8-5.8Z"/>
  <path class="cls-10" d="M198.9,126.5c-.6-8.1-1.2-16.1-1.8-24.1,6.8,1.3,12.8,5.9,16,12.1.7,1.4,1.3,3.2.6,4.6-.4.8-1.2,1.3-2,1.8-3.7,2.2-7.6,3.8-11.8,4.8l-1,.8Z"/>
  <path class="cls-10" d="M221.5,117.8c3.2-5.3,6.7-10.9,11.9-14.3.7-.4,1.5-.8,2.2-.5.7.4.9,1.4.9,2.3.2,6,.4,11.9.5,17.9,0,1.7-.2,3.9-1.7,4.6-.7.3-1.5.2-2.2,0-5.2-1-9.9-4.6-12.4-9.4l.8-.6Z"/>
  <path class="cls-10" d="M196.9,156.3c-1.5,5.7-2.5,11.6-3.1,17.5-.4,4-.6,8.2,1.5,11.6,2.5,4.2,7.7,5.9,12.4,6.7,6.2,1.1,11.9,3.2,18,4.5,5.1,1,11.4.9,14.3-3.5,1.6-2.4,1.7-5.5,1.7-8.4,0-2.3,0-4.9-1.5-6.7-.5-.7-1.3-1.2-1.7-1.9-1.4-2.2-1.3-8.5-1.7-11.4-.7-5.2-1-10.2-3.9-14.8-1.7-2.7-4-5-6.7-6.6-4.7-2.8-10.4-3.7-15.9-3.3-8.3.6-11.6,9.2-13.4,16.3Z"/>
  <path class="cls-10" d="M302.3,139c-1.4-5.6-1.1-15.1-8.6-12.7-3.9,1.3-6.8,6.2-9.7,8.8-1.4,1.3-2.9,2.7-4.6,3.6-1.8,1-3.7,1.5-5.7,2.1-4,1.3-7.9,2.9-11.7,4.9-4.1,2.2-8.6,5.6-4.7,10.3,3.5,4.4,8.7,7.1,14.1,8.6,4.8,1.4,10.4.4,14.6,3.6,4.6,3.5,2.5,11.2,3,16.2,1.8,17.7,20.6,15.9,33.7,17.4,5.6.6,11.2,1.4,16.8,1.7,3.2.2,6.8.2,9.4-1.8,7.4-5.8,4-25.8-.8-32.3-6.5-8.6-18.1-12.4-28.5-11.7-4,.3-9.5,1.1-12.1-2.9-2-3-3.2-10-4.4-13.6-.2-.4-.4-1.3-.7-2.4Z"/>
  <path class="cls-10" d="M268,249.8c-.5-1-.9-2-1.2-3.1-.6-1.8-1-3.7-2.1-5.2-.6-.8-1.3-1.4-2.1-2-5.1-3.8-13.3-7.4-19.8-5.2-6.9,2.3-7.9,10.1-13,14.1-4.5,3.5-13.2,2.8-12.1,10.9.4,2.8,2.1,5.3,4.3,7.2,3.6,3.1,9.4,2.4,12.6,5.3,3.5,3.3,2.5,11.3,2.4,15.6-.1,3.6-1.1,35.1,8.9,28.8,2-1.3,2.8-3.9,3.4-6.2l3.5-13.8c.3-1,.5-2.1,1.3-2.8.8-.7,2.1-.8,2.7,0,.2.3.3.7.3,1,.8,5.2,1,10.6.4,15.9-.3,3.3-.8,7,1.4,9.5,2.6,3,8,1.9,10.1-1.5,1.7-2.7,1.7-6,1.6-9.2,0-3.2,0-6.5,1.6-9.2,1.7-2.7,5.7-4.1,8-2,1.4,1.3,1.7,3.4,1.9,5.3.3,4.2.2,8.6,1.4,12.6,4.3,14.1,16.2,5.4,19.2-4.2,2.7-8.7,1.8-20-2.3-28.2-5.7-11.3-18.2-13.5-25.2-23-2.6-3.5-5.3-7-7.1-11Z"/>
  <path class="cls-10" d="M204.8,223.4c-8.7-2.2-15.5-1.6-21.2,5.8-5.1,6.6-9.1,13.9-6.6,22.9,0,.3.2.6.4.8.3.2.7.2,1.1,0,1.8-.4,3.5-.8,5.3-1,1.9,9.1-4.8,19-8,26.9-5.2,12.6,0,24.5,10.4,31.1,7.7,4.8,26.7,10.2,33.2.8,1.4-2.1,2.1-4.7,2.5-7.3,1.7-10.2,1-20.9-2.1-30.7-.9-2.8-4.5-9.6-3-12.5.7-1.4,2.2-2.2,3.6-1.9,1.3.3,2.5,1.3,3.8,1.4,1.5,0,2.7-1.3,3.2-2.9s.3-3.2,0-4.9c-2.2-12.5-10.8-25.5-22.5-28.4Z"/>
  <path class="cls-10" d="M400.3,128.6c-1.2.3-2.6-.3-3.9-.3-2.9,0-5.3,3-4.7,5.9-2.3-1.1-5.3,0-6.9,2.2-1.6,2.1-2.3,4.7-2.9,7.3-.3,1.1-.5,2.3,0,3.3.3.6.8,1.2.8,1.9,0,1-.7,1.7-1.3,2.5-1.9,2.7-.6,7,2.4,8.2-1.9.6-2.8,3-2.4,5,.3,2,1.5,3.7,2.7,5.3.9,1.2,1.8,2.4,2.6,3.7,2,2.8,5.6,6.3,6.9,9.4,1.5,3.6.3,7.8.7,11.6,1.8,17.7,20.5,15.9,33.7,17.4,5.6.6,11.2,1.4,16.8,1.7,3.2.2,6.8.2,9.4-1.8,7.4-5.8,4-25.8-.8-32.3-4.2-5.5-12.8-7-14.6-13.4,4.5,1.7,10,0,12.7-4-1.2-.7-2.4-1.3-3.6-1.9,2-.5,3.7-1.7,5-3.3-1.5-1.5-3.4-2.8-5.3-3.7,1.2-1.4,2.5-2.8,3.7-4.2-2.9.4-5-2.9-4.9-5.8,0-2.9,1.5-5.6,2.2-8.5s.2-6.5-2.4-7.8c-2-1-4.5-.2-6.5-1.2-2.8-1.3-4-5.5-7.1-5.5s-2.8,1.1-4.3,1.2c-2.2.1-4.3-1.9-6.3-1.1-1.3.5-1.9,1.9-3,2.8-4.2,3.7-12.5-1.9-15.8,2.7-.6.8-.9,1.9-1.8,2.5-.3.1-.5.3-.8.3Z"/>
  <path class="cls-10" d="M471.1,214.5l-307-27.6c.3,2.3.5,4.6.8,7l304.5,31.8,1.7-11.1Z"/>
  <path class="cls-16" d="M471.1,214.1c-15.5.6-31.5-2.1-47-3.5-29.2-2.6-58.5-5.3-87.7-7.9-35.3-3.2-70.6-6.4-106-9.6-33.3-3-66.7-6-100-9-23.3-2.1-46.5-4.2-69.8-6.3-.9,0-17.9-1.4-17.9-1.6v5.1c11.3,1.2,22.7,2.4,34.1,3.5,28.1,2.9,56.2,5.9,84.3,8.8,36,3.7,71.9,7.5,107.9,11.3,34.9,3.7,69.9,7.3,104.8,10.9,25,2.6,50,5.2,75.1,7.9,3.5.4,7,.7,10.4,1.1,5.4.6,15.6,4.7,17.3-2.8.5-2.2,0-4.5-.5-6.8,0-.5-.2-1-.6-1.2-.3-.2-.7-.2-1.1-.2-1,0-2.1.1-3.1.2Z"/>
  <path class="cls-10" d="M98.6,202.9c-.1-.6-.3-1.1-.6-1.7h-.1c-1-1.4-2.7-2.5-4.1-3.8-1.8-1.7-3.1-3.7-4.7-5.5-2.9-3.1-8.5-4.5-10,0-.9,0-1.7,0-2.6,0-2,0-4.9,0-6.7,1.1-.1,0-.3.2-.4.3-4.2-1.5-11.5-1.4-13.6,3.1-1.2,2.6-.3,5.7-1,8.5-.8,3-3.2,4.8-4.7,7.3-1.5,2.6.3,4.6,2.8,5.9,1.5.7,3.3,1.1,4.7.2,1.3-.8,1.9-2.4,2.4-3.9.4-1,.7-2,1-3.1.3-.9.7-1.6,1.1-2.2,0,.3,0,.6,0,1,.1,1,.3,2,.5,3,1.8,7.5,5.7,14.3,3.7,22.2-1.4,5.3-4.2,10-6.2,15-2,4.9-3.2,10.6-1.1,15.5,1.6,3.7,4.9,6.4,8.5,8.1,3.6,1.7,7.5,2.4,11.4,3.1,1.7.3,3.4.6,5.1,1,3.8.7,8,1.4,11.2-.8,2.5-1.6,3.8-4.6,4.4-7.6.5-3,.3-6,.4-9,.1-4.9.9-10-1-14.6-.8-2-2.2-3.8-3.3-5.7-1.7-2.7-3.7-6.1-4.2-9.4-.6-3.8,0-3.7,2.2-7.2,3.1-5.1-5.3-11-3.4-13.6,2.3-3.2,10,1.1,8.3-7.3Z"/>
  <path class="cls-16" d="M293.5,74.4c.4.4.5.8,1,1.2,1.6,1.1,0,40.7,0,42.6v48c0,21,0,42.1,0,63.1s-.2,17.8.6,26.6c1.2,11.9-1.5,23.3-1.2,35.3,0,2,.2,4.1,0,6.1-.7,6.1-1.6,9.5-.4,15.4,1.2,6,1,12.2,1.2,18.3.2,5.8-1.4,13.7,4.8,17,3.5,1.8,8.5,2.4,8.6-2.9.7-60.4-1.4-120.8-1.4-181.2s-.7-15.4.1-23.3c.8-7.4,1.6-14.9,1.6-22.3s.9-38.2,1.2-45.2c-5.4-.7-10.8-.4-16.1,1.4Z"/>
  <path class="cls-16" d="M334.3,73.4c.2.4.4.8.7,1.2.8,1.1.1,41.6.1,43.6v50.4c0,11.6-3.4,24.7-.2,36.1,1.9,6.9,6.1,6.7,6-1-.1-12.5-.1-25-.1-37.5s-.4-16.2,0-24.5c.4-7.8.8-15.6.8-23.5,0-7.6.5-38.9.6-46.3-2.7-.8-5.3-.5-7.9,1.4Z"/>
  <path class="cls-16" d="M240.7,74.9c.2.4.3.8.6,1.1.7,1,0,39.6,0,41.4v44.9c0,19.7,0,39.4,0,59.1s-.1,16.7.3,24.9c.5,11.1-.7,21.8-.6,33.1,0,1.9,0,3.8,0,5.7-.3,5.7-.8,8.9-.2,14.4.6,5.6.5,11.4.6,17.2,0,5.4-.7,12.8,2.2,15.9,1.6,1.7,4,2.2,4-2.7.3-56.6-.7-113.1-.7-169.7s-.3-14.4,0-21.9c.4-6.9.8-13.9.8-20.9s.4-37.3.5-43.9c-2.6-.7-5.1-.4-7.5,1.2Z"/>
  <path class="cls-16" d="M210.4,77c.2.3.3.7.5,1,.7,1,0,38.8,0,40.5v42.6c0,18.6,0,37.3,0,56s-.1,15.8.3,23.6c.5,10.5-.7,20.6-.6,31.4,0,1.8,0,3.6,0,5.4-.3,5.4-.8,8.4-.2,13.7.6,5.3.5,10.8.6,16.3,0,5.1-.7,12.2,2.2,15.1,1.6,1.7,4,2.1,4-2.6.3-53.6-.7-107.1-.7-160.7s-.3-13.7,0-20.7c.4-6.6.8-13.2.8-19.8s.4-36.5.5-42.8c-2.5-.6-5-.4-7.5,1.2Z"/>
  <path class="cls-16" d="M185.8,77.4c.2.3.6.7.8,1,.7.9.3,38.1.3,39.7v40.7c0,17.8-.3,35.7-.3,53.5s-.3,15.1.1,22.6c.5,10.1-.8,19.7-.7,30,0,1.7,0,3.5,0,5.2-.3,5.2-.8,8.1-.2,13.1.6,5.1.5,10.3.6,15.6,0,4.9-.7,11.6,2.2,14.4,1.6,1.6,4,2,4-2.4.3-51.2-.7-102.5-.7-153.7s-.3-13.1,0-19.8c.4-6.3.8-12.6.8-18.9s.4-36,.5-42c-2.5-.6-5-.4-7.5,1.1Z"/>
  <path class="cls-16" d="M270.8,77.6c.2.4.4.8.7,1.1.7,1,.2,39.9.2,41.7v45.7c0,20-.2,40-.2,60s-.2,16.9.2,25.3c.6,11.3-.8,22.1-.6,33.6,0,1.9,0,3.9,0,5.8-.3,5.8-.8,9-.2,14.6.6,5.7.5,11.6.6,17.4,0,5.5-.7,13,2.2,16.2,1.6,1.8,4,2.2,4-2.7.3-57.5-.7-114.9-.7-172.4s-.3-14.7,0-22.2c.4-7.1.8-14.1.8-21.3s.4-37.5.5-44.2c-2.5-.7-5-.4-7.5,1.3Z"/>
  <path class="cls-16" d="M129.3,87.3c.2.3.5.6.8.8.8.8.2,12.3.2,13.7v58.2c0,15.1-.2,30.3-.2,45.4s-.3,12.8.2,19.2c.6,8.6-.8,16.7-.7,25.5,0,1.5,0,2.9,0,4.4-.3,4.4-.8,6.8-.2,11.1.6,4.3.5,8.8.6,13.2,0,4.2-.7,9.9,2.4,12.2,1.8,1.3,4.4,1.7,4.4-2.1.3-43.5-.7-87-.7-130.4s-.4-11.1,0-16.8c.4-5.3.8-34.4.8-39.7s.5-10.5.6-15.6c-2.8-.5-5.6-.3-8.3,1Z"/>
  <path class="cls-16" d="M102.6,93.9c.2.3.4.5.7.8.8.7,0,35,0,36.3v32c0,14,0,28.1,0,42.1s-.2,11.9.3,17.8c.6,7.9-.8,15.5-.7,23.6,0,1.4,0,2.7,0,4.1-.3,4.1-.8,6.3-.2,10.3.6,4,.5,8.1.6,12.2,0,3.9-.7,9.2,2.5,11.3,1.8,1.2,4.4,1.6,4.4-1.9.3-40.3-.7-80.6-.7-120.8s-.4-10.3,0-15.6c.4-4.9.8-9.9.8-14.9s.5-33.4.6-38c-2.8-.5-5.6-.3-8.3.9Z"/>
  <path class="cls-16" d="M78.3,93.8c.2.2.2.5.5.8.8.7,0,11,0,12.2v54.6c0,13.5,0,27.1,0,40.7s0,11.5.3,17.1c.6,7.6-.8,15-.6,22.8,0,1.3,0,2.6,0,3.9-.3,3.9-.8,6.1-.2,9.9.6,3.9.5,7.9.6,11.8,0,3.7-.7,8.8,2.5,10.9,1.8,1.2,4.4,1.5,4.4-1.9.3-38.9-.7-77.8-.7-116.7s-.4-9.9,0-15.1c.4-4.8.8-9.6.8-14.4s.5-33,.6-37.6c-2.8-.4-5.6-.3-8.3.9Z"/>
  <path class="cls-16" d="M57,98.2c.1.2.6.5.8.7.6.6.4,10,.4,11.1v51.8c0,12.4-.4,24.7-.4,37.1s-.3,10.5,0,15.6c.5,7-.7,13.7-.6,20.7,0,1.2,0,2.4,0,3.6-.3,3.6-.7,5.6-.2,9,.5,3.5.4,7.2.5,10.8,0,3.4-.6,8.1,1.9,10,1.4,1.1,3.4,1.4,3.5-1.7.3-35.5-.6-71-.6-106.4s-.3-9.1,0-13.7c.3-4.4.7-32.4.7-36.8s.4-8.6.5-12.7c-2.2-.4-4.3-.2-6.4.8Z"/>
  <path class="cls-16" d="M369.8,71.3c.2.4.1.9.4,1.3.8,1.2-.1,42.7-.1,44.8v53.5c0,11.7-2.6,24.1-.5,35.8,1.1,6.4,6.1,10.6,6.8,1.6,1-13.1-.1-26.7-.1-39.9s-.4-17.2,0-26c.4-8.3.8-16.6.8-24.9,0-8.1.5-39.9.6-47.7-2.7-.8-5.3-.5-7.9,1.5Z"/>
  <path class="cls-16" d="M446.4,59.3c.2.5.2,1,.5,1.4.8,1.3,0,20.9,0,23.2v82.4c0,9.7,0,19.5,0,29.2,0,4.6-2.8,23.7,2.1,25.6,6.9,2.7,4.1-20.4,4.1-24.3,0-11,0-22.1,0-33.2s-.4-18.9,0-28.6c.4-9.1.8-41.8.8-51,0-8.9.5-17.8.6-26.4-2.7-.9-5.3-.6-7.9,1.6Z"/>
  <path class="cls-16" d="M409,63.1c.2.4.3,1,.5,1.4.8,1.3,0,43.9,0,46.2v57c0,6.5-3.6,46.6,2.2,48.3,6.8,2,3.8-16.8,3.8-20.9,0-10,0-20,0-29.9s-.4-18.3,0-27.7c.4-8.8.8-17.7.8-26.5,0-8.7.5-40.9.6-49.3-2.7-.9-5.3-.5-7.9,1.6Z"/>
  <path class="cls-16" d="M171.7,300.7c.4-32.3,0-64.6-.6-96.8-.4-31.4-2.5-87.1.4-118.3,0-.5,0-1.1-.2-1.5-.4-.6-1.1-.7-1.8-.7-2.4-.2-4.8-.4-7.2-.7-.6,0-1.2-.1-1.7.2-.6.4-.8,1.3-.9,2.1-3.6,24.8-1.4,74.7-1.4,99.9,0,8.8-.3,17.8.6,26.6,1.2,11.9-1.5,23.3-1.2,35.3,0,2,.1,4.1,0,6.1-.7,6.1-1.6,9.5-.4,15.4,1.2,6,1,12.2,1.2,18.3.2,5.8-1.4,13.7,4.8,17,3.4,1.9,8.5,2.4,8.6-2.8Z"/>
  <path class="cls-16" d="M42.6,121.6l231.9-8.3,187.5-7.4,19.1-1.9v10.3l-85.9,3-216.9,5.3-108.2,3.1-28.7.7,1.1-4.7Z"/>
  <path class="cls-16" d="M42.6,243.9l33,9.6,121.2,29.7c12.5,3.3,25.1,6.7,37.6,10,13.1,3.5,26.2,6.9,39.2,10.4,7.5,2,15,4,22.5,6,3.6,1,5.8,2.7,8.2-.2,1.4-1.8,1.7-3.7.1-5.5-1.4-1.7-5-1.8-7-2.3-3.4-.8-6.8-1.6-10.2-2.5-8.6-2.1-17.2-4.2-25.7-6.2-46.9-11.4-93.9-22.7-140.8-34-26.7-6.5-53.5-12.9-80.2-19.4l2.2,4.4Z"/>
  <path class="cls-16" d="M471.5,153.5c-2.3.4-4.6,1-7.1,1-3.8,0-7.7.1-11.5.2-5.2,0-10.4.3-15.6.2l-245.6-5.5-129.6-.7-21.2-1.4v6l33.2,1.2,245,5.9c29.3,1.1,58.7,2.2,88.1,3.2,10.6.4,21.3.8,31.9,1.2,9.9.4,20.7-.7,30.4.4,2.3.3,4.7.7,6.9,0,.4-.1.8-.3.9-.7.1-.2.1-.5.1-.8.1-3,.1-6-.1-9,0-.5,0-.9-.4-1.2-.3-.4-.9-.4-1.3-.4-1.4,0-2.8.2-4.2.5Z"/>
  <path class="cls-16" d="M304.2,269.8c0-.4,0-.9-.2-1.5-2-7.4-29.6-7.7-36.6-8.8-12.1-2-24.2-3.9-36.3-5.9-11.7-1.9-23.5-3.7-35.2-5.7l-113.6-19.8-40.8-5.2.5,4.3,29.4,3.8,215.4,39.4c3.4.6,17.1,4.8,17.4-.6Z"/>
  <path class="cls-28" d="M374.6,248.6c.6-.1,1.2-.3,1.8-.4,2.9-.6,6-.9,8.9-1.5,4.7-.9,12-7.3,12.1-.3,0,2.9-.3,10.2-.2,13.1,0,.5,0,1,.3,1.4.3.5.9.8,1.3,1.1,1.2.9,1.6,2.6,2,4,.9,2.7,3.3,3.8,4.9,6,.3.4.6.9.5,1.3,0,.5-.6.9-.7,1.4-.2.7.5,1.4,1,1.9,2.5,2,7.6,4.9,8.9,7.7.2.4-.3.9-.2,1.4.3.9.8,1.6,1.3,2.4,1.1,1.5,2.4,2.8,3.9,3.9.6.4,1.2.8,1.5,1.4.3.6.2,1.6-.5,1.8,1.1-.5,4.7,4.6,5.4,5.3,2,1.9,4.4,3.6,6.5,5.6.7.6,1.3,1.3,1.4,2.2,0,.7-.3,1.3-.3,2,0,.6.4,1.2.7,1.7,2,3.3,3.3,7.2,5.1,10.7.6,1.1,1.2,2.5.7,3.6-.4-.5-1.3,0-1.4.5-.2.6.1,1.2.3,1.8.3.7.5,1.4.6,2.1,0,.2,0,.3,0,.4-.2.4-.7.1-1.1.2-1.1,0-.7,6.2-.8,7.2,0,1-.3,2.2-1.1,2.7-1.9,1.1-2,.2-3.1,2.5-2.7,6-6,8.2-12.6,8.1-.8,0-1.6,0-2.3-.4-.3-.1-.6-.3-.9-.4-.8-.2-1.8.3-2.1,1.1-.5-1-3.6-6.7-4.4-6.9-2.2-.6-3.3,4.3-4.1,4.7-.4.3-.8.5-1.2.7-.7,1.5,1,3.5,0,4.9-.3.4-.8.6-1.3.8-2.6,1.1-5.2,2.2-7.9,3-3.2,1-7,2.8-10.4,2-3.1-.8-3.4-3.1-1-5.3,1.2-1,3.9-2.6,4.4-4.1.7-2.2-1.5-2.7-2.7-4.5-.5.6-1.5,1.1-2,.2-.2-.4-.2-.8-.5-1.2-.5-.6-1.6-.4-2.1-1-.2-.2-.3-.5-.6-.6-.3,0-.6,0-.9,0-.6,0-1.2-.4-1.4-.9-.3-.5-.4-1.1-.4-1.7-.5.8-1.5,1.2-2.4,1.1-.2-1.2-.5-2.5-.7-3.7-.2.4-.9.4-1.3,0-.3-.4-.4-.9-.5-1.4-.2-1.7-.4-3.4-.6-5.2-.9,1.1-1.3,2.5-1.2,4,0,.7.3,1.5,0,2.1-.1.4-.4.7-.6,1-.9,1.8-1,3.6-1.1,5.6,0,1.2-.4,2.5-1.3,3.1-.3.2-.6.3-.8.5-.2.2-.3.5-.4.8-.1.3-.2.7-.3,1-1.2,3.7-2.1,5.7-6.4,7.1-3.5,1.1-7.3,1.3-10.9.7-3.2-.6-5.3-2.4-3.1-5.3.9-1.2,2.7-1.5,3.8-2.6,1.5-1.4,2.5-2.7,4.6-3.3,0-.4,0-.8,0-1.1-.9-.2-1.7-.7-2.2-1.4,1.9-1.9,3.6-4.1,4.9-6.5-.9-.2-2-.6-2.1-1.5,0-.4,0-.7.1-1,1-3.1,1.8-6.3,2.5-9.5.4-2,1.6-5.3,1.1-7.3-.2-.8-.6-1.5-.7-2.2-.4-2.2,1-4.3,1.1-6.6,0-.4,0-.9-.2-1.2-.2-.4-.7-.6-1.1-.4,0-2.8.1-5.5.7-8.2.3-1.5,1-3.2.8-4.8-.1-1.4-1-1.9,0-3.4.5-.7,1.1-1.4,1.2-2.3,0-.9-.8-1.9-1.6-1.5-.4-1,.2-2.2.9-3,.7-.9,1.5-1.7,1.7-2.8s-.9-2.4-1.9-2c.9-1.8,1.9-3.6,2.8-5.4.2-.4.4-.9.3-1.3-.2-.5-.9-.7-1.1-.2-.6-2.4,2.4-3.7,2.8-5.7.1-.7,0-1.6,0-2.3,0-.7,0-2.1-.2-2.7-.1-.3-.4-.6-.4-1,0-.5.2-.9.3-1.3.3-.8,0-1.7-.3-2.5-.3-.6-.8-1.5-1.3-1.9-.1,0-1.4,0-1.3-.3.9-1.9,1.6-3.9,2.1-6,0-.1,0-.3.1-.4.2-.3.6-.3.9-.3,2.7,0,5.2-.5,7.8-1.1Z"/>
  <path class="cls-28" d="M385.2,362.5c1,.9,2.4,1.5,3.6,2.1.9.5,2,.4,3.1.3,2-.2,4.1-.4,5.9-1.2,1.8-.8,3.5-2.4,3.8-4.3.4-2.3-.9-4.6-.7-6.9.1-1.2.6-2.3,1-3.3,4.9-12.1,2.9-26.2-2.3-38.2-1.5-3.6-3.4-7.2-6.5-9.5-.9-.7-2-1.2-3-.8-1.3.5-1.6,2.3-1.5,3.7,0,6.8,0,13.7,0,20.5,0,6.6,1.3,13,1.5,19.6,0,2.6,0,5.5-1.8,7.4-.6.6-1.3,1.1-1.9,1.7-.6.6-.9,1.4-1.3,2.2-.7,1.4-1.3,2.8-1.3,4.3,0,1.1.5,1.9,1.1,2.5Z"/>
  <path class="cls-28" d="M423.3,349.8c1.7.2,3.5,1.3,3.5,3,0,.7-.3,1.3-.5,1.9-.7,1.6-1.5,3.3-2.2,5-.3.6-.5,1.1-.5,1.7,0,1.1,1,2,2.1,2.5,3.5,1.6,7.6.4,11.2-.9,1.1-.4,2.2-.8,2.9-1.6.8-.8,1.1-2.2.5-3.1-.4-.6-1.2-.9-1.6-1.5-.5-.6-.5-1.4-.5-2.2v-10c0-.9,0-1.7-.3-2.5-.8-1.9-3.1-2.6-4.3-4.2-.7-1-1-2.2-1.3-3.4-1.5-5.5-4.6-10.5-8.9-14.3-1.8-1.6-4.4-3.1-6.6-2-1.1.6-1.8,1.7-2.4,2.8-3.5,6.8-2.9,13.4-1.9,20.7,1,7.5,3.9,7.3,10.9,8.1Z"/>
  <path class="cls-28" d="M439.5,319.8c1.3,2.5,1.5,5.7,1.9,8.5.4,2.8,1.2,5.2,2.1,8,1.2,3.5,2.8,7.4,6.3,8.6,3.6,1.2,7.5-1.2,11.3-.6,2.2.3,4.1,1.6,5.8,3.1,1.8,1.6,3.4,4.5,1.7,6.2-1.2,1.2-3.3.8-5,.7-3.5-.3-6.9,1-10.3,1.6-3.5.7-7.3.7-10-1.6-1.2-1-2-2.4-2.8-3.8-1-1.8-2.1-3.6-3.1-5.4-3.9-6.8-8-14.1-8.2-21.9,0-2.3.2-4.8,1.6-6.7,3.6-5.3,7-.3,8.9,3.4Z"/>
  <path class="cls-33" d="M355.2,350.7c-.3,0-.5-.2-.5-.4,0-.3.1-.6.4-.7,2.8-.8,5.9-.9,8.8-.2.3,0,.5.4.4.7,0,.3-.4.5-.7.4-2.7-.6-5.5-.5-8.2.2,0,0-.1,0-.2,0Z"/>
  <path class="cls-33" d="M390.5,348.1c0,0-.2,0-.2,0-.3-.1-.4-.5-.3-.7.8-1.9,1-3.3.7-5,0-.2,0-.5-.1-.7-.3-1.6-.5-3.2.2-4.9,0-.1.1-.3.2-.4.6-1.2.8-1.8.3-2.1-.1,0-.2-.1-.4-.2-.2,0-.4-.2-.6-.3-1.2-.8-.7-2.2-.3-3.2.4-1,.6-1.6.2-2,0-.1-.2-.2-.4-.3-.2-.1-.5-.3-.7-.5-.6-.7-.4-1.6-.3-2l.7-3.5c-.5-.4-.9-.9-1.3-1.5-.2-.3,0-.6.2-.8.3-.1.6,0,.8.2.3.6.7,1,1.2,1.3.2.1.3.4.3.6l-.8,3.9c0,.5-.1.9,0,1.1,0,0,.3.2.4.3.2.1.4.3.6.4,1,.9.5,2.2.1,3.2-.4,1.1-.5,1.6-.1,1.9.1,0,.2.1.4.2s.4.2.6.3c1.3.9.5,2.5,0,3.5,0,.2-.1.3-.2.4-.6,1.3-.4,2.8-.1,4.3,0,.2,0,.5,0,.7.3,1.9,0,3.5-.8,5.6,0,.3-.2.4-.5.4Z"/>
  <path class="cls-33" d="M412,345.9c-.2,0-.5-.1-.5-.4-.5-1.5-.9-3-1.8-4.2-.2-.3-.1-.6.1-.8.2-.2.6-.1.8.1,1,1.4,1.5,3,1.9,4.5.1.3,0,.6-.4.7,0,0-.1,0-.2,0Z"/>
  <path class="cls-33" d="M427.2,356.9c-.2,0-.4-.1-.5-.3-.1-.3,0-.6.3-.7,2.2-1,4.8-1.3,7.2-.9.3,0,.5.4.5.7,0,.3-.4.5-.7.5-2.2-.4-4.5-.1-6.5.8,0,0-.1,0-.2,0Z"/>
  <path class="cls-33" d="M438.2,347c-.3,0-.5-.1-.5-.4-.2-.6,0-1.2,0-1.8,0-.2,0-.4,0-.6.1-1.6-.8-2.7-1.7-3.9-.8-1-1.6-2-1.8-3.4-.2-.9.3-1.7.8-2.4.1-.2.2-.4.3-.5.2-.4.3-1,.1-1.3,0-.2-.2-.2-.2-.2-.3,0-.5-.3-.5-.6,0-.3.2-.5.5-.5.3,0,.6-.2.8-.4.2-.2.3-.5.3-.8,0-.5-.5-1-1-1.5l-1.7-1.7c-.2-.2-.2-.5,0-.7.1-.2.4-.3.7-.3,0,0,.2,0,.3,0,.2-.1.3-.4.2-.6,0-.4-.4-.8-1.1-1.3h-.3c-.6-.5-1.2-.9-1.6-1.5-.1-.2,0-.5,0-.7.1-.1.3-.2.4-.2,0,0,0-.1-.1-.2-.6-.8-1.6-1.3-2.6-1.2-.3,0-.6-.2-.6-.5,0-.2,0-.4.3-.5,0,0-.3-.1-.4-.2l-3.3-1.2c-.3,0-.4-.4-.3-.7.1-.3.4-.4.7-.3l3.3,1.2c.3,0,.8.3,1,.7,0,.1.1.3.1.5,1,.2,2.1.8,2.7,1.6,0,.1.5.6.4,1.2,0,.2,0,.4-.2.5.2.2.5.4.8.5l.3.2c.6.4,1.4,1,1.6,2,.1.6-.1,1.3-.6,1.7,0,0,0,0,0,0l1,1c.5.5,1.2,1.2,1.3,2.2,0,.6-.1,1.2-.5,1.6-.1.2-.3.3-.5.4,0,0,0,0,0,0,.3.7.2,1.7-.2,2.4,0,.2-.2.4-.4.6-.4.6-.7,1.1-.6,1.6.2,1.1.9,2,1.6,3,1,1.3,2,2.7,1.9,4.7v.7c-.1.5-.2,1-.1,1.4,0,.3,0,.6-.4.7,0,0-.1,0-.2,0Z"/>
  <path class="cls-33" d="M437.7,338.9s0,0-.1,0c-.3-.1-.5-.4-.4-.7.4-1.3.9-2.7,1.5-4,.1-.3.5-.4.7-.3.3.1.4.5.3.7-.6,1.2-1.1,2.5-1.5,3.8,0,.3-.3.4-.5.4Z"/>
  <path class="cls-28" d="M359.5,261.6c-1.5.3-3.1.4-4.6,0-1.4-.3-4.2-1.5-2-2.9,1.9-1.2,3.9-2.1,5.9-3,1.9-.9,3.9-1.8,5.9-2.7.9-.4,1.9-.9,2.9-1.1,2.8-.7,5.1-.1,6.5,2.4.8,1.6.8,3.5.4,5.2-.5,1.8-1.5,3.2-3.5,2.9-.1,0-.3,0-.4-.2,0,0,0-.2-.1-.3,0-.6-.2-1.2-.5-1.7-1.4-2.2-5.1-.2-7,.4-1.2.3-2.3.7-3.5.9Z"/>
  <path class="cls-18" d="M349.5,265c0,.4.1.9.3,1.3,0,.3.2.6.4.8.4.4,1,.5,1.5.3.5-.2,1-.6,1.3-1,1.4-1.5,2.2-3.5,3.6-5.1,1.3-1.6,3.5-2.4,5-3.7.4-.4.8-.8.9-1.3.4-2.1-5.8-.8-6.9-.5-2.5.8-4.6,2.5-5.6,4.9-.6,1.3-.8,2.9-.5,4.4Z"/>
  <path class="cls-28" d="M394.3,232.7c-1.3-2.8-2.5-4.8-5.4-6.2-.5-.2-.9-.4-1.4-.7-4.1-2-10-.3-14.1.9-2.6.7-5.9,2.5-7.4,4.9-1.4,2.3-1.9,5.1-3.4,7.4-1.2,1.9-3.1,3.4-4.9,4.7-1.9,1.5-3.9,2.9-6,4.1-1.9,1.1-3.9,1.9-5.3,3.4-.1.2-.3.3-.4.5,0,.3,0,.5,0,.8.6,2.1,1.2,3.4,3,4.6,4.9,3.3,13,1.5,17.9-.9,1.5-.7,2.1-1,3.6-.4,1.4.7,2.8,1.4,4.4,1.9,3.9,1.1,8,.3,11.9-.7,4.1-1.1,6.6-4.4,8.5-8,1.5-2.9,1.2-6.3.5-9.4-.2-1.1-.4-2.2-.7-3.3-.1-.8-.3-1.5-.5-2.3,0-.5-.3-.9-.4-1.3Z"/>
  <path class="cls-28" d="M396.9,245.9c3.7.2,7.9-.7,9.3-3,.6-1-3.3-6.4-3.9-7.7-1.6-3.2-4.1-5.9-7.1-7.7-2-1.3-4.3-2.2-6.6-2.3-3.2-.1-6.4,1.3-8.4,3.8-1.3,1.7-3.7,6.7-1.2,8.3,1,.6,2.1.6,3.2.8,1.7.3,3.3,1.1,4.6,2.3,1.3,1.2,2.3,2.8,3.7,3.8,1.3,1,3.7,1.6,6.3,1.7Z"/>
  <path class="cls-33" d="M397,246.6c-2.7,0-5.3-1.3-6.8-3.5-.3-.4-.5-.8-.7-1.1-.4-.6-.7-1.1-1.1-1.6-.7-.8-1.7-1.3-3.2-1.8h-.2c-.8-.3-1.7-.6-2.3-1.3-.9-1-.9-2.6,0-4.5.1-.3.5-.4.7-.3.3.1.4.5.2.8-.3.7-1,2.3-.2,3.3.4.4,1.1.7,1.7.9h.2c1.7.6,2.8,1.3,3.7,2.2.5.5.9,1.2,1.2,1.8.2.4.4.7.7,1.1,1.4,1.9,3.7,3.1,6.1,3,.3,0,.6.2.6.5,0,.3-.2.6-.5.6,0,0-.2,0-.2,0Z"/>
  <path class="cls-33" d="M399,244c-1.5,0-3.1-.4-4.3-1.4-.3-.2-.3-.5-.1-.8.2-.2.5-.3.8,0,2,1.5,4.9,1.6,6.9.2.3-.2.6-.1.8.1s0,.6-.1.8c-1.2.8-2.6,1.1-4,1.1Z"/>
  <path class="cls-33" d="M355.3,250.9c-.2,0-.4-.1-.5-.3-.1-.3,0-.6.2-.8,2.4-1.3,4.8-2.8,7.1-4.3,1.2-.8,2.3-1.6,3.1-2.6.7-.8,1.1-1.9,1.6-2.8.1-.3.3-.6.4-.9.7-1.6,1.4-3.3,2.5-4.9,1-1.5,2.8-3.4,5.3-4,.3,0,.6,0,.7.4,0,.3,0,.6-.4.7-1.7.4-3.3,1.7-4.6,3.5-1,1.4-1.7,3.1-2.4,4.7-.1.3-.3.6-.4.9-.5,1-1,2.1-1.7,3-.9,1.2-2.1,2-3.3,2.8-2.3,1.5-4.7,3-7.1,4.4,0,0-.2.1-.3.1Z"/>
  <path class="cls-25" d="M374.7,239.4c0-1.9-4.9-.7-2.5,1.5.6.6,1.6.7,2.3-.5.2-.4.3-.7.3-.9Z"/>
  <path class="cls-25" d="M345.7,255.2c-1.1-1.2-.8-2.6.2-3.8,1-1.2,3-.8,4.4-.6.4,0,.8.2,1.1.4.5.4.4,1.2.3,1.8-.7,2.8-3.6,4.8-6,2.2Z"/>
  <path class="cls-33" d="M350.2,357.8c0,0-.2,0-.3,0-.2-.1-.5-.4-.5-.7-.1-.5.1-1.1.4-1.5,1-1.3,2.2-2.4,3.5-3.2.3-.2.6,0,.8.2.2.3,0,.6-.2.8-1.2.8-2.3,1.8-3.2,3-.2.2-.2.5-.2.5.3.1.3.5.2.7,0,.2-.3.3-.5.3Z"/>
  <path class="cls-33" d="M354.6,359.3c-.2,0-.4-.1-.5-.4-.4-.9-.3-2,.3-2.9.5-.9,1.4-1.6,2.3-1.8.3,0,.6.2.7.5,0,.3-.2.6-.5.7-.6.1-1.2.6-1.5,1.2-.4.6-.4,1.4-.2,1.9.1.3,0,.6-.3.7-.1,0-.2,0-.3,0Z"/>
  <path class="cls-33" d="M359,359.2c-.2,0-.4-.1-.5-.4-.5-1.4.2-3.2,1.6-3.8.3-.1.8-.2,1.1,0,.2.2.4.4.4.7s-.3.6-.6.5c-.2,0-.4-.1-.5-.3-.8.4-1.3,1.5-1,2.3.1.3,0,.6-.3.7,0,0,0,0-.1,0Z"/>
  <path class="cls-33" d="M388.5,363.3c-.2,0-.3,0-.5-.2-.6-.8-.7-1.8-.3-2.8.4-1,1.1-1.7,2.1-1.9.3,0,.6.1.7.4,0,.3-.1.6-.4.7-.6.1-1,.6-1.3,1.2-.2.6-.2,1.3.2,1.8.2.3.1.6-.1.8,0,0-.2,0-.3,0Z"/>
  <path class="cls-33" d="M392.1,364.7c-.2,0-.5-.1-.5-.4-.6-1.8.2-4,1.9-5,.3-.1.6,0,.8.2.1.3,0,.6-.2.8-1.2.7-1.8,2.3-1.3,3.6.1.3,0,.6-.4.7,0,0-.1,0-.2,0Z"/>
  <path class="cls-33" d="M397,364.8c-.2,0-.4,0-.4-.2-.8-1.2-.5-3.1.7-4,.2-.2.6-.2.8,0,.2.3.1.6-.1.8-.7.6-.9,1.7-.4,2.5.2.3.1.6-.1.8-.1,0-.2,0-.3,0Z"/>
  <path class="cls-33" d="M427.2,363c-.2,0-.3,0-.4-.2-.6-.7-.8-1.7-.6-2.7.3-1,.9-1.8,1.7-2.1.3,0,.6,0,.7.3.1.3,0,.6-.3.7-.5.2-.9.7-1.1,1.3-.1.6,0,1.2.3,1.6.2.2.2.6,0,.8,0,.1-.2.2-.4.2Z"/>
  <path class="cls-33" d="M432.3,363.4c-.3,0-.5-.2-.6-.4-.4-1.7.2-3.6,1.5-4.8.2-.2.6-.2.8,0,.2.2.2.6,0,.8-1,.9-1.5,2.4-1.2,3.7,0,.3-.1.6-.4.7,0,0,0,0,0,0Z"/>
  <path class="cls-33" d="M437,362.4c-.2,0-.4-.1-.5-.3-.3-.7,0-1.4.3-1.9v-.2c.2-.3.3-.6.2-.7q0,0,0,0c-.3,0-.5-.4-.4-.7,0-.3.4-.5.7-.4.3.1.6.4.7.7.2.6,0,1.2,0,1.6v.2c-.3.4-.5.8-.4,1,.1.3,0,.6-.3.7,0,0-.2,0-.2,0Z"/>
  <path class="cls-33" d="M398.3,356.4c-.1,0-.2,0-.3-.1-2.4-1.7-5.5-2.6-8.4-2.3-.3,0-.6-.2-.6-.5,0-.3.2-.6.5-.6,3.2-.4,6.6.5,9.2,2.5.3.2.3.5.1.8-.1.1-.3.2-.5.2Z"/>
  <path class="cls-33" d="M402,356.2c0,0-.1,0-.2,0-.3-.1-.4-.4-.3-.7.4-.9.4-1.9.5-3,0-.6,0-1.3.1-1.9.5-3.1.6-5.5.5-7.8,0-.1,0-.3.1-.4.1-.1.3-.2.4-.2h.5s-1.9-6.8-1.9-6.8c0-.1,0-.3,0-.4,0-.1.2-.2.4-.3.5-.1,1.1-.1,1.6,0l-.4-3.7c0-.3-.1-1,.4-1.5.3-.3.5-.3.8-.4,0,0,.2,0,.3,0,.5-.2.4-1.1.3-1.7l-.8-5.1c0-.2,0-.4.2-.5.2-.1.4-.1.6,0,0,0,.1,0,.3,0,.3-.2.5-.7.4-1.1-.1-.7-.3-1.4-.5-2.1-.3-1.1-.5-2.3-.7-3.5,0-.2,0-.4.1-.5.1-.1.3-.2.5-.1,0,0,.1-.1.2-.3,0-.2,0-.5-.2-.8v-.2c-.6-1.7-.4-3.6.6-5.1.2-.3.5-.3.8-.2.3.2.3.5.1.8-.8,1.2-1,2.8-.6,4.1v.2c.2.4.4.8.3,1.2,0,.4-.2.8-.5,1,0,0-.1,0-.2.1.1,1,.4,1.9.6,2.9.1.7.3,1.4.5,2.1.1.8-.2,1.8-.8,2.3-.1.1-.3.2-.5.3l.7,4.4c.3,1.5,0,2.4-.9,2.9-.2,0-.3.1-.5.2-.1,0-.3,0-.3.1,0,0,0,.3,0,.6l.5,4.5c0,.2,0,.4-.2.5-.1.1-.4.2-.5.1-.4-.1-.9-.2-1.3-.2l1.9,6.9c0,.2,0,.4-.1.5,0,.1-.3.2-.5.2h-.6c0,2.2,0,4.5-.5,7.4,0,.6-.1,1.1-.1,1.8,0,1.1,0,2.3-.5,3.3-.1.2-.3.3-.5.3Z"/>
  <path class="cls-33" d="M374,334.3c0,0-.1,0-.2,0-.3,0-.5-.4-.4-.7.2-.7.6-1.3.9-1.9,0-.1.2-.3.4-.3.2,0,.3,0,.4,0,0,0,.2,0,.3,0,.2-.2.4-.2.5-.2.3-.9,0-1.9-.3-2.7-.3-.7-.7-1.9.2-2.8.1-.1.3-.3.4-.4.1,0,.3-.2.3-.3.1-.2,0-.4-.3-1-.3-.6-.7-1.3-.3-2.1,0-.2.3-.3.5-.3s.3-.2.4-.4c.2-.6,0-1.2-.1-1.8-.1-.7-.3-1.4-.1-2.2.1-.5.4-.8.8-1,.3-.3.6-.4.9-.6.2,0,.3-.2.5-.3.2,0,.7-.4,1.3-.3.2,0,.3,0,.4.1,0,0,0,0,0,0,0,0,0,0,.2-.3.3-.6,1.1-.9,1.7-.6.3.1.4.5.2.8-.1.2-.5.3-.7.2,0,0-.1,0-.2.2-.4.6-.8.9-1.4.8-.2,0-.4-.1-.5-.2s0,0,0,0c0,0-.1,0-.4.1-.2.1-.4.2-.6.3-.3.1-.6.3-.8.5,0,0-.2.1-.3.1,0,0,0,0,0,.1-.1.5,0,1.1.1,1.7.2.7.4,1.6.1,2.4-.1.4-.5.9-1,1.1,0,.2.1.5.4.8.3.6.8,1.4.2,2.2-.2.2-.4.4-.6.5,0,0-.2.1-.3.2-.3.3-.2.8,0,1.7.4,1.2.8,2.6.2,3.9,0,.2-.3.3-.5.3h-.2s0,0,0,0c-.3.2-.6.3-.9.3-.2.4-.4.8-.6,1.3-.2.3-.4.4-.7.4Z"/>
  <path class="cls-33" d="M388.1,257.7c-.2,0-.4-.1-.5-.4-.1-.3,0-.6.4-.7,3.1-1,5.8-3.2,7.4-6,.1-.3.5-.4.8-.2.3.1.4.5.2.8-1.8,3-4.7,5.4-8,6.5,0,0-.1,0-.2,0Z"/>
  <path class="cls-33" d="M367.3,288.7c-.1,0-.2,0-.3,0-.2-.1-.3-.3-.3-.5,0-1.4.4-2.7.8-4,0-.3.4-.4.7-.3.3.1.4.4.3.7-.3.8-.5,1.6-.6,2.5l1.9-1.4c.1-.1.3-.1.5-.1.5.1.7.6.8.8,0,0,0,.1.1.2.1.3.6.3.9,0,.4-.2.8-.7,1-1.1.2-.2.4-.3.6-.2.6.2,1,.6,1.4,1,.6.5.8.7,1,.6.2,0,.4-.4.5-.7.3-.5.6-1.1,1.3-1.3.4,0,.7,0,.9.1,0,0,.1,0,.2,0,.9.3,1.9-.4,2.8-1.1.3-.2.6-.1.8.1.2.3.1.6-.1.8-.8.6-2.2,1.7-3.8,1.3,0,0-.2,0-.3,0-.1,0-.3-.1-.4-.1-.1,0-.3.3-.5.7-.2.4-.5,1-1.1,1.2-1,.4-1.7-.3-2.2-.8-.2-.2-.4-.4-.6-.5-.3.4-.7.8-1.2,1.1-.8.4-1.9.3-2.4-.5,0,0,0-.2-.1-.3l-2.5,1.8c0,.1-.1.2-.3.2Z"/>
  <path class="cls-33" d="M399.4,290.8c-.4,0-.7-.1-.9-.2-1.1-.5-2.1-1.2-2.9-2.2s-.2-.6,0-.8.6-.2.8,0c.7.8,1.6,1.4,2.5,1.9,0,0,.4.2.6.1.1,0,.3-.3.4-.6,0-.2.2-.3.2-.5.6-1,1.9-1.5,3.1-1.1.2,0,.3.2.3.4h0c0,0,0,0,.1-.1.1-.1.3-.3.5-.5.7-.5,1.5-.3,2.1,0,.2,0,.3,0,.4.1.4,0,.8-.1.9-.2,0-.3,0-.6.3-.7.3,0,.6,0,.7.3.1.4,0,.8-.2,1.2-.4.5-1.2.7-1.9.6-.1,0-.3,0-.5-.1-.6-.1-.9-.3-1.2,0,0,0-.2.1-.3.3-.1.2-.3.4-.6.6-.5.3-1.1,0-1.4-.3,0,0-.1-.1-.1-.3-.5,0-1.1.2-1.3.7,0,.1-.1.3-.2.4-.2.4-.4,1-1,1.2-.2,0-.3,0-.5,0Z"/>
  <path class="cls-33" d="M426.9,311.9c-.6,0-1.3-.3-1.8-.7l-.2-.2c-.3-.3-.6-.5-1-.7l-.3,1c0,.2-.1.3-.3.4-.1,0-.3,0-.4,0l-5.3-2.4c-.3-.1-.4-.5-.3-.7s.5-.4.7-.3l4.8,2.2.3-.9c0-.2.3-.4.5-.4.9,0,1.5.5,2.1,1l.2.2c.5.4,1,.6,1.4.4.1,0,.2-.2.3-.3.2-.2.4-.5.8-.7.6-.3,1.2,0,1.6.3.3-.3.7-.6,1.1-.8.3-.1.6,0,.7.3.1.3,0,.6-.3.7-.4.2-.8.5-1,.9-.1.1-.2.2-.4.2-.1,0-.3,0-.4-.1-.5-.5-.8-.5-.9-.4,0,0-.2.2-.3.3-.1.2-.3.4-.5.6-.3.2-.6.3-1,.3Z"/>
  <path class="cls-33" d="M429.4,351.2c-.1,0-.2,0-.3-.1-.2-.1-.4-.1-.6-.1-.3,0-.6-.1-.7-.4,0-.3.1-.6.4-.7.2,0,.5,0,.7,0,0,0,0,0,0-.1.2-.4.7-.8,1.1-.8.4,0,.8,0,1.2,0,0-.6.2-1.1.3-1.7,0-.1.1-.3.3-.4.1,0,.3,0,.5,0,.3.1.9.4,1.4.1.2,0,.3-.3.3-.5,0,0,0-.2,0-.3-.2-.2-.2-.6,0-.8s.6-.2.8,0c.3.3.4.8.3,1.2-.1.5-.5,1-.9,1.3-.5.2-1.1.3-1.7.1-.1.5-.2,1-.2,1.5s0,.4-.2.5c-.2,0-.4.1-.5,0-.5-.2-.9-.3-1.3-.3-.2,0-.3.1-.4.3,0,0,0,.1,0,.1,0,.2,0,.5-.2.6,0,0-.2.1-.3.1Z"/>
  <path class="cls-33" d="M383.4,228c-.1,0-.3,0-.4-.1-.2-.2-.2-.6,0-.8,1-1.1,2.3-1.8,3.7-2.2.3,0,.6,0,.7.4,0,.3-.1.6-.4.7-1.2.3-2.3,1-3.2,1.9-.1.1-.3.1-.4.1Z"/>
  <path class="cls-33" d="M362.8,258.2c-.3,0-.5-.2-.6-.5,0-.3.2-.6.5-.6,1.8-.2,3.7-.7,5.5-1.1l1.1-.2c1.8-.4,3.5-1.7,4.5-3.4.2-.3.5-.4.8-.2.3.1.4.5.2.8-1.1,2-3.1,3.5-5.2,4l-1.1.2c-1.9.4-3.8.8-5.6,1.1,0,0,0,0,0,0Z"/>
  <path class="cls-33" d="M379.6,259.1c0,0-.2,0-.3,0-.2,0-.3-.2-.3-.3l-1.7-2.1c-.2-.2-.1-.6,0-.8s.6-.1.8,0l1.2,1.5.2-1c0,0,0-.2.1-.2.4-.5,1.1-.6,1.8-.2h0c.2,0,.4.2.6.2,0-.2,0-.3,0-.6.2-.5.6-.7,1.2-.5.4,0,.7.1,1,.2,0,0,0-.1,0-.2,0-.3.1-.6.4-.7.3,0,.6.1.7.4,0,.4.1.9,0,1.3,0,.2,0,.3-.3.4-.1,0-.3,0-.5,0-.5-.1-1-.3-1.5-.4,0,.4-.2.8-.6,1-.6.3-1.2,0-1.6-.2h0c-.2-.1-.3-.1-.4-.1l-.3,1.4c0,.1-.1.5-.5.7,0,0-.2.1-.3.1Z"/>
  <path class="cls-33" d="M390.1,253.4c-.3,0-.7,0-1-.2-.1,0-.2-.1-.3-.2-.3-.1-.6-.3-.8-.3s-.6-.3-.6-.6.3-.6.6-.6c.5,0,.9.2,1.3.4.1,0,.2,0,.3.1.1,0,.3.1.5.1l-.4-1c0-.2-.2-.5,0-.9.1-.2.4-.5,1-.4h1.1c.1.2.3.2.4.1,0-.1-.1-.2,0-.3,0-.2.1-.4.3-.5.4-.2.7-.3,1.1-.3,0-.2.2-.3.4-.3.3,0,.6.2.6.5v.4c0,.2,0,.4-.1.5-.1.1-.3.2-.5,0-.2,0-.4,0-.6,0,0,.4-.2.7-.5.9-.4.2-.9.2-1.2.2h-.9c0-.1.5,1.3.5,1.3,0,.2,0,.5-.2.6-.2.3-.6.4-.9.4Z"/>
  <path class="cls-33" d="M369.9,264.1c0,0-.1,0-.2,0-.3,0-.4-.4-.4-.7.2-.8.4-1.7.4-2.5s0-.4.3-.5c.2,0,.4,0,.6,0l1.4.7c0,0,.1-.2.2-.3.2-.3.5-.4.8-.4v-.4c-.1-.3,0-.6.3-.7.3,0,.6.1.7.4l.3,1.1c0,.2,0,.4-.1.5-.1.1-.3.2-.5.1-.4,0-.5,0-.5,0,.1.2.1.3,0,.5,0,.2-.3.4-.5.4s-.4,0-.6,0l-1.2-.6c0,.6-.2,1.3-.4,1.9,0,.2-.3.4-.6.4ZM372.5,261.4h0s0,0,0,0Z"/>
  <path class="cls-3" d="M191,392.6c2.9,0,2.8-1.9,3.7-4.1.2-.4.3-.8.5-1.2,1.2-4.4-3.7-5.4-6.8-6.2.6-1.4.3-2.8.8-4.2.6-1.4,1.4-2.7,2.6-3.6,1.1-.8,2.4-1.3,3.6-1.8,4-1.6,7.9-3.1,11.9-4.7,0-1.8-2.7-5.2-3.2-7.1-.9-3-1.7-6.1-2.6-9.2-.3-1.1-.7-2.4-1.6-3.1-.9-.7-2-.9-3.2-1-7.2-.8-14.5-1-21.8-.5-1.8,0-3.8.4-4.9,1.8-1.6,2.2-.8,5.9-.8,8.4s0,6.6,0,9.9c0,4.6.4,9.2,1.2,13.8.4,2.2.6,4.4,1.4,6.5.8,2.1,1.7,3.4,3.8,4.3.4.2.8.3,1.2.4,4.5,1.2,9,1.5,13.6,1.7h.5Z"/>
  <path class="cls-13" d="M191.6,390.6h0l-6.8-.7c-.4,0-.9,0-1.3-.1-2.9-.3-5.9-.5-8-3.4-1.7-2.4-1.9-4.7-2-7.1,0-.8,0-1.7-.2-2.6-.5-3.8-.8-7.8-1-11.7,0-1,0-2-.1-3.1,0-1.6,0-3.2-.2-4.8-.2-2.3-.2-5.3,1-8,.6-1.3,1.4-2.4,2.4-3.3.2-.2.6-.2.8,0s.2.6,0,.8c-.9.8-1.6,1.8-2.1,3-1.1,2.5-1.1,5.3-.9,7.5.1,1.6.2,3.3.2,4.9,0,1,0,2,.1,3.1.2,3.8.5,7.7,1,11.6.1.9.2,1.8.2,2.7.1,2.4.2,4.4,1.7,6.5,1.8,2.4,4.3,2.7,7.2,2.9.4,0,.9,0,1.3.1l6.8.7c.3,0,.5.3.5.6,0,.3-.3.5-.6.5Z"/>
  <path class="cls-13" d="M186,381c-.3,0-.5-.2-.6-.5-.3-2-.4-4,.6-5.7,1-1.7,2.4-3.1,4.2-4.2,3.2-2,6.6-3.5,10.3-4.4.3,0,.6,0,.7.4,0,.3,0,.6-.4.7-3.5.9-6.9,2.3-10,4.2-1.7,1-2.9,2.3-3.9,3.8-.9,1.4-.7,3.2-.5,5,0,.3-.2.6-.5.6,0,0,0,0,0,0Z"/>
  <path class="cls-13" d="M175.1,355.8c-.7,0-1.4,0-2.1-.3-.3,0-.5-.4-.4-.7,0-.3.4-.5.7-.4,2.5.6,5.1-.2,7.6-1.2,1.5-.6,3.3-1.4,4.5-2.8,1.1-1.2,1.5-2.1,1-3.5-.1-.3,0-.6.3-.7.3,0,.6,0,.7.3.8,2,.2,3.2-1.2,4.7-1.4,1.5-3.3,2.4-4.9,3-2,.8-4.1,1.6-6.2,1.6Z"/>
  <path class="cls-13" d="M186.7,382.7c-.2,0-.4-.1-.5-.3-.1-.3,0-.6.2-.8.7-.4,1.5-.8,2.3-1.1.3-.1.6,0,.7.3.1.3,0,.6-.3.7-.7.3-1.5.7-2.2,1.1,0,0-.2,0-.3,0Z"/>
  <path class="cls-5" d="M266.8,362.7c4.5-.9,8.9-2.3,12.7-4.4,4.5-2.6,8.2-6.8,9.3-11.8.4-1.7.4-3.4.4-5.1,0-2.8-.4-5.7-1.6-8.3-2.1-4.6-5.6-6-10.1-6.9-7.3-1.6-14.9-1.5-22.5-1.2-3.1.1-6.3.3-9.5.9-3,.6-6,1.5-8.9,2.4-7.3,2.3-14.6,4.7-21.6,7.8-3.2,1.4-6.4,2.8-9.7,4.2-1,.4-2,.9-2.9,1.5-.5.4-1,.8-1.6.9-2.5.8-4.3-1.1-5.5,1.6-1,2.2,0,6,0,8.3,0,5.4,1.6,20.1,9.7,18.2,1.4-.3,2.2-1.1,3.7-1.2,2.9-.2,5.6.5,8.5,0,3.1-.5,5.7-2.5,8.8-3,1.4-.2,2.8,0,4.1.3,6.3,1,11.4,0,17.4-1.6,6.2-1.7,13.1-1.3,19.4-2.7Z"/>
  <path class="cls-24" d="M203.9,372.1c0,0-.2,0-.3,0-2.6-1.6-3.8-4.6-4.8-7.8l-1.4-4.6c-.1-.3,0-.6.4-.7.3,0,.6,0,.7.4l1.4,4.6c.9,3,2,5.7,4.3,7.1.3.1.4.5.2.8,0,.2-.3.3-.5.3Z"/>
  <path class="cls-3" d="M248.1,389.5c.3,6.7-7.9,14.1-3,20.5,1,1.3,2.5,2.2,4,3,6,3.5,12.3,6.5,18.7,9.2,5.8,2.4,11.3,6,17.8,6.1,4.4,0,9.5-2.3,9.7-6.7s-1.4-4.8-2.9-6.8c-1.4-1.8-2.7-4.1-4.6-5.4-4-2.7-7.9-5.3-11.5-8.5-1.4-1.2-2.8-2.6-3.7-4.1-1.3-2.1-1.8-4.5-2.2-6.9-1.3-8.7-10.6-7.2-17.6-6.6-5.7.6-4.8,1.3-4.6,6.3Z"/>
  <path class="cls-13" d="M285.7,417.8c0,0-.2,0-.3-.1l-11.4-7.8c-3.1-2.1-6.6-4.6-9-7.9-2.1-3-3.7-7.6-1.7-11.7.1-.3.5-.4.7-.2.3.1.4.4.3.7-1.5,3-.8,7.2,1.6,10.6,2.3,3.2,5.5,5.4,8.7,7.6l11.4,7.8c.3.2.3.5.1.8-.1.2-.3.3-.5.3Z"/>
  <path class="cls-13" d="M288.2,424.9c-1.5,0-3.2-.4-5.3-1-13.3-4.6-28.4-9.7-38.9-20.6-.2-.2-.2-.6,0-.8.2-.2.6-.2.8,0,10.4,10.7,25.3,15.9,38.5,20.4,4.4,1.5,7.3,1.3,8.7-.7.2-.3.5-.3.8-.1.3.2.3.5.1.8-1,1.4-2.6,2.1-4.7,2.1Z"/>
  <path class="cls-13" d="M287.8,416.2c0,0-.2,0-.3,0l-6.1-3.9c-3.9-2.5-7.9-5-11.2-8.4-3.7-3.8-5.9-8.3-6.1-12.6,0-.3.2-.6.5-.6.3,0,.6.2.6.5.2,4,2.3,8.3,5.8,11.9,3.2,3.3,7.1,5.8,11,8.3l6.1,3.9c.3.2.3.5.2.8,0,.2-.3.3-.5.3Z"/>
  <path class="cls-13" d="M247.5,406.7h-.1c-.3,0-.5-.4-.4-.7l1.3-6.3c.2-.9.4-1.8.2-2.7-.1-.7-.7-1.5-1.4-1.6-.3,0-.5-.3-.5-.6,0-.3.3-.5.6-.5,1.3.2,2.2,1.4,2.4,2.5.2,1.1,0,2.2-.2,3.2l-1.3,6.3c0,.3-.3.5-.6.5Z"/>
  <path class="cls-5" d="M203.6,341.8c6.9.6,13.8,1,20.7.7,7.3-.3,14-1.7,21.4-.5.6,0,1.2.2,1.5.7.4.6,0,1.4-.2,2.1-2.3,5.3-2.7,11.3-1.1,16.9.2.8.5,1.7.4,2.5-.1,1-.9,1.8-1.4,2.7-1,1.7-1.5,3.7-1.3,5.7.7,6.1-1,12.5,1.1,18.4,1.2,3.4,6.4,3.1,9.2,3.3,3.5.3,6.8.4,10.3-.1,10.8-1.6,12.6-15.9,14.8-24.5,3.2-12.6,5.1-25.5,7-38.4,1.3-9.1,2.1-19.9-4.9-25.9-3.3-2.9-7.7-4-12-5-15.8-3.6-31.9-6-48.1-7.1-10.5-.8-24.4-26.6-32.6-18.2-4.8,5-13.1,32.9-13.4,39.8-.6,17.7,14,25.7,28.4,27Z"/>
  <path class="cls-24" d="M249.1,375.7c0,0-.1,0-.2,0-.3-.1-.4-.5-.3-.7.3-.7,0-1.5-.3-2.2-.2-.5-.3-1-.5-1.5-1.7-4.8-3.5-10.3-3.3-15.2,0-2.1.7-4.1,1.2-6.1.3-1.1.6-2.3.9-3.4.7-3.6.5-7.5.3-11.2-.2-3.8-.4-7.7.4-11.4,0-.3.4-.5.7-.4.3,0,.5.4.4.7-.8,3.5-.6,7.2-.4,11.1.2,3.8.4,7.6-.3,11.5-.2,1.2-.6,2.3-.9,3.5-.5,1.9-1.1,3.9-1.2,5.9-.2,4.7,1.7,10.1,3.3,14.8.2.5.4,1,.5,1.5.3.8.7,2,.2,3,0,.2-.3.3-.5.3Z"/>
  <path class="cls-24" d="M262.2,388.3c-.2,0-.3,0-.4-.2-.2-.2-.2-.6,0-.8l4.7-4.5c.5-.5,1.1-1,1.5-1.6.4-.5.6-1,.9-1.6.5-.9,1-1.9,1.8-2.6.2-.2.6-.2.8,0s.2.6,0,.8c-.7.6-1.1,1.4-1.5,2.3-.3.6-.6,1.2-1,1.8-.5.7-1.1,1.2-1.6,1.8l-4.7,4.5c-.1,0-.3.1-.4.1Z"/>
  <path class="cls-24" d="M266.7,392c-.1,0-.3,0-.4-.1-.2-.2-.3-.6,0-.8,1.5-1.7,2.9-3.4,4.2-5.3.2-.3.5-.3.8-.1.2.2.3.5.1.8-1.3,1.9-2.8,3.7-4.3,5.4-.1.1-.3.2-.4.2Z"/>
  <path class="cls-24" d="M253.2,322.6c-.1,0-.3,0-.4-.2-2.5-2.2-4.3-5-5.3-8.1,0-.3,0-.6.4-.7.3-.1.6,0,.7.4,1,2.9,2.7,5.6,5,7.6.2.2.3.6,0,.8-.1.2-.3.2-.4.2Z"/>
  <path class="cls-24" d="M272.7,370.6c-.3,0-.5-.2-.6-.5l-.3-2.5c-.1-1.1-.3-2.2-.4-3.3-.3-2.9-.4-5.2-.2-7.4,0-.7.1-1.5.2-2.2.2-1.7.4-3.4.2-5.1,0-.3.2-.6.5-.6.3,0,.6.2.6.5.2,1.8,0,3.6-.2,5.4,0,.7-.2,1.4-.2,2.2-.2,2.1,0,4.4.2,7.2,0,1.1.3,2.2.4,3.3l.3,2.5c0,.3-.2.6-.5.6,0,0,0,0,0,0Z"/>
  <path class="cls-24" d="M253.9,390.3c-.9,0-1.9-.2-2.9-.6-1.5-.6-2.8-1.6-4-2.5-.3-.2-.3-.5-.1-.8s.5-.3.8-.1c1.2.9,2.4,1.8,3.8,2.4,1.5.6,2.9.7,4.1.2.3,0,.6,0,.7.3,0,.3,0,.6-.3.7-.6.2-1.3.4-1.9.4Z"/>
  <path class="cls-24" d="M206.5,316.4c-.2,0-.4,0-.5-.3-.2-.3,0-.6.2-.8,11.7-6.9,24.4-12,37.7-14.9.3,0,.6.1.7.4,0,.3-.1.6-.4.7-13.2,2.9-25.8,7.9-37.4,14.8,0,0-.2,0-.3,0Z"/>
  <path class="cls-24" d="M280.7,361.1h0c-.3,0-.5-.3-.5-.6.2-2.5,3.7-19.6,4.2-22.1.9-4.4,1.1-8.9,1.3-13.3,0-.3.3-.5.6-.5.3,0,.6.3.5.6-.2,4.4-.4,9-1.3,13.5-.8,4-4,19.7-4.2,22,0,.3-.2.5-.6.5Z"/>
  <path class="cls-24" d="M244.4,373.5h0c-.3,0-.5-.3-.5-.6l.5-4.8c0-.3.3-.5.6-.5.3,0,.5.3.5.6l-.5,4.8c0,.3-.3.5-.6.5Z"/>
  <path class="cls-24" d="M221.6,342.9c-7.4,0-14.5-.3-18.6-1.2-.3,0-.5-.4-.4-.7,0-.3.4-.5.7-.4,9.5,2.1,37.5.9,43.4,0,.3,0,.6.1.6.5,0,.3-.1.6-.5.6-3.6.6-14.7,1.2-25.2,1.2Z"/>
  <path class="cls-11" d="M223.7,192.7c.3-.4.5-.9.8-1.3,1.8-3.8,2.3-8.4,1.3-12.6-.7-2.6-2.8-8.5.6-9.9,1.3-.6,2.9,0,3.9,1.1,1,1.1,1.6,2.5,2.2,3.8,2.5,6,5.1,11.9,7.9,17.7,1,2.2,1.7,3.5,3.6,4.7,1.6,1.1,4.3,2.6,4.2,5,0,2.1-.8,4.6-1.4,6.6-.9,2.9-5.6,2.1-8.1,1.9-3.4-.3-6.8-.6-10-1.9-2.5-1-4.5-3-6.3-5-1.5-1.7-2.9-2.7-1.9-5.1.8-1.8,2.2-3.3,3.2-5Z"/>
  <path class="cls-20" d="M223.2,201.6c0,.2.1.3.2.5.8,1.5,5.8,2.8,7.8,3.2,3.6.7,5.5.4,9.1.1,3-.2,6.7-2.2,9.6-1.1,11.8,4.2,16.4,12.8,17.8,25,.8,7.5.2,15.1-.5,22.6-.7,8.2-1.4,16.3-2.1,24.4-.3,3.1-.6,6.3-2.1,9-2.3,4-4.8,3.2-8.5,3.7-4.1.5-8.1,2.4-12,3.7-9.4,3.2-19.2,7-29.2,7.5-4.1.2-8.3-.3-12-2.1-2.1-1-3.4-3.3-5.8-3.2-3.1.1-5.3,2.3-7.8,3.7-1.9,1.1-3.9,2.2-5.8,3.4-1.4.8-4,3.7-5.9,3-2.7-1,.5-8,1.2-9.9,1.8-5,2.7-10.6,4.8-15.4,1.7-3.8,3.8-8.5,3.4-12.8-1.3-13.5,12.6-46.7,11.2-59.9-.5-4.8,1.7-7.5,6.1-9,3.1-1.1,6.4-1.8,9.7-2,2.3-.2,5.1-1.3,7.3-.4,1.2.5,2.2,1.4,2.9,2.6.5,1,.4,2.3.8,3.3Z"/>
  <path class="cls-20" d="M269.2,240.9c.7,8.9,1.9,19.5,10.4,23.3,6.9,3,14.6,3.5,21.5,6.4,3.8,1.6,10.7,7,6.9,12.2-2.3,3.2-12.2-1.1-15.3-1.3-8-.6-16-1.7-23.9-3.5-2.9-.7-6.1-1.6-7.8-4.1-1.1-1.7-1.4-3.7-1.8-5.6-1.1-5.5-4.2-10.1-5.2-15.5-1.2-6.7-2.5-13.4-3.7-20.1-.8-4.1-1.5-8.2-1.3-12.3.3-5,4.6-16.2,11.3-10.4,6.1,5.3,7.6,18.1,8.5,25.5.2,1.7.3,3.5.5,5.4Z"/>
  <path class="cls-29" d="M262.9,269.4c-.2,0-.4,0-.5-.2-.4-.3-.5-.8-.5-1.1-.3-2.6-.7-5.7-1.6-8.5-1.9-5.9-2.1-12.3-2.1-17.8,0-2.2.2-4.9,2.2-6.1.3-.1.6,0,.8.2.1.3,0,.6-.2.8-1.5.9-1.7,3.1-1.7,5.1,0,5.4.2,11.7,2,17.5.9,2.8,1.3,6.1,1.6,8.7,0,.1,0,.2,0,.3.3,0,.5.2.5.5,0,.3-.1.6-.5.6,0,0,0,0-.1,0Z"/>
  <path class="cls-29" d="M295.3,275.5c-.2,0-.3,0-.4-.2-.2-.3-.1-.6,0-.8,1.8-1.4,3.6-2.6,5.5-3.7.3-.1.6,0,.8.2.1.3,0,.6-.2.8-1.9,1.1-3.7,2.2-5.4,3.6-.1,0-.3.1-.4.1Z"/>
  <path class="cls-29" d="M260.2,243.6c-.3,0-.5-.2-.6-.5,0-.7.1-1.5.6-2.1s1.1-1,1.8-1.1c.3,0,.6.2.6.5,0,.3-.2.6-.5.6-.4,0-.8.3-1.1.7-.3.4-.4.8-.4,1.2,0,.3-.2.6-.5.6,0,0,0,0,0,0Z"/>
  <path class="cls-29" d="M219.4,261c-.2,0-.4-.1-.5-.3-2.3-3.6-2.9-8.3-1.7-12.4.2-.7.4-1.3.7-2,.3-.7.6-1.5.8-2.3.5-1.9.5-4,.5-6v-9.5c0-.3.3-.6.6-.6s.6.3.6.6v9.5c0,2.1,0,4.2-.6,6.2-.2.8-.5,1.6-.8,2.4-.2.6-.5,1.3-.7,1.9-1.1,3.8-.5,8.1,1.6,11.5.1.2,0,.6-.2.8,0,0-.2,0-.3,0Z"/>
  <path class="cls-29" d="M218.2,224.4c-.2,0-.4-.1-.5-.3-1.2-1.9-1.7-4-2.3-6-.6-2-1.1-3.9-2.1-5.6-.3-.5-.6-.9-.9-1.3-.3-.4-.6-.9-.9-1.3-1.4-2.3-2-5.1-2.6-7.5,0-.3.1-.6.4-.7.3,0,.6.1.7.4.5,2.4,1.1,5,2.4,7.2.3.4.6.8.9,1.3s.6.9.9,1.4c1.1,1.8,1.7,3.9,2.2,5.9.6,2.1,1.1,4,2.2,5.7.2.3,0,.6-.2.8,0,0-.2.1-.3.1Z"/>
  <path class="cls-29" d="M253.6,224.8c-.3,0-.6-.3-.6-.6,0-5-.5-10.1-1.2-15.1,0-.3.2-.6.5-.6.3,0,.6.2.6.5.7,5,1.1,10.2,1.2,15.2,0,.3-.2.6-.6.6,0,0,0,0,0,0Z"/>
  <path class="cls-29" d="M208.3,200.1c-.3,0-.5-.2-.6-.5l-.2-1.9c0-.2,0-.5.1-.7.1-.2.4-.4.6-.4.2,0,.5,0,.6.2.2.2.2.6,0,.8,0,0-.1.1-.2.1l.2,1.8c0,.3-.2.6-.5.6h0Z"/>
  <path class="cls-29" d="M271.7,263.6c0,0-.1,0-.2,0-.3,0-.4-.4-.4-.7.5-1.4.7-2.8.6-4.3,0-.3.2-.6.5-.6.3,0,.6.2.6.5,0,1.6-.2,3.2-.7,4.7,0,.3-.3.4-.5.4Z"/>
  <path class="cls-19" d="M225.1,243.1c-1.6,7.5-4.1,15.8,1.5,21.5.9.9,1,2.6,1.2,3.7.4,2.3.7,4.7,1,7,.3,2.7.6,5.5.9,8.3.3,2.8.2,4.7,1.9,7.1,1,1.5,3.6,2.1,4.9,3.4,1.5,1.6,3.8,1.4,5.9,1.5,2.9.2,5.8.4,8.7-.1,1.1-.2.9-16.7,2-17,2.7-1,.8-6.1.6-7.2-.7-3.5.4-8.8-.6-14.9-.6-3.7-1.5-7.2-2.3-11-.8-3.8-1.5-7.5-2.3-11.3-1-5.2-2.1-10.4-3-15.7-.5-2.7-.4-5.5-.8-8.2-.2-1.2-.2-3.2-.8-4.3-.8-1.4-2.6-1.1-4-.9-2.9.3-5.8.2-8.7-.4-2.8-.6-5.3-2-8-2.8-.9,2.6.2,6.2.8,8.8.7,3,1.7,6,2.2,9,.4,2.6.7,5.3.7,7.9,0,4.1-.6,8.1-1.2,12.1-.1,1.1-.4,2.3-.6,3.5Z"/>
  <path class="cls-30" d="M233.3,208.8c-.6,0-1.1,0-1.7-.1-1.2-.1-2.3-.5-3.3-1.1-.3-.2-.4-.5-.2-.8.1-.3.5-.4.8-.2.9.5,1.9.9,2.9,1,.7,0,1.5,0,2.3,0h6.1c.3,0,.6.2.6.5s-.3.6-.6.6h-6.1c-.2.1-.5.1-.7.1Z"/>
  <path class="cls-30" d="M236.9,256.6c-.2,0-.4-.1-.5-.3-.1-.3,0-.6.2-.8l3.1-1.7c.7-.4,1.3-.8,1.8-1.3.3-.4.5-.8.8-1.3.1-.2.2-.5.4-.7.6-1,1.4-1.9,2.2-2.8.9-1,1.8-1.9,2.3-3.1.1-.3.5-.4.7-.3.3.1.4.5.3.7-.6,1.3-1.6,2.4-2.6,3.4-.8.8-1.5,1.6-2.1,2.6-.1.2-.2.4-.4.7-.3.5-.5,1-.9,1.5-.6.7-1.4,1.2-2.1,1.6l-3.1,1.7s-.1,0-.2,0Z"/>
  <path class="cls-30" d="M233,262.9c-.3,0-.5-.2-.5-.4,0-.3.1-.6.4-.7,2.1-.5,4.1-1.5,5.9-2.8l.2-.2c.9-.6,1.9-1.4,3-1.5l6.2-5.8c.2-.2.6-.2.8,0s.2.6,0,.8l-6.3,5.9c-.1.1-.2.2-.4.2-.8,0-1.8.8-2.6,1.3l-.3.2c-1.8,1.4-4,2.4-6.2,3-.1,0-.2,0-.2,0Z"/>
  <path class="cls-23" d="M292.3,330.3c2.5.6,14.4,4.1,14.9,3.1.1-.3.7-.2,1-.3.3-.1.4-.5.5-.8,1.7-7.2,7.1-12.5,10-19.2,1.2-2.8,1.2-5.6,2.5-8.4,1.6-3.5,3-7.2,2.6-11.1,0-.5-.1-1-.4-1.4-.4-.6-1-.9-1.7-1.2-14.7-6.9-29.3-13.8-44-20.8-5.3-2.5-11.1-5.3-16.9-6.2-2.8-.4-5.9,0-8,2-1,.9-1.7,2-2.3,3.1-2.8,4.7-5.1,9.8-6.9,14.9-1.3,4-2.4,8.1-3.3,12.2-.8,3.8-2.1,7.3-3.1,11.1-.5,1.9-.8,4.2.5,5.7.6.7,1.5,1.1,2.4,1.5,11.1,4.7,22.6,8.5,34.3,11.6,5.8,1.5,11.7,3,17.6,4.1,0,0,.1,0,.3.1Z"/>
  <path class="cls-26" d="M277.4,298.7c.2.7.3,1.5.2,2.2-.1.8-.6,1.5-1.1,2.2-2.3,2.8-6.3,3.7-9.9,3.3-1-.1-2.1-.4-2.8-1.2-.5-.6-.6-1.5-.6-2.3-.2-3.7.6-7.4,2.3-10.7,4.5-8.7,10.5,1.3,11.9,6.6Z"/>
  <path class="cls-26" d="M281.7,300.4c1.3,1.7,3.8,4.2,6.1,3.8,1.7-.3,2-1.4,1.3-2.9-.8-1.5-2.6-2.8-4.2-3.4-1.7-.6-5,0-3.2,2.5Z"/>
  <path class="cls-26" d="M277.5,306.3c-.2.4,0,.8,0,1.2.5,1.2,1.3,2.4,2.5,3.1,1.8,1.1,6.1.9,4.7-2.1-.7-1.6-6.2-4.3-7.3-2.2Z"/>
  <path class="cls-26" d="M277.5,291.2c0,1,.4,2,1.1,2.5.4.3,1,.5,1.5.6.8.2,1.6.5,2.5.4.8-.1,1.6-.6,1.9-1.4.3-1-.4-2-1.2-2.6-1.1-.9-3.5-2-4.8-1.1-.6.4-.8,1-.9,1.6Z"/>
  <path class="cls-26" d="M272.2,313.3c1,.3,3.1.2,3.7-.8.4-.6.3-1.3,0-1.9-.3-.6-.9-1-1.5-1.3-1.2-.6-4.5-1-5.2.7-.6,1.5,1.7,3,2.9,3.3Z"/>
  <path class="cls-26" d="M305.7,326.2c4.8-6.1,8.8-12.8,11.9-19.9.9-2.2,1.9-4.5,3.9-5.8-.3.2-.4,5.5-.5,6.2-.4,2.2-1.1,4.3-2,6.3-1.7,3.7-5,6.8-6.3,10.6-.2.7-.4,1.3-.6,2-.6,2-2.1,6.4-3.9,7.5-.7.4-1.5.5-2.4.4-.5,0-1-.2-1.4-.5-1.9-1.7.2-5.5,1.3-6.9Z"/>
  <path class="cls-17" d="M314.7,291c0,0,0,0-.1,0-15-3.8-27.5-8.6-38.2-14.5-.5-.3-1.1-.6-1.6-.9-1.3-.8-2.7-1.5-4.1-2.2-2.3-1.2-4.8-2.1-7.2-2.9-.3,0-.5-.4-.4-.7,0-.3.4-.5.7-.4,2.6.8,5,1.7,7.4,2.9,1.4.7,2.8,1.5,4.2,2.2.5.3,1.1.6,1.6.9,10.6,5.9,23.1,10.6,38,14.4.3,0,.5.4.4.7,0,.3-.3.4-.5.4Z"/>
  <path class="cls-17" d="M239.2,311.9c0,0-.1,0-.2,0-.3,0-.5-.4-.4-.7l1.8-6.1c.4-1.5.9-3,1.8-4.3.1-.2.3-.4.4-.6.3-.4.5-.7.7-1.1.3-.5.4-1.1.5-1.7l3.3-14.4c0-.3.4-.5.7-.4.3,0,.5.4.4.7l-3.3,14.4c-.2.6-.3,1.3-.6,1.9-.2.4-.5.8-.8,1.2-.1.2-.3.4-.4.6-.8,1.2-1.2,2.6-1.6,4l-1.8,6.1c0,.3-.3.4-.5.4Z"/>
  <path class="cls-17" d="M297.8,330.5c-.3,0-.5-.2-.6-.5-.2-2.1.4-4.5,1.8-7,.7-1.2,1.4-2.3,2.2-3.4.6-.8,1.2-1.7,1.7-2.5,1.2-1.9,2.1-4,2.9-5.9,1.6-3.6,3.1-7.3,4.5-10.9.1-.3.4-.4.7-.3.3.1.4.4.3.7-1.4,3.7-2.9,7.4-4.5,11-.9,2-1.8,4.1-3,6-.5.9-1.1,1.7-1.7,2.6-.7,1.1-1.5,2.2-2.1,3.3-1.3,2.3-1.9,4.4-1.6,6.4,0,.3-.2.6-.5.6,0,0,0,0,0,0Z"/>
  <path class="cls-28" d="M314.7,315.8c0,1.5,1.3,3.5,2,4.5.2.3.4.7.8.8.9.3,1.9-.5,2.6-1.2.5-.5.9-1,1.1-1.6,0-.5-.1-1-.3-1.4-.6-1.3-1.4-2.4-2.3-3.5-.3-.4-3.3,1.2-3.6,1.7-.2.2-.3.5-.3.8Z"/>
  <path class="cls-28" d="M313.8,321c.2-.9.2-1.8-.1-2.6-.4-1.1-1.3-2.2-2.2-.8-.2.4-.5.7-.7,1.1-.6,1-1.3,1.9-1.7,3,0,0,0,.1,0,.3.2,1,2.7.4,3.3.3.3,0,.7,0,.9-.3.3-.3.5-.6.5-1Z"/>
  <path class="cls-28" d="M314.5,329.9c0-.2-.4,0-.4.3,0,1.3,0,2.8.8,3.7,1,1,2.6.9,4.1.8.3,0,.7,0,.9-.3.3-.2.5-.6.5-1,.4-1.7-.2-3.8-1.8-4.4-1.1-.4-2.3-.1-3.4.2-.3,0-.6.2-.8.4-.2.2-.3.6,0,.8v-.4Z"/>
  <path class="cls-28" d="M306.3,326.2c0-.2-.4,0-.4.3,0,1.3-.1,2.8.8,3.7,1,1,2.6.9,4.1.8.3,0,.7,0,.9-.3.3-.2.5-.6.5-1,.4-1.7-.2-3.8-1.8-4.4-1.1-.4-2.3-.1-3.4.2-.3,0-.6.2-.8.4-.2.2-.2.6,0,.8v-.4Z"/>
  <path class="cls-11" d="M298.6,283.6c0,1.2,0,2.4.1,3.6,0,.8.2,1.5.6,2.2.4.7,1.3,1.2,2,.9.7-.2.9-1,1.1-1.7.3-1.3.7-2.6,1-3.9l1.4,6.5c.2.7.4,1.5,1.1,1.7.9.3,1.5-.6,1.7-1.4.6-2.3,0-5.1,1.3-7.1.1,2,.4,4,.9,5.9.2,1,.9,2.3,1.9,2.1.9-.1,1-1.2,1-2.1,0-1.3,0-2.6,0-3.9s-.2-3.3.8-2c.2.3.2.6.3.9.1,1.1.5,2.2,1,3.2.2.3.3.6.6.8.5.3,1,0,1.3-.3.3-.4.4-.9.4-1.4.4-3,.2-6.3-2.6-8.5-.8-.7-1.7-1.3-2.5-2-1.6-1.2-3.2-2.5-5-3.2-1.8-.7-4-.9-5.5.1-1.1.7-1.8,1.9-2.1,3.3-.5,2-.7,4-.8,6.1Z"/>
  <path class="cls-6" d="M303.3,285.9c-.3,0-.6-.3-.6-.6,0-2.6.2-5.2.6-7.6,0-.3.3-.5.6-.5.3,0,.5.3.5.6-.4,2.4-.6,4.9-.6,7.5,0,.3-.2.5-.6.6,0,0,0,0,0,0Z"/>
  <path class="cls-6" d="M308.6,285.4c-.3,0-.6-.3-.6-.6v-5.6c-.1-.3.1-.6.4-.6h0c.3,0,.6.3.6.6v5.6c0,.3-.1.6-.5.6Z"/>
  <path class="cls-6" d="M313,284.8c-.3,0-.5-.2-.6-.5-.3-1.5-.5-3-.6-4.5,0-.3.2-.6.5-.6.3,0,.6.2.6.5.1,1.4.3,2.9.6,4.4,0,.3-.2.6-.5.7,0,0,0,0,0,0Z"/>
  <path class="cls-29" d="M196.2,260.3c0,0-.2,0-.3,0-.3-.1-.4-.5-.3-.8l2.9-5.8c.5-1,1.1-2.1,1.7-3.1.9-1.4,1.8-2.8,2.8-4.1,1.2-1.6,2.7-3.2,4.7-3,.3,0,.5.3.5.6,0,.3-.3.5-.6.5-1.4-.1-2.6,1.2-3.6,2.6-.9,1.3-1.9,2.6-2.8,4.1-.6,1-1.1,2-1.6,3l-2.9,5.8c-.1.2-.3.3-.5.3Z"/>
  <path class="cls-11" d="M251.1,313.2c0-.2.1-.5,0-.9-.2-1.7-3.8-3.7-4.9-4.9-.2-.2-2.7-4.2-2-4.1,1.2,0,2.1.9,3,1.7,1.6,1.4,3.5,2.7,5.4,3.7,1.5.8,5.1,1.7,3.7-1.3-1.9-3.9-9.8-6.3-10-10.7,0,1.3,8.7,4.2,9.9,4.4,1.2.3,2.9.6,2.8-1.1,0-2.2-6.9-6.3-8.6-7.3-.9-.6-1.8-1-2.6-1.7-1.8-1.4-3.1-3.5-3.4-5.8-.3-1.9,3.5-1.8,4.7-1.8,1,0,7,.6,5.1-1.8-1.3-1.6-3.4-2.3-5.4-2.8-3-.8-6.1-1.8-9.1-2.4-1.8-.4-3.5,0-5.4-.5-1.9-.5-3.9-1.2-5.7-2.1-3.6-1.8-8.5-3.7-11.7-.2-3,3.3-1.1,8.7,2.3,10.9,4.5,3,9.7,5.5,12.6,10.3,1.3,2.2,1.8,4.5,3.2,6.7,2,3,4.1,6.1,6.3,8.9,1.1,1.4,2.5,3.1,4.4,3.3.1-.6.4-1.3.6-1.8,1,.3,3.9,2.5,4.5,1.2Z"/>
  <path class="cls-6" d="M245.2,311.1c0,0-.2,0-.3,0-2.6-1.7-5-3.8-6.9-6.2-.2-.2-.1-.6,0-.8.2-.2.6-.1.8,0,1.9,2.3,4.2,4.3,6.7,6,.3.2.3.5.2.8-.1.2-.3.3-.5.3Z"/>
  <path class="cls-6" d="M246,297.3c-.1,0-.3,0-.4-.1-1-.9-1.9-1.9-2.7-3.1-.2-.3-.1-.6.1-.8.3-.2.6,0,.8.2.7,1,1.5,2,2.4,2.8.2.2.3.6,0,.8,0,.2-.3.2-.4.2Z"/>
  <path class="cls-6" d="M244.7,303.9c-.1,0-.3,0-.4-.1l-2.8-2.7c-.1-.1-.2-.3-.2-.5s.1-.3.3-.4c.2-.1.5-.1.7,0,.2.1.4.3.5.5,0,0,0,0,0,0l2.3,2.2c.2.2.2.6,0,.8-.1.1-.3.2-.4.2Z"/>
  <path class="cls-20" d="M200.8,242.7c-3.1,4.2-6.2,8.6-6.6,13.8,0,1,0,2.1.8,2.7.3.3.8.4,1.2.6,2.1.7,3.7,1.8,5.9,2.1,2.2.4,4.5.4,6.8.5,4.3.2,8.5.6,12.7,1.2,3.4.5,6.9,1.2,9.9,2.9,2.4,1.3,4.3,3.4,5.4,5.8.5,1.1.6,2.4.9,3.6-1.6.8-3.4-.3-5.1-.3-1.9,0-3.5,2.1-4.4,3.5-1.1,1.6-2.2,3.5-2.6,5.5-.3,1.2-.2,1.4,0,2.4.1.6.7,1,.4,1.7-.3.8-3.3,1.2-4,1.4-2.2.4-4.8.1-7,0-4.7-.3-9.4-1.1-14.1-1.8-10.3-1.6-20.8-3.4-29.1-10-2.9-2.3-7.7-4.1-10-7-2.1-2.7-1.2-8.5-.9-11.8,1.3-14.2,9.2-27.1,17.2-38.5,2.8-3.9,5.1-8.1,8.4-11.7,3.5-3.8,12.2-11.1,17.6-10.3,3.7.6,3.5,8.2,4.2,11.8.7,3.6.2,7.4.4,11.1.1,1.9.6,3.7.8,5.5.1,1.5-.6,2.9-1.3,4.2-1.4,3-3.3,5.8-5.2,8.4-.6.9-1.3,1.8-2,2.7Z"/>
  <path class="cls-29" d="M224.7,264.8h0c-.5,0-4.2-.7-7.5-1.2-1.9-.3-3.6-.6-3.9-.6-2.3-.3-4.6-.7-6.9-.7-4.1,0-7.5-.5-10.6-1.3-.8-.2-1.6-.5-2.3-.7-1-.3-2-.6-2.9-.9-2.4-.6-4.8-.8-7.2-.5,0,0,0,0-.1,0,0,.2,0,.4-.3.5-.3.1-.6,0-.8-.2-.1-.3-.1-.5,0-.8.2-.4.7-.6,1.1-.6,2.5-.2,5.1,0,7.6.6,1,.3,2,.6,3,.9.7.2,1.5.5,2.3.7,3,.8,6.4,1.2,10.4,1.3,2.4,0,4.8.4,7.1.7.3,0,2,.3,3.9.6,2.9.5,6.9,1.1,7.4,1.2.3,0,.5.3.5.6,0,.3-.3.5-.5.5Z"/>
  <path class="cls-29" d="M219,289.4c0,0-.1,0-.2,0-2.6-1.1-4.3-4-3.9-6.8,0-.3.3-.5.6-.5.3,0,.5.3.5.6-.4,2.3,1,4.8,3.2,5.6.3.1.4.4.3.7,0,.2-.3.4-.5.4Z"/>
  <path class="cls-29" d="M192.4,256.8c-2,0-3.8-.8-5.3-2.1-.2-.2-.3-.6,0-.8s.6-.3.8,0c1.3,1.1,2.9,1.7,4.6,1.8.3,0,.6.3.5.6,0,.3-.3.5-.6.5Z"/>
  <path class="cls-29" d="M199.2,286.1h0c-1.9,0-3.8-1.3-5-3.3-1.1-1.7-1.6-3.6-2.1-5.5,0-.3.1-.6.4-.7.3,0,.6.1.7.4.5,1.8.9,3.6,1.9,5.1,1,1.6,2.6,2.7,4.1,2.8.3,0,.5.3.5.6,0,.3-.3.5-.6.5Z"/>
  <path class="cls-29" d="M221.9,288.4c-.3,0-.5-.2-.6-.5-.2-1.9.7-3.8,1.4-5.3,2.5-5.1,5.2-10,10-12.1.3-.1.6,0,.7.3.1.3,0,.6-.3.7-4.4,2-7,6.6-9.5,11.5-.7,1.3-1.5,3-1.3,4.7,0,.3-.2.6-.5.6,0,0,0,0,0,0Z"/>
  <path class="cls-29" d="M206.3,214.2h-.1c-.3,0-.5-.4-.5-.7.5-2.9-.5-6-2.6-8-.2-.2-.2-.6,0-.8s.6-.2.8,0c2.4,2.2,3.5,5.8,2.9,9,0,.3-.3.5-.5.5Z"/>
  <path class="cls-29" d="M217.7,290.6c-8.4,0-16.8-1.3-24.4-2.6-4.3-.7-9.6-1.5-13.5-4.8-.2-.2-.3-.6,0-.8s.6-.3.8,0c3.6,3,8.8,3.9,12.9,4.5,10.1,1.6,21.6,3.5,32.7,2,.3,0,.6.2.6.5,0,.3-.2.6-.5.6-2.9.4-5.8.5-8.7.5Z"/>
  <path class="cls-25" d="M242.7,238.2c0,0-.1,0-.2,0-.2,0-.3-.2-.4-.3-1-1.3-1.9-2.7-2.7-4.1-.4-.6-.7-1.2-1.1-1.8-.5-.8-1.1-1.5-1.7-2.3-.7-.8-1.3-1.6-1.8-2.5-2-3.3-4.2-6.7-6.2-9.9-.8-1.3-1.7-2.6-2.5-3.9-3-4.6-6.4-9.9-7-15.9,0-.3.2-.6.5-.6.3,0,.6.2.6.5.7,5.7,4,10.8,6.9,15.4.8,1.3,1.7,2.6,2.5,3.9,2.1,3.2,4.3,6.6,6.3,9.9.5.8,1.1,1.6,1.7,2.3.6.8,1.3,1.5,1.8,2.4.4.6.7,1.2,1.1,1.8.7,1.1,1.3,2.3,2.1,3.4.2-1,.4-2.1.5-3.1.1-1.2.3-2.4.6-3.6.7-2.6,1.1-5.3,1.3-7.8.5-5.4.2-10.8-.9-16.1,0-.3.1-.6.4-.7.3,0,.6.1.7.4,1.2,5.4,1.5,10.9.9,16.4-.3,2.6-.7,5.3-1.4,8-.3,1.1-.4,2.4-.6,3.5-.2,1.2-.3,2.5-.6,3.7,0,.1-.1.5-.5.7,0,0-.2,0-.3,0Z"/>
  <path class="cls-27" d="M236.3,238.9c0,2.1-.2,4.1,0,6.2.2,3.7.6,7.3.9,10.9,0,.4,6.5-1.5,7-1.7,2.3-.7,4.1-.4,4.4-2.9.5-3.7.4-7.5,0-11.2-.1-1.6,0-4.1-.6-5.6-.5-1.3-.6-1.1-2.2-.9-3,.3-6.1.4-9,1.3-.3,0-.5.2-.7.4-.2.2-.1.5-.1.8,0,.9.1,1.9.1,2.8Z"/>
  <path class="cls-11" d="M245.7,154.1c-2.1.1-3.9.1-6,.7-3,.9-6.1,2-8.3,4.3-2.3,2.4-3.7,5.6-4.3,8.8-.4,1.9-.6,4-.3,5.9.6,4,3.4,7.4,4.7,11.3.7,2.3.9,4.7,1.3,7,.5,2.6,2.2,4,3.7,6,1.9,2.5,2.8,5.8,6,7.3,1.3.6,3.4.7,4.8.7,1.8,0,2.5-1.4,3.4-2.6.3-.4.6-.9,1-1.3,1-1.2,2.3-1.9,3.5-2.9,2.7-2.4,5.3-5,5.8-8.7.2-1.7.3-3.4,1-4.9,1.6-3.3,4.7-5.5,5.9-9.1.5-1.7.6-3.1.4-4.8-.3-2,0-4-.6-5.9-1.3-4.2-4.6-8-8.4-10.1-4.1-2.3-8.9-1.9-13.5-1.6Z"/>
  <path class="cls-6" d="M256,196.2c-.2,0-.4,0-.6,0-.5-.1-.8-.4-1.2-.6-.1,0-.3-.2-.4-.3-.4-.2-.7-.3-1.1-.4-.8-.3-1.7-.6-2.4-1.5-.1-.1-.3-.4-.3-.6,0-.7.5-1.2,1.1-1.5.3-.1.6,0,.7.3.1.3,0,.6-.3.7-.2.1-.4.2-.4.3,0,0,0,0,0,.1.5.6,1.1.9,1.8,1.1.4.2.9.3,1.3.5.1,0,.3.2.5.3.3.2.6.4.9.5.3,0,.6,0,.8,0,.4-.2.7-.7.8-1.2.1-.6,0-1.3-.2-2-.8-2.3-1-4.3.3-6.4.2-.3.5-.3.8-.2.3.2.3.5.2.8-1.1,1.8-.9,3.3-.2,5.4.3,1,.4,1.9.2,2.6-.2.8-.7,1.6-1.4,2-.3.2-.7.3-1.1.3Z"/>
  <path class="cls-2" d="M249.8,175.5c-.7,0-1.4,0-2,.3-.1,0-.3.1-.4.2-.2.2-.1.5,0,.8.4.7,1.6.7,2.3.9,1.4.3,2.8.8,4.1,1.6.4.3.8.5,1.3.7.5.1,1,.1,1.4-.2.6-.5.6-1.4,0-2-.5-.6-1.2-.9-1.9-1.1-1.4-.5-3.2-1.1-4.9-1.1Z"/>
  <path class="cls-2" d="M262,183c.1,0,.2.2.3.3.2.2.3.4.5.5.7.4,1.1-.4,1.3-.8,0-.1.1-.2.1-.4,0-.2-.1-.5-.3-.7-.7-.7-1.8-1.4-2.7-1.5-.5,0-1.1,0-1.4.6-.2.3-.3.6,0,.8.1.2.4.3.6.4.6.3,1.2.4,1.7.8Z"/>
  <path class="cls-2" d="M253.2,184.4c.5-.6.7-1.3,0-1.7-.3-.2-.6-.2-.9-.2-.4,0-.8,0-1.2,0-1.7-.1,0,2.2.8,2.5.4.1.9-.1,1.3-.5Z"/>
  <path class="cls-2" d="M261.2,187.5c.4-.5.4-1.2-.2-1.5-.6-.2-2-.3-2.2.5-.1.6.8,1.5,1.3,1.6.4,0,.8-.2,1.1-.6Z"/>
  <path class="cls-27" d="M244.2,197.8c1,2,4.3,1.7,6,1.2.2,0,.3-.7.1-.9-.6-.6-1.4-.7-2.1-1.2-.8-.5-1.4-1.4-2-2.2-1-1.5-3-1.4-2.7.8.1.9.2,1.7.5,2.3Z"/>
  <path class="cls-6" d="M240.3,204.6c-.2,0-.3,0-.4-.1-.4-.4-.6-.7-.8-1-.1-.2-.2-.4-.4-.7-.2-.3-.3-.5-.4-.7,0-.1,0-.2-.2-.4-.2-.3-.5-.6-.7-.9-.3-.4-.6-.7-.9-1.2h0c-1.7-2.6-3.7-5.5-4.9-8.4-.9-2.3-.9-4,0-6.5,0-.3.4-.4.7-.3.3.1.4.4.3.7-.9,2.2-.9,3.7-.1,5.7,1.1,2.8,3.1,5.6,4.8,8.1h0c.3.4.5.8.8,1.1.2.3.5.6.8,1,.2.3.3.4.3.6,0,.1,0,.2.2.4.3.3.4.6.5.8.2.3.3.5.6.8.2.2.2.6,0,.8,0,.1-.2.2-.4.2Z"/>
  <path class="cls-2" d="M258.7,169.9c1.4-.2,2.3-1,3.9,0,.9.6,1.7,1.5,2.7,1.4,1.7-.1,3.2,1.3,4.1-1.1.6-1.6.2-3.4-.2-5.1-.2-.8-.4-1.6-.8-2.3-.3-.7-.8-1.3-1.2-1.9,0-2.1-5-6.3-6.6-7.4-4-2.5-8.5-3.9-13-5.2-1.4-.4-9-1.3-9.3,1.3,0,.3,0,.6-.1.9-1.7,0-3.4.2-5,.7-1.1.3-3.6,1.1-4.1,2.3-.3.8,1,1.7-.2,2.2-1,.5-2.1.9-3.1,1.4-1.1.5-2.3,1-3.2,1.8-.5.4-.8.8-1.2,1.3-1.4,1.9-2.7,5.8.4,6.6-1.5,1.4-1.4,4.5-1.8,6.4-.2.8-.4,1.7-.3,2.6.1.9.6,1.7,1.4,2,.7.3,1.6.1,2,.7.7.9-.5,2.1-.6,3.3-.2,2.1,3.3,3.1,4.9,2.4.9-.4.8-1.1,1.5-1.7.6-.4,1.5-.4,1.9-.9.6-.7.2-2,.8-2.6,1-1,2,1,3.2.5,1.3-.5,2.2-2.9,3.1-4,.6-.7,1.2-1.3,1.9-1.7,1.9-.9,4.2-.4,6.2-.9,3.5-.9,3.3-6.4,8.1-4.5,1.2.5,2.3,1.4,3.7,1.4.2,0,.4,0,.5,0Z"/>
  <path class="cls-1" d="M261.8,166.9c-.3,0-.5-.2-.6-.5-.1-1.7-.7-3.3-1.3-4.8-.2-.6-.5-1.3-.9-1.7,0-.1-.2-.2-.3-.3-.2-.1-.5-.4-.7-.6-.3-.3-.4-.7-.5-1-.2-.5-.3-.7-.5-.8-.3,0-.5-.4-.4-.7,0-.3.4-.5.7-.4.8.2,1.1.9,1.3,1.4.1.3.2.5.4.7,0,.1.3.3.5.4.2.1.3.2.4.3.7.6,1,1.5,1.2,2.2.6,1.6,1.2,3.3,1.3,5.1,0,.3-.2.6-.5.6,0,0,0,0,0,0Z"/>
  <path class="cls-1" d="M241.6,159.4c0,0,0,0-.1,0l-1.3-.3c-.2,0-.3-.2-.4-.3,0-.2,0-.4,0-.5,0,0,0-.1,0-.3,0-.3-.5-.6-.8-.7-.2,0-.5-.1-.7-.2-.6-.1-1.3-.3-1.8-.8,0,0-.1-.1-.2-.2,0,0-.2-.2-.2-.2,0,0-.3,0-.4,0h-4c-.3,0-.6-.2-.6-.5s.3-.6.6-.6h4c.2,0,.6,0,1,.1.2.1.4.3.5.5,0,0,0,0,.1.1.3.3.8.4,1.3.5.3,0,.6.1.8.2.7.2,1.3.8,1.5,1.4,0,.2,0,.4,0,.6l.7.2c.3,0,.5.4.4.7,0,.2-.3.4-.5.4Z"/>
  <path class="cls-1" d="M249,157c-.9,0-1.3-.8-1.5-1.4-.1-.3-.2-.6-.4-.7-.2-.3-.6-.4-1.1-.5-.5-.1-1-.2-1.5-.6,0,0-.1-.1-.1-.2-.6-1.1-1.9-1.7-3.1-1.5-.3,0-.6-.1-.7-.4s.1-.6.4-.7c1.6-.3,3.4.5,4.3,1.9.3.2.6.3,1,.3.6.1,1.2.3,1.7.8.3.3.4.7.6,1,.2.5.3.7.5.7.3,0,.6.3.6.6,0,.3-.2.6-.5.6Z"/>
  <path class="cls-1" d="M237.2,169.6c-.2,0-.3,0-.4-.2-.9-1.1-1.9-2.2-3.2-2.2-.4,0-.8,0-1.3.2-.7.2-1.4.3-2.2,0-.4-.1-.7-.3-1-.5-.4-.2-.7-.4-1-.4-.4,0-.7.2-1.2.5-.4.3-.9.6-1.5.7-.3,0-.6-.1-.7-.5,0-.3.1-.6.4-.7.3,0,.7-.3,1-.5.5-.4,1.1-.7,1.8-.7.6,0,1.1.3,1.5.6.3.2.5.3.8.4.5.2,1,0,1.6-.1.5-.1,1-.2,1.5-.2,1.7,0,3,1.4,4,2.6.2.2.1.6,0,.8,0,0-.2.1-.4.1Z"/>
  <path class="cls-1" d="M225.6,177.3c-.2,0-.5,0-.7,0-.3,0-.5-.3-.5-.6,0-.3.3-.5.6-.5.8.1,1.6,0,2.2-.5h0c.2-.2.4-.4.7-.4.3,0,.5,0,.7,0l2,.6c.3,0,.5.4.4.7,0,.3-.4.5-.7.4l-2-.6c0,0-.2,0-.3,0s-.2,0-.3.1h0c-.7.5-1.5.8-2.3.8Z"/>
  <path class="cls-1" d="M254.4,165.9c-.1,0-.3,0-.4-.1-.8-.7-1.2-1.7-1-2.8,0,0,0,0,0-.1-1.3-.3-2.5-1.2-3.1-2.4-.1-.3,0-.6.2-.8.3-.2.6,0,.8.2.5.9,1.3,1.6,2.3,1.8.2,0,.4.1.6.3.3.4.3.8.2,1.1-.1.7.1,1.3.6,1.8.2.2.3.6,0,.8-.1.2-.3.2-.4.2Z"/>
  <path class="cls-1" d="M266.8,170.1c0,0,0,0-.1,0-.3,0-.5-.4-.4-.7.2-.7,0-1.4-.2-2,0,0,0-.1-.1-.2-.1-.2-.2-.4-.3-.6-.2-.6-.2-1.3-.1-1.9,0-.8,0-1.3-.3-1.5-.3-.2-.3-.5-.1-.8.2-.3.5-.3.8-.1.8.6.8,1.6.7,2.5,0,.5,0,1,0,1.4,0,.1.1.3.2.4,0,.1,0,.2.1.3.5.9.6,1.9.3,2.9,0,.2-.3.4-.5.4Z"/>
  <path class="cls-1" d="M258.6,168.9c-.3,0-.5-.2-.6-.5-.3-1.6-.8-3.2-1.3-4.7,0-.3,0-.6.3-.7.3,0,.6,0,.7.3.6,1.6,1.1,3.2,1.4,4.9,0,.3-.1.6-.4.7,0,0,0,0,0,0Z"/>
  <path class="cls-1" d="M248.8,169.8h0c-.5,0-2-.3-2.3-1.5,0-.3,0-.6,0-.8v-.3c0-.5-.3-.9-.6-1.2-.4-.3-.9-.5-1.3-.5-.3,0-.6-.2-.6-.5,0-.3.2-.6.5-.6.8,0,1.5.2,2.2.7.6.5,1,1.3,1,2v.3c0,.2,0,.4,0,.5.1.3.6.6,1.4.7.3,0,.5.3.5.6,0,.3-.3.5-.6.5Z"/>
  <path class="cls-1" d="M242.4,172.4c0,0-.1,0-.2,0-.3-.1-.4-.5-.3-.7.2-.6,0-1.4-.6-1.7h0c-.2-.1-.4-.3-.6-.6-.2-.4,0-.8,0-1.1,0-.1,0-.2,0-.3,0,0-.4,0-.5,0-.5,0-1.3-.2-1.3-1,0-.3.2-.6.6-.6s.5.2.6.4c.1,0,.3,0,.4,0,.5,0,1.1.1,1.4.8.2.4,0,.8,0,1,0,0,0,.2,0,.3,0,0,0,0,.1,0h.1c1.1.7,1.5,2.1,1,3.2-.1.2-.3.3-.5.3Z"/>
  <path class="cls-11" d="M233.2,181.9c-.6,1.1-1.6,1.9-3.2,2-.4,0-.7,0-1-.1-.4-.2-.7-.7-.8-1.1s-.2-.9-.3-1.4c-.1-.6-.4-1.1-.7-1.6-.3-.6-.7-1.1-.9-1.8-.1-.4-.1-.9-.2-1.4,0-3,4.5-5.4,6.3-2.5s2.1,5.7.9,7.9Z"/>
  <path class="cls-6" d="M232.1,177.7c-.3,0-.6-.2-.6-.5,0-.8-.7-1.6-1.5-1.8-.3,0-.5-.4-.4-.7,0-.3.4-.5.7-.4,1.3.3,2.3,1.5,2.3,2.9,0,.3-.2.6-.6.6,0,0,0,0,0,0Z"/>
  <path class="cls-6" d="M230,184.4h0c-.3,0-.6-.1-.8-.2-.1,0-.2,0-.4-.1-.3,0-.5-.4-.4-.7,0-.3.4-.5.7-.4.2,0,.3.1.5.2.1,0,.3,0,.5.1.4,0,.7-.1,1-.3.2,0,.3-.1.4-.2,0,0,0,0,.2-.1.2-.2.6-.2.8,0s.2.6,0,.8c-.2.2-.4.3-.5.4,0,0-.1,0-.2,0-.5.3-1,.4-1.5.5q0,0,0,0Z"/>
  <path class="cls-6" d="M253.9,193.1c-.3,0-.5-.2-.6-.5,0-.3,0-.6,0-.9,0-.3.3-.6.6-.5.3,0,.5.3.5.6,0,.2,0,.5,0,.7,0,.3-.2.6-.5.6q0,0,0,0Z"/>
  <path class="cls-23" d="M307.9,416.8c6.3,1.5,12.8,1.8,19.3,1.8,11.8,0,23.6-1.1,35.3-3.1,3.1-.5,6.5-1.3,8.2-3.9,1.9-2.7,1.2-6.4.5-9.6-1.5-6.2-3.1-10.7-8.2-14.7-4.3-3.5-9.6-5.6-15.1-6.8-7.3-1.6-14.9-1.4-22.3-1.1-5.4.2-10.8.5-15.9,2.1-3.6,1.2-7.1,3.1-9.8,5.8-2.7,2.8-3.2,6.4-4.2,10.1-.6,2.4-1.1,4.8-.8,7.2.3,2.2-.3,5.2,1,7,1.6,2.3,6.9,3.7,9.5,4.6.8.2,1.7.5,2.5.7Z"/>
  <path class="cls-17" d="M332.3,400.8c-8.4,0-17.1-.9-25.6-3.6-3-.9-8.1-3.2-8.2-7.7,0-.3.3-.6.6-.6s.6.3.6.6c0,3.8,4.6,5.8,7.4,6.7,17.7,5.5,36.6,3.5,51.1,1.1,1.4-.2,3.2-.5,4.7-1.4,1.2-.7,2.4-1.9,2.5-3.6,0-.3.3-.5.6-.5.3,0,.6.3.5.6,0,1.7-1.3,3.5-3.1,4.5-1.6.9-3.5,1.2-5.1,1.5-7.7,1.3-16.6,2.5-26,2.5Z"/>
  <path class="cls-26" d="M354.5,395.5c2.2-.5,5.5-1.1,6.1-3.6.5-2.3-2-5.2-3.8-6.3-2.1-1.2-4.5-1.6-6.8-1.9-15.1-1.9-30.8-1.9-44.8,3.7-1.2.5-2.5,1.1-2.9,2.4-.7,2.2,2.4,2.5,3.6,3.1,4.1,2,8.9,2.3,13.4,3.2,5.5,1.1,11.2,1.6,16.9,1.5,6.2-.1,12.4-.8,18.4-2.1Z"/>
  <path class="cls-28" d="M328.9,373.1c1.5,1.1,4.7,1.2,6.2,1.3.5,0,1,0,1.5-.2,1-.5,1-1.9.8-3-.1-.7-.3-1.5-.8-1.9-.5-.4-1.1-.6-1.7-.7-1.8-.3-3.6-.5-5.5-.4-.6,0-1.3,3.7-1.1,4.2.1.3.3.5.6.7Z"/>
  <path class="cls-28" d="M345.3,392.4c1.1,1.1,3.5,1.1,4.7,1.2.4,0,.8,0,1.1-.2.8-.5.8-1.9.6-3,0-.7-.2-1.5-.6-1.9-.3-.4-.8-.5-1.3-.6-1.4-.3-2.7-.4-4.1-.3-.5,0-1,3.7-.9,4.2,0,.3.3.5.5.7Z"/>
  <path class="cls-28" d="M344.6,386c1.2,1.1,3.7,1.1,4.9,1.2.4,0,.8,0,1.2-.2.8-.5.8-1.9.7-3-.1-.7-.2-1.5-.6-1.9-.4-.4-.9-.5-1.3-.6-1.4-.3-2.9-.4-4.4-.3-.5,0-1.1,3.7-.9,4.2,0,.3.2.5.5.7Z"/>
  <path class="cls-28" d="M322.3,378.4c0-.2-.4.1-.3.4.2,1.4.6,3,1.8,3.7,1.3.8,3,.3,4.4-.2.3-.1.7-.3.9-.5.3-.3.3-.7.3-1.1,0-1.9-1.1-3.9-3-4.2-1.2-.2-2.4.4-3.5,1-.3.1-.6.3-.7.6-.1.3-.1.7.2.8v-.5Z"/>
  <path class="cls-28" d="M316.1,380.5c0-.2-.3-.2-.5,0-.9,1.1-1.7,2.4-1.5,3.8.3,1.5,1.8,2.4,3.2,3.1s.7.3,1,.3c.4,0,.8-.3,1.1-.5,1.4-1.3,2.1-3.5,1-5-.7-1-2-1.5-3.2-1.9-.3-.1-.6-.2-.9-.1-.3,0-.6.4-.5.7l.4-.4Z"/>
  <path class="cls-28" d="M335.7,386.8c0-.2-.4.1-.3.4.2,1.4.6,3,1.8,3.7,1.3.8,3,.3,4.4-.2.3-.1.7-.3.9-.5.3-.3.3-.7.3-1.1,0-1.9-1.1-3.9-3-4.2-1.2-.2-2.4.4-3.5,1-.3.1-.6.3-.7.6s-.1.7.2.8v-.5Z"/>
  <path class="cls-28" d="M329.8,385.6c0-.2-.4.1-.3.4.2,1.4.6,3,1.8,3.7,1.3.8,3,.3,4.4-.2.3-.1.7-.3.9-.5.3-.3.3-.7.3-1.1,0-1.9-1.1-3.9-3-4.2-1.2-.2-2.4.4-3.5,1-.3.1-.6.3-.7.6-.2.3-.1.7.2.8v-.4Z"/>
  <path class="cls-28" d="M316,390.7c0-.2-.4.1-.3.4.2,1.4.6,3,1.8,3.7,1.3.8,3,.3,4.4-.2.3-.1.7-.3.9-.5.3-.3.3-.7.3-1.1,0-1.9-1.1-3.9-3-4.2-1.2-.2-2.4.4-3.5,1-.3.1-.6.3-.7.6s-.1.7.2.8v-.5Z"/>
  <path class="cls-28" d="M324.3,391.6c0-.2-.4.1-.3.4.2,1.4.6,3,1.8,3.7,1.3.8,3,.3,4.4-.2.3-.1.7-.3.9-.5.3-.3.3-.7.3-1.1,0-1.9-1.1-3.9-3-4.2-1.2-.2-2.4.4-3.5,1-.3.1-.6.3-.7.6-.2.3-.1.7.2.8v-.5Z"/>
  <path class="cls-3" d="M153.6,423.9c-.3,1.7-1.4,3.2-3.4,4.3-1.3.7-2.7.9-4.1,1-6,.7-12.2-.1-17.9-2.2-6.6-2.4-12-7.5-17.7-11.6-1.6-1.2-3.4-2.6-3.6-4.6,0-1,.3-2,.8-3,1.8-3.5,5.1-6.2,8.7-7.9,4-1.9,9.5-3.3,13.9-2,4.7,1.5,8.2,5.8,11.2,9.4,1.7,2,2.4,4.1,4.3,5.9,2,1.9,4.3,3.5,6.3,5.4,1.4,1.3,1.9,3.2,1.5,5.1Z"/>
  <path class="cls-13" d="M143.1,427.9c-1.1,0-2.2,0-3.3-.2-4.6-.6-8.9-2.4-13-4-.3-.1-.4-.4-.3-.7.1-.3.4-.4.7-.3,4.1,1.7,8.3,3.3,12.8,4,4.9.7,9.4-.2,12.6-2.5.3-.2.6,0,.8.2.2.2,0,.6-.2.8-2.7,1.9-6.3,2.9-10.1,2.9Z"/>
  <path class="cls-13" d="M133.1,425.2c0,0,0,0-.1,0-.3,0-.5-.4-.4-.7.9-3.1,2.8-6,5.4-8,2.7-2.1,4.8-2.6,7.9-2.8.3,0,.6.2.6.5,0,.3-.2.6-.5.6-2.9.2-4.8.6-7.3,2.5-2.4,1.9-4.2,4.5-5,7.4,0,.3-.3.4-.5.4Z"/>
  <path class="cls-34" d="M128.3,276.6c2.4,10.5,3.5,21.3,3.2,32.1,0,2.5-.2,5-.9,7.3-.8,2.8-2.4,5.3-3.7,8-2.1,4.1-3.5,8.4-4.8,12.7-5.5,17.8-8.9,36.4-8.5,55,0,3.2.3,6.5,2.3,9,2.2,2.8,5.9,3.8,9.4,4.2,3.7.4,20.6,1.6,18.3-5.9-.2-.6-.5-1.1-.7-1.7-.7-2.4,1.1-5.9,1.7-8.2.8-3.2,2.1-6.2,2.2-9.6,0-1.4,0-2.8.2-4.2.4-2.3,1.6-4.5,1.8-6.8.1-1.5-.2-3.1.1-4.6,1.6-7.6,3.7-15,5.1-22.7,1.7-9.4,3.6-18.7,5.5-28,5.1-24.7,7.8-48.9,8.8-74.1.6-15.1-25.5-11.2-32.6-4.5-7.8,7.3-10.5,18.7-10.1,29.4.1,5.8,1.3,7,2.6,12.6Z"/>
  <path class="cls-21" d="M136.3,325.3c-.2,0-.4,0-.5-.2-2-2.8-3-6.1-2.8-9.5,0-.3.3-.6.6-.5.3,0,.6.3.5.6-.1,3.1.8,6.3,2.6,8.8.2.3.1.6-.1.8,0,0-.2,0-.3,0Z"/>
  <path class="cls-21" d="M149.4,327.9c-.2,0-.4-.1-.5-.3-.1-.3,0-.6.3-.8,2.8-1.4,5.2-3.5,6.9-6,.2-.3.2-.6.2-.6-.3-.2-.3-.5-.1-.8.2-.2.5-.3.8,0,.6.5.6,1.3,0,2.1-1.8,2.7-4.4,4.9-7.3,6.4,0,0-.2,0-.2,0Z"/>
  <path class="cls-21" d="M132.6,400.6c-1.5,0-2.9-.3-4.2-.9-.3-.1-.4-.5-.3-.7.1-.3.5-.4.7-.3,3.4,1.6,7.4.5,11.5-.9.3-.1.6,0,.7.4.1.3,0,.6-.4.7-2.7.9-5.5,1.7-8.1,1.7Z"/>
  <path class="cls-21" d="M147.9,346.1c-.3,0-.6-.2-.6-.5,0-3,.9-6,1.8-8.6l1.9-5.6c0-.3.4-.5.7-.4.3,0,.5.4.4.7l-1.9,5.6c-.9,2.7-1.8,5.4-1.7,8.2,0,.3-.3.5-.6.6Z"/>
  <path class="cls-3" d="M117,413.3c1.8,1.8,4,2.8,5.6,4.8,1.6,2.1,2.7,4.2,2.9,6.9,0,1.1,0,2.3-.5,3.3-1.1,2.2-3.7,3-6.1,3.4-6.3,1-12.8.2-18.3-3.1-5.7-3.5-11.2-7.3-16.3-11.5-.5-.4-.9-.8-1.2-1.3-.6-1.1-.3-2.4.2-3.6.7-1.8,1.4-4.7,2.9-6,1.2-1,3.1-1.7,4.5-2.4,3.8-2,8.7-4.2,13.1-3.1,5.8,1.5,6.1,7.2,10.1,10.3,1,.7,2,1.5,3,2.3Z"/>
  <path class="cls-13" d="M125.2,428.2c0,0-.1,0-.2,0-.3,0-.5-.4-.4-.7,2.3-6.8-3.2-12-8.6-16.4h-.2c-1.9-1.7-3-2.6-3.3-5.3,0-.3.2-.6.5-.6.3,0,.6.2.6.5.3,2.3,1.1,2.9,2.9,4.5h.2c4.1,3.5,11.7,9.7,8.9,17.8,0,.3-.3.4-.5.4Z"/>
  <path class="cls-13" d="M113.8,430.3c-1.6,0-3.2-.2-4.7-.5-5.3-1.2-9.7-4.7-13.6-7.8l-10.6-8.3c-.3-.2-.3-.5,0-.8.2-.3.5-.3.8-.1l10.6,8.3c3.8,3,8.1,6.4,13.2,7.6,4.1.9,8.3.3,11.9-.4.3,0,.6.1.7.4,0,.3-.1.6-.4.7-2.4.5-5,.9-7.6.9Z"/>
  <path class="cls-13" d="M104.3,427.2c-.3,0-.5-.2-.6-.5-.7-3.9,2-7.5,4.9-9.4,3.1-2,6.8-2.7,10.1-3.3.3,0,.6.2.7.5,0,.3-.1.6-.5.7-3.2.6-6.8,1.3-9.8,3.1-2.6,1.7-4.9,4.8-4.4,8.2,0,.3-.1.6-.5.6h0Z"/>
  <path class="cls-34" d="M93.2,286.7c0,1.8,0,3.5,0,5.3,0,4.5,0,9,0,13.4,0,3.6.5,7.3-.8,10.8-3.5,9.5-8.1,18.1-8.9,28.5-.3,3.8-.7,7.6-.6,11.5.1,3.5-.5,6.8-.3,10.3.4,9.1,1.9,18.1,1.8,27.2,0,2.2,0,4.4.8,6.4.4.8.9,1.7.8,2.6-.1,1.4-1.7,2.3-2.1,3.7-2,6.3,25.1,1.8,28.4.9.9-.2,1.9-.5,2.5-1.2.9-.9,1-2.4,1.1-3.7.9-24.5,2.5-48.9,4.7-73.3,1.4-16,7.2-30.4,10.2-46.2,2.1-11.5,3.4-23.1,3.7-34.7.3-10.2,1.3-14.5-8.7-17.9-8.6-2.9-18.3-5.4-27.3-3-9.8,2.7-8.5,16-8.1,24,.2,4.7.9,9.3,1.4,13.9.8,7.1,1.2,14.3,1.3,21.5Z"/>
  <path class="cls-21" d="M130.6,287c0,0,0,0-.1,0-.3,0-.5-.4-.4-.7,1.6-7.1,2.5-14.4,2.8-21.8,0-2.2.2-5.4,2.4-7.1.9-.7,2-1,3-1.3l4.5-1.2c.3,0,.6,0,.7.4,0,.3,0,.6-.4.7l-4.5,1.2c-.9.3-1.9.5-2.7,1.1-1.7,1.3-1.9,3.7-2,6.3-.3,7.4-1.2,14.7-2.8,22,0,.3-.3.5-.5.5Z"/>
  <path class="cls-21" d="M115,330.5c0,0-.1,0-.2,0-.3-.1-.5-.4-.4-.7.5-1.5,1.5-2.6,2.4-3.7.9-1,1.7-2,2.2-3.2.4-1,.5-2.2.5-3.4.1-1.8.3-3.7,1.5-5.1.2-.2.6-.3.8,0s.3.6,0,.8c-1,1.1-1.1,2.8-1.2,4.5,0,1.2-.2,2.5-.6,3.7-.5,1.4-1.4,2.5-2.3,3.5-.9,1.1-1.8,2.1-2.2,3.4,0,.2-.3.4-.6.4Z"/>
  <path class="cls-21" d="M94.7,321.5c-.2,0-.3,0-.4-.2-.2-.2-.2-.6,0-.8,2.5-2,1.6-5.8.8-9.4-.4-1.9-.8-3.7-.8-5.2,0-.3.3-.6.6-.5.3,0,.6.3.5.6,0,1.4.3,3.1.7,4.9.9,3.8,1.8,8.1-1.2,10.5,0,.1-.2.1-.3.1Z"/>
  <path class="cls-21" d="M115.3,400.2c-.1,0-.2,0-.3-.1-1.5-1.2-1.3-3.4-.7-4.9.2-.4.4-.8.6-1.2.5-1,.9-1.9.9-2.9s-.1-1.1-.2-1.7c0-.2,0-.4-.1-.6-.3-1.6-.3-3.3-.2-4.8.2-7.5.3-15.2,1.7-22.7.1-.7.3-1.4.4-2.1.8-4.1,1.7-8.3.5-12.2-.1-.3,0-.6.4-.7.3,0,.6,0,.7.4,1.3,4.2.4,8.5-.5,12.7-.2.7-.3,1.4-.4,2.1-1.4,7.4-1.6,15.1-1.7,22.5,0,1.5,0,3.1.2,4.6,0,.2,0,.4.1.6.1.6.3,1.2.3,1.9,0,1.2-.6,2.3-1.1,3.4-.2.4-.4.8-.5,1.2-.5,1.3-.6,2.9.4,3.6.3.2.3.5.1.8-.1.1-.3.2-.5.2Z"/>
  <path class="cls-21" d="M98.6,405.3c-1.7,0-3.4-.2-5-.6-.3,0-.5-.4-.4-.7,0-.3.4-.5.7-.4,3.5.9,7.4.8,10.9-.4.8-.3,1.7-.6,2.5-1,1.2-.5,2.4-1,3.6-1.3.2,0,.5,0,.6.1.2,0,.3.3.3.5,0,.3-.1.7-.5.8-.2,0-.5,0-.6-.2-1,.3-2,.7-3,1.2-.8.4-1.7.7-2.6,1-2.1.7-4.3,1-6.5,1Z"/>
  <path class="cls-21" d="M97,361.2c-.1,0-.3,0-.4-.2-3-2.9-5.5-6.3-7.3-10.1-.1-.3,0-.6.3-.7.3-.1.6,0,.7.3,1.7,3.7,4.1,7,7,9.7.2.2.2.6,0,.8-.2.1-.3.2-.4.2Z"/>
  <path class="cls-21" d="M96.5,366.6c-.1,0-.2,0-.3-.1l-3.5-2.7c-.3-.2-.3-.5-.1-.8.2-.3.5-.3.8-.1l3.5,2.7c.3.2.3.5.1.8-.1.2-.3.2-.5.2Z"/>
  <path class="cls-20" d="M173,184.1c-.8,3.1-1.3,6.3-2.1,9.5-1.3,4.9-2.6,9.9-2.7,14.9,0,3.9.6,7.8,1.2,11.6.4,2.6.8,5.1,1.2,7.7.3,1.7.5,3.5,0,5.1-1.1,4.2-5.7,3.4-9,3.7-4.5.4-9,.7-13.6,1.1-7.8.6-15.7,1.2-23.5,1.1-12.4-.2-24.6-2.3-36.8-4.3-1.8-6,.6-12.4,1.7-18.5,1.2-6.4,1.1-12.9,1.1-19.3,0-7-.1-14.1-.9-21.1-.6-4.8-1.5-9.6-1.9-14.4-.7-9.3.5-18.7,1.7-28,.3-2.4.7-4.9,1.9-7,3.5-5.9,11.9-6.1,18.7-5.3,5.1.6,10.2,1.3,15.4,2.2,9,1.5,18.1,3.4,25.9,8.1,6.5,3.9,11.8,9.7,15.5,16.4,1.9,3.3,3.3,6.9,4.4,10.5,1.1,3.6,2.6,6.3,2.8,10.2.2,2.8.4,5.5.6,8.3,0,.5,0,1.1,0,1.6,0,.5-.2.9-.4,1.3-.6,1.5-1,3-1.4,4.6Z"/>
  <path class="cls-29" d="M145,232.5c-.2,0-.4-.1-.5-.3-.2-.3,0-.6.2-.8,1.9-1,4-1.1,6.1-1.1,1.2,0,2.5,0,3.6-.3,1.3-.3,2.5-.7,3.8-1.3.4-.2.7-.3,1.1-.5,2-.8,4.1-1.4,6.2-1.8,0-.1.2-.2.4-.2h1.1c.3,0,.6.2.6.5,0,.3-.2.6-.5.6-2.6.4-5.1,1.1-7.5,2-.4.1-.7.3-1.1.4-1.3.5-2.6,1.1-4,1.3-1.2.2-2.6.3-3.8.3-2,0-4,0-5.6,1,0,0-.1,0-.3,0Z"/>
  <path class="cls-29" d="M158.2,224.9c-.5,0-.9,0-1.4,0-.3,0-.5-.3-.5-.6,0-.3.3-.5.6-.5,2.9.3,5.8-.4,8.3-1.8.3-.1.6,0,.8.2s0,.6-.2.8c-2.3,1.3-4.9,2-7.6,2Z"/>
  <path class="cls-29" d="M117.9,133.6c-4.3,0-8.5-1.1-12.2-3.1-.3-.1-.4-.5-.2-.8.2-.3.5-.4.8-.2,3.6,2,7.8,3,11.9,3,.8,0,1.6,0,2.6-.1,2.1-.2,4.3-.6,6.3-1.1.3,0,.6,0,.7.4,0,.3-.1.6-.4.7-2.1.6-4.3.9-6.5,1.1-1,.1-1.8.1-2.7.2,0,0-.1,0-.2,0Z"/>
  <path class="cls-20" d="M78.2,169c-1.9-.2-6.1-1.5-6.3,1.3-.1,1.4.7,3.6-1.1,3.4-1.3-.1-2.8-3.5-3-4.6-.1-.8,0-1.6,0-2.4.3-2.5.6-5.1,1.4-7.5.4-1,.8-2,1.1-3.1.2-.9.3-1.8.5-2.8,1.1-7.4,3.2-15.5,8-21.4,3.1-3.8,7.6-6.5,12.3-8,1.6-.5,3.4-.9,5.1-.6,2.9.5,5.1,2.9,6.3,5.6,3.6,7.8.4,17.1-2.4,24.6-2.5,6.8-3,12.1-2.4,19.3-6.6-1.1-12.9-3.1-19.5-4Z"/>
  <path class="cls-29" d="M97.3,173.7c-.1,0-.3,0-.4-.1-.2-.2-.2-.6,0-.8.8-.8.9-1.9,1.1-3.3.3-2.5.6-5.1.7-7.6,0-.4,0-.8.3-1.2.2-.3.5-.5.8-.7l1.3-.9c.2-.1.6,0,.8.2.2.2,0,.6-.2.8l-1.3.9c-.2.1-.3.2-.4.3-.1.1-.1.4-.1.7-.2,2.6-.5,5.2-.7,7.6-.1,1.2-.3,2.8-1.4,4-.1.1-.3.2-.4.2Z"/>
  <path class="cls-29" d="M101.9,163.8c-.2,0-.4-.1-.5-.3-.1-.3,0-.6.3-.7,1.3-.5,2.7-.8,4.1-.8.3,0,.7,0,1.4,0,.3,0,.8,0,1,0,.1,0,.3,0,.4,0,.3,0,.4.4.3.6-.1.5-.3.5-1.8.5-.3,0-.8,0-1,0,0,0-.1,0-.2,0-1.3,0-2.6.2-3.7.7,0,0-.1,0-.2,0Z"/>
  <path class="cls-29" d="M96.9,165.6c-.4,0-.8-.2-1-.4-2.1-1.7-4.7-2.9-7.4-3.3-.3,0-.5-.3-.5-.6,0-.3.3-.5.6-.5,2.9.4,5.6,1.6,7.9,3.5,0,0,.2.1.2.2.1-.2.4-.2.6-.1.3.1.4.5.3.7-.1.3-.3.4-.6.5,0,0-.2,0-.2,0Z"/>
  <path class="cls-29" d="M69.8,173.7h0c-.3,0-.5-.3-.5-.6,0-.3,0-.7-.1-1,0-.2,0-.3,0-.5-.3-1.7.4-3.5,1.7-4.8,1.2-1.1,2.8-1.7,4.7-1.9.3,0,.6.2.6.5,0,.3-.2.6-.5.6-1.6.1-3,.7-4,1.6-1.1,1-1.6,2.5-1.4,3.8,0,.2,0,.3,0,.4.1.4.2.9.1,1.5,0,.3-.3.5-.6.5Z"/>
  <path class="cls-29" d="M103,146.6c0,0,0,0-.1,0-.3,0-.5-.4-.4-.7.9-3,1.2-6.3.9-9.5,0,0,0,0,0,0-.2,0-.4-.2-.4-.5,0-.3.2-.6.5-.6.2,0,.4,0,.6.1.3.3.4.7.4.9.4,3.3,0,6.7-.9,9.9,0,.3-.3.4-.5.4Z"/>
  <path class="cls-25" d="M113.9,156.7h0c-.3,0-.5-.2-.5-.4,0-.4-.1-.8-.2-1.3-.5-3-1.1-6.3-2.9-8.6-1.1-1.4-2.5-2.8-3.7-4.1-.9-1-1.9-1.9-2.7-2.9-4-4.5-8-10-7.8-16.2,0-.3.3-.6.6-.5.3,0,.6.3.5.6-.2,5.8,3.7,11.1,7.5,15.5.8,1,1.8,1.9,2.7,2.9,1.3,1.4,2.7,2.8,3.8,4.2,1.8,2.3,2.5,5.3,3,8.2.7-2.2,1.4-4.1,2.7-6.2,4.7-7.7,8.7-15.8,11.9-24.3.1-.3.4-.4.7-.3.3,0,.4.4.3.7-3.2,8.5-7.2,16.7-12,24.4-1.5,2.4-2.2,4.7-3,7.3l-.2.7c0,.2-.3.4-.6.4Z"/>
  <path class="cls-27" d="M120.6,153.4h0c.1,2.7.3,5.3.4,7.9,0,2.1.6,4.1.8,6.1,0,0,0,.1,0,.2,0,.1-.2.2-.3.3-2.1.8-4.4,1.3-6.6,1.8-1.7.4-3.9,1.9-4.5-.3-1.1-4.6-1.2-9.7-1.4-14.5,3.5-.8,7-1.6,10.5-2.4.3,0,.5-.1.7,0,.3.1.4.5.4.9Z"/>
  <path class="cls-15" d="M97.9,76c0,.6,0,1.2-.2,1.9-.4,1.8-.9,3.4-1.7,5.1-.6,1.3-1,3-2.4,3.8-.4.2-.9.3-1.3.5-1.9.9-1.7,2.7-4.2,2.7-.7-2.8-.5-6.1,1.5-8.2.7-.8,1.7-1.3,2.4-2.1,1.1-1.2,1.3-2.8,1.6-4.3.4-1.8,1.1-3.4,2.4-4.8.7-.7,3-2.9,4.1-2.5,1.1.4,0,1.9-.4,2.7-.6,1.1-1.5,2.4-1.7,3.7,0,.6,0,1.1-.1,1.6Z"/>
  <path class="cls-32" d="M129.1,125.3c0,.6,0,1.1-.3,1.6-.5.8-1.4,1.1-2.3,1.3-6.9,1.7-14.5,1.1-21-1.8-1.2-.5-2.4-1.2-3-2.4-.5-1.1-.4-2.4-.3-3.5.6-4.7,1.1-9.5,1.7-14.2,0-.3,0-.6.3-.8.3-.2.6-.2,1-.2,6.8,1,14.7,1.9,21,4.6,5,2.2,3.2,10.8,3,15.3Z"/>
  <path class="cls-15" d="M131,92.2c1.3,4,1.6,8.3.5,12.4-.9,3.5-3.3,7.2-3.3,10.8,1.4-.5,3.2-1.7,4.3-2.7,2-1.9,3.6-4.2,4.6-6.8,3.2-8.2,2.2-17.9-2.3-25.5-4.9-8.1-15.1-14.7-24.9-12.8-2,.4-4.1,1.3-5.3,2.9-1.9,2.6-1.2,8.1,2.6,8.5,3.6.4,7.7-1.7,11.2.3,4.8,2.7,8.8,5.2,11.5,10.3.4.9.8,1.7,1.1,2.7Z"/>
  <path class="cls-32" d="M102,80.8c5.8-5.4,13.9-7.3,21.4-5,3.3,1,6.5,3.2,8,6.3.6,1.2.9,2.6,1.2,3.9.5,2.2,1,4.5,1.6,6.8.3,1.4.7,2.9.7,4.4,0,1.3-.2,2.7-.4,4-.6,3.1-1.1,6.3-2.7,9-4.3,7.3-12.7,7.7-19.8,4.5-5.7-2.5-13.8-8.1-15.2-14.4-1.5-6.8-.2-14.6,5.2-19.5Z"/>
  <path class="cls-4" d="M121.9,117.2c-1.1,0-2.3-.2-3.5-.5-3.7-1-6.5-3.1-7.6-5.8-.1-.3,0-.6.3-.7.3-.1.6,0,.7.3.9,2.4,3.4,4.3,6.8,5.1,1.7.5,3.3.6,4.7.3,1.6-.3,3-1,3.9-2.1.2-.2.6-.3.8,0s.3.6,0,.8c-1,1.3-2.7,2.2-4.6,2.5-.5.1-1.1.1-1.7.1Z"/>
  <path class="cls-15" d="M95.5,75c-2.6,5.2-3,11.5-3.5,17.2-.5,4.6-.9,9.2-1.4,13.8-.3,2.9.2,7-2.6,8.8-1.5,1-3.5.9-5.1,1.9-1.7,1-3,2.5-3.7,4.3-.9,2.1-1,4.5-1.1,6.8,0,1.3,0,2.8.7,3.9.2.3.5.6.9.5.7-.2.2-1,.5-1.4.4-.7,1.1-1,1.8-1.5,1.6-.9,3.3-1.6,5.1-2,1.9-.4,3.8-.5,5.8-.7,6.7-.8,14.1-3,18.2-8.8,4.9-7-2-16.1-1.5-24,.3-5.1,2.2-10.2,6-13.7,1.1-1,2.4-1.9,3.3-3.1,3.2-4.3,0-11.2-5.1-12.1-7.1-1.2-15.1,3.8-18.2,9.9Z"/>
  <path class="cls-16" d="M120.8,105.7c-.5-.2-.9-.5-1.3-.8-1.5.9,1,4.1,1.9,4.6.9.5,1.9.5,2.9.2,1-.3,1.8-.8,2.7-1.3,1.9-1.1-2.2-1.4-3-1.6-1.1-.3-2.3-.6-3.3-1.1Z"/>
  <path class="cls-4" d="M125.9,104.3c-.3,0-.6,0-.9-.2-.3-.1-.4-.5-.3-.7.1-.3.5-.4.7-.2.4.2.9,0,1.2-.3.7-.8-.3-2.6-1.1-4-.5-.8-.9-1.5-1-2.1-.2-.7-.4-1.6-.1-2.4,0-.3.4-.5.7-.4.3.1.5.4.4.7-.2.6,0,1.3.1,1.8.1.5.5,1.1.9,1.8,1,1.7,2.3,3.9,1,5.3-.4.4-1,.7-1.6.7Z"/>
  <path class="cls-14" d="M115.5,90.6c-.3,0-.6.2-.8.4-.8.5-2.2,2.8-.3,2.1.4-.1.6-.4,1-.6.8-.4,1.7-.6,2.6-.7.5,0,.9-.1,1.4-.1.7,0,1.6.4,2.1,0-1.1-1.6-3.1-1.4-4.8-1.2-.4,0-.8.1-1.2.3Z"/>
  <path class="cls-14" d="M127.3,91.5c-.3,0-.5.2-.8.2-.3,0-.6-.2-.6-.5,0-.3.1-.6.4-.8,1.5-1.4,4-1.3,5.6-.4.8.4,1.2,1,.2,1-.8,0-1.7-.4-2.6-.3-.8,0-1.5.4-2.3.7Z"/>
  <path class="cls-7" d="M118.1,96.8c0,0,0-.2,0-.3-1.2-1,.9-2.4,1.9-1,1.2,1.7-1.2,2.8-1.9,1.3Z"/>
  <path class="cls-7" d="M128.4,95.2c0-.1,0-.2,0-.3-1.2-1,.9-2.4,1.9-1,1.2,1.6-1.2,2.8-1.9,1.3Z"/>
  <path class="cls-31" d="M126.9,69.5c0,0-.2,0-.3,0-1.9-1.1-4.3-1.4-6.5-.7-.3.1-.6,0-.7-.4-.1-.3,0-.6.4-.7,2.4-.8,5.2-.5,7.4.8.3.1.4.5.2.8-.1.2-.3.3-.5.3Z"/>
  <path class="cls-31" d="M90.3,116.9c-.2,0-.5-.2-.5-.4,0-.3,0-.6.4-.7,2.8-.8,4.2-3.7,4.7-5.9s.2-4.6,0-6.9c0-.5,0-1-.1-1.5-.5-5.6-.1-11.3,1.1-16.8,0-.3.4-.5.7-.4.3,0,.5.4.4.7-1.1,5.4-1.5,10.9-1,16.5,0,.5,0,1,.1,1.5.2,2.4.5,4.8,0,7.2-.7,3.4-2.8,6-5.5,6.8,0,0,0,0-.1,0Z"/>
  <path class="cls-31" d="M91.4,119.6c-.5,0-1,0-1.4,0-.3,0-.6-.2-.6-.6s.3-.6.6-.6c1.4,0,2.8,0,4.2-.2,1-.2,2.5-.7,3.5-1.8.6-.7,1-1.5,1.4-2.4.9-2.1,1-3.5.3-4.5-.1-.3,0-.6.2-.8.3-.2.6,0,.8.2,1.1,1.8.4,4-.2,5.5-.4.9-.9,1.9-1.6,2.7-1.2,1.3-2.9,1.9-4.1,2.1-1,.2-2,.3-3,.3Z"/>
  <path class="cls-31" d="M82.5,128.2c0,0-.2,0-.3,0-.3-.2-.4-.5-.2-.8,1.4-2.3,4-3.4,5.9-3.9,1.2-.3,2.4-.5,3.5-.7,1.1-.1,2.2-.3,3.2-.6.1,0,.2,0,.3-.1,0-.3.2-.5.5-.5.3,0,.6.2.6.5,0,.6-.4,1-1.1,1.2-1.1.2-2.2.4-3.3.6-1.1.2-2.3.4-3.5.6-1.7.5-4,1.4-5.2,3.4-.1.2-.3.3-.5.3Z"/>
  <path class="cls-15" d="M112.5,63.5c-.2-.5-.6-.9-1-1.5-2.3-2.4-7.1-6.2-10.3-3.5-.4.3-.7.8-1.1,1.1-1,1.1-2.1,2.1-3.1,3.2-.9,1.2-1.7,2.6-1.6,4.1,0,.3,0,.6.2.8.1.2.3.3.5.4,3.3,1.8,6.6,0,10-.1,3.2,0,7.9-1.4,6.4-4.5Z"/>
  <path class="cls-15" d="M113.1,79.9c-1.3-.2-2.5-.8-3.7-1.4-2.3-1.2-5-3.2-5.3-6-.3-2.9,1.1-5.7,3.9-6.6,1-.3,1.7,0,2.6,0,1.2,0,2.4-.4,3.5-.6,2.5-.3,5-.3,7.4.1,3.7.7,7.3,2.5,9.8,5.4,2.3,2.7,2.9,5-.4,7-2,1.2-4.3,0-6.4,0-1.9,0-3.8.3-5.6.9-1.6.5-3.1,1.2-4.8,1.2-.4,0-.7,0-1.1,0Z"/>
  <path class="cls-31" d="M131.2,78.8c-.2,0-.3,0-.4-.2-.2-.2-.2-.6,0-.8,1-1,1.4-2.6,1.1-4,0-.3.1-.6.4-.7.3,0,.6.1.7.4.4,1.7-.2,3.6-1.4,4.9-.1.1-.3.2-.4.2Z"/>
  <path class="cls-31" d="M113.7,79.9h0c-3.7-.5-7.3-2.2-10-4.8-.8-.8-1.9-2-2.1-3.6,0-.3.2-.6.5-.6.3,0,.6.2.6.5,0,.9.6,1.9,1.7,2.9,2.5,2.5,5.9,4.1,9.4,4.5.3,0,.5.3.5.6,0,.3-.3.5-.6.5Z"/>
  <path class="cls-31" d="M126.2,77.3h0c-.3,0-.5-.4-.5-.7.1-.9-.2-1.8-1.2-3-1.2-1.4-2.6-2.7-4.2-3.7-.3-.2-.3-.5-.2-.8.2-.3.5-.3.8-.2,1.7,1.1,3.2,2.4,4.4,3.9,1.2,1.4,1.7,2.7,1.4,3.9,0,.3-.2.5-.5.5Z"/>
  <path class="cls-31" d="M118.8,77.5c0,0-.1,0-.2,0-4.7-1.5-9.2-4-12.9-7.3-.2-.2-.3-.6,0-.8s.6-.3.8,0c3.6,3.2,7.9,5.6,12.5,7,.3.1.5.4.4.7,0,.2-.3.4-.5.4Z"/>
  <path class="cls-31" d="M103.3,68.8c-.2,0-.4,0-.5-.3-.2-.3,0-.6.1-.8,2.6-1.8,5.8-2.8,8.9-2.9.3,0,.6.2.6.5,0,.3-.2.6-.5.6-2.9,0-5.9,1.1-8.4,2.7-.1,0-.2.1-.3.1Z"/>
  <path class="cls-31" d="M109.1,63.8c-.1,0-.3,0-.4-.1-1.8-1.6-4.2-2.6-6.6-2.9-.3,0-.5-.3-.5-.6,0-.3.3-.5.6-.5,2.7.3,5.2,1.4,7.2,3.1.2.2.3.6,0,.8-.1.1-.3.2-.4.2Z"/>
  <path class="cls-31" d="M100.1,67.6c-1.6,0-3.3-.7-4.3-2.1-.2-.3-.1-.6,0-.8.3-.2.6-.2.8,0,1.1,1.4,3.1,2,4.7,1.4.3-.1.6,0,.7.4.1.3,0,.6-.4.7-.5.2-1.1.3-1.7.3Z"/>
  <path class="cls-31" d="M102.5,117.4c-.2,0-.5-.1-.5-.4-.1-.3,0-.6.4-.7,3.5-1.1,5.5-5,5.9-8.3.4-3.3-.3-6.6-1-9.9,0-.4-.2-.8-.2-1.2-.7-3.5-1.4-7.7-.2-11.6.4-1.3,1-2.6,1.8-3.7.2-.3.5-.3.8-.1s.3.5.1.8c-.7,1-1.3,2.2-1.7,3.3-1.1,3.6-.5,7.6.3,11,0,.4.2.8.2,1.2.7,3.3,1.4,6.8,1,10.3-.4,3.7-2.7,8-6.7,9.2,0,0-.1,0-.2,0Z"/>
  <path class="cls-31" d="M99.8,95.4c-.3,0-.5-.2-.5-.4-1.4-5.3-.4-11.1,2.8-15.7.2-.3.5-.3.8-.1s.3.5.1.8c-3,4.2-3.9,9.7-2.6,14.7,0,.3,0,.6-.4.7h-.1Z"/>
  <path class="cls-31" d="M92.5,87.1h0c-.3,0-.5-.4-.5-.7.1-.8.5-1.4.8-2.1.1-.2.2-.4.3-.6.8-1.7,1.1-3.6,1.4-5.6.1-1,.3-1.9.5-2.9.4-1.8,1.7-6.1,5.5-7.1.3-.1.6,0,.7.4,0,.3,0,.6-.4.7-3.1.9-4.3,4.7-4.7,6.3-.2.9-.4,1.9-.5,2.8-.3,2-.6,4-1.5,5.9-.1.2-.2.4-.3.7-.3.6-.6,1.2-.7,1.7,0,.3-.2.5-.5.5Z"/>
  <path class="cls-25" d="M158.8,108.9c3.1,4.2,5.9,8.9,10.3,11.8,1.3.9,2.7,1.5,3.9,2.6,1.2,1,2.1,2.5,1.9,4-.4,3.4-3.6,2.9-6.2,3.1.3.3,0,.8-.3,1.1-.4.2-.8.2-1.2.2-7.1-.6-13.8-3-20.7-4.9-4.8-1.3-9.5-3.6-12.5-7.6-3-4-3.8-9.8-1-13.9,2.7-4.1,8.9-6,13.6-5.6,5.1.5,9.2,5.3,12.1,9.2Z"/>
  <path class="cls-25" d="M153.5,132.8c.3,3,3.2,5,5.6,6.9,3,2.4,5.8,5.4,7.6,8.9,1.9,3.7,2.2,7.2.6,11.1-1.5,3.7-3.2,7.3-5,10.8-.7,1.3-1.4,2.6-1.8,4-.5,1.3-.7,2.6-1.1,3.9-.7,2.3-2.4,4.3-4.1,6-1.8,1.8-3.9,3.4-6.2,4.5-4.7,2.1-9.7,1.1-13.4-2.5-3.1-3-5.6-6.7-7.4-10.7-1-2.3-1.9-4.4-2.1-6.9-.2-2.2-.2-4.3-.6-6.4-.4-3-2.6-5.3-2.7-8.4,0-2.7.4-5.7.9-8.3.1-1,.8-2.3.8-3.3.6-1.7,1.3-3.4,2.2-4.9.5-.8,1-1.6,1.5-2.4.3-.4,1.7-1.6,1.7-1.9,1.7-1.8,3.5-3.4,4.6-5.6.6-1.2.9-2.5,1.6-3.6,1.4-2.4,4.3-3.5,7-3.7,2.8-.1,5.5.6,8.1,1.3,1.2.3,2.5.7,3.5,1.5,3.7,2.8-1.8,6.3-1.5,9.9Z"/>
  <path class="cls-15" d="M126.8,149.6c1.6-2.6,3.4-3.7,7.2-4.3,2.2-.4,4.5-1.6,5.1-3.9.6-2.4-1.3-5-.3-7.3.7-1.6,2.6-2.3,3.7-3.7,1.3-1.7,1-4,.8-6.1,0-.3-.1-.7-.3-.9-.3-.4-.8-.6-1.3-.8-4.9-1.2-9,5.8-11.3,9.2-2.2,3.3-4.5,6.6-6,10.2-1.7,4.3-1.6,8.1-1.4,12.5.6.2,1.1,0,1.5-.5.4-.5.6-1,.8-1.6.5-1.2,1-2.2,1.5-3Z"/>
  <path class="cls-25" d="M139.9,127.1c.3,1.8.6,3.8-.6,5.2-.8,1-2.1,1.4-3.3,1.5-2.9.2-5.8-1.4-7.6-3.8-1.8-2.4-2.5-5.3-2.7-8.2-.2-3.6.3-7.2,1.5-10.5,1-2.7,2.4-5.3,4.8-6.9s5.9-1.6,7.9.5c.9.9,1.3,2.2,1.8,3.3,1.6,4.2,1,5.8-1.7,8.8-2.4,2.8-.7,6.6-.1,10.1Z"/>
  <path class="cls-15" d="M133.3,114.4c0,.4.1.8.4,1.1.3.3.6.5.9.8.7.6.9,1.6,1.1,2.5.2,1,.4,1.9.3,2.9-.1,1.4-1.1,5.1-3.3,4.2-.7-.3-.9-1.2-1.5-1.6-.7-.5-2-.4-2.4-1.2-.3-.5,0-1.1-.2-1.5-.2-.6-.8-1-1.1-1.6-.4-1,0-2.4.2-3.5.6-2.9,1.9-5.6,3.9-7.8,4.7-5.1,1.6,3.4,1.9,5.7Z"/>
  <path class="cls-2" d="M170.5,126c0-.1,0-.3-.1-.5-.4-1.2.4-2.8,1.7-2.8s1.3.5,1.8,1c3.8,4.1-1.4,7.6-3.3,2.3Z"/>
  <path class="cls-2" d="M151.6,112.2c-.2-.8-.9-1.4-1.7-1.7-.7-.3-1.5-.4-2.2,0-.7.3-1,1.3-.5,1.9,1.2.2,2.3.4,3.5.6.4,0,1-.2.8-.5h.1Z"/>
  <path class="cls-22" d="M162.4,159c0,0-.1,0-.1,0-.3,0-.5-.4-.4-.7,1.7-5.9,0-12.6-4.1-17.1-.2-.2-.2-.6,0-.8s.6-.2.8,0c4.4,4.8,6.1,11.9,4.4,18.1,0,.2-.3.4-.5.4Z"/>
  <path class="cls-22" d="M153.9,129.2c-3.2,0-6.4-.6-9.4-1.6-.3,0-.4-.4-.3-.7.1-.3.4-.4.7-.3,3,1.1,6.1,1.6,9.3,1.6.1-.1.4-.2.5-.1.3.1.4.4.4.7,0,.1-.2.5-.8.5-.1,0-.3,0-.4,0Z"/>
  <path class="cls-22" d="M166.8,124.2c-.1,0-.2,0-.3,0-3.8-2.1-7.2-5-9.8-8.5h0c-.3,0-.6-.3-.6-.6,0-.4.3-.7.6-.7.3,0,.6.1.8.4,2.5,3.5,5.8,6.4,9.6,8.5.3.1.4.5.2.8,0,.2-.3.3-.5.3ZM156.7,114.5s0,0,0,0c0,0,0,0,0,0Z"/>
  <path class="cls-22" d="M139.4,123.9c-.3,0-.5-.2-.6-.4-.2-1,.1-1.9.4-2.8.2-.5.4-1.1.4-1.6,0-.5-.1-1.6-1.1-3.5-.2-.4-.5-.7-.7-1.1-.1-.2-.3-.5-.5-.7-1.6-2.4-1.9-5.5-.9-8.2,0,0,0-.2-.3-.5h0c-.2-.3-.1-.7,0-.9.2-.2.6-.1.8,0h0c.3.4.7,1,.5,1.7-.9,2.3-.6,5.1.8,7.1.1.2.3.4.5.6.3.4.6.8.8,1.2.9,1.7,1.3,3.1,1.2,4.1,0,.6-.3,1.2-.5,1.8-.3.8-.5,1.5-.4,2.2,0,.3-.1.6-.4.7,0,0,0,0,0,0Z"/>
  <path class="cls-20" d="M162.4,129.8c-.3.5-.4,1.2-.8,1.6-1,.9-3.1.8-3.7-.1-.3-.4-.2-1.1,0-1.6.2-.5.5-1.1,1-1.5,1.2-.9,2.5-.4,3.6.3.8.5.4.7,0,1.2,0,0,0,.1,0,.1Z"/>
  <path class="cls-22" d="M168.3,130.8h0c-3.5-.7-6.8-1.9-9.9-3.5-.3-.1-.4-.5-.2-.8.1-.3.5-.4.8-.2,3,1.6,6.3,2.8,9.6,3.4.3,0,.5.4.4.7,0,.3-.3.4-.6.4Z"/>
  <path class="cls-25" d="M128.9,216.1c-.3,2.1.9,4.4,2.8,5.4,1.7.9,4.2,1.3,4.8,3.4,1.6,5.6-7.3,5.4-10.4,3.9-3.1-1.6-5.3-4.4-7-7.5-2.7-4.8-4.4-10.1-5-15.6-.3-3-.1-6.3,1.6-8.8,1-1.4,2.4-2.4,3.8-3.1,4.9-2.6,15.2-3.9,16.9,3.3.7,3-.2,7-1.4,9.7-1.5,3.3-5.6,5.6-6.2,9.3Z"/>
  <path class="cls-25" d="M149.9,207.5c-2,4.1-6.3,7.8-9.6,8.9-1.7.5-3.5.6-5.2,1.1-1.7.5-3.4,1.4-4.2,3-.5,1-.5,2-.5,3.1,0,2,0,4,.7,5.9.7,1.9,2,2.2,3.7,3.1,1.1.6,2.1,1.6,2.2,2.8,0,.9-.5,1.8-1.1,2.5-2,2-6.4,1.7-8.9.7-2.8-1.1-4.7-3.5-5.5-6.4-1.1-4-1.6-8.3-1.9-12.4-.5-5.9-.4-12.4,3.4-17,2.3-2.8,5.7-4.5,9.2-5.6,5.8-2,15.2-3.7,18.4,3.4.9,2.2.4,4.6-.8,7Z"/>
  <path class="cls-25" d="M115.3,197.2c-3-.3-7.6,3.2-9.3,4.8-.9.8-1.7,1.7-2.3,2.8-2.5,4.6-2.5,9.5-2.8,14.5,0,1.5-.7,3.1-1.9,4-1,.7-2.3.8-3.4,1.4-1.1.6-1.9,2.1-1.1,3,.3.4.9.6,1.4.7,2.4.5,5-.1,7-1.5,1.8-1.3,2.2-1.4,3-3.5.8-2,.9-4.3.6-6.5-.1-.8-.2-1.7-.2-2.5,0-1.1.4-2.2,1-3,1.2-1.8,3.3-2.7,5.2-3.7,3.1-1.5,6.6-4.2,5.3-8.3-.5-1.5-1.4-2.1-2.5-2.2Z"/>
  <path class="cls-22" d="M126.3,217.6c-.3,0-.6-.3-.6-.6,0-1.8.9-3.6,2.9-5.6.3-.3.7-.7,1-1,1.1-1.1,2.2-2.1,2.9-3.3.8-1.5,1-3.4.6-5,0-.3.1-.6.4-.7.3,0,.6.1.7.4.5,1.9.3,4.1-.7,5.9-.8,1.4-2,2.6-3.1,3.6-.3.3-.7.6-1,1-1.7,1.7-2.5,3.3-2.5,4.8s-.2.6-.6.6Z"/>
  <path class="cls-22" d="M114.4,206.9c-.3,0-.5-.2-.6-.5-.2-1.5.1-2.9.5-4.3v-.5c.2-.4.6-2.8.5-3.5,0,0,0,0,0,0-.1-.3,0-.6.3-.7.2-.1.5,0,.6,0,.6.5-.1,4.4-.2,4.5l-.2.6c-.3,1.3-.7,2.6-.5,3.8,0,.3-.2.6-.5.6h0Z"/>
  <path class="cls-22" d="M127.4,232.4c-.1,0-.3,0-.4-.2-.2-.2-.2-.6,0-.8,1.1-1,2.6-1.5,4.1-1.4.3,0,.5.3.5.6,0,.3-.3.5-.6.5-1.2,0-2.4.3-3.3,1.1-.1,0-.3.1-.4.1Z"/>
  <path class="cls-15" d="M124,226.2c-.6-.7-1.1-1.4-1.7-2-.5-.5-1.1-.9-1.7-1.4-.6-.6-1.1-1.3-1.5-2-1.4-2.4-2.4-5-3.2-7.7,1.4-1.2,3.5-.3,5,.8,1.5,1.1,3.5,2.1,4.8,3.3.7.6,1,1.4,1.5,2.2,1.2,1.7,3.1,1.1,4.9,1.6,1.7.5,3.4,1.5,4.6,2.9,2.6,3.1-2.8,6.3-5.6,6.1-.8,0-1.6-.2-2.3-.4-.7-.2-1.4-.4-2-.8-1.1-.6-2-1.6-2.8-2.7Z"/>
  <path class="cls-31" d="M127,223.4c0,0-.1,0-.2,0-.3,0-.5-.4-.4-.7.3-.8.9-1.5,1.8-1.9.8-.4,1.6-.5,2.3-.6.3,0,.6.2.6.5,0,.3-.2.6-.5.6-.7,0-1.4.2-2.1.5-.6.3-1.1.7-1.2,1.2,0,.2-.2.4-.5.4Z"/>
  <path class="cls-32" d="M166.8,177.2c2.1,0,4.3.2,6.1.4.4,0,.9.1,1.1.5.2.2.2.6.2.8,0,3.8,0,7.7-.7,11.5-.6,3.4-1.7,6.6-3.5,9.5-1.7,2.6-4.3,3-7.3,3.2-13.5.8-27.1-2.6-38.6-9.6-1-.6-2.1-1.3-2.7-2.4-.8-1.5-.4-3.5.7-4.9,1.1-1.4,2.6-2.3,4.2-3.1,8.4-4.2,18-5.7,27.3-4.3,1.7.3,3.5.7,5.2.5,1.3-.1,2-.8,3.1-1.3,1.5-.5,3.2-.7,5-.7Z"/>
  <path class="cls-32" d="M167.3,169.8c-1.6,1.2-5.2,2.1-7.2,2.8-5.2,1.8-10.8,2.9-15.5,6-2.2,1.5-4.1,3.3-6,5-7.8,6.8-17.1,11.6-26.3,16.3-2.7,1.4-5.4,2.8-8.2,3.7-3.7,1.2-7.6,1.6-11.4,2-3.4.3-6.9.5-10-.9-3.3-1.6-5.4-4.8-6.8-8.1-2.7-6.2-3.6-13.1-4.2-19.8-.2-2.2-1.5-7,.1-8.8.7-.8,1.7-1.2,2.7-1.6,4.5-1.6,9.2-2.3,14-2.1,1.2,0,2.3.2,3.4.5,5.6,1.8,4.3,8.5,3.6,13.1,3.2-.2,5.9-2.4,8.9-3.6,4.2-1.6,8.8-1.1,13.2-1.9,5.9-1.1,11.1-4.6,17-5.6,1.2-.2,2.4-.3,3.5-.8.9-.4,1.7-1.1,2.4-1.8,3.8-3.3,8.1-5.9,12.4-8.5,1.1-.6,2.3-1.3,3.5-1,1,.4.6,1.9,0,2.8-1.3,2.1-2.5,4.2-3.8,6.3,5.8,3.4,13.2-1.5,14.2-7.5.2-1.1.6-2.5,1.7-2.5s2.1,1.4,1.9,2.5c0,.4-.2.9-.2,1.3,0,.3-.1.6,0,.8.3.9.7,1.7.6,2.8,0,1-.3,2.1-.6,3.1-.5,1.9-1.2,4.1-2.9,5.4,0,0,0,0,0,0Z"/>
  <path class="cls-15" d="M164,162.6c0,.3-.1.6-.1.9,0,.9-.2,1.9-.3,2.8-.1,1.1-.3,2.2-.4,3.3,0,1.7,0,3.3.1,5,.2,1.5,0,2.9,0,4.4,0,1.9-.1,4-1.5,5.3-1.6,1.4-2.6,0-4.1.6-.4.1-.8.4-1.2.6-.9.4-2.1.1-2.7-.6-1.3-1.4-3.3-1.2-4-3.4-1.1-3.5,1.3-7,2.1-10.6.8-3.9.1-10.1,5.1-11.3,1-.3,2.1-.2,3.1-.1.8,0,1.6,0,2.3.4.8.3,1.6.6,2.3,1.1-.4.6-.5,1.2-.6,1.8Z"/>
  <path class="cls-31" d="M158.9,184.7c-.3,0-.5-.2-.6-.5,0-.8,0-1.5,0-2.3,0-.3.3-.5.6-.5.3,0,.5.3.5.6-.1.7-.1,1.3,0,2,0,.3-.2.6-.5.6,0,0,0,0,0,0Z"/>
  <path class="cls-31" d="M153,184.1h0c-.3,0-.5-.4-.5-.7l.3-1.4c0-.3.4-.5.7-.5.3,0,.5.4.5.7l-.3,1.4c0,.2-.3.4-.6.4Z"/>
  <path class="cls-31" d="M162.5,175.9c-.1,0-.3,0-.4-.2-.6-.6-1.3-1.1-2.1-1.3-.3,0-.5-.4-.4-.7.1-.3.4-.5.7-.4,1,.3,1.9.9,2.6,1.7.2.2.2.6,0,.8-.1,0-.3.1-.4.1Z"/>
  <path class="cls-15" d="M124.4,166.1c-.1-.8-.2-1.6-.4-2.4-.4-2.9,2.3-4.8,4.8-5.4,3.7-.9,6.4,1.3,9.1,3.6.4.3.7.6,1,1,.4.5.7,1,.8,1.6,0,.1,0,.3,0,.4,0,0,0,.2,0,.3-.2.6-.9.9-1.5,1.1-1.8.7-1.7,1.2-1.6,3.1,0,1.6.5,3.1.8,4.7.5,2.5.4,7.8-3.7,6.5-.2,0-.4-.2-.6-.1-.3,0-.5.2-.7.4-1.6,1.3-4.2.8-5.9-.2-2.5-1.4-2.9-4-2.3-6.7.2-1.1.7-2.2.8-3.4,0-.8-.1-1.6-.2-2.4-.1-.6-.2-1.3-.3-1.9Z"/>
  <path class="cls-31" d="M133.5,180.7h0c-.3,0-.5-.3-.5-.6v-3.1c.2-.3.4-.6.7-.5.3,0,.6.3.5.6v3.1c-.2.3-.4.5-.7.5Z"/>
  <path class="cls-31" d="M127.9,180.9c-.3,0-.6-.3-.6-.6v-2.2c0-.3.3-.6.6-.6s.6.3.6.6v2.2c0,.3-.3.6-.6.6Z"/>
  <path class="cls-31" d="M130.7,171.2c-.3,0-.5-.2-.5-.4,0-.3.1-.6.4-.7,1.1-.2,2.3-.3,3.4,0,.3,0,.5.4.4.7,0,.3-.4.5-.7.4-.9-.2-1.9-.2-2.8,0,0,0,0,0-.1,0Z"/>
  <path class="cls-9" d="M136.7,167.5c0,0-.1,0-.2,0-.3,0-.4-.4-.3-.7.4-1.1.6-2.4.5-3.6,0-.3.2-.6.5-.6.3,0,.6.2.6.5.1,1.4,0,2.8-.6,4.1,0,.2-.3.4-.5.4Z"/>
  <path class="cls-4" d="M126.1,193.1c-.1,0-.3,0-.4-.2-.2-.2-.2-.6,0-.8,6.2-5.2,12.9-10,19.8-14.2.3-.2.6,0,.8.2.2.3,0,.6-.2.8-6.9,4.2-13.5,9-19.7,14.1,0,0-.2.1-.4.1Z"/>
  <path class="cls-4" d="M140.7,168.2c-.3,0-.5-.2-.6-.5-.2-.9-.1-1.7.1-2.6,0-.3.4-.5.7-.4.3.1.5.4.4.7-.2.7-.2,1.4-.1,2,0,.3-.1.6-.4.7,0,0,0,0-.1,0Z"/>
  <path class="cls-4" d="M167.2,165.8c-.1,0-.3,0-.4-.2-.2-.2-.1-.6,0-.8,1.7-1.4,2.9-3.3,3.4-5.4,0-.3.4-.5.7-.4.3,0,.5.4.4.7-.6,2.3-1.9,4.5-3.8,6-.1,0-.3.1-.4.1Z"/>
  <path class="cls-16" d="M406.9,267.7c-1.1,0-2.2-.5-2.9-1.5-1.2-1.6-.8-3.9.8-5.1,24.2-17.7,44.9-31.1,63.6-43,1.7-1.1,3.9-.6,5,1.1s.6,3.9-1.1,5c-21.5,13.7-40.5,26.2-63.2,42.8-.6.5-1.4.7-2.1.7Z"/>
  <path class="cls-16" d="M406.8,417.9c-1.9,0-3.5-1.5-3.6-3.4-1-15-.5-34.4-.1-51.6.1-5,.2-9.8.3-14.2.2-11.9,0-27.3,0-42.3-.1-15-.2-30.5,0-42.4,0-2,1.7-3.6,3.6-3.6h0c2,0,3.6,1.7,3.6,3.7-.2,11.9,0,27.3,0,42.3.1,15,.2,30.5,0,42.4,0,4.4-.2,9.2-.3,14.3-.4,17-.8,36.2.1,51,.1,2-1.4,3.7-3.4,3.8h-.2Z"/>
  <path class="cls-16" d="M407.4,420.5c-1.2,0-2.4-.6-3.1-1.8-1-1.7-.5-4,1.2-5,29.7-17.8,46.4-31.8,62.2-47.4,1.4-1.4,3.7-1.4,5.1,0s1.4,3.7,0,5.1c-16.2,16-33.2,30.3-63.6,48.5-.6.4-1.2.5-1.9.5Z"/>
  <path class="cls-16" d="M470.3,372.6h0c-2,0-3.6-1.7-3.6-3.7.5-48.3.6-97.3.4-145.6,0-2,1.6-3.7,3.6-3.7h0c2,0,3.6,1.6,3.6,3.6.2,48.3,0,97.3-.4,145.7,0,2-1.7,3.6-3.7,3.6Z"/>
  <path class="cls-16" d="M411.6,316.1c-.8,0-1.6-.1-2.3-.5-1.4-.7-2.3-2.1-2.4-3.7-.2-2,1.3-3.7,3.3-3.9.7,0,1.4.1,2,.4,7.1-4.5,14.7-9,22.1-13.4,11.6-6.9,23.6-14.1,34-21,1.7-1.1,3.9-.7,5,1,1.1,1.7.7,3.9-1,5-10.6,7-22.6,14.3-34.3,21.2-7.5,4.5-15.3,9.1-22.6,13.7-1,.6-2.4,1.2-3.9,1.2Z"/>
  <path class="cls-16" d="M409.3,374.9c-1.2,0-2.3-.6-3-1.6-1.1-1.7-.7-3.9,1-5,9.4-6.4,17.6-12.1,25.4-17.7,12.5-8.8,23.2-16.4,34.7-23.2,1.7-1,4-.5,5,1.3,1,1.7.5,4-1.3,5-11.2,6.7-21.9,14.2-34.2,22.9-7.5,5.3-16,11.3-25.5,17.7-.6.4-1.3.6-2,.6Z"/>
  <path class="cls-16" d="M430.8,406h-.1c-2,0-3.6-1.7-3.5-3.7,1-39.5,1.3-115-.9-154.3,0-2,1.4-3.7,3.4-3.8,2,0,3.7,1.4,3.8,3.4,2.3,41.2,1.9,116.8.9,154.9,0,1.9-1.7,3.5-3.6,3.5Z"/>
  <path class="cls-16" d="M458.8,382.5h-.1c-2,0-3.6-1.7-3.5-3.7.8-28.5-.5-62.6-1.8-95.5-.7-18.9-1.4-36.8-1.7-53.1,0-2,1.6-3.6,3.6-3.7,2,0,3.6,1.6,3.7,3.6.3,16.2,1,34.1,1.7,52.9,1.3,33.1,2.6,67.2,1.8,96,0,2-1.7,3.5-3.6,3.5Z"/>
</svg>