<?xml version="1.0" encoding="UTF-8"?>
<svg id="Camada_1" data-name="Camada 1" xmlns="http://www.w3.org/2000/svg" version="1.1" xmlns:xlink="http://www.w3.org/1999/xlink" viewBox="0 0 528.7 494">
  <defs>
    <style>
      .cls-1 {
        fill: #f5956d;
      }

      .cls-1, .cls-2, .cls-3, .cls-4, .cls-5, .cls-6, .cls-7, .cls-8, .cls-9, .cls-10, .cls-11, .cls-12, .cls-13, .cls-14, .cls-15, .cls-16, .cls-17, .cls-18, .cls-19, .cls-20, .cls-21, .cls-22, .cls-23, .cls-24, .cls-25, .cls-26, .cls-27, .cls-28, .cls-29, .cls-30, .cls-31, .cls-32, .cls-33, .cls-34, .cls-35, .cls-36, .cls-37, .cls-38, .cls-39, .cls-40, .cls-41, .cls-42, .cls-43, .cls-44, .cls-45 {
        stroke-width: 0px;
      }

      .cls-2 {
        fill: #e05143;
      }

      .cls-3 {
        fill: #d1b3a5;
      }

      .cls-4 {
        fill: #ddecf9;
      }

      .cls-5 {
        fill: #727dad;
      }

      .cls-6 {
        fill: #f68360;
      }

      .cls-7 {
        fill: #b47f75;
      }

      .cls-8 {
        fill: #e87557;
      }

      .cls-9 {
        fill: #554842;
      }

      .cls-10 {
        fill: #def0f0;
      }

      .cls-46 {
        clip-path: url(#clippath-2);
      }

      .cls-11 {
        fill: #cd977e;
      }

      .cls-12 {
        fill: #fad8d9;
      }

      .cls-47 {
        clip-path: url(#clippath-6);
      }

      .cls-13 {
        fill: #e14f41;
      }

      .cls-14 {
        fill: #f3c1a5;
      }

      .cls-15 {
        fill: #433732;
      }

      .cls-16 {
        fill: none;
      }

      .cls-48 {
        clip-path: url(#clippath-7);
      }

      .cls-49 {
        clip-path: url(#clippath-1);
      }

      .cls-50 {
        clip-path: url(#clippath-4);
      }

      .cls-17 {
        fill: #f3d8d6;
      }

      .cls-18 {
        fill: #362c25;
      }

      .cls-19 {
        fill: #fde8e6;
      }

      .cls-20 {
        fill: #e98260;
      }

      .cls-21 {
        fill: #f5795d;
      }

      .cls-22 {
        fill: #f5a78f;
      }

      .cls-23 {
        fill: #f68a65;
      }

      .cls-51 {
        clip-path: url(#clippath-9);
      }

      .cls-24 {
        fill: #f28e6e;
      }

      .cls-52 {
        clip-path: url(#clippath);
      }

      .cls-25 {
        fill: #ec7753;
      }

      .cls-26 {
        fill: #fde2c2;
      }

      .cls-27 {
        fill: #788fc8;
      }

      .cls-53 {
        clip-path: url(#clippath-3);
      }

      .cls-28 {
        fill: #6d78ad;
      }

      .cls-29 {
        fill: #ea5c49;
      }

      .cls-30 {
        fill: #e8c1c1;
      }

      .cls-31 {
        fill: #f2cbad;
      }

      .cls-32 {
        fill: #f3654e;
      }

      .cls-33 {
        fill: #e7b7b6;
      }

      .cls-54 {
        clip-path: url(#clippath-8);
      }

      .cls-34 {
        fill: #6b7fb1;
      }

      .cls-35 {
        fill: #f2895c;
      }

      .cls-36 {
        fill: #fab896;
      }

      .cls-37 {
        fill: #eb5846;
      }

      .cls-55 {
        clip-path: url(#clippath-5);
      }

      .cls-38 {
        fill: #e9a58f;
      }

      .cls-39 {
        fill: #654b5a;
      }

      .cls-40 {
        fill: #f68c9f;
      }

      .cls-41 {
        fill: #de5b48;
      }

      .cls-56 {
        clip-path: url(#clippath-10);
      }

      .cls-42 {
        fill: #6b86c7;
      }

      .cls-43 {
        fill: #efa37d;
      }

      .cls-44 {
        fill: #8698c8;
      }

      .cls-45 {
        fill: #f57b8b;
      }
    </style>
    <clipPath id="clippath">
      <rect class="cls-16" x="373.2" y="238.9" width="129.3" height="247.1"/>
    </clipPath>
    <clipPath id="clippath-1">
      <rect class="cls-16" x="114.6" y="360.7" width="196.7" height="125.3"/>
    </clipPath>
    <clipPath id="clippath-2">
      <rect class="cls-16" x="287" y="289.5" width="103.1" height="196.6"/>
    </clipPath>
    <clipPath id="clippath-3">
      <rect class="cls-16" x="401.3" y="405.7" width="97.4" height="80.4"/>
    </clipPath>
    <clipPath id="clippath-4">
      <rect class="cls-16" x="388.2" y="263.3" width="114.3" height="222.8"/>
    </clipPath>
    <clipPath id="clippath-5">
      <rect class="cls-16" x="288.7" y="293.5" width="100.9" height="192.5"/>
    </clipPath>
    <clipPath id="clippath-6">
      <rect class="cls-16" x="119" y="363.4" width="192" height="122.6"/>
    </clipPath>
    <clipPath id="clippath-7">
      <rect class="cls-16" x="371.3" y="465.7" width="5.6" height="20.4"/>
    </clipPath>
    <clipPath id="clippath-8">
      <rect class="cls-16" x="489.4" y="465.7" width="5.6" height="20.4"/>
    </clipPath>
    <clipPath id="clippath-9">
      <rect class="cls-16" x="358.2" y="465.7" width="5.6" height="20.4"/>
    </clipPath>
    <clipPath id="clippath-10">
      <rect class="cls-16" x="453.4" y="71.9" width="63.9" height="110.2"/>
    </clipPath>
  </defs>
  <path class="cls-35" d="M212.6,243.2h91.2l-55.1-106.7-31.5,38.9-4.6,67.7"/>
  <path class="cls-12" d="M218.5,173.9c-1.4-2.9-2.2-4.7-2.2-4.7l4.1-3.1c.3,1.3.7,2.6,1.2,3.9l-3.2,4"/>
  <path class="cls-25" d="M277,223.6s-23.3-4.4-36.7-17c-9.8-9.2-18-24.9-21.8-32.7l3.2-4c.5,1.4,1.2,2.9,2,4.5,14.2,26.8,36.7,40,47.8,41.9,2,.3,4,.5,6,.5s4.8-.2,7.2-.6c-2.4,2.3-4.9,4.7-7.3,7.3-.2,0-.3,0-.3,0"/>
  <path class="cls-10" d="M228.5,292.2c1.3-6.6,1.6-69.9,10.1-64.5,17.1,10.9,26.3,8.3,31.4,5.8,2.8-1.4,4.4-2.8,5.3-1.9,2.6,2.5,14.3-26.2,14.3-26.2,0,0,1.7,33,0,34.4s-61.2,52.5-61.2,52.5"/>
  <path class="cls-44" d="M219.7,162.7c-17.6,9.7-34.3,14.1-52.4,22-23.1,10.2-42.8,54.6-45.4,80.7-5.4,55.2,6.9,59.2,0,87.9-6.9,28.7,13.7,93.4,13.7,93.4l113.1-37.7c-18.6-59.6,5.6-152.2-7.8-187.7-27.2-6.2-31-47.2-21.2-58.6"/>
  <path class="cls-4" d="M122.1,388.1c-.1-.8-.2-1.6-.3-2.4.1.8.2,1.6.3,2.4M121.7,385.6s0,0,0,0c0,0,0,0,0,0M121.7,385.6s0,0,0,0c0,0,0,0,0,0M121.7,385.5s0,0,0,0c0,0,0,0,0,0M121.7,385.4h0s0,0,0,0M121.7,385.4h0s0,0,0,0M121.7,385.3h0s0,0,0,0M121.7,385.3h0s0,0,0,0M121.7,385.2h0s0,0,0,0M121.9,265.3h0"/>
  <path class="cls-27" d="M122.1,388.1c-.1-.8-.2-1.6-.3-2.4,0,0,0,0,0,0h0s0,0,0,0h0s0,0,0,0,0,0,0,0h0s0,0,0,0h0s0,0,0,0h0s0,0,0,0h0s0,0,0,0h0c-1.5-12-1.8-23.4.2-31.8,0,0,0,0,0-.1,6.9-28.7-5.4-32.7,0-87.9h0c1-10.3,4.7-23.4,10.2-36.2.1,6.2.5,17.5,2.3,37.8.9,4.8,2.9,9.7,6,14.5.6,4.3,1.4,7.8,2.2,10.1.4,1,2.6,17.2,27.7,36.2,2.4,1.8,4.7,3.5,6.9,5.1-.7.5-1.5,1-2.2,1.5-21.7,14.3-42.3,29.9-51.3,50.1,0,0,0,0,0,0,0,0,0,0,0,0,0,0,0,0,0,0,0,0,0,0,0,0,0,0,0,0,0,0,0,0,0,0,0,0,0,0,0,0,0,0t0,0h0c0,0,0,0,0,0,0,0,0,0,0,0,0,0,0,0,0,0,0,0,0,0,0,0,0,0,0,0,0,0h0c0,0,0,0,0,0,0,0,0,0,0,0h0q0,0,0,0s0,0,0,0c0,0,0,0,0,0-.4,1-.8,1.9-1.2,2.8"/>
  <path class="cls-34" d="M240.9,221.3c-13.9-11.8-24.4-36.2-22.7-40.2.7-1.7,5.4-11.7,4.3-14.9-1.4-4.4-2.4-8.8-2.4-8.8,0,0-9.5,5.3-14.2,25.5-2.4,10.3,14.6,58.3,16,56.8,1.4-1.5.3-11.7,8.1-14.2,7.9-2.5,10.8-4.2,10.8-4.2"/>
  <path class="cls-34" d="M138.1,220.6c.4,0,.8-.2,1.1-.5,8.4-11.4,28.1-21.3,40.5-20.5.7,0,1.4-.5,1.4-1.3,0-.7-.5-1.4-1.3-1.4-13.5-1-33.8,9.3-42.8,21.6-.4.6-.3,1.4.3,1.9.2.2.5.3.8.3"/>
  <g class="cls-52">
    <path class="cls-26" d="M400.9,239.7l38.6,13.4c7.1,33,0,83.6.1,100.2s18.7,54,22.3,62.2c4.6,10.5,10.9,34,19,40.7,7.6-1.2,17.6,7.4,20.5,16.4,3.3,10.2-4.6,12-4.6,12h-40.1l-11.4-16.2s-33.7-36.1-43.4-60.8c-5-12.6-27.4-41.3-27.2-55.8.2-14.5,26.3-112.3,26.3-112.3"/>
  </g>
  <path class="cls-26" d="M117.6,428.5c-22,21.8-51.8,2-58.9-9.8-7.1-11.8-6.4-29.9,7.4-33.8,6.7-1.8,10.8,1.1,10.8,1.1,0,0-.5-11.2-15.2-11.6-6.8-.2-15.1.7-24.5,3.7-17.9,5.7-27.2,46.4-12.6,68.5,14.6,22.1,26.9,32.2,71.1,32.2,43,0,39.3-20.3,53.5-9.5,14.2,10.8-31.5-40.9-31.5-40.9"/>
  <path class="cls-26" d="M427.3,267.6c-3.7,64.5-7.2,68.5-26.4,101-19.2,32.4-112.9,93.9-112.9,93.9H123.6s-20.3-32.1,0-77.9c20.3-45.7,100.6-68,116.5-104.2,15.9-36.1,45.4-71.2,68.3-80.5s52.3-28,52.3-28l66.6,95.6"/>
  <g class="cls-49">
    <path class="cls-26" d="M241.8,361.3c40.8,38.7,2.2,84.7-5.1,91-7.2,6.3,72-1.8,74.3,9.9,2.3,11.7-15.6,22.5-15.6,22.5h-144.3c0,0-25.3-10.7-33.7-38.1-8.4-27.4,23.8-85.3,23.8-85.3h100.6"/>
  </g>
  <g class="cls-46">
    <path class="cls-26" d="M293.3,291.2l78.8,10.5c-5.5,47.3-10.5,63.3-7.9,78.2q3.6,21,6.2,53.4c.3,3.4,7.1,14.6,7.9,20.8,2.4,1.4,4.5,3.2,6.1,5.7,6.9,10.8,2.4,25,2.4,25h-31.6c-7.7,0-14.5-5.2-16.3-12.6-.3-1.4-.6-2.8-.8-4.4-2.2-17.2-6-42.2-10-48.5-6.3-9.8-37.7-50.7-40.5-77.7-2.8-27,5.7-50.3,5.7-50.3"/>
  </g>
  <g class="cls-53">
    <path class="cls-17" d="M496.8,484.7h-40.1,40.1s0,0,.3,0c-.2,0-.3,0-.3,0M418.9,436.5c-7-9.6-13.6-20-17.1-28.8,0,0,0,0,0,0,0,0,0,0,0,0,3.5,8.9,10.1,19.2,17.1,28.8M401.8,407.7s0,0,0,0c0,0,0,0,0,0M401.8,407.6s0,0,0,0c0,0,0,0,0,0M401.7,407.6s0,0,0,0c0,0,0,0,0,0M401.7,407.6s0,0,0,0c0,0,0,0,0,0M401.7,407.6h0s0,0,0,0M401.7,407.5s0,0,0,0c0,0,0,0,0,0M401.7,407.5h0M401.7,407.4h0"/>
  </g>
  <g class="cls-50">
    <path class="cls-14" d="M496.8,484.7h-40.1l-11.4-16.2s-13.8-14.8-26.3-32c-7-9.6-13.6-20-17.1-28.8,0,0,0,0,0,0,0,0,0,0,0,0,0,0,0,0,0,0h0s0,0,0,0c0,0,0,0,0,0,0,0,0,0,0,0s0,0,0,0,0,0,0,0c0,0,0,0,0,0h0s0,0,0,0c0,0,0,0,0,0,0,0,0,0,0,0h0s0,0,0,0c-2.1-5.1-6.9-12.8-11.9-21.1,2.5-4.1,5.6-9.1,8.7-14.1.9-1.3,1.8-2.6,2.5-3.8,2.7-4.6,5.1-8.6,7.2-12.3,0,0,0,0,0,0,10.9-19,14.8-29.7,17.6-66.1l5.9-1.4c2-.5,6.3-4.7,7.2-6.4.6-1.3,2.1-5.2,1.8-6.7-.3-1.3-1.1-1.7-2.1-1.7-1.9,0-4.6,1.4-6.9,1.9l-4.9,1.1c0-.3,0-.6,0-.8l.3-.2,6.6-2.8c.7-.5,4.9-3.7,4.3-7.3,0-.2-.2-.5-.3-.7,1.3-.2,2.5-.3,3.7-.5,1.6,14.2,1.5,30.2.8,44.9-.9-.2-1.7-.3-2.6-.3-8.4,0-13.6,10-16.5,17.7-1.6,9.8-6.6,40-10.7,61-4.9,25.4,45.8,76.4,55.8,84,4.7,3.6,12.5,5.1,19.8,5.1s10.8-.9,13.9-2.6c1.6,7.6-3.5,9.8-4.8,10.2-.2,0-.3,0-.3,0"/>
  </g>
  <path class="cls-17" d="M95.5,478.9h.2-.2M95.7,478.9h0,0M95.7,478.9h0,0M95.8,478.9h0,0M95.8,478.9h0,0M95.9,478.9h.1-.1M96,478.9c10.3,0,18-1.3,23.8-2.9-5.8,1.7-13.4,2.9-23.8,2.9M70.9,477.4c-24.9-3.5-35-13.5-46.3-30.7-1.7-2.6-3.1-5.4-4.2-8.4,1.1,3,2.5,5.9,4.2,8.4,11.4,17.3,21.4,27.2,46.3,30.7M119.8,475.9h0,0M96.6,438.2h0c6.1-.4,12.4-2.5,18.2-7.2,0,0,0,0,0,0-5.8,4.7-12,6.8-18.2,7.1M20.4,438.2s0,0,0,0c0,0,0,0,0,0M20.4,438.1s0,0,0,0c0,0,0,0,0,0M20.3,438.1h0s0,0,0,0"/>
  <path class="cls-14" d="M95.5,478.9c-9.6,0-17.7-.5-24.6-1.5-24.9-3.5-35-13.5-46.3-30.7-1.7-2.6-3.1-5.4-4.2-8.4h0s0,0,0,0c0,0,0,0,0,0s0,0,0,0c0,0,0,0,0,0h0c-5.9-16.7-2.5-38.5,5.9-50.9-4.6,13.3-6.1,31.5.4,43.8,8.5,16.1,31.5,28.1,56.9,28.1s3.5,0,5.3-.2c27.5-1.8,23.6-18.4,7.7-20.7,6.1-.4,12.4-2.5,18.2-7.1.3,4.5,1,8.7,1.8,12.3.2,1.1.4,2.1.7,3.1.8,3.2,1.8,6,2.7,8.3-.6.2-1,1-.8,1.6,1.6,5.8,5.8,11,10.6,15.5-2.6,1.4-5.9,2.8-10,4h0s0,0,0,0c-5.8,1.7-13.4,2.9-23.8,2.9h-.6"/>
  <path class="cls-17" d="M336.3,454.7h0c-.3-2.2-.7-4.3-1-6.5,0,0,0,0,0,0,.4,2.2.7,4.4,1,6.5M368.2,403s0,0,0,0c6.3-5.4,12.3-10.8,17.4-16-3.1,3.5-5.9,6.4-7.7,7.9-4.7,4-8,6.8-9.7,8.1"/>
  <path class="cls-5" d="M123.2,385.2s0,0,0,0h0M123.3,385.2s0,0,0,0t0,0M123.3,385.1s0,0,0,0c0,0,0,0,0,0M123.3,385.1h0s0,0,0,0M123.4,385s0,0,0,0c0,0,0,0,0,0M123.4,384.9s0,0,0,0c0,0,0,0,0,0M123.4,384.9h0s0,0,0,0M123.4,384.8s0,0,0,0c0,0,0,0,0,0M123.5,384.7s0,0,0,0c0,0,0,0,0,0M123.5,384.7s0,0,0,0c0,0,0,0,0,0M123.5,384.6s0,0,0,0c0,0,0,0,0,0M123.6,384.6c9-20.2,29.6-35.8,51.3-50.1-21.7,14.3-42.3,29.9-51.3,50.1"/>
  <path class="cls-14" d="M119.9,454.9c-.9-2.3-1.8-5.1-2.7-8.3,0,0,0,0,0,.1.9,2.9,2,5.6,3.2,8.1h0c-.1,0-.3,0-.4,0,0,0,0,0-.1,0M299.9,454.4h-3.6c-15.9-2.6-41.7-3.3-56.9-3.4,3.4-4.4,11.3-14.6,16.8-23.6,6.5-10.5,6.4-36.1-2.5-53.3.7.3,1.4.5,2.1.8.2,0,.4.2.7.2,3.5,1.3,7.4,2,12.3,2s4.1-.1,6.4-.4c2.6-.3,5.5-5.5,5.5-17.4,3.9-.7,7.3-1.9,9.4-2.6,2.7,7.8,10.2,27.6,18.7,40.2,9.8,14.3,20.6,32.5,22.1,34.9,0,.1,0,.3,0,.5-4.3,3.2-8.5,6.2-12.5,9.1l-.3-.5-18.2,13.5M116.5,443.4c-.8-3.7-1.4-7.8-1.8-12.3,0,0,0,0,0,0,0,0,0,0,0,0-.9-12.5.8-28.1,8.5-45.8h0s0,0,0,0t0,0h0c0,0,0,0,0,0,0,0,0,0,0,0h0c0,0,0,0,0,0,0,0,0,0,0,0,0,0,0,0,0,0,0,0,0,0,0,0,0,0,0,0,0,0h0q0,0,0,0s0,0,0,0c0,0,0,0,0,0,0,0,0,0,0,0,0,0,0,0,0,0,0,0,0,0,0,0,0,0,0,0,0,0,0,0,0,0,0,0,9-20.2,29.6-35.8,51.3-50.1.7-.5,1.5-1,2.2-1.5,11.6,8.5,20.8,14.8,28.9,19.6,5.8,3.5,11.1,6.3,16.1,8.7h-7.9c-2.4-1-5-2.1-7.9-3.2-2-.7-4.1-1.3-6.2-1.8-2.9-.6-5.8-.9-8.7-.9-7.6,0-15.1,2.1-21.7,5.8h-28.6s-29.9,53.6-24.6,82.1M331,427c-3.9-6.5-12.3-20.2-20.1-31.5-3.2-4.7-6.3-10.6-9-16.5,10.1,18.1,22.4,34.5,26.2,40.2,1,1.6,2,4.3,3,7.8M368.2,403c-.5-4.3-.9-8.4-1.3-12.1-.5-4.7-.9-8.6-1.3-11.3-.9-6.7,1.3-22.5,3.7-39.3,1.2-8.8,2.5-17.8,3.3-25.7,4,1.1,8.3,1.9,12.3,2.3.7,0,1.4,0,2,0,7.8,0,13.8-4.1,18.6-5.5,2.3-.7,4.2.3,8-2.4,1.9-1.4,1.1-6,2.9-7.7,3.6-3.5,7.4-7.1,8.4-11.1h.3s.7-.2.7-.2c-2.9,36.4-6.7,47.1-17.6,66.1,2.5-4.4,10.5-34.2,11.7-39-1.1-1.4-2.6-2-4.3-2-8.6,0-23.6,16-39,35-1.5,15,2,30.9,5,30.9s0,0,0,0c2.4-.2,14.1-9.8,21.1-15.8,2-3.4,3.9-6.5,5.4-9-2.1,3.7-4.5,7.7-7.2,12.3-.7,1.2-1.6,2.5-2.5,3.8,0,0,0-.2.1-.2-4.1,4.9-8.9,10.4-13,14.9-5.1,5.2-11.1,10.5-17.4,16M271,303c-.2-.8-.3-1.2-.3-1.2-12.1-5.8-22.1-13.5-30.4-21.9,6.8-15.3,16-30.5,26.2-43.5-8.6,13.8-22.2,39.5-10.6,47.5,5.6,3.8,10.9,5.4,16.1,5.4,19.5,0,35.9-22.6,48.6-32.2,3.8-2.9,13.4-4.9,25.8-6.3,1.7,8.7,9.1,15.1,17.9,15.5,8.4.4,16.1.7,23,.8-5.6,1.7-11.6,3.5-17,5.1h-.2c0,0,0,0,0,0-5.3,1.6-10.1,2.9-13.4,3.9-.8,0-1.7,0-2.5,0-4.3,0-8.2.6-10.9,1.8-.4.2-.7.4-1.1.5-10.5,6.2-22,10.9-32.6,14.4-.3.1-.7.2-1,.3l-15.2-2s-.9,2.5-2.1,6.9c-11.5,2.8-19.4,3.8-19.4,3.8-.3.3-.6.7-.8,1.1M425.2,277.3l1.6-1.2c0,.3,0,.6,0,.8l-1.6.4M409.7,267.6c0-.2,0-.3,0-.5,1.3,0,2.6,0,3.9-.1l-3.9.6"/>
  <path class="cls-14" d="M295,483.4h-143.7c-2.7-1.4-25.5-13.2-29.6-27.6-.2-.6-.7-1-1.3-1-1.2-2.5-2.3-5.2-3.2-8.1,0,0,0,0,0-.1-.3-1-.5-2-.7-3.1-5.3-28.5,24.6-82.1,24.6-82.1h28.6c-6.1,3.5-11.5,8.5-15.5,14.6-6.4,9.7-12.6,19.9-14.6,25.4-2.4,6.4-6,15.2-9,22.5,2.6,7.5,5.9,14.8,9.5,21.3,8.3,14.9,18.3,25.9,25.6,26.9,13,1.7,86,7.5,114.6,7.5s8.5-.2,10.2-.5c8-1.7,13.5-4.7,16.9-8.9-.9,3.1-2.4,5.9-4.5,7.9-3.6,3.4-6.9,5.1-7.8,5.5M310.6,468c.3-1.7.4-3.5.3-5.2,0-.2,0-.4.1-.6.1.7.2,1.4.2,2.1,0,1.2-.2,2.5-.6,3.7M254.5,382.6c-19.9-4.8-16.8-11.2-40.4-21.3h7.9c4.7,2.3,9.3,4.2,14,6,4.4,1.7,8.9,3.4,13.9,5.3,1.9,3,3.4,6.4,4.6,10"/>
  <path class="cls-14" d="M385.7,483.3c-14-.3-35.7-1-37.7-1.7-1.9-.8-4.4-3.1-8.6-14.3-1.2-3.2-2.2-7.8-3.1-12.6-.3-2.2-.7-4.4-1-6.5-1.2-8.8-1.8-16.6-1.8-16.8,0-.2,0-.4-.2-.6,0,0-.9-1.5-2.3-3.8-1-3.5-2-6.2-3-7.8-3.7-5.7-16-22.2-26.2-40.2-4.3-9.3-7.7-18.5-9.4-23.2,6.8-3.4,33.7-18.7,35.6-19.8l36.5-23.8c1.7.6,3.5,1.1,5.4,1.7-.7,7.2-1.9,15.5-3,23.6-2.5-2.3-8.4-6.4-14-6.4s-4.9.8-6.9,2.9c-.2.2-.4.4-.6.6-15.5,14.9-22.2,36.7-16.1,57.3,4.2,14.3,8.4,26.8,9.8,31,2.9,8.7,10.1,38.7,9.2,44.1s11,9.4,22.8,11.8c1.2.2,2.4.4,3.5.4,5.3,0,9.5-2.6,12.1-4.9-.2,2.4-.5,5.3-1,9M291.3,298.1c1.1-4.3,2.1-6.9,2.1-6.9l15.2,2c-6.2,2-12.1,3.6-17.3,4.9"/>
  <g class="cls-55">
    <path class="cls-43" d="M386.8,486.1c.7,0,1.2-.5,1.3-1.2,2.6-17.8,1.5-19.9-3.8-25.8-1.3-1.5-3-3.3-4.9-5.9-6.9-9.3-10.5-42.5-12.6-62.3-.5-4.7-.9-8.6-1.3-11.3-.9-6.7,1.3-22.5,3.7-39.3,2.5-18.1,5.2-36.7,4-45.5,0-.7-.8-1.3-1.5-1.2s-1.3.8-1.2,1.5c1.1,8.4-1.5,26.9-4,44.8-2.4,17-4.6,33-3.7,40,.4,2.7.8,6.6,1.3,11.2,2.1,20.1,5.7,53.8,13.1,63.7,2,2.7,3.7,4.6,5,6.1,4.5,5,5.6,6.3,3.4,22.4-14-.3-35.7-1-37.7-1.7-1.9-.8-4.4-3.1-8.6-14.3-4-10.6-5.9-35.6-5.9-35.9,0-.2,0-.4-.2-.6-.1-.2-11.9-19.9-22.3-35.3-10.3-15.2-19.4-42.5-19.5-42.7-.2-.7-1-1.1-1.7-.9-.7.2-1.1,1-.9,1.7.4,1.1,9.3,27.9,19.8,43.4,9.8,14.3,20.6,32.5,22.1,34.9.2,3.1,2.1,25.9,6,36.3,4.3,11.5,7.2,14.7,10.1,15.9,2.7,1.1,33.7,1.8,39.8,2h0"/>
  </g>
  <g class="cls-47">
    <path class="cls-43" d="M199.3,486.1h96c.2,0,.4,0,.5-.1.2,0,4.3-1.8,8.9-6.1,5-4.7,7.3-13.3,5.6-20.4-1.6-6.8-48.1-8.2-70.9-8.5,3.4-4.4,11.3-14.6,16.8-23.6,8-12.9,6.1-48.4-10-63.4-.5-.5-1.4-.5-1.9,0-.5.5-.5,1.4,0,1.9,15.9,14.8,16.1,49.3,9.5,60-7.2,11.6-18.3,25.3-18.4,25.5-.3.4-.4,1-.2,1.4s.7.8,1.2.8c33.5.3,69.2,2.8,71,6.5,1.5,6.1-.6,13.7-4.9,17.8-3.6,3.4-6.9,5.1-7.8,5.5h-143.7c-2.7-1.4-25.5-13.2-29.6-27.6-.2-.7-.9-1.1-1.7-.9-.7.2-1.1,1-.9,1.7,4.7,16.5,30.2,28.9,31.3,29.4.2,0,.4.1.6.1h48.3"/>
  </g>
  <path class="cls-43" d="M366.9,405.4c.3,0,.6,0,.8-.3,1.6-1.2,38.7-30,49.2-55.2,10.4-25,11.9-51.7,11.9-51.9,0-.7-.5-1.4-1.3-1.4-.9,0-1.4.5-1.4,1.3,0,.3-1.5,26.4-11.7,51-10.1,24.5-47.9,53.8-48.3,54.1-.6.5-.7,1.3-.2,1.9.3.3.7.5,1.1.5"/>
  <path class="cls-43" d="M66.3,473.3c7,0,14.7-1.3,23-3.9.7-.2,1.1-1,.9-1.7-.2-.7-1-1.1-1.7-.9-26.4,8.1-45.8,2.8-59.5-16.2-8.1-11.3-10.3-31.8-5.4-49.9,3-10.9,8.1-18.7,14.2-21.4,10-4.5,20.7-5.3,28.6-2.3,4.5,1.7,7.7,4.5,9.2,8.1.3.7,1.1,1,1.8.7.7-.3,1-1.1.7-1.8-1.9-4.3-5.6-7.6-10.7-9.6-8.7-3.3-19.8-2.5-30.7,2.3-6.9,3.1-12.5,11.3-15.7,23.1-4.2,15.4-4.2,38.3,5.8,52.2,10.1,14.1,23.1,21,39.5,21"/>
  <g class="cls-48">
    <path class="cls-43" d="M373.7,485c.6,0,1.2-.4,1.3-1.1,0-.5,2.3-11.3-1.1-16.7-.4-.6-1.2-.8-1.9-.4s-.8,1.2-.4,1.9c2.3,3.7,1.3,11.8.7,14.6-.1.7.3,1.4,1,1.6,0,0,.2,0,.3,0"/>
  </g>
  <g class="cls-54">
    <path class="cls-43" d="M492.4,485c.6,0,1.2-.4,1.3-1.1,0-.5,2.3-11.3-1.1-16.7-.4-.6-1.2-.8-1.9-.4s-.8,1.2-.4,1.9c2.3,3.7,1.3,11.8.7,14.6-.2.7.3,1.4,1,1.6,0,0,.2,0,.3,0"/>
  </g>
  <path class="cls-43" d="M300.4,482.1c.5,0,.9-.2,1.2-.7,2-3.4,4.3-11.1-1.2-15.8-.6-.5-1.4-.4-1.9.1-.5.6-.4,1.4.1,1.9,5.1,4.4.8,12.1.6,12.4-.4.6-.2,1.5.5,1.8.2.1.5.2.7.2"/>
  <g class="cls-51">
    <path class="cls-43" d="M361,485c.7,0,1.2-.5,1.3-1.1,0-.4,1.7-11-1.1-16.5-.3-.7-1.2-.9-1.8-.6-.7.3-.9,1.2-.6,1.8,2.5,4.7.9,14.7.9,14.8-.1.7.4,1.4,1.1,1.5,0,0,.1,0,.2,0"/>
  </g>
  <path class="cls-32" d="M348.5,168.1c-8.9,8.7-11.2,15.5-11.2,15.5,0,0,7.5,18.1,21.5,28.8,14.7,11.3,40.1,18.3,40.1,18.3l5.1-15.6s-30.4-13.5-41.4-24.8c-11.1-11.3-14.1-22.2-14.1-22.2"/>
  <path class="cls-17" d="M401.7,222.2l.2-.7c.2.2.3.4.5.6-.2,0-.5.1-.7.2"/>
  <path class="cls-37" d="M393.3,224c-10.1-3.5-35.7-22.6-44-35.1.6-1.9,1.2-4,1.6-6.2.5.9,1,1.7,1.6,2.5,2,3.1,4.9,5.9,8.6,8.6,3.5,5.8,17.4,16.4,36.7,24.5,1.7.7,3,1.9,4.2,3.1l-.2.7c-2.9.7-5.8,1.2-8.4,1.8"/>
  <path class="cls-17" d="M30.1,378.6c.9-1.6,1.9-3,2.9-4.1.7-.8,1-1.2,1.1-1.2.1,0-1.4,2-4,5.3"/>
  <path class="cls-1" d="M328.1,336l40.3-26.3c9.2-5.3,12.3-17.1,6.9-26.2-4.5-7.7-25.8-9.4-33.2-5-30.7,18.3-70.3,23.4-70.3,23.4-6.5,8.1-15.6,21.1-16.7,35.4-.4,5.4,1,10.3,4.3,15.6,7.9,12.7,27,4.9,31.5,3.6,2.4-.7,35-19.3,37-20.5"/>
  <path class="cls-22" d="M292.5,355.8c6.8-3.4,33.7-18.7,35.6-19.8-1.9,1.1-28.7,16.4-35.6,19.8"/>
  <path class="cls-24" d="M291.1,356.5c.2,0,.7-.3,1.4-.7-.7.4-1.2.6-1.4.7"/>
  <path class="cls-6" d="M280.6,359.2c0-3.3-.2-7.1-.7-11.4-.3-2.8-.7-5.6-1.1-8.4.9,0,1.8,0,2.6,0,24.7,0,55-20.5,63.8-23.3,3.4-1.1,11.1-4.4,16.4-4.4s1.7,0,2.4.3c.1,0,.2,0,.3.1,0,0,.1,0,.1,0l-36.5,23.8c-1.9,1.1-28.7,16.4-35.6,19.8-.7.4-1.2.6-1.4.7-.1,0-.3,0-.5.1-.1-.1-.2-.2-.4-.2s0,0-.1,0c-1.7.5-5.3,1.8-9.5,2.7"/>
  <path class="cls-1" d="M351.8,277.4c1.5.2,57-16.7,57-16.7,0,0,.4,2.7.9,6.9l15.6-2.4,7.9-6.6c3.3,1.6,5.2,10.2,1.3,11.8l-9.3,6.9,6.5-1.5c3.5-.8,8.2-3.8,9-.2s-1.1,5.4-1.8,6.7c-.8,1.7-5.1,5.9-7.2,6.4l-6.7,1.5h-.3c-1.1,4-4.8,7.7-8.4,11.2-1.8,1.7-1,6.3-2.9,7.7-3.8,2.7-5.7,1.7-8,2.4-5.1,1.5-11.8,6.2-20.6,5.4-15.4-1.4-33.4-9.7-33.4-9.7l-12.4-16.1s11.1-14,12.6-13.7"/>
  <path class="cls-38" d="M309.5,292.9c10.6-3.5,22.1-8.2,32.6-14.4.3-.2.7-.4,1.1-.5-.4.2-.7.4-1.1.5-10.5,6.2-22,10.9-32.6,14.4M356.6,276.2h0c3.3-.9,8.1-2.3,13.4-3.9-5.3,1.6-10.1,2.9-13.4,3.9"/>
  <path class="cls-20" d="M346.5,300.5c-8.4-2.2-15.7-7.7-19.7-7.7s-.6,0-.9.1c-1.5.4-3.9.5-6.3.5-4.8,0-9.9-.5-10-.5,10.6-3.5,22.1-8.2,32.6-14.4.3-.2.7-.4,1.1-.5,2.7-1.2,6.7-1.8,10.9-1.8s1.7,0,2.5,0h0c-2.7.7-4.4,1.2-4.8,1.2s0,0,0,0h0c-1.7,0-12.6,13.7-12.6,13.7l7.3,9.5"/>
  <path class="cls-38" d="M370.1,272.3h.2c0,0-.1,0-.2,0"/>
  <path class="cls-20" d="M353.3,301.4c-.5,0-1.1,0-1.6,0-1.7-.1-3.5-.4-5.2-.9l-7.3-9.5s10.9-13.7,12.6-13.7h0s0,0,0,0c.4,0,2.1-.4,4.8-1.2,3.3-.9,8.1-2.3,13.4-3.9,0,0,0,0,0,0,0,0,.1,0,.2,0,5.4-1.6,11.4-3.4,17-5.1,3.5,0,6.8,0,10,0s8.5,0,12.3-.2c0,.2,0,.3,0,.5l3.9-.6c8.5-.3,15.6-.9,21.9-1.6-.1.3-.2.6-.1.9.3,1.7-2.1,3.9-2.9,4.5l-4.3,1.8c-12.7,1.1-36.7,2.4-36.7,2.4,0,0-17.1,8.4-21,14.9-3.7,6.1-7.2,11.6-17,11.6"/>
  <path class="cls-8" d="M410.5,279.8c.2,0,11.1-1.5,11.1-1.5l12-5.2c.7-.5,4.9-3.7,4.3-7.3-.1-.7-.8-1.2-1.6-1.1-.7.1-1.2.8-1.1,1.6.3,1.7-2.1,3.9-2.9,4.5l-11.6,4.9-10.4,1.4c-.7.1-1.3.8-1.2,1.5,0,.7.7,1.2,1.3,1.2"/>
  <path class="cls-8" d="M409.4,294.3c6.4-.8,14-1.8,16.1-2.8.9-.3,7.5-2.1,10.8-4.2,3.7-2.4,5.1-7.8,5.2-8,.2-.7-.2-1.5-1-1.6-.7-.2-1.5.3-1.6,1,0,0-1.2,4.6-4,6.4-3.1,2-10.1,3.9-10.2,3.9l-.5.2c-.9.5-8.4,1.6-15,2.4-.7,0-1.3.8-1.2,1.5,0,.7.7,1.2,1.3,1.2"/>
  <path class="cls-8" d="M408.1,307.5c.2,0,.5,0,.7-.2l8.2-4.7c.7-.4.9-1.2.5-1.8-.4-.6-1.2-.9-1.8-.5l-8.2,4.7c-.7.4-.9,1.2-.5,1.8.2.4.7.7,1.2.7"/>
  <path class="cls-44" d="M167.1,212.9c14.7-2.8,33.6,8.8,41.1,21.7,11.3,19.1,28.1,50.8,62.4,67.2,0,0,6.6,23.8,9.2,46,2.3,20.1-1.4,28.6-4.8,29-8.4,1-14.2,0-19.3-1.9-28.9-11-42.1-14.2-85.6-47.1-25.1-18.9-27.3-35.1-27.7-36.2-5.1-14-8.8-72.4,24.5-78.8"/>
  <path class="cls-3" d="M256.5,375.1c-.2,0-.4-.2-.7-.2-.7-.3-1.4-.5-2.1-.8.7.3,1.4.5,2.1.8.2,0,.4.2.7.2"/>
  <path class="cls-3" d="M249.9,372.6c-4.9-1.9-9.5-3.5-13.9-5.3,4.4,1.7,8.9,3.4,13.9,5.3"/>
  <path class="cls-11" d="M253.8,374.1c-1.3-.5-2.6-1-3.9-1.5,1.3.5,2.6,1,3.9,1.5"/>
  <path class="cls-42" d="M177.1,333c-2.2-1.6-4.5-3.3-6.9-5.1-25.1-18.9-27.3-35.1-27.7-36.2.4,1,2.6,17.2,27.7,36.2,2.4,1.8,4.7,3.5,6.9,5.1"/>
  <path class="cls-3" d="M206,352.6c-8.1-4.9-17.3-11.1-28.9-19.6,11.6,8.5,20.8,14.8,28.9,19.6"/>
  <path class="cls-27" d="M268.7,377.2c-4.8,0-8.7-.8-12.3-2-.2,0-.4-.2-.7-.2-.7-.3-1.4-.5-2.1-.8-1.3-.5-2.6-1-3.9-1.5-4.9-1.9-9.5-3.5-13.9-5.3-9.7-3.8-18.7-7.9-30-14.8-8.1-4.9-17.3-11.1-28.9-19.6-2.2-1.6-4.5-3.3-6.9-5.1-25.1-18.9-27.3-35.1-27.7-36.2-.8-2.3-1.6-5.8-2.2-10.1,22.3,35.7,96.8,69.5,120.1,69.5s1.1,0,1.7,0c0,0,6,13.2,12.1,25.9-1.9.2-3.7.3-5.4.3"/>
  <path class="cls-28" d="M281.3,300.3c-1.9.4-14.2-.3-14.2-.3l-11.2,74.9s24.7,5.2,28.9,2.3c4.2-2.9-3.5-76.9-3.5-76.9"/>
  <path class="cls-34" d="M179.7,336.3c.4,0,.8-.2,1.1-.6.4-.6.3-1.4-.3-1.9-11.1-7.9-34.2-35.5-34.5-35.8-.5-.6-1.3-.7-1.9-.2-.6.5-.7,1.3-.2,1.9,1,1.1,23.6,28.2,35,36.3.2.2.5.2.8.2"/>
  <path class="cls-34" d="M161.1,318.5c.7,0,1.2-.5,1.3-1.1.1-.7-.4-1.4-1.1-1.5-.2,0-20.4-3.4-32.4-14.5-.6-.5-1.4-.5-1.9,0s-.5,1.4,0,1.9c12.7,11.6,33,15,33.8,15.1,0,0,.1,0,.2,0"/>
  <path class="cls-34" d="M267.7,301.5c.6,0,1-.3,1.2-.8.7-1.4.7-1.5-12.3-8.5-15.4-8.2-40.1-44.1-46.8-57-6.2-12-24.6-23.5-34.7-24.1-.8,0-1.4.5-1.4,1.3,0,.7.5,1.4,1.3,1.4,9.3.6,26.8,11.7,32.5,22.6,7,13.5,31.8,49.5,47.9,58.1,6.5,3.5,9.3,5.1,10.5,5.8,0,.4.3.6.7.8.4.2.8.3,1.2.3"/>
  <path class="cls-34" d="M216.5,306c.2,0,.4,0,.6-.1,16.1-7.7,34.8-13.2,38.4-11.3.7.4,1.5.1,1.8-.5.4-.7.1-1.5-.5-1.8-5.6-3-27.6,4.9-40.8,11.2-.7.3-1,1.1-.6,1.8.2.5.7.8,1.2.8"/>
  <path class="cls-34" d="M240.9,313.2c.5,0,1-.3,1.2-.8,4.6-9.4,20.2-13.8,20.4-13.9.7-.2,1.1-.9.9-1.7-.2-.7-1-1.1-1.7-.9-.7.2-16.9,4.8-22.1,15.3-.3.7,0,1.5.6,1.8.2,0,.4.1.6.1"/>
  <path class="cls-1" d="M363.4,228.1c-10.5,1-18.3,10.4-17.3,20.9.9,9.6,8.8,16.9,18.1,17.3,58.6,2.9,80.4-1.9,98.5-5.9,14.6-3.3,44.7-13.5,41.4-28.1-1-4.4-5.5-15.4-9.8-18.4-11.3-8-30.9-10.8-42.1-6.7-53.5,19.8-91,21.1-89,20.9"/>
  <path class="cls-19" d="M462.5,260.5h.1s0,0-.1,0M462.7,260.5s0,0,0,0c14.1-3.2,42.7-12.8,41.7-26.6,1,13.8-27.6,23.4-41.7,26.6,0,0,0,0,0,0"/>
  <path class="cls-23" d="M397.3,267.3c-3.8,0-7.8,0-12.1-.1-2.2-.7-3.5-1.2-3.5-1.2,1.7-4.7,12.6-11,29.8-11s1.7,0,2.6,0c.6,0,1.3,0,2,0,19.9,0,64.2-8.9,70.9-11,6.9-2.1,15.4-1.5,16.5-14.6.4,1.1.6,2,.8,2.8.1.5.2,1,.2,1.5,1,13.8-27.6,23.4-41.7,26.6,0,0,0,0,0,0,0,0,0,0,0,0h-.1c-14.2,3.2-30.7,6.8-65.2,6.8"/>
  <path class="cls-1" d="M320.1,250.4c3.4-3.8,34.6-20.9,34.6-20.9,0,0,.7.8,1.8,2.1,2.6-1.2,25.1,33.7,25.1,33.7-.3,11.1-4.7,17.1-15.7,22.1-1.9,4.5-4.8,9-8.7,11.3-2,1.1-5.4-.2-7-2.3-4.5.7-9.9.2-16.3-2.3-11.7-7-3.5-26.6-3.7-31.7-3.2,0-7.7,11.1-8.1,16.6-.1,1.8-1,9.8-2,10.5-.4,0-2,2.8-2.4,2.7-4-1.1-7.6-10.6-6.7-20.3,1-10.4,7.2-19.6,9-21.5"/>
  <path class="cls-8" d="M336.8,296.2c.4,0,.8,0,1.2-.2,1.4-.4,1.9-1.5,1.9-1.7.3-.7,0-1.5-.7-1.8-.7-.3-1.5,0-1.8.7,0,0,0,0-.3.2-.3,0-1.4.1-3.5-1.2-3.5-2.2-4.7-12.9-4.5-18.2,0-1.7.8-4.5,1.7-7.4.7-2.5,1.5-5.1,1.9-7.4.1-.7-.4-1.4-1.1-1.6-.7-.1-1.4.4-1.6,1.1-.4,2.2-1.1,4.7-1.8,7.1-.9,3.1-1.7,6-1.8,8.1,0,.2-.3,16.7,5.8,20.6,1.7,1.1,3.3,1.7,4.6,1.7"/>
  <path class="cls-8" d="M345.8,298.6c1.7,0,3.3-.6,4.6-2.3,2-2.7,4.6-15.8,5.1-18.4.1-.7-.3-1.4-1.1-1.6-.8-.2-1.4.3-1.6,1.1-1.1,5.8-3.4,15.6-4.6,17.3-.8,1.1-2.3,2-7-.2-1.5-.7-.9-9.8,2.2-21,.2-.7-.2-1.5-.9-1.7-.7-.2-1.5.2-1.7.9-1.8,6.5-5.5,22-.7,24.2,1.2.5,3.4,1.6,5.7,1.6"/>
  <path class="cls-8" d="M317.5,293.6h.4c.7,0,1.7-.3,2.6-1.3,2.5-2.8,2.9-9.7,2.6-12.8-.2-2.4,4.8-11.9,8.5-17.9.4-.6.2-1.5-.4-1.9-.6-.4-1.5-.2-1.9.4-1.6,2.5-9.3,15.4-8.9,19.6.3,3.2-.3,8.9-1.9,10.8-.2.2-.3.3-.4.3-7.2-4.3-5.6-18.5-5.6-18.7,0,0,6.6-17.2,8.8-21,1.6-2.6,15.5-10.4,23.9-14.7l10.2-5.7c1.6-.9,8.9-1.6,14.9-1.8.7-.1,1.3-.8,1.2-1.5,0-.7-.5-1.3-1.3-1.2-3.1.1-13.4.6-16.1,2.1l-10.2,5.7c-3.7,1.9-22.5,11.6-24.9,15.7-2.4,4-8.8,21-9.1,21.7-.2,1-2,17.1,7.3,21.9l.3.2"/>
  <path class="cls-8" d="M355.3,300.7c.9,0,1.9-.3,2.8-1,2.9-2.3,7.6-9.4,8.7-11.2,2.8-1.1,17.4-7.1,16.3-19.9,21.3,2.7,67.6-.3,92-10.3.7-.3,1-1.1.7-1.8-.3-.7-1.1-1-1.8-.7-24.7,10.1-72.3,12.9-92.3,9.8-.4,0-.9,0-1.2.4-.3.3-.4.8-.4,1.2,2.5,13-14,18.6-14.7,18.8-.3.1-.6.3-.7.6-1.5,2.4-5.9,9-8.4,10.9-2.1,1.6-5.1-2-5.1-2.1-.5-.6-1.3-.7-1.9-.2-.6.5-.7,1.3-.2,1.9,1.2,1.5,3.6,3.5,6.1,3.5"/>
  <path class="cls-1" d="M445.1,185.7c17.8,3.9,29.3,6.4,39.4,15.6,10.1,9.2,10.2,11.6,12.7,15.6,2.5,4-69.9,19.5-69.9,19.5,0,0,.8-47.2,2.3-46.9,1.4.2,15.5-3.7,15.5-3.7"/>
  <path class="cls-26" d="M353.2,94.6s9.7-24.2,64.3-22.5c5.6.2,10.7-.1,15.5-.5,14.6-1,25.1-2,31.7,11.7,2.7,5.7,14.9,8.1,17.6,14.6,7.2,17.8,0,44.5.9,53.5,2.4,22.7-14.9,20.9-18.5,36.7-3.4,15-55.5.5-76.2,17-18.1-4.2-30.2-11.3-35.9-19.8-10.6-16-18.2-53.4-15.8-75.3,2.3-21.8,16.5-15.4,16.5-15.4"/>
  <path class="cls-37" d="M384.1,225.7c2.8-.5,5.9-1,9.2-1.7-3.3.6-6.3,1.2-9.1,1.7h0"/>
  <path class="cls-33" d="M401.7,222.2c.2,0,.5-.1.7-.2h0c-.3,0-.5.1-.8.2"/>
  <path class="cls-13" d="M393.3,224c2.7-.5,5.5-1.1,8.4-1.8-2.9.7-5.8,1.2-8.4,1.8"/>
  <path class="cls-20" d="M429.8,243.3c-.4,0-.8,0-1.2,0-8.6-1.3-30.6-13-35.3-15.7-3-1.7-5.9-2-7.6-2s-1.4,0-1.6.1c2.8-.5,5.9-1,9.1-1.7,2.7-.5,5.5-1.1,8.4-1.8.2,0,.5-.1.8-.2,1.8,2.2,3.4,4.5,6,5.7,7.1,3.4,13.7,5.7,18.9,6.3,0,1.4,0,2.2,0,2.2,0,0,9.1-1.9,20.7-4.6-5.6,7.2-13.1,11.6-18.2,11.6"/>
  <path class="cls-20" d="M427.3,236.3s0-.8,0-2.2c.8,0,1.6.1,2.4.1s1.9,0,2.8-.3c9.5-2,16.7-6.9,21.2-12.4-1.4,3.7-3.4,7.1-5.7,10.1-11.6,2.7-20.7,4.6-20.7,4.6"/>
  <path class="cls-26" d="M459.4,209.5c-.7,8.3-10.2,21-26.9,24.5-5.5,1.1-14.4-1.6-24-6.2-4.4-2.1-5.9-7.4-10.7-9.5-19.4-8.2-33.3-18.8-36.8-24.6-6.6-11,27.2-31.6,27.2-31.6l65.4,19.9,5.8,27.5"/>
  <path class="cls-7" d="M389.7,193c-3.5,3.2,6.1,15.7,22.6,26.7,6.7,4.5,18.3,5,24.7,4.6,8.4-.5,17-9.8,17.5-11.3,2.2-7.4,1.5-42.5,1.5-42.5l-57.8,26.8s-5.1-7.5-8.5-4.4"/>
  <path class="cls-40" d="M445.7,212.2c1.1,3.4,4.7,7.8.7,12.2s-25,6.4-27.7,0c-2.7-6.4-.7-4.8-3.3-7.6-2.6-2.8-5.9-10.4-5.9-10.4l33.6-1,2.6,6.9"/>
  <path class="cls-45" d="M427.1,217.3c-4,0-8.3-.3-9.6-.4h-2.1c-.9-1.1-1.8-2.6-2.7-4.1,1.9.5,3.8.7,5.8.7s1,0,1.5,0c2.5-.2,12.7-4.3,14.9-5,.2,0,.6-.1,1-.1,1.9,0,5.5.7,8.9,1.5l.9,2.4c.2.7.6,1.5,1,2.4-8.7,0-9.4,1.6-13.6,2.3-1.6.3-3.8.4-6,.4"/>
  <path class="cls-26" d="M389,193.7l-12.6-4.7c-12.5-21.4-5.3-49,16.1-61.5,21.4-12.5,49-5.3,61.5,16.1,3.6,6.2,9.4,34.6,9.9,41.3l.5,4.6c-.9,1.8,2.8,21.5-11.4,21.8-1.2,0-4.6-.7-8.1-1.5-4.2-.9-8.6-1.8-10-1.4-2.3.7-12.5,4.9-14.9,5-13,.8-24.7-9.3-30.9-19.8"/>
  <path class="cls-31" d="M280.2,220.6c1.5-1.5,3-3,4.5-4.4,10.4-1.6,20.4-6.2,26.6-9.5,9.9-5.3,21.1-9,28-18.9,1.3,2.6,3.4,6.2,6,10-4.9,8.1-11.9,12.4-20.5,14.6-14.8,3.7-26.2,0-44.6,8.2"/>
  <path class="cls-29" d="M345.4,197.8c-2.7-3.8-4.7-7.4-6-10,2.3-3.2,4.1-7.1,5.2-11.8.5,2.8,1.4,6,2.9,9.7.4,1,1.1,2.1,1.8,3.3-1.1,3.4-2.4,6.3-3.9,8.9"/>
  <path class="cls-30" d="M345.3,171.5c0-.3,0-.7.1-1,0,.2.2.4.2.7l-.4.4"/>
  <path class="cls-2" d="M349.3,188.9c-.8-1.1-1.4-2.2-1.8-3.3-1.6-3.7-2.5-6.9-2.9-9.7.2-.6.3-1.3.4-2,.1-.5.2-1.4.3-2.5l.4-.4c1.6,4.4,3.4,8.4,5.3,11.7-.5,2.2-1,4.3-1.6,6.2"/>
  <path class="cls-31" d="M350.9,182.7c-1.9-3.3-3.7-7.3-5.3-11.7,0-.2-.2-.4-.2-.7.7-6.5,1.6-18.5,3-21.4,6-11.9,10.5-25.4,11.8-38.5l4.8-2.2,13.6,31.7c-5.9,8.2-8.8,18.2-8.4,28.2-3.6,6.1-6.6,8-6.6,8,0,0-.2,1.1-1.3,1.1s-4.2-1.8-9.6-10c-.3,5.8-.9,10.9-1.9,15.3"/>
  <path class="cls-31" d="M370.3,168.3c-.4-10,2.5-20,8.4-28.2l.8,1.7c-2.4,12.8-6,21.2-9.1,26.4"/>
  <path class="cls-36" d="M350.3,109.3c.4-3.8.8-7.3,1.3-10.4h24.2v-29.1c2,0,4.1.2,6.1.4l2.3,5.1s-3.1,30.7-2.3,46.2c1.2,23.2-9.9,35.4-16.4,40.5-1.9,1.5-4.7.5-5.3-1.8-1.3-4.6-4.3-10.9-11.7-11.1-11.7-.3-.6-12.9,1.9-39.7"/>
  <path class="cls-36" d="M354.7,151.3s-7.2-4.8-7.3-5.8,3.4-10.8,7.6-15.7c4.2-4.8,6.7-5.9,7.8-11.7,1.2-5.8-4-20.9,0-29.2,4-8.3,11.5-21.8,18.3-23.3,6.9-1.5,17.7,5.8,17.7,5.8l-7.4,5.8s-10.8,2-12.5,6.4c-1.7,4.4-3.2,42.4-4.2,44.3-.9,1.9-20.2,23.3-20.2,23.3"/>
  <path class="cls-43" d="M363.4,164c-1.6-.4-2.2-1.8-2.8-3.3-.7-1.6-1.6-3.6-3.9-5.6-4.3-3.7-8.4-4.7-8.4-4.7-.4,0-.8-.4-.9-.8-.1-.3-2.9-6.7,2.2-13.9.4-.6,1.3-.8,1.9-.3.6.4.8,1.3.3,1.9-3.4,4.8-2.6,9.2-2.1,10.7,1.5.5,5.1,1.8,8.9,5.1,2.8,2.4,3.9,4.9,4.6,6.5.4.9.7,1.7,1,1.8,1,0,4.9-3.6,12.8-16.1,6.2-9.8,4.4-48,4.4-48.4,0-.7-.4-16.8,1.8-22.1,2.1-5,6.5-4.8,8.6-4,.7.3,1,1,.8,1.7s-1,1.1-1.7.8c-.6-.2-3.7-1.1-5.2,2.5-1.6,4-1.7,16.5-1.6,21,0,1.6,1.8,39.4-4.8,49.9-9.8,15.6-13.5,17.4-15,17.4s-.5,0-.7-.1"/>
  <path class="cls-43" d="M360.2,136.7c.5,0,1-.3,1.2-.8,6-14.3,3.5-29.2,3.4-29.8-1.1-4.3-2.5-11.9-1.4-14.3.3-.7,0-1.5-.7-1.8-.7-.3-1.5,0-1.8.7-1.7,4.1,1,14.8,1.3,16,0,0,2.5,14.7-3.2,28.2-.3.7,0,1.5.7,1.8.2,0,.4.1.5.1"/>
  <g class="cls-56">
    <path class="cls-36" d="M453.6,72.4c14.4-1.2,29.6-.8,35.5,14.1,8.5,6.9,17.6,13.2,22.9,16.8,3,2,4.9,5.3,5.1,8.9.6,11.3.6,35.4-10.9,43.4-19,13.1-6.6,21.2-12.2,25.5-9.1,6.8-23.9-23.8-17.3-42,3.1-8.5.2-30.6-5.8-44.3-.8-1.7-7-3.6-7.7-5.3-6.3-13.4-9.4-17.1-9.4-17.1"/>
  </g>
  <path class="cls-43" d="M418.9,215c7.3,0,16.2-5.2,16.6-5.4.3-.2.5-.4.6-.7s2.7-7.4.7-13.8c-.2-.7-1-1.1-1.7-.9-.7.2-1.1,1-.9,1.7,1.4,4.7,0,10-.5,11.6-2.1,1.2-11.2,6-17,4.6-7.1-1.7-15.3-5.7-18.5-9.1-3.4-3.6-7.1-8.6-7.1-8.6-.3-.4-.8-.6-1.3-.5-1.4.2-5.5.7-7.8,0-.7-.2-1.5.2-1.7.9-.2.7.2,1.5.9,1.7,2.6.7,6.4.4,8.1.1,1.1,1.5,4.1,5.3,6.9,8.2,3.6,3.8,12.1,8,19.8,9.8.9.2,1.9.3,2.9.3"/>
  <path class="cls-39" d="M419.4,177.4c6.7-2.7,23.7-1.7,28.9,1.5,5.3,3.2,2.2,18.8-9.1,19.3-11.3.5-20.6-7.3-23-11.7-2.4-4.4,1-8.3,3.2-9.2"/>
  <path class="cls-39" d="M388.4,139.8c1.3-1.2,2.7-1.8,4.1-2.3.6-.2,3.9-2.2,5.4-2.2,2.3,0,5,4.6,5.2,5,.1.2.3.6.4.9.1.3.2.7.2,1.1.1.7-.1,1.6-.7,2.1-.2.2-.5.2-.8.2l-.6-.2c-.6-.2-1,0-1.3.3-.3.2-.5.5-.7.6-.4.3-.9.5-1.4.6-1,.1-1.9-.2-3-.6-1.1-.4-2.2-.8-3.4-1.5-1.1-.7-2.3-1.5-3.5-2.7-.4-.4-.4-1,0-1.4"/>
  <path class="cls-39" d="M447.8,143.5c0-.4.1-.7.2-1.1.1-.3.3-.6.4-.9.2-.4,2.9-4.7,5.2-5,5.2-.7,8.1,3.3,9.4,4.4.4.4.4,1,0,1.3-1.2,1.3-2.4,2.1-3.6,2.7s-2.3,1.1-3.4,1.5c-1.1.3-2.1.7-3,.6-.5,0-.9-.3-1.4-.6-.2-.2-.5-.4-.8-.6-.3-.2-.7-.5-1.3-.3l-.6.2c-.3,0-.6,0-.8-.2-.5-.5-.8-1.3-.7-2.1"/>
  <path class="cls-43" d="M490.5,183.4c.2,0,.5,0,.7-.2,5.5-3.1,5.7-7.1,5.7-7.3,0-.7-.6-1.4-1.3-1.4-.8,0-1.4.6-1.4,1.3,0,0-.2,2.5-3.7,4.7-14.7-7.1-14-34-12.4-41.1,1.4-6.2,1.1-16.3-.8-28.5-1.5-9.6-4-25.8-14.1-32.5-.6-.4-1.5-.2-1.9.4-.4.6-.2,1.5.4,1.9,9.1,6.1,11.5,21.5,12.9,30.7,1.9,11.9,2.2,21.7.9,27.5-1.2,5.4-3.5,36.6,14.6,44.5.2,0,.4.1.5.1"/>
  <path class="cls-43" d="M502.2,112.4c.3,0,.6-.1.9-.3.6-.5.6-1.3.1-1.9-4.9-5.6-8.5-14.1-11.1-20.4-1.4-3.4-2.5-6.1-3.5-7.4-2.7-3.7-10.3-8.9-10.6-9.1-.6-.4-1.4-.3-1.9.4-.4.6-.3,1.5.3,1.9,0,0,7.5,5.2,9.9,8.5.8,1.1,1.9,3.8,3.2,6.9,2.7,6.4,6.4,15.2,11.6,21.1.3.3.6.5,1,.5"/>
  <path class="cls-43" d="M450.4,213.2c3.8,0,8-1.1,12.5-3.3.7-.3,1-1.1.6-1.8-.3-.7-1.1-1-1.8-.6-6.5,3.1-11.7,3.8-16.5,2.2-5.3-1.8-10-2.6-10.2-2.6-.8-.1-1.4.4-1.6,1.1-.1.7.4,1.4,1.1,1.5,0,0,4.7.8,9.7,2.5,1.9.7,3.9,1,6,1"/>
  <path class="cls-15" d="M333.8,29.1c5.1-2,19-1,30.3,14.4,1.1,1.6,3,5.7,4.7,9.9,3,7.3,4.3,15.2,4,23.1-.5,8.1-1.7,14.1-2.4,21.9-1.6.8-1.2,1.4-1.9,3.3-3,7.9-7.3,14.6-8.4,23.2,0,.2,0,.3,0,.5-.2.4-.5.8-.8,1.2-4.3-3.2-6.1,4.1-14.8-19.1-1.6-4.2-3.9-35.9-3.9-35.9,0,0-16-38.9-6.8-42.4"/>
  <path class="cls-1" d="M220.9,117.7c-.7,12.6,1,23.2-.2,30.3-1.6,10.1-2.1,16.8,3,26.5,14.2,26.8,36.7,40,47.8,41.9,14.3,2.5,31-4.9,39.8-9.6,13.5-7.2,29.6-11.6,33.7-32.7.7-3.6,1.7-21.4,3.5-24.9,17.8-35.1,22.1-84-28.4-96.7-60.5-15.3-96.1,7.8-99.1,65.4"/>
  <path class="cls-41" d="M299,175.5s-21.8-6.3-22.1-6.3c0,0,10.8.1,16.1,1.6,5.9,1.6,6,4.7,6,4.7"/>
  <path class="cls-18" d="M336.5,146.2c-.9-.1-1.7-.3-2.4-.7-.7-.4-1.5-1-2.5-1.6-2-1.1-4-1.8-6.3-2.2-2.3-.3-4.8,0-6.7.7-2,.6-3.5,1.5-5.1,1.5-.7,0-1.2.5-1.2,1.1,0,.4.2.7.5.9,1.1.7,2.5.9,3.6.8,1.2,0,2.2-.3,3.2-.4,1.9-.4,3.6-.7,5.3-.5,1.7.2,3.6.6,5.3,1.2.8.3,1.7.8,2.9,1.2,1.2.4,2.5.4,3.6.2.6-.1,1-.7.9-1.3-.1-.5-.5-.8-1-.9"/>
  <path class="cls-18" d="M280.5,133.7c-.9-1.8-2.1-3.5-3.6-5-1.6-1.5-3.5-2.6-5.5-3.3-2-.8-4.1-1-5.9-1.3-1.8-.4-3.8-.6-5.5-.2h-.4c-.5.2-.8.8-.7,1.3,0,.2.1.4.3.5,1.9,1.7,3.8,2,5.8,2.3,2,.2,3.7.5,5.4.9,3.4.8,6.1,3,8.5,6,.4.4,1,.5,1.4.2.4-.3.5-.8.3-1.3"/>
  <path class="cls-21" d="M244.1,164.9c-1.1,0-2.3,0-3.7-.1-1,0-2.1-.3-3.1-.8-4.9-2.1-7.1-7.8-5-12.6l1.2-2.7c1.1-2.5,3.3-4.7,6.3-6.6,3-1.9,6.9-3.3,11.3-3.5.6,0,1.1,0,1.7,0,3.8,0,7.7.9,11,2.6,3.8,2,6.7,4.8,8.4,8.2.5.9.8,2,1,3.1.7,5.2-3,9.9-8.1,10.6l-3.2.4c-2.6.4-4.4.4-5.7.7-1.3.3-2.1.5-3.2.6-1,.1-2.3.1-4.3.2-1.3,0-2.7.1-4.6.1"/>
  <path class="cls-21" d="M331.5,184.8c-2.2,0-4.3-.7-6.1-2.3-2.2-1.9-4.6-4.3-8.3-7.6-6.4-5.9-2.3-17.1,10.6-17.1s2.1,0,3.2.2c.6,0,1.4.3,2.2.6,7,2.4,10.7,10.1,8.3,17.1-.4,1.1-.7,2.1-1.1,3-1.4,3.9-5.1,6.1-8.8,6.1"/>
  <path class="cls-9" d="M344.8,132.2c-.2-1.7-1-3-1.8-4.2-.9-1.1-1.8-2.1-2.9-2.8-1.1-.8-2.2-1.4-3.5-1.7-1.3-.3-2.6-.5-4.3,0-1,.3-1.6,1.4-1.3,2.4.6,1.8,1.4,2.7,2.3,3.6s1.8,1.4,2.8,1.9c2,1.1,3.9,1.8,6.2,2.4h.5c.9.3,1.7-.2,1.9-1,0-.2,0-.4,0-.5"/>
  <path class="cls-9" d="M263,114c2.4.4,4.1.5,6.1.5,1,0,2,0,3-.2,1-.3,2.2-.6,3.3-1.5l.2-.2c.8-.6,1-1.7.4-2.5-1.1-1.4-2.3-1.9-3.5-2.3-1.2-.4-2.5-.4-3.8-.2-2.6.3-5.4,1.4-7.1,4-.5.7-.2,1.7.5,2.1.2.1.4.2.6.2h.3"/>
  <path class="cls-8" d="M294.5,192.6c2.8,0,4.5-.7,5.9-1.2,1.2-.5,1.6-.6,2.3-.3.7.3,1.5,0,1.8-.7.3-.7,0-1.5-.7-1.8-1.7-.7-3-.2-4.3.3-2.2.8-5.5,2.1-14.4-1-7.1-2.4-13-7.2-18.2-11.4-3.7-3-7-5.6-10.1-7-.7-.3-1.5,0-1.8.7-.3.7,0,1.5.7,1.8,2.8,1.3,5.9,3.8,9.5,6.6,5.4,4.4,11.5,9.3,19,11.8,4.6,1.6,7.9,2.1,10.4,2.1"/>
  <path class="cls-8" d="M287.2,198.1c2.5,0,4.9-.6,6.7-2.3.5-.5.6-1.4,0-1.9-.5-.5-1.4-.6-1.9,0-4.2,4-14.9-.6-18.6-2.8-.8-.4-2.2-1.9-2.9-2.7-.5-.6-1.3-.6-1.9-.1-.6.5-.6,1.3-.1,1.9.2.3,2.1,2.5,3.6,3.3.4.2,8.3,4.6,15.1,4.6"/>
  <path class="cls-15" d="M345.8,59.3l23.2,2.7-1.7,15.3,1.7,7.2c4,16.6-.5,34.1-12,46.6-1.2.4-1.4.4-1.3-.2,1.8-14.9-5.1-19.8-9.3-27.4-3.6-6.7-4.6-21.2-4.6-21.2,0,0,.7-16.9,4-23"/>
  <path class="cls-15" d="M342.5,89.4c-42.8,15.5-81.5-1.9-91.4-1.9s-25.3,16.5-24,27.4c.1,1.1-11.6-35.5,0-49.4s23.6-3.1,32.5-16.9c8.9-13.8,21-22.8,48.4-19.8,27.4,3,40.8,21.9,39.5,33.7-1.3,11.8-4.9,26.9-4.9,26.9"/>
  <path class="cls-15" d="M240.2,92.2c-12.4,13.2-17.1,39.9-17.1,39.9,0,0-12.1-7.3-14.8-14.9-2.7-7.6-6.6-37.4.1-51.3,6.5-13.6,16.6-32.6,33-37.7,10.7-3.3,37.8-21.4,63.4-16.8,25.6,4.5,40.1,33.7,40.1,33.7l-4.9,13.8-80.5,14.5-19.3,18.8"/>
  <path class="cls-1" d="M205,132.1c0,9.4,5.5,17,12.2,17s12.2-7.6,12.2-17-5.5-17-12.2-17-12.2,7.6-12.2,17"/>
  <path class="cls-18" d="M320.6,148.5c0,3.1,2.8,5.6,6.2,5.6,6.1,0,6.7-4.8,5.4-7.9-1.2-2.8-2.1-3.2-5.5-3.2s-6.1.8-6.1,5.6"/>
  <path class="cls-18" d="M263.7,130.5c-.7,3,.8,6.9,6.3,7.1,5.8.3,4.9-2.7,5.6-5.7.7-3-1.4-4.6-4.7-5.4-3.2-.8-6.5.9-7.2,3.9"/>
  <path class="cls-15" d="M320.8,104.4c12.7,0,22.6-6.5,29-19,.7-1.3.1-3-1.2-3.6-1.3-.7-3-.1-3.6,1.2-6.9,13.7-17.7,18.6-33.1,15-6.9-1.6-15.7-7.1-24.1-12.4-7.3-4.6-14.1-8.9-19.9-10.7-1.4-.5-2.9.3-3.4,1.7-.5,1.4.3,2.9,1.7,3.4,5.1,1.7,11.7,5.8,18.7,10.2,8.8,5.5,18,11.3,25.8,13.1,3.5.8,6.9,1.2,10.1,1.2"/>
  <path class="cls-18" d="M323.3,86.6c.5,0,1.1,0,1.6,0,.7,0,1.3-.7,1.3-1.4,0-.7-.7-1.3-1.4-1.3-14.9.7-35.8-9.5-52.6-17.8-7-3.5-13.1-6.4-17.6-8-8.4-3-19.2-1.2-27.6,4.4-6.8,4.6-10.8,11-11.1,17.9,0,.7.5,1.4,1.3,1.4.8.1,1.4-.5,1.4-1.3.3-6.1,3.8-11.7,9.9-15.8,7.6-5.2,17.5-6.8,25.2-4.1,4.3,1.5,10.3,4.5,17.3,7.9,16.5,8.1,36.9,18.1,52.4,18.1"/>
  <path class="cls-18" d="M309.3,68c11.7,0,24.9-3.5,30.8-10.2,3.2-3.7,3.9-8.1,2.1-12.7-4.3-10.9-4.6-13.1-4.6-13.2,0-.7-.6-1.3-1.4-1.2-.7,0-1.3.6-1.3,1.3s.3,3,4.8,14.1c1.4,3.7.9,7-1.6,9.9-7,8.1-27.1,11-39,8.1-.7-.2-1.4.3-1.6,1-.2.7.3,1.5,1,1.6,3.2.8,7,1.2,10.9,1.2"/>
  <path class="cls-18" d="M212.8,109.7c5.7,0,9.4-5.3,13.4-10.9,4.1-5.8,8.4-11.8,14.8-12.2.7,0,1.3-.7,1.3-1.4,0-.7-.7-1.3-1.4-1.2-7.7.6-12.5,7.4-16.8,13.4-3.6,5-7,9.8-11.2,9.8s-1.5.6-1.5,1.3c0,.7.6,1.4,1.3,1.4h.2"/>
  <path class="cls-18" d="M352.8,86.6c.5,0,.9-.3,1.2-.7,7.2-13.6,7.2-26.1,0-37.4-5.6-8.6-8-11.1-8.1-11.2-.5-.5-1.4-.5-1.9,0-.5.5-.5,1.4,0,1.9,0,0,2.4,2.5,7.8,10.8,6.7,10.3,6.7,22,0,34.6-.3.7,0,1.5.6,1.8.2.1.4.2.6.2"/>
</svg>