<?xml version="1.0" encoding="UTF-8"?>
<svg id="Camada_1" data-name="Camada 1" xmlns="http://www.w3.org/2000/svg" version="1.1" xmlns:xlink="http://www.w3.org/1999/xlink" viewBox="0 0 528.7 494">
  <defs>
    <style>
      .cls-1 {
        fill: #9265b9;
      }

      .cls-1, .cls-2, .cls-3, .cls-4, .cls-5, .cls-6, .cls-7, .cls-8, .cls-9, .cls-10, .cls-11, .cls-12, .cls-13, .cls-14, .cls-15, .cls-16, .cls-17 {
        stroke-width: 0px;
      }

      .cls-2 {
        fill: #967e72;
      }

      .cls-18 {
        clip-path: url(#clippath-2);
      }

      .cls-3 {
        fill: #a47343;
      }

      .cls-4 {
        fill: #fcd25d;
      }

      .cls-5 {
        fill: none;
      }

      .cls-6 {
        fill: #35703d;
      }

      .cls-19 {
        clip-path: url(#clippath-1);
      }

      .cls-20 {
        clip-path: url(#clippath-4);
      }

      .cls-7 {
        fill: #245146;
      }

      .cls-8 {
        fill: #77b643;
      }

      .cls-9 {
        fill: #845333;
      }

      .cls-21 {
        clip-path: url(#clippath);
      }

      .cls-10 {
        fill: #fde2c9;
      }

      .cls-22 {
        clip-path: url(#clippath-3);
      }

      .cls-11 {
        fill: #fabb54;
      }

      .cls-12 {
        fill: #b8dbf4;
      }

      .cls-13 {
        fill: #47284f;
        isolation: isolate;
      }

      .cls-14 {
        fill: #f5eae5;
      }

      .cls-15 {
        fill: #f46f24;
      }

      .cls-16 {
        fill: #ee6374;
      }

      .cls-17 {
        fill: #bfb290;
      }
    </style>
    <clipPath id="clippath">
      <rect class="cls-5" x="63.4" y="7.2" width="402.9" height="479.8"/>
    </clipPath>
    <clipPath id="clippath-1">
      <rect class="cls-5" x="420.9" y="424.4" width="45.4" height="61"/>
    </clipPath>
    <clipPath id="clippath-2">
      <rect class="cls-5" x="63.4" y="150.1" width="203.2" height="283.9"/>
    </clipPath>
    <clipPath id="clippath-3">
      <rect class="cls-5" x="451.4" y="386.3" width="15" height="38.1"/>
    </clipPath>
    <clipPath id="clippath-4">
      <rect class="cls-5" x="138.9" y="333" width="188.6" height="154"/>
    </clipPath>
  </defs>
  <g class="cls-21">
    <path class="cls-10" d="M292.7,340.8c-.7,1.1-1.5,2.2-2.2,3.3-.5.7-1,1.3-1.5,2-.2.3-.5.6-.7.9,0,0,0,0,0,0l-.4.5c-1,1.3-2,2.5-3.1,3.7h-57.1c2.5-3.4,5-6.9,7.3-10.4h57.7ZM290.3,361c1.6,1.2,3.3,2.4,4.9,3.7-4.8,0-9.7.6-14.1,1.6-4.8,1.1-9.5,2.7-14.3,3.6-4.8.9-9.6,1.1-14.4.2-9.1-1.6-17.7-5.7-26.8-7.4-1.3-.2-2.5-.4-3.8-.5.2-.4.4-.8.6-1.2h68ZM462.1,461c4.2-8.1,4.1-17.8,1.7-26.6-.8-2.8-1.8-5.6-2.9-8.2-.5-1.1-1-2.1-1.5-3.1,1.9-3.7,3.3-7.6,4.3-11.6,1.3-5.1,1.8-10.5.1-15.5-1.1-3.3-3.3-6.3-6.1-8.2-1.3-5.2-4-10-8-13.5-1.2-1-2.4-2-3.4-3.1-1-1.1-1.6-2.5-2.3-3.8.1-.4.3-.8.4-1.3,1.6-6.3,2.9-12.8,2-19.2-.2-1.3-.5-2.6-1.2-3.7-1.3-1.8-3.7-2.6-5.9-2.5-2.1.1-4.3.8-6.5,1.8-.6.2-1.1.5-1.6.8,0,0,0,0,0-.1-4.6-24.5-10-48.9-16.3-73-.6-2.5-1.3-4.9-2-7.4.5-2.9.6-5.8.3-8.8-.2-2.8-.8-5.5-1.8-8.1-.6-1.6-1.7-2.6-2.7-3.7-1.9-19.7-16.1-38.7-34.6-44.7,10.1-47.1,14.5-95.8,12.8-144.5-.3-10.2-1.1-20.9-5.8-29.9-4.7-9.1-14.6-16-23.7-13.5-6.7,1.9-11.4,8.3-14.3,15.1-4.2,9.8-5.4,20.9-5.6,31.9-.3,21.7,3.4,43.4,7.2,64.9,4.4,24.8,9.1,49.6,14.7,74.2-1.4,0-2.8.2-4.1.5-.3,0-.6.1-.9.2-1.7-4.1-4.3-8-6.1-11.9-3.1-6.8-6.4-13.5-9.7-20.1-6.6-13-13.5-25.8-20.9-38.3-8.3-14.1-17.1-27.9-26.4-41.3-7.3-10.5-14.9-20.9-23.9-30.1-3.4-3.4-7.5-6.9-12.3-6.6-13.5.9-14.2,18.9-12.1,28.5,3.4,15.1,11.7,28.6,20.7,41.2,22.1,31,48.9,58.1,76.1,84.8-4.6,2.9-8.9,6.6-12.9,10.5-6.3,6.1-11.8,12.8-17.1,19.8-5.1,6.8-8.8,14.8-10.2,23.2-1.6,10.3.5,21.4,6.6,29.9,1.8,2.5,4,4.9,6.6,6.5,1.7,1.1,3.5,1.8,5.4,2.4-.6.9-.9,2.2-1.2,3-.1.5-.3,1-.2,1.5,0,.8.5,1.5,1.1,2.1-5.8,12.5-10.5,25.4-13.9,38.8-1.6,6.3-2.9,12.7-4,19.1-.6-.4-1.1-.9-1.7-1.3v-6.6h-4.2c3-3.9,5.7-7.8,8.3-12,.6-.9.6-2.1.2-3.2-.4-1.4-1.5-2.6-3.4-2.6h-59.8c4.4-7.6,8.2-15.4,11.4-22.9,4.9-11.8,8.3-24.4,9.7-37.2.8-6.9.9-13.9.4-20.8-.3-4-.7-8.5-1.9-12.6.6-.1,1.2-.3,1.8-.5,4.3-1.5,8.1-4.2,11.1-7.5,6.9-7.9,9.9-18.6,8-29-.9-5-2.9-9.7-5.5-14.1-2.4-4.2-4.9-8.3-8.6-11.4-5.5-15.4-19.6-24.7-36.1-25.9-.3,0-.7,0-1.1,0-.7,0-1.4-.1-2.1-.1-14.6-.2-27.9,3.3-38.8,13.4-5.9,5.5-11.2,11.7-17.8,16.3,3.4,1.7,7.6,1.7,10.9,0-1.7,2.4-4,4.5-6.6,5.9,2.7,1.2,5.9,1.1,8.5-.2-1,.5-2.1,7.9-2.5,9.3-1,3.2-2.1,6.4-3.3,9.6-2.5,6.4-5.5,12.7-8.8,18.7-1.2,2.1-2.4,4.1-3.8,6-13.7,11.1-25.9,24.4-36.1,38.7-2.4,3.3-4.7,6.8-7,10.2-13.2,19.7-25.1,40.2-35.7,61.4-5.4,10.8-10.4,21.7-15.1,32.8-2.1,4.9-5.9,11.1-6.5,16.3-.3,2.5.5,9,4.3,6.6,2.6-1.6,4.9-3.6,7.1-5.7-.7,2.1-1,4.3-.9,6.5,0,.4,0,.9.3,1.2.5.6,1.4.6,2.2.5,6.6-.7,12.5-2.4,18.3-4.8-1.3,4.1-2.5,8.1-3.8,12.2-1.8,5.9-3.6,11.8-4.9,17.8-.5,2.4-.9,5,.5,7,2.7,3.8,10-2.1,12.5-3.7,3.8-2.4,7.3-5.1,10.6-8.1,1.2-1,4.8-3.8,6.7-5.9-.1.9,0,1.8.6,2.5,8.4-4.5,16.6-9.5,24.6-14.7-.8,4-1.2,8-1.3,12.1-.3,11.8,2.2,23.8,7.3,34.4,1.4,2.9,3,5.6,4.9,8.2h-16.3c-5.4,0-9.8,4.4-9.8,9.8h34.8c3.3,3,6.8,5.7,10.5,8.1,12.1,7.7,25.9,11.7,40.1,13.3.3,0,.5,0,.8,0h42.3c.3,0,.5,0,.8,0,12.7-1.4,24.9-4.7,36.1-10.9,8.9-4.9,17.1-11.6,23.1-19.9,5.3.4,10.6.6,15.9.9,7.1.5,14.2.7,21.4.8.4,1.3.9,2.7,1.6,3.9,2.4,4.7,6.2,8.5,10.6,11.3-1.7.8-3.2,2.1-4.2,4.1-.7,1.3-.9,2.9-.1,4.2.8,1.4,2.6,2,4.3,2.3,5.5,1.1,11.2.7,16.8,0s2.3-.3,3.3-.8,1.9-1.4,2.1-2.5c0-.1,0-.3,0-.4,2.7.3,5.5.5,8.2.7,4.8.3,9.7.4,14.5.5,4.1,0,8.3.1,12.4,0,3.3-.1,6.6-.4,9.8-.9,0,0,0,.2,0,.3.2,1.1,1.1,2,2.1,2.5s2.2.6,3.3.8c5.6.7,11.3,1.1,16.8,0,1.6-.3,3.4-.9,4.3-2.3.7-1.3.6-2.9-.1-4.2-1.4-2.6-3.5-4.1-6-4.8,4.2-3,7.8-6.7,10.1-11.3"/>
  </g>
  <g class="cls-19">
    <path class="cls-3" d="M462.1,461c4.2-8.1,4.1-17.8,1.7-26.6-.8-2.8-1.8-5.6-2.9-8.2-3.6.5-7.6,2.7-10.4,4.2-4.5,2.4-8.7,5.8-11.2,10.3-3.5,6.1-4,13.7-7.9,19.6-2.6,3.8-6.5,6.7-8.5,10.9-1.5,3.1-1.6,6.5-.9,9.8,3.3-.1,6.6-.4,9.8-.9,0,0,0,.2,0,.3.2,1.1,1.1,2,2.1,2.5s2.2.6,3.3.8c5.6.7,11.3,1.1,16.8,0,1.6-.3,3.4-.9,4.3-2.3.7-1.3.6-2.9-.1-4.2-1.4-2.6-3.5-4.1-6-4.8,4.2-3,7.8-6.7,10.1-11.3"/>
  </g>
  <path class="cls-3" d="M428.3,360.9c-1.6-4.7-3.2-9.4-4.9-14.1-1.3-.8-2.5-1.8-3.2-3.2-.8-1.7-2.6-9.5-5.9-7.3-.6.4-.9,1.1-1,1.8-.4,1.8-.5,3.8-.1,5.6-1.4-1.7-2.3-3.8-4-5.3-1.7-1.4-4.5-1.9-5.9-.1-1.4,1.7-.3,4.3.7,6.2-1.1-1.1-2.5-2-3.9-2.6-.4-.2-.9-.4-1.4-.3-1.1.1-1.7,1.5-1.4,2.6.3,1.1,1.2,1.8,2,2.6-2.2.3-4.3.8-6.4,1.4-.3-.2-.7-.4-1.1-.6-3-1.4-6.4-3.5-9.9-5-2.2-.9-4.4-1.6-6.5-1.8-2.2-.1-4.7.6-5.9,2.5-.8,1.1-1,2.4-1.2,3.7-.5,3.3-.3,6.6.1,9.9.1,1,.3,1.9.5,2.9.3,1.5.6,3,1,4.5.1.6.3,1.2.5,1.9,0,.2,0,.4.1.6,0,.2.1.5.2.7-.9,1.8-1.7,3.7-2.3,5.7-3.3.9-6,3.5-7.9,6.5-.7,1.1-1.2,2.2-1.7,3.3,4.5-2.7,10.6-1.4,15.4.9,4.2,1.9,8.1,4.5,12.6,5.7,4.5,1.2,6.6-.8,10.2-3.4,4.3-3.1,10.4-4.4,15.1-1.9,3.4,1.8,6.2,5.5,10,5.2,1.9-.1,3.6-1.2,4.9-2.5,0,0,0,0,0,0-2.3,0-4.7-.8-6.2-2.7-.4-.5-.5-1.1,0-1.6.4-.4,1.2-.5,1.6,0,1.5,1.8,4.1,2.6,6.3,1.7.2,0,.4-.2.6-.3,4-6.8,1.3-15.8-1.2-22.9"/>
  <path class="cls-14" d="M459.4,423c-2.2-4.5-4.7-8.9-7.2-13.2.2-.2.4-.3.6-.5,2.9-2.7,4.6-6.5,5.3-10.4.7-3.7.6-7.5-.3-11.1-1.3-5.2-4-10-8-13.5-1.2-1-2.4-2-3.4-3.1-1-1.1-1.6-2.5-2.3-3.8.1-.4.3-.8.4-1.3,1.6-6.3,2.9-12.8,2-19.2-.2-1.3-.5-2.6-1.2-3.7-1.3-1.8-3.7-2.6-5.9-2.5-2.1.1-4.3.8-6.5,1.8-.6.2-1.1.5-1.6.8-2.6,1.2-5.1,2.6-7.4,3.8-.1,0-.3-.2-.4-.2,1.6,4.7,3.3,9.4,4.9,14.1,2.5,7.1,5.2,16.1,1.2,22.9,1.8-1,3.4-3.3,2.5-5.4-.2-.6.3-1.2.8-1.4.6-.2,1.2.2,1.4.8.7,1.7.2,3.7-.8,5.2-.8,1.3-2.1,2.4-3.5,3-.9.4-1.8.6-2.7.6,0,0,0,0,0,0-1.4,1.3-3.1,2.4-4.9,2.5-3.8.2-6.6-3.4-10-5.2-4.7-2.5-10.8-1.2-15.1,1.9-3.6,2.6-5.7,4.5-10.2,3.4-4.5-1.2-8.4-3.7-12.6-5.7-4.9-2.3-11-3.6-15.4-.9-.2.5-.4,1-.5,1.5,0,0,0,.1,0,.2-1.4,4.9-.8,10.3.8,15.2.9,2.9,2.2,5.7,4.3,8,.6.7,1.3,1.3,2,1.8,0,0,0,0,0,0-1.4,2.8-2.9,5.7-4.3,8.5-3.5,6.8-6.9,13.8-8.7,21.2-1.5,6.1-1.7,12.6.2,18.6.4,1.3.9,2.7,1.6,3.9,2.4,4.7,6.2,8.5,10.6,11.3,2.2,1.4,4.6,2.6,7.1,3.5,4.8,1.8,9.9,2.8,15,3.4,2.7.3,5.5.5,8.2.7,4.8.3,9.7.4,14.5.5,4.1,0,8.3.1,12.4,0-.7-3.3-.6-6.8.9-9.8,2-4.2,5.9-7.1,8.5-10.9,3.9-5.9,4.4-13.5,7.9-19.6,2.6-4.5,6.7-7.9,11.2-10.3,2.8-1.5,6.8-3.7,10.4-4.2-.5-1.1-1-2.1-1.5-3.1"/>
  <path class="cls-8" d="M199,361h-.8v4.1c.5-.1,1.1-.3,1.6-.4-.9-.9-1.3-2.2-.8-3.7"/>
  <g class="cls-18">
    <path class="cls-8" d="M233.4,184.4c2.9-3.6,6.7-6.7,10.8-8.8,5.9-2.9,13.1-3.6,18.8-.2,1,.6,2,1.3,2.8,2-5.5-15.4-19.6-24.7-36.1-25.9-.3,0-.7,0-1.1,0-.7,0-1.4-.1-2.1-.1-14.6-.2-27.9,3.3-38.8,13.4-5.9,5.5-11.2,11.7-17.8,16.3,3.4,1.7,7.6,1.7,10.9,0-1.7,2.4-4,4.5-6.6,5.9,2.7,1.2,5.9,1.1,8.5-.2-1,.5-2.1,7.9-2.5,9.3-1,3.2-2.1,6.4-3.3,9.6-2.5,6.4-5.5,12.7-8.8,18.7-1.2,2.1-2.4,4.1-3.8,6-13.7,11.1-25.9,24.4-36.1,38.7-2.4,3.3-4.7,6.8-7,10.2-13.2,19.7-25.1,40.2-35.7,61.4-5.4,10.8-10.4,21.7-15.1,32.8-2.1,4.9-5.9,11.1-6.5,16.3-.3,2.5.5,9,4.3,6.6,2.6-1.6,4.9-3.6,7.1-5.7-.7,2.1-1,4.3-.9,6.5,0,.4,0,.9.3,1.2.5.6,1.4.6,2.2.5,6.6-.7,12.5-2.4,18.3-4.8-1.3,4.1-2.5,8.1-3.8,12.2-1.8,5.9-3.6,11.8-4.9,17.8-.5,2.4-.9,5,.5,7,2.7,3.8,10-2.1,12.5-3.7,3.8-2.4,7.3-5.1,10.6-8.1,1.2-1,4.8-3.8,6.7-5.9-.1.9,0,1.8.6,2.5,8.4-4.5,16.6-9.5,24.6-14.7,1.1-5.4,2.8-10.7,5-15.8-9.2,7.4-17.9,15.2-26.1,23.6-1.1,1.1-2.8-.6-1.7-1.7,9.2-9.5,19.1-18.3,29.5-26.4.2-.2.4-.2.6-.3.7-1.3,1.5-2.7,2.3-4,3.9-6.2,8.8-11.2,14.3-15.7h-1.8c-8.4,5.5-17.1,10.5-25.9,15.2-12.1,6.5-24.4,12.7-37.6,16.8-1.5.5-2.1-1.9-.6-2.4,5.4-1.7,10.7-3.7,15.9-6-2.2-.1-4.4-.8-6.2-2.1-2.6-1.9-4.1-4.8-4.5-7.9-3.5,3.5-7.8,6.5-12.4,8.1-2.6.9-5.6,1-8-.4-2-1.2-3.4-3.3-3.2-5.7,0-1.6,2.5-1.6,2.4,0-.1,2.2,1.7,3.9,3.8,4.3,2.5.4,5-.6,7.2-1.7,4.1-2.1,7.6-5,10.6-8.4.9-1,2.2.1,2,1.2-.5,3.3.9,6.8,3.6,8.7,3,2.2,7.1,2.2,10.2.3.7-.4,1.3,0,1.6.5,6.1-2.9,12-6.1,17.9-9.4.4-.2.8-.4,1.2-.7-3,.8-6.1,1-8.8-.3-5.2-2.4-6.3-7.9-5.5-13.1-1.7,1.5-3.6,2.8-5.7,3.9-2.9,1.5-6.3,2.8-9.6,2.5-6.5-.7-5.8-7.2-4-12.6-1.4,1-2.9,1.9-4.5,2.5-2.9,1.2-6.7,2.4-9.8,1.4-2.8-.9-4.4-3.7-4.5-6.5-.1-3.4,1.9-6.3,4-8.8,1-1.2,2.7.5,1.7,1.7-1.7,2-3.4,4.4-3.3,7.1.1,2.9,2.1,4.5,4.9,4.4,5.3-.3,10.2-3.3,13.6-7.2,1-1.1,2.5.3,1.9,1.5-1.4,3-2.6,6.3-3,9.6-.2,1.5,0,3.2,1.5,4,1,.6,2.4.6,3.5.4,5.6-.7,10.9-4.6,14.5-8.8.8-.9,2.4,0,2,1.2-1.8,5-2.5,12.9,3.9,14.9,2.6.8,5.4.1,7.9-.7,3.1-1,6-2.4,8.9-3.7.5-.2,1,0,1.4.2,4.5-2.7,9-5.5,13.4-8.5-2,.1-3.9-.2-5.6-1.3-3.9-2.5-3.6-6.9-2.3-10.9-5.4,3.5-11.8,6.7-18.1,4.9-3.3-.9-5.6-3.5-5.3-7,.3-3.9,2.7-7.8,5-10.8.9-1.3,3,0,2.1,1.2-1.9,2.7-4,5.9-4.6,9.2-.5,3.4,2.1,5.1,5.2,5.3,6.6.4,12.7-3.7,17.8-7.4,1.1-.8,2.2.7,1.7,1.7-1.7,3.3-4.5,9.4,0,11.8,3.4,1.8,8.2.2,11.3-2-3-3.8-5.7-7.8-8.3-12-.9-1.5-.5-3.2.5-4.4.6-.8,1.5-1.4,2.9-1.4h26c2.1-2.1,4.1-4.2,6.1-6.3,15.9-17.7,27.6-39.9,29.5-63.8.1-1.6,2.6-1.6,2.4,0-1,13.5-5.1,26.6-11.4,38.7-6.1,11.7-14.1,22.2-23.3,31.5h30.4c2.5-2.8,4.9-5.7,7.2-8.8,8-11.1,13.5-23.7,16.4-37.1,3-14.1,2.9-28.8.7-43-.2-1.5,2.1-2.2,2.4-.7,1.3,8.4,1.9,16.9,1.6,25.4-.5,14-3.6,27.9-9.5,40.6-4,8.6-9.3,16.5-15.4,23.6h7.4c4.4-7.6,8.2-15.4,11.4-22.9,4.9-11.8,8.3-24.4,9.7-37.2.8-6.9.9-13.9.4-20.8-.3-4-.7-8.5-1.9-12.6-1.4.3-2.8.5-4.3.4-1.3,0-2.6,0-3.9-.3-1-.2-2.2-.5-3-1.2,1.9,0,3.3-1.6,3.6-3.4-.6,0-1.2,0-1.7-.1-5.4-.7-11.1-3.9-15-7.4-1.9-1.7-3.5-3.6-4.9-5.6-1.7-2.4-3-5.1-4-7.8-.8-2.3-1.3-4.8-.8-7.2,0-.2.1-.5.2-.7-.7-3.1-.3-6.3.8-9.5,1.5-4.7,4.5-9.1,7.3-12.7"/>
  </g>
  <path class="cls-8" d="M187.4,367.8v-6.8h-9.6c-3.1,2.3-6.2,4.7-9.2,7.2,6.1,1.6,12.5.9,18.8-.4"/>
  <path class="cls-8" d="M198.4,351.2c-.5-.9-.9-1.8-.4-3,.8-2,2.6-3.5,4.7-4,2.1-.5,4.4.1,6,1.6,1.4-1.4,3.4-2.2,5.4-2.3,3,0,5.9,1.9,7.7,4.2.4.5.7,1.1,1,1.8.2.5.4,1.1.5,1.7h4.4c2.5-3.4,5-6.9,7.3-10.4h-9.9c-1.3,1.2-2.6,2.4-4,3.6-1.2,1-2.9-.7-1.7-1.7.7-.6,1.4-1.3,2.1-1.9h-30.7c-3.1,2.8-6.2,5.4-9.5,7.9.7.8,1.3,1.7,2,2.5h15.1"/>
  <path class="cls-13" d="M247.5,309.8c5.9-12.7,9-26.6,9.5-40.6.3-8.5-.3-17-1.6-25.4-.2-1.5-2.6-.9-2.4.7,2.2,14.2,2.3,28.9-.7,43-2.8,13.4-8.4,26-16.4,37.1-2.2,3.1-4.6,6-7.2,8.8h3.2c6.2-7.1,11.5-15,15.4-23.6"/>
  <path class="cls-13" d="M221,344.4c1.4-1.2,2.7-2.4,4-3.6h-3.6c-.7.6-1.4,1.3-2.1,1.9-1.2,1,.5,2.8,1.7,1.7"/>
  <path class="cls-9" d="M187.4,367.8c3-.6,5.9-1.4,8.8-2.2.7-.2,1.3-.4,2-.5v-4.1h.8c0,0,0,0,0-.1.1-.4.3-.8.5-1.2,1-1.9,1.4-4.4.3-6.4-.4-.7-1-1.4-1.4-2.1h-15.1c0,0,.1.2.2.3.2.2.5.5.6.8.5.8.6,1.7.4,2.5,0,0,0,0,0,.1,0,0,0,.1,0,.2-.1.6-.4,1.1-.9,1.7-.2.2-.5.4-.8.6-1.7,1.2-3.3,2.4-5,3.6h9.6v6.8"/>
  <path class="cls-9" d="M152.7,455.8h-16.3c-5.4,0-9.8,4.4-9.8,9.8h34.8c-3.2-3-6.2-6.2-8.7-9.8"/>
  <path class="cls-9" d="M298.3,357.8v-6.6h-4.2c-.6.8-1.2,1.5-1.8,2.2,2,1.4,4,2.9,5.9,4.4"/>
  <path class="cls-9" d="M223.3,351.2c.5,2.1.4,4.4,0,6.3-.2,1.2-.6,2.4-1.1,3.5h68c-1.7-1.2-3.4-2.5-5.1-3.7,0,0,0,0-.1-.1-.2-.1-.4-.3-.6-.4-.5-.5-.8-1.1-1-1.7v-.2c0,0,0,0,0,0-.2-.8-.1-1.7.4-2.6.2-.3.4-.6.7-.8,0,0,.1-.1.1-.2h-61.5"/>
  <path class="cls-9" d="M164,361h1.8c3.1-2.6,6.5-5.1,9.8-7.5,0,0-.2-.2-.2-.3-1.4,1-2.7,2-4.1,2.9-2.4,1.7-4.8,3.3-7.3,4.9"/>
  <path class="cls-11" d="M214.7,357.4c-.5.3-1.2.2-1.5-.4-.3-.5-.1-1.2.4-1.5,1.7-.8,3.5-.9,5.3-.6,1.4.2,3.1.7,4.1,1.8.4.4.4,1.1,0,1.5s-1.1.4-1.5,0h-.1c0-.1,0-.2,0-.2,0,0,0,0,0,0h-.1c-.1-.2-.3-.2-.4-.3h-.2c0-.1,0-.1,0-.1,0,0,0,0,0,0-.6-.2-1.3-.4-1.9-.5,0,0,0,0,0,0s0,0,0,0h-.3c-.2,0-.4,0-.6,0-.4,0-.7,0-1.1,0h-.2s-.1,0-.1,0c-.2,0-.3,0-.5.1-.4,0-.6.2-.8.3ZM213.4,351.5c.9-.4,1.7-.9,2.6-1.2.8-.2,1.6-.3,2.4-.2,1.5,0,3.3.4,4.4,1.5.4.4.4,1.1,0,1.6s-1.1.4-1.5,0c0,0-.3-.3-.1-.1-.1,0-.2-.2-.4-.2h-.2c0-.1,0-.1,0-.1t0,0c-.1,0-.3,0-.4-.1-.3,0-.6-.2-1-.2,0,0,0,0,0,0h-.3c-.2,0-.3,0-.5,0-.3,0-.7,0-1,0h-.3s0,0,0,0c-.2,0-.3,0-.5,0-.1,0-.3,0-.4.1h0s-.3.2-.3.2c-.4.2-.8.4-1.2.6-.5.2-1.2.2-1.5-.4-.3-.5-.1-1.3.4-1.5ZM208.6,357.8c-.2-.2-.4-.4-.6-.6,0,0-.2-.1-.2-.1-.1,0-.3-.2-.4-.2h-.2c-.1-.2-.3-.2-.4-.2-.1,0-.3,0-.4-.1h-.4c0,0,0,0,0,0h-.2c-.1,0-.3,0-.4,0s-.3,0-.4,0h-.2c-.3,0-.5.2-.8.3h0s-.2,0-.2,0c-.1,0-.3.1-.4.2-.6.4-1.3.1-1.7-.4-.4-.6-.1-1.3.4-1.7,2.5-1.6,6.2-1.1,8.2,1.2.4.5.5,1.2,0,1.7-.4.5-1.3.5-1.7,0ZM201.3,350.9c2.8-1.3,6.2-1.2,8.8.6.6.4.8,1,.4,1.7-.3.6-1.1.8-1.7.4-.3-.2-.5-.3-.8-.5-.1,0-.3-.1-.4-.2.2,0-.2,0-.3,0-.3-.1-.6-.2-.9-.2-.1,0-.3,0-.4,0,0,0-.2,0-.3,0-.3,0-.6,0-.9,0-.2,0-.3,0-.5,0,0,0-.1,0-.1,0h-.1c-.3,0-.6.1-.9.2-.2,0-.3.1-.5.2,0,0,0,0,0,0h-.2c-.6.4-1.3.2-1.7-.3-.3-.5-.1-1.4.4-1.7ZM199.7,347.7c1.4-.9,2.9-1.5,4.5-1.7,1.6-.2,3.2.2,4.7.9.6.3.8,1.1.4,1.7-.3.6-1.1.7-1.7.4-1-.5-2.2-.7-3.3-.6-1.2.1-2.3.7-3.4,1.3-.6.3-1.3.1-1.7-.4-.3-.6-.1-1.3.4-1.7ZM211,347.4c.6-.8,1.4-1.2,2.3-1.6.3-.1.8-.3,1.2-.4.5,0,.9-.1,1.4-.1,1.8,0,3.7.8,5,2,.4.4.4,1.1,0,1.5-.4.4-1.1.4-1.5,0-.9-.8-2.2-1.3-3.3-1.4-.7,0-1.3,0-2,.3-.4.2-1,.4-1.2.7-.3.5-1,.7-1.5.4-.5-.3-.7-1-.4-1.5ZM223.4,357.5c.3-1.9.4-4.2,0-6.3-.1-.6-.3-1.2-.5-1.7-.3-.6-.6-1.3-1-1.8-1.8-2.3-4.6-4.2-7.7-4.2-2,0-4,.9-5.4,2.3-1.6-1.4-3.9-2.1-6-1.6-2.1.5-3.9,2-4.7,4-.5,1.2-.2,2.1.4,3,.4.7,1,1.3,1.4,2.1,1.1,1.9.7,4.5-.3,6.4-.2.4-.4.8-.5,1.2,0,0,0,0,0,.1-.5,1.5,0,2.8.8,3.7,1.8-.5,3.6-.9,5.5-1.3-.3,0-.5,0-.8,0-1.2-.2-2.3-1-3.2-1.8-.5-.5-.4-1.2,0-1.7.4-.5,1.3-.5,1.7,0,.2.2.3.3.5.5,0,0,0,0,.1,0l.3.2c.1,0,.2.1.3.2s0,0,0,0c0,0,0,0,0,0,.1,0,.2,0,.4.1,0,0,.1,0,.2,0,0,0,.2,0,.2,0,.1,0,.2,0,.3,0,0,0,.2,0,.2,0,.1,0,.3,0,.4-.1.6-.1,1.2-.3,1.8-.5.7-.2,1.3.2,1.5.8.2.6-.2,1.3-.9,1.5-.1,0-.3,0-.5.1,1.7-.3,3.3-.5,5-.6,0,0-.1-.1-.2-.2-.4-.5-.4-1.1,0-1.5.4-.4,1.2-.4,1.5,0l.3.3h0c0,0,0,.1,0,.1l.3.2h.2c0,0,0,.1,0,.1h0s.2.1.2.1c.1,0,.2,0,.4.1.1,0,.2,0,.4,0h.2c.6,0,1.2,0,1.7,0,0,0,0,0,0,0h.2c.2,0,.3,0,.5-.1.3,0,.6-.1.9-.2.6-.2,1.2.2,1.3.8,0,0,0,.2,0,.3,0,0,.1,0,.2,0,.2-.4.4-.8.6-1.2.5-1.1.9-2.3,1.1-3.5"/>
  <path class="cls-13" d="M200.9,349.8c1.1-.7,2.2-1.2,3.4-1.3,1.1-.1,2.3,0,3.3.6.6.3,1.3.2,1.7-.4.3-.5.2-1.4-.4-1.7-1.5-.7-3.1-1.1-4.7-.9-1.6.2-3.1.8-4.5,1.7-.6.3-.8,1.1-.4,1.7.3.6,1.1.8,1.7.4"/>
  <path class="cls-13" d="M200.8,352.5c.4.6,1.1.7,1.7.4h.2c0,0,0,0,0-.1.1,0,.3-.1.5-.2.3,0,.6-.2.9-.2h.1s0,0,.1,0c.2,0,.3,0,.5,0,.3,0,.6,0,.9,0,0,0,.2,0,.3,0,.1,0,.3,0,.4,0,.3,0,.6.1.9.2,0,0,.5.2.3,0,.1,0,.3.1.4.2.3.1.6.3.8.5.5.4,1.4.1,1.7-.4.3-.6.1-1.3-.4-1.7-2.6-1.8-6-1.9-8.8-.6-.6.3-.8,1.1-.4,1.7"/>
  <path class="cls-13" d="M210.3,357.8c.5-.5.4-1.2,0-1.7-2-2.3-5.6-2.8-8.2-1.2-.5.3-.8,1.1-.4,1.7.3.5,1.1.8,1.7.4.1,0,.3-.2.4-.2h.2c0,0,0,0,0,0,.3,0,.5-.2.8-.2h.2c.1,0,.3,0,.4,0s.3,0,.4,0h.2s0,0,0,0h.4c.1.1.3.1.4.2.1,0,.3,0,.4.1h.2c.1.2.3.3.4.3,0,0,.2.1.2.1.2.2.4.4.6.6.4.5,1.3.5,1.7,0"/>
  <path class="cls-13" d="M209.5,361.2c-.2-.6-.8-1-1.5-.8-.6.1-1.2.3-1.8.5-.1,0-.3,0-.4.1,0,0-.1,0-.2,0-.1,0-.2,0-.3,0s-.2,0-.2,0c0,0-.2,0-.2,0-.1,0-.2,0-.4-.1,0,0,0,0,0,0,0,0,0,0,0,0-.1,0-.2-.1-.3-.2l-.3-.2s0,0-.1,0c-.2-.2-.4-.3-.5-.5-.5-.5-1.3-.5-1.7,0-.4.5-.5,1.2,0,1.7.8.9,2,1.6,3.2,1.8.3,0,.5,0,.8,0,1-.2,1.9-.4,2.9-.5.2,0,.3,0,.5-.1.6-.2,1.1-.9.9-1.5"/>
  <path class="cls-13" d="M211.4,348.9c.6.3,1.2,0,1.5-.4.2-.3.8-.5,1.2-.7.6-.3,1.2-.4,2-.3,1.2,0,2.5.6,3.3,1.4.4.4,1.1.4,1.5,0,.4-.4.4-1.1,0-1.5-1.3-1.3-3.2-2-5-2-.5,0-.9,0-1.4.1-.4,0-.9.3-1.2.4-.9.4-1.7.8-2.3,1.6-.3.5,0,1.2.4,1.5"/>
  <path class="cls-13" d="M214.5,353.4c.4-.2.8-.4,1.2-.6l.3-.2h0s0,0,0,0c.1,0,.2,0,.4-.1.1,0,.3,0,.5,0t0,0h.3c.3,0,.7,0,1,0,.2,0,.3,0,.5,0h.3s0,0,0,0c0,0,0,0,0,0,.3,0,.6.1,1,.2.1,0,.3,0,.4.1t0,0h0s.2.1.2.1c.1,0,.2.1.4.2-.2-.1,0,0,.1.1.4.4,1.1.4,1.5,0s.4-1.1,0-1.6c-1.1-1.1-2.9-1.5-4.4-1.5-.8,0-1.6,0-2.4.2-.9.2-1.7.8-2.6,1.2-.5.2-.7,1-.4,1.5.3.6,1,.6,1.5.4"/>
  <path class="cls-13" d="M216,357.1s.1,0,.1,0h.2c.4,0,.7,0,1.1,0,.2,0,.4,0,.6,0h.3s0,0,0,0c0,0,0,0,0,0,.7.1,1.3.3,1.9.5,0,0,0,0,0,0,0,0,0,0,0,0h.2c.1.2.3.2.4.3h.1c0,0,0,.1,0,.2,0,0,0,0,0,0h.1c.4.6,1.1.6,1.5.1s.4-1.1,0-1.5c-1-1.1-2.7-1.6-4.1-1.8-1.8-.3-3.7-.2-5.3.6-.5.3-.7,1-.4,1.5.3.6,1,.6,1.5.4.2,0,.5-.2.8-.3.2,0,.3,0,.5-.1"/>
  <path class="cls-13" d="M220.1,361.2c-.3,0-.6.2-.9.2-.2,0-.3,0-.5,0h-.2s0,0,0,0c-.6,0-1.2,0-1.7,0h-.2c-.1,0-.2,0-.4-.1-.1,0-.2,0-.4-.1h-.2c0,0,0-.1,0-.1h0s-.2-.1-.2-.1l-.3-.2h0s0-.1,0-.1l-.3-.3c-.4-.4-1.2-.4-1.5,0-.4.5-.4,1.1,0,1.5,0,0,.1.1.2.2,2.8-.2,5.5-.3,8.4,0,0,0,0-.2,0-.3-.2-.6-.8-.9-1.3-.8"/>
  <path class="cls-13" d="M222.5,183.7c-.1,3.4-2.6,7-6.2,7.5-3.2.4-6.6-2.2-6.6-5.5,0-1.6-2.4-1.6-2.4,0,0,4.6,4.6,8.5,9.1,8,4.9-.5,8.4-5.2,8.6-9.9,0-1.6-2.4-1.6-2.4,0"/>
  <path class="cls-11" d="M250.4,233.7c-1.2-6.5-7.1-10.3-12.5-13.2-5.1-2.7-12-5.5-13-12-.2-1.5,2.1-2.2,2.4-.6.5,3.2,2.8,5.4,5.4,7.1,2.8,1.8,5.9,3.1,8.8,4.8,5.1,2.9,10.1,7.2,11.2,13.3.3,1.5-2.1,2.2-2.4.7ZM244.2,175.7c-4.2,2-7.9,5.1-10.8,8.8-2.9,3.5-5.8,8-7.3,12.7-1,3.1-1.4,6.4-.8,9.5,0,.2-.1.5-.2.7-.5,2.4,0,4.8.8,7.2.9,2.8,2.3,5.4,4,7.8,1.4,2,3.1,3.9,4.9,5.6,3.8,3.5,9.6,6.7,15,7.4.5,0,1.1.1,1.7.1-.3,1.7-1.7,3.4-3.6,3.4.8.8,2,1,3,1.2,1.3.3,2.6.2,3.9.3,1.6,0,2.9,0,4.3-.4.6-.1,1.2-.3,1.8-.5,4.3-1.5,8.1-4.2,11.1-7.5,6.9-7.9,9.9-18.6,8-29-.9-5-2.9-9.7-5.5-14.1-2.4-4.2-4.9-8.3-8.6-11.4-.9-.7-1.8-1.4-2.8-2-5.7-3.3-12.9-2.6-18.8.2"/>
  <path class="cls-8" d="M175.4,340.8c.7,1.1,1.5,2.2,2.3,3.3.5.7,1,1.4,1.6,2.1l.4.5s0,.1.2.2c2.5-2,5-4,7.4-6.1h-11.7"/>
  <path class="cls-13" d="M187.1,340.8c-2.4,2.1-4.9,4.1-7.4,6.1,0,0,0,0,0,0,0,0,.2.2.2.3.1.2.3.3.4.5.3.4.6.7.9,1.1,3.2-2.5,6.4-5.2,9.5-7.9h-3.6"/>
  <path class="cls-13" d="M233.1,263.2c.1-1.6-2.3-1.6-2.4,0-1.9,24-13.6,46.2-29.5,63.8-2,2.2-4,4.3-6.1,6.3h3.4c9.2-9.4,17.2-19.8,23.3-31.5,6.3-12,10.3-25.1,11.4-38.7"/>
  <path class="cls-13" d="M169.8,227.5c.4,0,.7-.2.9-.4.1,0,.2,0,.3-.1,4.9-2.9,10.2-5.2,15.7-6.8,1.5-.4.9-2.8-.6-2.4-5.7,1.6-11.2,4-16.3,7-.1,0-.2.2-.3.3-1.3.3-1.2,2.4.3,2.4"/>
  <path class="cls-13" d="M162.6,353.2c-4.5-2.4-1.7-8.5,0-11.8.5-1-.6-2.4-1.7-1.7-5.1,3.7-11.2,7.8-17.8,7.4-3.1-.2-5.8-1.9-5.2-5.3.5-3.3,2.6-6.6,4.6-9.2.9-1.3-1.2-2.5-2.1-1.2-2.3,3.1-4.6,6.9-5,10.8-.3,3.5,2,6.1,5.3,7,6.2,1.7,12.7-1.4,18.1-4.9-1.4,3.9-1.7,8.3,2.3,10.9,1.7,1.1,3.6,1.4,5.6,1.3-4.4,2.9-8.9,5.8-13.4,8.5-.3-.3-.8-.4-1.4-.2-3,1.3-5.9,2.7-8.9,3.7-2.5.8-5.3,1.5-7.9.7-6.4-2-5.7-9.9-3.9-14.9.4-1.1-1.3-2.1-2-1.2-3.5,4.2-8.9,8.1-14.5,8.8-1.1.1-2.4.1-3.5-.4-1.5-.8-1.7-2.5-1.5-4,.4-3.3,1.6-6.6,3-9.6.6-1.2-1-2.6-1.9-1.5-3.4,3.9-8.4,6.9-13.6,7.2-2.8.2-4.8-1.5-4.9-4.4-.1-2.7,1.6-5.1,3.3-7.1,1-1.2-.7-2.9-1.7-1.7-2.1,2.5-4.1,5.4-4,8.8.1,2.8,1.7,5.6,4.5,6.5,3.1,1,6.9-.2,9.8-1.4,1.6-.7,3.1-1.5,4.5-2.5-1.8,5.4-2.5,11.9,4,12.6,3.3.4,6.7-1,9.6-2.5,2.1-1.1,3.9-2.4,5.7-3.9-.8,5.1.3,10.7,5.5,13.1,2.8,1.3,5.8,1.1,8.8.3-.4.2-.8.5-1.2.7-5.9,3.3-11.8,6.4-17.9,9.4-.3-.5-1-.9-1.6-.5-3.1,1.9-7.2,1.9-10.2-.3-2.7-1.9-4.1-5.4-3.6-8.7.2-1.1-1.2-2.2-2-1.2-3,3.5-6.5,6.3-10.6,8.4-2.2,1.1-4.7,2.2-7.2,1.7-2.1-.4-3.9-2.1-3.8-4.3,0-1.6-2.4-1.6-2.4,0-.1,2.4,1.2,4.5,3.2,5.7,2.4,1.5,5.4,1.3,8,.4,4.6-1.5,8.9-4.6,12.4-8.1.4,3.1,1.9,6,4.5,7.9,1.8,1.3,4,2,6.2,2.1-5.2,2.3-10.4,4.3-15.9,6-1.5.5-.9,2.8.6,2.4,13.1-4.1,25.5-10.3,37.6-16.8,8.8-4.8,17.5-9.8,25.9-15.2,2.4-1.6,4.9-3.2,7.3-4.9,1.4-1,2.7-1.9,4.1-2.9-.5-.6-1-1.3-1.5-2-3.1,2.1-7.8,3.8-11.3,2"/>
  <path class="cls-13" d="M252.8,233.1c-1.1-6.1-6.1-10.4-11.2-13.3-2.9-1.7-6-3-8.8-4.8-2.6-1.6-4.9-3.9-5.4-7.1-.2-1.6-2.6-.9-2.4.6,1,6.5,7.8,9.3,13,12,5.5,2.9,11.3,6.7,12.5,13.2.3,1.5,2.6.9,2.4-.7"/>
  <path class="cls-13" d="M119.1,407.3c-1.1,1.1.6,2.9,1.7,1.7,8.2-8.4,17-16.3,26.1-23.6.7-1.6,1.5-3.2,2.3-4.7-.2,0-.4,0-.6.3-10.4,8.1-20.3,16.9-29.5,26.4"/>
  <path class="cls-13" d="M129.1,385.3c1.1-1.1-.6-2.8-1.7-1.7-10.6,10.3-20.5,21.3-29.5,33-1,1.2.8,3,1.7,1.7,9.1-11.7,18.9-22.7,29.5-33"/>
  <path class="cls-13" d="M95.5,419.2c-1,1.2-2.1,2.4-3.1,3.7-.2.3-.4.5-.4.9s.1.7.4.9c.5.4,1.3.5,1.7,0,1-1.2,2.1-2.4,3.1-3.7.2-.3.4-.5.4-.9s-.1-.7-.4-.9c-.5-.4-1.3-.5-1.7,0"/>
  <path class="cls-10" d="M346.6,451.4c-3.9-.1-7.7,1.5-10.4,4.3-1,1.1-2.6-.5-1.6-1.6,3.1-3.2,7.5-5.1,12-4.9,1.5,0,1.5,2.3,0,2.3ZM331.9,451.1c-.3,0-.6.1-.9.2h-.2c0,0,0,0,0,0-.1,0,0,0,0,0h0c-.1,0-.3.1-.4.2-.3.1-.5.3-.8.5h-.2c-.1.2-.2.3-.3.4-.2.2-.4.4-.6.7v.2c-.1,0-.1,0-.1,0,0,.1-.2.3-.3.4-.2.2-.3.5-.4.8,0,0,0,0,0,0,0,0,0,0,0,0s0,0,0,0v.2c-.1.1-.2.3-.2.4-.2.6-.8.9-1.4.8-.6-.1-1-.8-.8-1.4.8-2.8,3.2-5,6-5.6.6-.1,1.2.2,1.4.8.2.6-.2,1.3-.8,1.4ZM352.2,439.3c1.8-7.4,5.3-14.4,8.7-21.2,1.4-2.8,2.9-5.7,4.3-8.5,0,0,0,0,0,0-.7-.5-1.4-1.1-2-1.8-2-2.2-3.3-5.1-4.3-8-1.6-4.9-2.2-10.2-.8-15.2-.6,1.5-1.2,3.1-1.7,4.6-6.2,18.3-9.1,37.9-9.6,57.1,0,.6-.5,1.1-1.1,1.1-5.6-.2-11.2,0-16.7.9-1.9.3-8.9.8-11,3.2,0,0,0,0,0,0-.1.2-.3.4-.4.6-.2.4-.2.8,0,1.3.2,1-.8,1.6-1.6,1.3-.3.5-.6.9-1,1.4,5.3.4,10.6.6,15.9.9,7.1.5,14.2.7,21.4.8-1.8-5.9-1.6-12.5-.2-18.6"/>
  <path class="cls-10" d="M344.8,445.1c.4-11.5,1.7-23.1,3.9-34.4,1.8-9.3,4.1-18.8,7.7-27.6,3-7.2,7.1-14.2,13.5-19-.4-1.5-.7-3-1-4.5-5.4,6.3-10.2,13.1-14.3,20.4-2.2,3.9-4,7.8-5.9,11.8-1.6,3.5-3.4,7.1-6.5,9.5-2.8,2.2-6.6,3.4-10,2.2-2.6-.9-4.6-3-5.8-5.4-.2.4-.4.8-.7,1.2,3.6,16.2,1.8,33.6-5.6,48.5,1.9-.7,4-1.1,5.5-1.3,6.3-1.1,12.8-1.6,19.2-1.4"/>
  <path class="cls-10" d="M360.6,379.5c1.9-3,4.6-5.5,7.9-6.5.6-2,1.3-3.9,2.3-5.7,0-.2-.1-.5-.2-.7-.9.7-1.8,1.5-2.6,2.3-3,3.1-5.4,6.7-7.4,10.5"/>
  <path class="cls-1" d="M318.9,302.2c3.3,2.8,6.7,3.9,10.9,4.8.4.1.9.2,1.3.3,1-.9,2.2-1.6,3.5-2,2.9-.7,7.7.4,10,2.8.4,0,.8,0,1.2,0,2.1-.2,4.3-.4,6.4-.8,6.9-1.1,13.8-3,20.5-5,3.9-1.1,7.8-2.3,11.5-4.1,11.5-5.6,21.8-15.6,26.5-27.8,1-2.5,1.7-5.1,2.1-7.7.5-2.9.6-5.8.3-8.8-.2-2.8-.8-5.5-1.8-8.1-.6-1.6-1.7-2.6-2.7-3.7,0,.6,0,1.2.1,1.8,0,.4,0,.8,0,1.2,0,2.9,0,5.7-.6,8.5-2,12-8.9,22.7-19.4,28.9-7.7,4.5-17.3,9.5-26,11.3-4.4.9-8.8,1.5-13.3,2-4.4.7-8.9,1-13.4,1.1-3.9,0-8.9.2-12.8-.9-1.8-.3-3.5-.6-5.2-1.2-.6.9-.9,2.2-1.2,3-.1.5-.3,1-.2,1.5,0,.8.5,1.5,1.1,2.1.3.3.6.6,1,.9"/>
  <path class="cls-13" d="M367.9,368.9c.8-.8,1.7-1.6,2.6-2.3,0-.2-.1-.4-.1-.6-.2-.6-.3-1.2-.5-1.9-6.4,4.7-10.5,11.7-13.5,19-3.6,8.8-5.9,18.2-7.7,27.6-2.2,11.3-3.5,22.8-3.9,34.4-6.4-.1-12.9.3-19.2,1.4-1.5.3-3.6.6-5.5,1.3-.6,1.2-1.2,2.4-1.9,3.5,2.1-2.4,9.1-2.9,11-3.2,5.5-.8,11.1-1,16.7-.9.6,0,1.1-.5,1.1-1.1.5-19.2,3.4-38.8,9.6-57.1.5-1.5,1.1-3.1,1.7-4.6,0,0,0-.1,0-.2.2-.5.3-1,.5-1.5.4-1.1,1-2.3,1.7-3.3,1.9-3.9,4.3-7.5,7.4-10.5"/>
  <path class="cls-13" d="M317.7,453.5c-.1-.5,0-.9,0-1.3-.5.9-1.1,1.8-1.7,2.6.7.3,1.8-.3,1.6-1.3"/>
  <path class="cls-13" d="M327.7,454.5s0,0,0,0"/>
  <path class="cls-13" d="M330.8,451.4c0,0-.1,0,0,0"/>
  <path class="cls-13" d="M331.3,448.9c-2.8.6-5.2,2.8-6,5.6-.2.6.2,1.3.8,1.4.6.1,1.2-.2,1.4-.8,0-.1,0-.3.1-.4v-.2c0,0,0,0,0,0,0,0,0,0,0,0,.1-.3.3-.5.4-.8,0-.1.2-.3.3-.4h0s.1-.2.1-.2c.2-.2.4-.5.6-.7.1-.1.2-.2.3-.3h.2c.2-.3.5-.5.8-.6.1,0,.3-.1.4-.2h0s0,0,0,0h.2c.3-.2.6-.3.9-.3.6-.1,1-.8.8-1.4-.2-.6-.8-.9-1.4-.8"/>
  <path class="cls-13" d="M346.6,449.2c-4.5-.1-8.9,1.7-12,4.9-1,1,.6,2.6,1.6,1.6,2.7-2.8,6.5-4.4,10.4-4.3,1.5,0,1.5-2.2,0-2.3"/>
  <g class="cls-22">
    <path class="cls-10" d="M458.2,398.9c-.8,3.9-2.5,7.7-5.3,10.4-.2.2-.4.4-.6.5,2.5,4.3,5.1,8.7,7.2,13.2,1.9-3.7,3.3-7.6,4.3-11.6,1.3-5.1,1.8-10.5.1-15.5-1.1-3.3-3.3-6.3-6.1-8.2.9,3.6,1,7.5.3,11.1"/>
  </g>
  <path class="cls-13" d="M332.2,403.6c3.5,1.2,7.2,0,10-2.2,3.1-2.4,4.9-6,6.5-9.5,1.8-4,3.7-8,5.9-11.8,4.1-7.3,8.9-14.1,14.3-20.4-.2-.9-.3-1.9-.5-2.9-4.5,5.1-8.7,10.6-12.3,16.4-2.1,3.4-4.1,6.9-5.9,10.4-1.8,3.5-3.2,7.1-5,10.5-1.1,2-2.5,4-4.3,5.5-.1-2.5,0-5,.6-7.5.1-.6-.2-1.2-.8-1.4-.6-.2-1.3.2-1.4.8-.6,2.8-.8,5.7-.6,8.6,0,.3.1.5.3.7-.5.3-1.1.5-1.7.7-.8.2-1.6.3-2.4.3,0-.2,0-.4-.3-.6-1.2-1.2-1.6-2.9-1.7-4.5-.3-2.1-.3-4.3-.4-6.5,0-1.4-2.3-1.5-2.3,0,0,2.4.2,4.7.5,7.1.2,1.2.5,2.5,1,3.6-1.4-.8-2.5-2.1-3.3-3.7-1.9-3.7-1.3-8.2-.7-12.1.7-4.1,1.6-8.1,2.7-12.1,2.5-9.1,6-17.9,10.5-26.2.7-1.3-1.3-2.4-1.9-1.1-1.5,2.8-2.9,5.6-4.2,8.5-.4-2.9-.8-5.7-1.2-8.6,0-.6-.9-.9-1.4-.8-.7.2-.9.8-.8,1.4.5,3.7,1,7.5,1.5,11.2,0,.2.1.3.2.4-1.7,4.2-3.2,8.5-4.5,12.8-1.3,4.3-2.3,8.8-3,13.2-.7,4-1.3,8.3,0,12.2-.2,0-.4.1-.6.3.3,1,.5,2.1.8,3.1.3-.4.5-.8.7-1.2,1.2,2.4,3.2,4.5,5.8,5.4"/>
  <path class="cls-13" d="M308.4,354.6c.4-1.4-1.7-2-2.2-.6-.9,2.8-1.5,5.7-2,8.6.6.5,1.2,1,1.7,1.5,0,0,.2.1.2.2.5-3.3,1.2-6.6,2.2-9.8"/>
  <path class="cls-10" d="M409,245.1c0-.4,0-.8,0-1.2,0-.6,0-1.2-.1-1.8-1.9-19.7-16.1-38.7-34.6-44.7,10.1-47.1,14.5-95.8,12.8-144.5-.3-10.2-1.1-20.9-5.8-29.9-4.7-9.1-14.6-16-23.7-13.5-6.7,1.9-11.4,8.3-14.3,15.1-4.2,9.8-5.4,20.9-5.6,31.9-.3,21.7,3.4,43.4,7.2,64.9,4.4,24.8,9.1,49.6,14.7,74.2-1.4,0-2.8.2-4.1.5-.3,0-.6.1-.9.2-1.7-4.1-4.3-8-6.1-11.9-3.1-6.8-6.4-13.5-9.7-20.1-6.6-13-13.5-25.8-20.9-38.3-8.3-14.1-17.1-27.9-26.4-41.3-7.3-10.5-14.9-20.9-23.9-30.1-3.4-3.4-7.5-6.9-12.3-6.6-13.5.9-14.2,18.9-12.1,28.5,3.4,15.1,11.7,28.6,20.7,41.2,22.1,31,48.9,58.1,76.1,84.8-4.6,2.9-8.9,6.6-12.9,10.5-6.3,6.1-11.8,12.8-17.1,19.8-5.1,6.8-8.8,14.8-10.2,23.2-1.6,10.3.5,21.4,6.6,29.9,1.8,2.5,4,4.9,6.6,6.5,1.7,1.1,3.5,1.8,5.4,2.4,1.7.5,3.4.9,5.2,1.2,4,1.1,8.9,1,12.8.9,4.5,0,9-.4,13.4-1.1,4.5-.5,8.9-1.1,13.3-2,8.8-1.7,18.3-6.7,26-11.3,10.5-6.2,17.4-16.9,19.4-28.9.5-2.8.7-5.7.6-8.5"/>
  <path class="cls-13" d="M332.4,272.1c.6-1.3-1.3-2.4-1.9-1.1-2.4,4.9-7.5,7-12.8,6.5-5-.4-10-3.8-10.3-9.2,0,0,0-.1,0-.2l-.3.2c-.3.2-.6.3-.9.3-.3,0-.6-.3-.9-.7,0,.1,0,.3,0,.4,0,.8.2,1.6.4,2.3,0,0,0,.2,0,.2,0,.4-.2.8-.3,1.1-.1.3-.3.6-.5.9-.2.3-.5.6-.8.8-.2.2-.3.5-.3.8s.1.6.3.8c.2.2.5.3.8.3.3,0,.6-.1.8-.3.6-.4,1-1,1.4-1.6,2.1,3.4,5.9,5.5,10,6.1,6.3.8,12.7-1.7,15.6-7.5"/>
  <path class="cls-16" d="M365.7,197.8c.2,0,.3,0,.5-.2.5-.3.8-.7,1.1-1.2,1.9-3.3,2.5-7.3,3-11.1,3.4-26.1,5.2-52.4,5.3-78.8,0-6.2,0-12.5-1-18.6-.8-4.6-2.1-13.4-7.5-14.9-5.9-1.7-11.7,3.7-13.6,8.8-1.7,4.7-1.8,9.8-1.7,14.7.2,16.8,1.4,33.7,3.6,50.4,1.1,8.4,2.4,16.7,4,25,1.5,7.7,2.3,15.8,4.2,23.4.3,1.2,1,2.6,2.3,2.5"/>
  <path class="cls-16" d="M344.2,199.3c.8-.7,1-1.8.7-2.9-.2-1-.8-1.9-1.4-2.8-4-6.2-7.4-12.4-11.8-18.4-8.2-11.1-16.6-22.1-25.4-32.7-4.9-5.9-9.9-11.8-15.1-17.5-2.3-2.5-4.7-5-7.8-6.4-2.2-1-5.3-1.1-6.7.9-1.1,1.5-.8,3.7-.1,5.5,1.8,5.2,5.3,9.6,8.8,13.9,9.4,11.5,19,22.8,29.1,33.6,3.2,3.5,26.5,29.4,29.6,26.7"/>
  <path class="cls-16" d="M306.1,268.5c.3,0,.6-.1.9-.3l.3-.2c1.7-1,3.4-2,5-3.1,1.5-.9,3.1-2.3,2.6-4-.2-.6-.7-1.1-1.4-1.4-2.7-1.3-8-.9-9.8-.7-.6,0-1.3.2-1.8.6-.9,1,1.5,6.3,3.3,8.3.4.4.7.7.9.7"/>
  <path class="cls-13" d="M361.7,243.7c-.2,2.4-2.1,4.5-4.4,5.1-2.3.6-4.9-.4-6.3-2.3-.3-.5-1-.7-1.5-.4-.5.3-.8,1-.4,1.5,1.9,2.8,5.5,4.2,8.9,3.4,3.3-.9,5.7-3.9,6-7.3,0-.6-.6-1.1-1.1-1.1s-1.1.5-1.1,1.1"/>
  <path class="cls-4" d="M334.7,305.3c-1.3.3-2.5,1.1-3.5,2-1.8,1.6-3,3.9-3.4,6.3-.2.9-.2,1.9-.1,2.8.6,8,9.7,13.9,16,7.2,2.8-3,3.6-7.4,2.9-11.5-.2-1.1-.5-2.2-1.1-3.1-.2-.3-.4-.6-.7-.8-2.3-2.3-7.1-3.5-10-2.8"/>
  <path class="cls-16" d="M440.9,362.1c1.3-3.2,2.1-6.6,2.2-10.1,0-1.9-.2-4.2-1.9-5.2-1.5-.9-3.5-.3-5.1.5-2.1,1-4.1,2.2-6,3.6,4.1,3.1,7.8,6.9,10.8,11.2"/>
  <path class="cls-16" d="M374.9,360.8c3.1-4,7.1-7.3,11.4-9.8,0,0-.1,0-.1-.1-1.9-1.4-3.9-2.6-6.1-3.6-1.6-.8-3.6-1.4-5.1-.5-1.7,1-1.9,3.2-1.9,5.2.1,3,.7,6,1.7,8.8"/>
  <path class="cls-3" d="M371.7,476.6c-2.5-.9-4.9-2.1-7.1-3.5-1.7.8-3.2,2.1-4.2,4.1-.7,1.3-.9,2.9-.1,4.2.8,1.4,2.6,2,4.3,2.3,5.5,1.1,11.2.7,16.8,0s2.3-.3,3.3-.8,1.9-1.4,2.1-2.5c0-.1,0-.3,0-.4-5.1-.6-10.2-1.5-15-3.4"/>
  <path class="cls-2" d="M408.6,394.4c-.6.9-1.5,1.7-2.5,2.3-1.6.8-3.5,1-5.2.3,0,.1-.1.3-.2.5-.4,1-.7,2.1-1,3.2-.4,1.3-.7,2.6-1.1,4,0,0,0,0,0,.1,1.7-.7,3.5-.9,4.8.6.8.9.8,1.8.6,2.6.6.1,1.1.4,1.5.7,0-1.1.2-2.3.4-3.4.3-1.7.7-3.3,1.2-4.9.2-.8.5-1.5.8-2.3,0-.2.1-.3.3-.5,1.7-1.5,3.3,6,3.5,6.9.2,1.5.4,3.1.5,4.7.6-.6,1.3-1,2.1-1.2-.3-.9-.2-1.8.7-2.7,1.2-1.2,2.6-1.2,4.1-.7-.4-1.5-.8-3-1.3-4.5-.2-.6-.6-2.3-1.1-3.1-.6.3-1.3.5-2,.5-2.3.2-4.5-1.1-5.9-3"/>
  <path class="cls-2" d="M416.5,421.5c-1-.2-1.7-.2-2.6-.8-2.2-1.5-2.3-4.1-.9-5.8-.4-.3-.7-.6-1-1,0,.9-.2,1.8-.4,2.7-.2.8-.4,1.6-.8,2.2s-1.1,1.2-1.9,1.3c-1.8.2-2.8-2.8-3.2-4.2,0-.4-.2-.7-.2-1.1,0-.2,0-.3,0-.5-.2.2-.4.3-.6.5,1.3,1.7,1.2,4.3-.9,5.8-.9.6-1.6.6-2.6.8-1.3.2-1.6,1.4-2.1,2.6.7.6,1.8,1.1,2.7,1.2,2.4.5,5.1,1.2,7.5,1,1.8-.1,3.6-.3,5.3-.8.9-.3,2.7-1,3.6-1.9-.4-1-.7-1.9-1.9-2.1"/>
  <path class="cls-17" d="M406.4,409.9c.9,1.7.3,3.4-.9,4.6,0,.2,0,.3,0,.5,0,.4.1.7.2,1.1.3,1.4,1.3,4.4,3.2,4.2.8,0,1.5-.6,1.9-1.3s.6-1.4.8-2.2c.2-.9.3-1.8.4-2.7-.9-1.2-1.2-2.7-.5-4.1.1-.3.3-.5.5-.8-.1-1.6-.3-3.1-.5-4.7-.1-.9-1.7-8.4-3.5-6.9-.1.1-.2.3-.3.5-.3.8-.6,1.5-.8,2.3-.5,1.6-.9,3.3-1.2,4.9-.2,1.1-.3,2.3-.4,3.4.4.3.8.7,1.1,1.3"/>
  <path class="cls-13" d="M414.8,405.2c-.9.9-1,1.8-.7,2.7-.8.2-1.5.6-2.1,1.2-.2.2-.4.5-.5.8-.7,1.4-.4,3,.5,4.1.3.4.6.7,1,1-1.3,1.7-1.2,4.3.9,5.8.9.6,1.6.6,2.6.8,1.2.2,1.5,1.1,1.9,2.1,0,.2.2.4.2.6,1,2.2,2.2,4.2,3.6,6.2,2.7,3.7,5.7,6.8,10.6,6.4,4-.3,7.7-2.3,10.2-5.5.9-1.1-.7-2.7-1.6-1.6-1.9,2.5-4.6,4.2-7.7,4.7-1.8.3-3.8.2-5.4-.8-1.6-.9-2.8-2.6-3.8-4-2-2.8-3.3-5.7-4.8-8.8-.7-1.4-1.8-1.5-3.2-1.7-.9,0-1.7-.4-2-1.3-.4-.9,0-2.1,1.1-2.2,1.4-.2,1.5-2.3,0-2.3-1.3,0-2.9-1.5-2-2.8.5-.7,1.5-.9,2.3-.6.2.2.5.3.7.5,1.1.6,2.3-.9,1.4-1.8,0,0-.2-.1-.2-.2,0,0,0,0,0,0-.2-.2-.4-.3-.7-.5-.7-.5-1.3-1.2-.3-1.7,1-.4,2.3.5,3.2,1,2,1.1,3.9,2.2,5.8,3.4,3.9,2.4,7.7,5.1,11.3,8,1.1.9,2.7-.7,1.6-1.6-5.4-4.3-11-8.2-17-11.5-.8-.5-1.8-1-2.8-1.3-1.4-.5-2.9-.5-4.1.7"/>
  <path class="cls-13" d="M401.4,421.5c1-.2,1.7-.2,2.6-.8,2.2-1.5,2.3-4.1.9-5.8.2-.1.4-.3.6-.5,1.2-1.2,1.8-3,.9-4.6-.3-.5-.6-.9-1.1-1.3-.5-.4-1-.6-1.5-.7.3-.8.2-1.7-.6-2.6-1.3-1.5-3.1-1.3-4.8-.6-.8.3-1.5.7-2.2,1.1-6,3.3-11.7,7.2-17,11.5-1.1.9.5,2.5,1.6,1.6,3.6-2.9,7.4-5.6,11.3-8,1.9-1.2,3.9-2.3,5.8-3.4.8-.5,2-1.2,3-1,1.4.3.7,1.2,0,1.7-.2.1-.4.3-.6.4,0,0,0,0,0,0,0,0-.2.1-.2.2-.9.9.3,2.4,1.4,1.8.2-.1.5-.3.7-.5.8-.3,1.8-.1,2.3.6.9,1.4-.7,2.9-2,2.8-1.5,0-1.4,2.1,0,2.3.9.1,1.5,1.1,1.3,2-.2,1-1.3,1.4-2.2,1.5-1.3.2-2.3.2-3.1,1.5-.8,1.4-1.3,3-2.1,4.5-.8,1.6-1.8,3.1-2.8,4.5-1,1.4-2.2,2.9-3.6,3.9-1.6,1-3.5,1.2-5.4,1-3.2-.5-6-2.2-7.9-4.7-.9-1.1-2.5.5-1.6,1.6,2.5,3.1,6.2,5.1,10.2,5.5,4.9.4,8-2.7,10.6-6.4,1.3-1.9,2.5-3.9,3.5-6,0-.1.1-.2.2-.4.5-1.1.8-2.3,2.1-2.6"/>
  <path class="cls-13" d="M400.9,397c1.7.6,3.6.5,5.2-.3,1-.5,1.9-1.3,2.5-2.3,1.3,1.9,3.5,3.2,5.9,3,.7,0,1.4-.2,2-.5,1.9-.8,3.2-2.5,3.3-4.7,0-1.5-.5-3-1.6-4-.5-.4-1.1-.4-1.6,0s-.5,1.2,0,1.6c.8.7,1.1,1.7.9,2.6,0,.6-.3,1-.6,1.4-.4.4-.8.7-1.3,1-1,.4-2.2.4-3.1,0-1.1-.5-1.8-1.3-2.4-2.4-.2.1-.3.2-.5.2-.9.3-1.6,0-2.2-.6,0,0,0,0-.1.1-.5,1.1-1.3,2-2.4,2.5-1,.5-2.2.5-3.2,0-1-.4-1.7-1.2-1.9-2.3-.2-.9.1-2,.9-2.7.5-.4.4-1.2,0-1.6-.4-.5-1.1-.4-1.6,0-2.1,1.8-2.1,5.1-.3,7.2.6.7,1.4,1.2,2.2,1.5"/>
  <path class="cls-16" d="M409.5,392.7c.2,0,.3-.1.5-.2,1.2-.8,2.4-2.7,1.6-3.9-.7-1.1-2.2-1-3.4-1-1.2,0-2.7.5-2.6,1.9,0,.6.3,1.1.6,1.5.3.4.6.8,1,1.2.6.5,1.4.9,2.2.6"/>
  <path class="cls-13" d="M422.6,382.4c-.4-.5-1.2-.4-1.6,0-.5.5-.4,1.1,0,1.6,1.6,1.8,3.9,2.8,6.2,2.7.9,0,1.9-.2,2.7-.6,1.4-.6,2.6-1.7,3.5-3,.9-1.5,1.5-3.5.8-5.2-.2-.6-.7-1-1.4-.8-.5.1-1,.8-.8,1.4.9,2.1-.7,4.3-2.5,5.4-.2.1-.4.2-.6.3-2.2.9-4.8.1-6.3-1.7"/>
  <path class="cls-13" d="M396.3,381.7c-.6-.3-1.2,0-1.5.4-1.3,1.9-3.9,2.8-6.1,2.1-2-.6-4.3-2.9-3.6-5.2.4-1.4-1.7-2-2.2-.6-1.1,3.4,1.9,6.9,5,7.9,3.3,1.1,6.9-.3,8.8-3.1.3-.5,0-1.3-.4-1.5"/>
  <path class="cls-13" d="M366.3,411.5c2,1.7,4.4,2.6,7,2.7.6,0,1.2-.5,1.1-1.1,0-.6-.5-1.1-1.1-1.1-.3,0-.6,0-.8,0h-.2s0,0,0,0c-.1,0-.3,0-.4,0-.5,0-1-.2-1.5-.4,0,0-.2,0-.3-.1-.1,0-.2,0-.3-.1-.2-.1-.4-.2-.6-.3-.2-.1-.5-.3-.7-.4l-.3-.2s-.2-.2-.2-.2c-.5-.4-1.2-.5-1.6,0-.4.4-.5,1.2,0,1.6"/>
  <path class="cls-13" d="M449.2,410.5c-.1.1-.3.2-.4.4h0s-.2.2-.2.2c-.3.2-.6.4-1,.6h-.2c0,.1,0,.1,0,.1-.2,0-.3.1-.5.2-.4.1-.7.2-1.1.3-.3,0-.5.3-.7.5-.1.2-.2.6-.1.9.2.6.8.9,1.4.8,1.7-.3,3.3-1.1,4.5-2.3.4-.4.4-1.2,0-1.6-.5-.4-1.1-.4-1.6,0"/>
  <path class="cls-13" d="M366,476.9c-.1-.2-.4-.5-.7-.5-.3,0-.6,0-.9.1-1.3.6-2.5,1.7-3.3,2.9-.3.5-.1,1.3.4,1.5.6.3,1.2.1,1.5-.4,0-.1.2-.3.3-.4.3-.4.6-.7,1-1,.4-.3.7-.5,1.2-.7s.5-.4.5-.7c0-.3,0-.6-.1-.9"/>
  <path class="cls-13" d="M370.2,479c-1.5.3-2.9,1.1-4.1,2.1-.4.4-.4,1.2,0,1.6.5.4,1.1.4,1.6,0,.1-.1.2-.2.4-.3.4-.3.9-.6,1.4-.8.4-.2.9-.3,1.3-.4.6-.1,1-.8.8-1.4-.2-.6-.8-.9-1.4-.8"/>
  <path class="cls-13" d="M452.9,480.2c-1.1-.5-2.2-1-3.4-1.4-.3,0-.6,0-.9.1-.2.1-.5.4-.5.7-.1.6.2,1.2.8,1.4.5.2,1,.4,1.5.6.5.2.9.4,1.4.6.3.1.6.2.9.1.3,0,.5-.3.7-.5.3-.5.2-1.3-.4-1.5"/>
  <path class="cls-13" d="M452.9,477.5c.3.2.5.4.8.6.7.6,1.4,1.2,2.1,1.9.4.4,1.2.4,1.6,0,.4-.5.4-1.1,0-1.6-1-1.1-2.1-2-3.3-2.9-.5-.3-1.3-.1-1.5.4-.3.6-.1,1.2.4,1.5"/>
  <path class="cls-13" d="M413.2,346.6s0,0,0,0c.1.4.5.8,1,.8.9,0,1.3-.9,1-1.6,0-.1,0-.3-.1-.4-.1-.3-.2-.5-.3-.8,0-.1-.2-.2-.3-.3-.1,0-.2-.2-.4-.2-.1,0-.3,0-.5,0-.1,0-.3,0-.4.1l-.2.2c-.1.1-.2.3-.3.5v.3c0,.2,0,.4.1.6.1.3.2.5.3.8"/>
  <path class="cls-13" d="M411.2,350.2c.6,0,1.2-.1,1.4-.8.1-.5-.2-1.3-.8-1.4-.6,0-1.1-.2-1.7-.4s-.5-.2-.8-.3h0s0,0,0,0h-.2c-.1-.2-.3-.2-.4-.3-.5-.3-1-.6-1.5-.9h0s-.2-.1-.2-.1c-.1,0-.2-.2-.3-.3-.2-.2-.4-.4-.7-.6-.4-.4-1.2-.4-1.6,0-.4.5-.4,1.1,0,1.6,1.8,1.9,4.2,3.2,6.8,3.6"/>
  <path class="cls-13" d="M401.7,350.5c1.5.9,3.3,1.4,5.1,1.6.6,0,1.1-.5,1.1-1.1,0-.6-.5-1.1-1.1-1.1-.2,0-.4,0-.6,0h0s-.3,0-.3,0c-.4,0-.7-.2-1.1-.3-.2,0-.3-.1-.5-.2h-.2c0,0,0-.1,0-.1-.4-.2-.7-.3-1-.6-.5-.3-1.3-.1-1.5.4-.3.5-.1,1.2.4,1.5"/>
  <path class="cls-12" d="M195.7,393.8c-1,1.7-.9,3.8.4,5.3,1.3,1.6,3.4,2.1,5.3,1.5,1.8-.7,3-2.5,3.1-4.4,0-2.3-1.6-4.2-3.9-4.6-1.9-.3-3.9.6-4.9,2.2"/>
  <path class="cls-12" d="M190,407.4v.3h0c0,0,0,0,0,0h0c0,.1,0,.4,0,.4,0,0,0,0,0,0h0c0,.1.1.3.1.3l.3.3s0,0,0,0h.1c0,0,.3.2.3.2h.2c0,0,.2.1.2.1h0c.1,0,.2,0,.3,0h.1s0,0,0,0h.3c0-.1,0,0,0-.1,0,0,0,0,0,0h.1c0,0,.3-.2.3-.2h.1c0-.1.1-.2.1-.2,0-.1.1-.2.2-.3t0,0h0c0-.1,0-.4,0-.4v-.2s0-.2,0-.2c0-.1,0-.3-.1-.4h0s0,0,0,0v-.2c0,0-.2-.2-.2-.2,0,0,0,0,0,0s0,0,0,0l-.2-.2h0s-.1,0-.1,0h-.1c0,0-.2-.2-.2-.2-.1,0-.3,0-.4-.1h-.2s-.2,0-.2,0c0,0,0,0-.1,0,0,0,0,0,0,0h-.1s-.2,0-.2,0l-.3.2h0c0,0,0,.1,0,.1l-.2.2h0c0,.1,0,.3,0,.3,0,0,0,0,0,0h0s0,.3,0,.3h0v.2"/>
  <path class="cls-12" d="M194.2,381.9c1.2-.4,2-1.6,2-2.9,0-1.5-1.1-2.8-2.6-3.1-1.2-.2-2.6.4-3.2,1.5-.7,1.1-.6,2.6.2,3.5.9,1.1,2.3,1.5,3.6,1"/>
  <path class="cls-12" d="M310.1,380.4c-2.7-4.4-6.1-8.1-9.9-11.5-8-1.5-16.6.5-24.2,2.6-4.9,1.3-9.9,2.6-15,2.9-4.6.3-9.3-.4-13.8-1.5-9.1-2.3-17.8-6.4-27.2-7.1-18.5-1.4-36.5,11.6-54.7,5.3-3.9,3.9-7.1,8.3-9.8,13.3-10.3,19.4-10.4,44.2.7,63.4,4.7,8.2,11.6,14.6,19.5,19.6.4,0,.8.1,1.2.2-.1-.1-.3-.3-.4-.4-1.9-2.1-2.3-5.4-1-7.9.7-1.5,2-2.7,2.2-4.3.3-2.7-2.3-4.8-2.6-7.5-.3-3.5,3.5-6.2,3.7-9.7.2-3.2-2.6-6.1-2.4-9.3.2-3.1,3.3-5.4,3.7-8.5.2-1.8-.5-3.6-1-5.3-.1-.4-.2-.9-.1-1.3.4-1.1,2.1-.9,3-.2,2,1.5,3,4.1,2.7,6.5-.5,3.1-3.1,5.9-2.6,9,.4,2.4,2.5,4.2,2.9,6.6.4,2.2-.9,4.4-1.9,6.4s-2,4.4-1,6.5c1.1,2.4,4.3,3.4,4.9,5.9.5,1.8-.6,3.6-1.7,5-1.2,1.4-2.5,2.8-2.9,4.6-.3,1.2.7,2.8.8,4.1.6,0,1.3,0,1.9,0,7-.5,14.1-1.9,21.1-1,5.8.8,11.2,3.2,17,3.8,12.1,1.4,24.2-4.9,36.3-3.4,4.8.6,9.5,2.5,14.4,2.3,4.3-.1,8.3-1.8,12.4-2.9.7-.2,1.3-.3,2-.5-.2-1.5.8-3.5,1.4-4.6.6-1.1,1.2-2.3,1-3.5-.4-2.3-3.2-3.8-3.2-6.2,0-2.8,4.1-4.5,3.8-7.3-.1-1.1-.9-2-1.5-2.9-1.2-1.9-1.6-4.6-.2-6.5.6-.8,1.4-1.4,1.9-2.3,1-1.9,0-4.1-.6-6.2-.6-2.1-.3-4.9,1.7-5.5-.9,1.7-.9,3.9,0,5.6.7,1.2,1.8,2.3,2,3.6.3,2.6-2.8,4.5-2.9,7.1-.2,3.5,4.8,6,3.8,9.3-.6,1.9-2.9,3-3,5,0,1.9,1.9,3.1,2.7,4.8.8,1.7.3,3.7-.5,5.4-.4.8-.9,2.3-1.6,3.6.5,0,1.1,0,1.6,0,8-5.6,14.7-12.7,19-21.5,4.6-9.5,6.7-20.3,6.4-30.9-.3-11.6-3.8-23-10-32.8"/>
  <path class="cls-15" d="M283.3,427.2c1.2-1.7,1.1-4.3-.4-5.8.2-1.1.5-2.3.2-3.4s-1.1-2.2-2.3-2.3c.4-1-.8-2-1.8-1.9-.5,0-1,.2-1.5.5s-.9.6-1.3.9c-.5.4-1.1.8-1.6,1.2h0c-.8.6-1.7,1.2-2.7,1.7-2.5,1.4-5.2,2.3-8,1.9-.2,0-.3,0-.5-.1,0,0,0-.2,0-.2,0-.2,0-.4,0-.5,0-.1,0-.3,0-.4,0-.6.4-1.1.5-1.6.2-.7-.1-1.4-.6-1.9-.5-.5-2.2-.9-2.3-1.6,0-.2.5-.9.5-1.2.1-.6,0-1.4-.2-2-.8-1.7-3.1-1.4-4.5-.8-.2,0-.4.2-.6.1-.5,0-.7-.7-.8-1.2-.2-1.1-.6-2.1-1.2-3-.2-.4-.5-.8-1-1-.7-.3-1.5,0-2.2.4h-.2c-2,1.3-3.9,2.6-5.6,4.1-.3.3-.5.6-.7.9-1.3-.5-2.5-1-3.8-1.5,0,0,0,0,0,0,.9-.8,1.4-2,1.8-3.1,0-.2.1-.3.2-.5.2-.5.4-1.1.2-1.6-.3-.8-1.4-1-2.2-.7-.2,0-.4.2-.6.2-.4,0-.7-.4-.7-.8s0-.8,0-1.2c-.1-1.1-1.3-1.9-2.4-2-1.1,0-2.2.4-3.3.9-.3.1-.6.3-1,.3-.6,0-1.1-.7-1.3-1.3s-.4-1.3-.8-1.7c-.5-.6-1.4-.7-2.2-.5-.8.2-1.4.7-2,1.1l-.2.2c-2,1.5-4,3.1-5.8,4.7-.8.8-1.7,1.5-2.5,2.3-.4.4-1.5,1.1-2,1.8-1.3.3-2.7.7-4,1.2-3.3,1.2-6.4,3-9,5.4-2.5,2.2-4.6,4.8-6.4,7.6-1.5,2.3-3.6,5.2-3.9,8-.3,2.3,1.2,5.2,2.3,7.1,1.4,2.4,3.4,4.5,5.6,6.2,2.6,2,5.6,3.4,8.7,4.4,2.4.8,4.9,1.3,7.4,1.7h.1c1.5.2,2.9.4,4.3.4,2.2,1.8,4.6,3.4,6.8,5.1.8.6,1.5,1.2,2.4,1.6h.2c1,.5,2.1.7,3,.3.5-.2.8-.5.5-1-.2-.3-.6-1.1-.9-1.2.3.1.7.3,1.1.4.5.2,1,.3,1.5.1.4-.1.8-.5,1-1s.2-.9,0-1.4c.4,0,.8,0,1.1-.3.1-.2.2-.4.2-.6,0-.5,0-1-.3-1.4h0c-.4-.7-1-1.2-1.6-1.7,1.8-.3,3.5-.7,5.3-1.1h0c2,1.4,3.9,2.7,5.9,4.1.6.4,1.3.9,1.9,1.2,1.3.7,2.8,1.1,4.1.7,1-.3,1.9-1.4,1.5-2.3,1.4.7,3.1.8,4.6.2.4-.1.7-.3.9-.7.2-.3.1-.8-.2-1,1.4.5,3,.2,4.1-.8.7-.5,1.1-1.5.6-2.2,1.4.2,2.8-.9,3.1-2.3.6-1.9-.5-3.7-1.7-5.1-.3-.3-.6-.6-.8-.8,2.4-.7,4.7-1,6.9,0h.3c1.8,1,3.1,2.6,4.9,3.5h0s0,0,0,0c.3.1.7.3,1,.4.8.2,1.7.2,2.4-.1,1.1-.5,1.8-2,1.2-3,2.2-.4,3.2-3.7,1.6-5.2,1.8-1.5,1.6-4.8-.4-6"/>
  <path class="cls-6" d="M293.1,465.6c.7-1.3,1.2-2.8,1.6-3.6.8-1.7,1.3-3.7.5-5.4-.8-1.7-2.8-2.9-2.7-4.8,0-2,2.5-3.1,3-5,1-3.3-4-5.8-3.8-9.3.1-2.6,3.3-4.5,2.9-7.1-.2-1.4-1.3-2.4-2-3.6-.9-1.7-.9-3.9,0-5.6-2.1.6-2.3,3.4-1.7,5.5.6,2.1,1.6,4.3.6,6.2-.5.9-1.3,1.5-1.9,2.3-1.4,1.9-1,4.6.2,6.5.6.9,1.4,1.8,1.5,2.9.3,2.8-3.8,4.5-3.8,7.3,0,2.4,2.8,3.8,3.2,6.2.2,1.2-.4,2.5-1,3.5-.6,1.1-1.5,3.1-1.4,4.6,1.6-.3,3.2-.5,4.8-.5"/>
  <path class="cls-6" d="M183.2,467.8c-.1-1.3-1.1-2.8-.8-4.1.4-1.8,1.8-3.2,2.9-4.6,1.1-1.4,2.2-3.2,1.7-5-.6-2.5-3.8-3.6-4.9-5.9-.9-2.1,0-4.5,1-6.5s2.3-4.2,1.9-6.4c-.4-2.4-2.5-4.2-2.9-6.6-.5-3.1,2.1-5.9,2.6-9,.4-2.4-.7-5.1-2.7-6.5-.9-.7-2.6-.9-3,.2-.1.4,0,.9.1,1.3.5,1.7,1.2,3.5,1,5.3-.4,3.1-3.4,5.4-3.7,8.5-.3,3.2,2.6,6.1,2.4,9.3-.2,3.5-4,6.2-3.7,9.7.3,2.7,2.9,4.8,2.6,7.5-.2,1.6-1.4,2.9-2.2,4.3-1.3,2.5-.8,5.8,1,7.9.1.1.3.3.4.4,2.1.2,4.2.3,6.2.2"/>
  <path class="cls-7" d="M288.3,466.1c-.7.1-1.4.3-2,.5-4.1,1.1-8.2,2.8-12.4,2.9-4.9.1-9.6-1.7-14.4-2.3-12.1-1.5-24.2,4.8-36.3,3.4-5.8-.7-11.3-3.1-17-3.8-7-1-14.1.5-21.1,1-.6,0-1.3,0-1.9,0-2.1,0-4.2,0-6.2-.2-.4,0-.8-.1-1.2-.2,10.9,6.8,23.8,10.8,36.2,12.2,0,0,.1,0,.2,0h43.4c.1,0,.3,0,.4,0,12.8-1.4,25.2-5.3,36.1-12.2.9-.6,1.8-1.2,2.6-1.8-.5,0-1.1,0-1.6,0-1.6,0-3.2.2-4.8.5"/>
  <g class="cls-20">
    <path class="cls-14" d="M182.7,357.3c.3-.2.6-.4.8-.6.5-.5.8-1.1.9-1.7,0,0,0-.1,0-.2,0,0,0,0,0-.1.2-.8,0-1.7-.4-2.5-.2-.3-.4-.5-.6-.8,0,0-.1-.2-.2-.3-.7-.8-1.4-1.7-2-2.5-.3-.4-.6-.7-.9-1.1-.1-.2-.3-.3-.4-.5,0,0-.1-.2-.2-.3,0,0,0,0,0,0,0,0-.1-.2-.2-.2l-.4-.5c-.5-.7-1-1.4-1.6-2.1-.8-1.1-1.5-2.2-2.3-3.3h117.3c-.7,1.1-1.5,2.2-2.2,3.3-.5.7-1,1.3-1.5,2-.2.3-.5.6-.7.9,0,0,0,0,0,0l-.4.5c-1,1.3-2,2.5-3.1,3.7,0,0,0,.1-.1.2-.3.3-.6.5-.7.8-.5.9-.6,1.8-.4,2.6,0,0,0,0,0,0v.2c.2.6.5,1.2,1,1.7.2.2.4.3.6.4,0,0,0,0,.1.1,1.7,1.2,3.4,2.5,5.1,3.7,1.6,1.2,3.3,2.4,4.9,3.7-4.8,0-9.7.6-14.1,1.6-4.8,1.1-9.5,2.7-14.3,3.6-4.8.9-9.6,1.1-14.4.2-9.1-1.6-17.7-5.7-26.8-7.4-1.3-.2-2.5-.4-3.8-.5,0,0-.1,0-.2,0-2.8-.2-5.6-.2-8.4,0-1.7.1-3.3.4-5,.6-1,.2-1.9.3-2.9.5-1.8.4-3.6.8-5.5,1.3-.5.1-1.1.3-1.6.4-.7.2-1.3.3-2,.5-2.9.8-5.8,1.5-8.8,2.2-6.3,1.3-12.7,2-18.8.4,2.9-2.6,6-4.9,9.2-7.2,1.7-1.2,3.3-2.4,5-3.6ZM288.3,346.9c.1-.2.1-.2,0,0ZM294.7,465.7c-.9.6-1.7,1.2-2.6,1.8-10.9,6.9-23.3,10.7-36.1,12.2-.1,0-.2,0-.4,0h-43.4c0,0-.1,0-.2,0-12.4-1.4-25.4-5.4-36.2-12.2-7.9-5-14.7-11.4-19.5-19.6-11-19.1-11-44-.7-63.4,2.6-4.9,5.9-9.3,9.8-13.3,18.1,6.3,36.2-6.7,54.7-5.3,9.4.7,18.1,4.8,27.2,7.1,4.5,1.1,9.1,1.8,13.8,1.5,5.1-.3,10.1-1.6,15-2.9,7.7-2.1,16.2-4,24.2-2.6,3.7,3.4,7.1,7.1,9.9,11.5,6.1,9.8,9.7,21.2,10,32.8.3,10.5-1.8,21.4-6.4,30.9-4.3,8.8-11,15.9-19,21.5ZM317.8,452.1c.1-.2.3-.4.4-.6,0,0,0,0,0,0,.7-1.2,1.3-2.3,1.9-3.5,7.4-14.9,9.2-32.3,5.6-48.5-.2-1-.5-2.1-.8-3.1-1.4-5.3-3.4-10.5-6-15.3-3.3-6.2-7.6-11.8-12.7-16.6,0,0-.2-.1-.2-.2-.6-.5-1.2-1-1.7-1.5-1.4-1.2-2.8-2.3-4.2-3.5-.6-.4-1.1-.9-1.7-1.3-1.9-1.5-3.9-2.9-5.9-4.4.6-.7,1.2-1.5,1.8-2.2,3-3.9,5.7-7.8,8.3-12,.6-.9.6-2.1.2-3.2-.4-1.4-1.5-2.6-3.4-2.6h-130.2c-1.3,0-2.3.6-2.9,1.4-1.1,1.2-1.4,2.9-.5,4.4,2.5,4.2,5.3,8.1,8.3,12,.5.7,1,1.3,1.5,2,0,0,.2.2.2.3-3.3,2.4-6.6,4.9-9.8,7.5-5.4,4.5-10.4,9.5-14.3,15.7-.8,1.3-1.6,2.6-2.3,4-.8,1.6-1.6,3.1-2.3,4.7-2.3,5.1-3.9,10.4-5,15.8-.8,4-1.2,8-1.3,12.1-.3,11.8,2.2,23.8,7.3,34.4,1.4,2.9,3,5.6,4.9,8.2,2.6,3.5,5.5,6.8,8.7,9.8,3.3,3,6.8,5.7,10.5,8.1,12.1,7.7,25.9,11.7,40.1,13.3.3,0,.5,0,.8,0h42.3c.3,0,.5,0,.8,0,12.7-1.4,24.9-4.7,36.1-10.9,8.9-4.9,17.1-11.6,23.1-19.9.3-.5.7-.9,1-1.4.6-.9,1.1-1.7,1.7-2.6"/>
  </g>
  <path class="cls-15" d="M235.5,447.9c0,.2-.1.4-.4.4-4.4.9-8.9,1.8-13.3.8-.6-.1-.4-1.1.3-1,2.5.5,5.1.4,7.6.1-.6-2.7-1-5.4-1.1-8.1-.6,0-1.2,0-1.8-.3-.3-.1-.6-.2-.8-.4,0,0,0,0,.1,0-1.9-1.2-3.6-2.7-5.1-4.4-.1-.2-.3-.3-.4-.5-.9,4.7-2.3,9.4-4.1,13.7h.1c1.5.2,2.9.4,4.3.4,2.2,1.8,4.6,3.4,6.8,5.1.8.6,1.5,1.2,2.4,1.6.6,0,1.2-.3,1.4-.8.2-.6-.3-1.3-.3-1.9.3,0,.6,0,.9,0,.7,0,1.5.1,2.1-.3.6-.4.8-1.3.5-1.9.7,0,1.4,0,2-.3.4-.2.7-.5.9-.8-.4-.6-1-1.2-1.6-1.6-.2,0-.3,0-.5,0"/>
  <path class="cls-13" d="M228.9,398.4c.7,1.1.9,2.3,1.2,3.5,2.7-1,7.5-2,7.2,2.6,1.9-.4,4-.5,5.1.9,0-.2.1-.3.2-.5.2-.5.4-1.1.2-1.6-.3-.8-1.4-1-2.2-.7-.2,0-.4.2-.6.2-.4,0-.7-.4-.7-.8s0-.8,0-1.2c-.1-1.1-1.3-1.9-2.4-2-1.1,0-2.2.4-3.3.9-.3.1-.6.3-1,.3-.6,0-1.1-.7-1.3-1.3s-.4-1.3-.8-1.7c-.5-.6-1.4-.7-2.2-.5-.8.2-1.4.7-2,1.1l-.2.2c1-.2,2-.2,2.9.6"/>
  <path class="cls-14" d="M239.9,408.7c-.8-.2-1.6-.5-2.4-.7-2.3,3.6-4.2,7.5-5.7,11.6.2,0,.3,0,.5,0,.8.1,1.6.7,1.9,1.5.3.8.1,1.7-.4,2.3.9-.5,2,0,2.5.9.4.9.2,2-.5,2.7-.2.2-.5.4-.8.6,1.1-.2,2.3.9,2,2-.1.5-.4.9-.7,1.3-.6.7-1.3,1.4-2.2,1.4.8.1,1.4.9,1.4,1.7,0,.9-.6,1.7-1.4,2.1s-1.7.4-2.6.2c.6,1.1,0,2.6-1,3.3-.6.4-1.2.5-1.8.5.1,2.7.5,5.4,1.1,8.1,1.8-.2,3.5-.6,5.2-.9.4,0,.6.2.6.6.2,0,.3,0,.5,0,1.8-.3,3.5-.7,5.3-1.1.2,0,.4-.1.7-.2-.1-.3,0-.7.3-.7.8-.2,1.6-.4,2.4-.7-4.5-10.7-4.6-23.8.1-34.3-.3-.2-.3-.5-.1-.7,0,0-.1,0-.2,0-1.3-.5-2.5-1-3.8-1.5,0,0,0,0-.1,0,0,.2-.3.3-.6.2"/>
  <path class="cls-14" d="M257.6,440.2c1.9-.8,3.8-1.6,5.7-2.3-2.5-5.6-3.3-11.9-2.1-18.1-1.9-.7-3.6-1.7-5.3-2.8-3,7.2-2,16.1,1.6,23.2"/>
  <path class="cls-14" d="M218.1,428.7c0-.2.2-.3.3-.4,0-.3.2-.6.4-.8.3-.4.7-.6,1-.9.5-.3,1-.7,1.6-1,.2-6.4-.9-12.8-3.5-18.6-.4,0-.9.1-1.3.2-.4,0-.7-.4-.6-.7-.1,0-.2,0-.3,0-1.3.3-2.7.7-4,1.2,6.2,12.1,4.2,27.1-2.7,38.7,2.4.8,4.9,1.3,7.4,1.7,1.8-4.3,3.2-9,4.1-13.7-1.4-1.6-2.7-3.6-2.4-5.8"/>
  <path class="cls-13" d="M205.8,426.9c0,1.7-1.3,3.5-3,3.5-1.9,0-3.5-1.7-3.7-3.5,0-.3-.4-.4-.6-.4-.3,0-.4.4-.3.6.3,2.3,2.5,4.3,4.8,4.3,2.3,0,4-2.3,3.9-4.5,0-.7-1-.7-1,0"/>
  <path class="cls-13" d="M200.6,433.5c-.3,0-.6,0-.6.4v.3c0,0-.1.1-.1.1h0c0,0,0,.2,0,.2h0c0,.1-.1.4-.1.4h0c0,.1,0,.2,0,.2l-.2.2c-.1.1-.3.3-.4.4h0s0,.1,0,.1h-.2c0,.1-.3.3-.3.3t0,0s0,0,0,0h-.1c-.2.1-.3.1-.5.2,0,0,0,0,0,0h-.2s-.3,0-.3,0c-.3,0-.5.2-.5.5,0,.3.2.5.5.5,1.8,0,3.5-1.3,3.9-3,0-.3,0-.6-.4-.6"/>
  <path class="cls-13" d="M236.7,450.2c-.6.3-1.3.3-2,.3.3.6,0,1.5-.5,1.9-.6.4-1.4.4-2.1.3-.3,0-.6,0-.9,0,0,.7.5,1.3.3,1.9-.2.6-.8.8-1.4.8h.2c1,.5,2.1.7,3,.3.5-.2.8-.5.5-1-.2-.3-.6-1.1-.9-1.2.3.1.7.3,1.1.4.5.2,1,.3,1.5.1.4-.1.8-.5,1-1s.2-.9,0-1.4c.4,0,.8,0,1.1-.3.1-.2.2-.4.2-.6,0-.5,0-1-.3-1.4h0c-.2.3-.5.6-.9.8"/>
  <path class="cls-13" d="M266.1,441.4c0,.7-.6,1.3-1.3,1.6-.6.3-1.4.3-2.1,0,.3.7.5,1.5.2,2.2-.3.8-1.2,1.2-2,1.3-.8,0-1.7-.1-2.5-.3.6.9.4,2.2-.5,2.9-.6.4-1.3.5-2,.4-1,0-2-.4-2.9-.9.6.8.2,2.1-.6,2.7-.5.4-1.2.6-1.9.7-.4,0-1.1-.1-1.6,0,1.3.7,2.8,1.1,4.1.7,1-.3,1.9-1.4,1.5-2.3,1.4.7,3.1.8,4.6.2.4-.1.7-.3.9-.7.2-.3.1-.8-.2-1,1.4.5,3,.2,4.1-.8.7-.5,1.1-1.5.6-2.2,1.4.2,2.8-.9,3.1-2.3.6-1.9-.5-3.7-1.7-5.1-.2,0-.5,0-.7,0,0,1,.7,1.9.5,2.9"/>
  <path class="cls-13" d="M253.6,407.9c.3,1.1.2,2.3.1,3.5.8,0,1.6,0,2.4,0,1,0,2,0,2.7.8.7.8.6,2,.5,3,1.7,0,3.1,1.6,2.9,3.3.4.3.9.5,1.3.8,0-.1,0-.3,0-.4,0-.6.4-1.1.5-1.6.2-.7-.1-1.4-.6-1.9-.5-.5-2.2-.9-2.3-1.6,0-.2.5-.9.5-1.2.1-.6,0-1.4-.2-2-.8-1.7-3.1-1.4-4.5-.8-.2,0-.4.2-.6.1-.5,0-.7-.7-.8-1.2-.2-1.1-.6-2.1-1.2-3-.2-.4-.5-.8-1-1-.7-.3-1.5,0-2.2.4h-.2c.3.2.6.2.8.3,1.1.4,1.8,1.5,2.1,2.6"/>
  <path class="cls-13" d="M279.6,417.5c.9.2,1.6.8,1.9,1.6.3.8.2,1.8-.2,2.5.9.6,1.5,1.7,1.5,2.8s-.5,2.2-1.4,2.9c.9.7,1.7,1.7,1.8,2.8s-.6,2.4-1.7,2.6c.6.6,1.1,1.3,1.4,2.2.2.8,0,1.8-.7,2.3-.6.4-1.4.3-2.1.1.8.7.5,2.1-.2,3-.4.5-.9.9-1.4,1.3.8.2,1.7.2,2.4-.1,1.1-.5,1.8-2,1.2-3,2.2-.4,3.2-3.7,1.6-5.2,1.8-1.5,1.6-4.8-.4-6,1.2-1.7,1.1-4.3-.4-5.8.2-1.1.5-2.3.2-3.4s-1.1-2.2-2.3-2.3c.4-1-.8-2-1.8-1.9-.5,0-1,.2-1.5.5.5.1,1,.4,1.3.8.6.7.8,1.6.6,2.4"/>
  <path class="cls-13" d="M231.2,419.7c-2.8,0-4.5,2.5-6.9,3.5-.3.1-.4.3-.4.6,0,.2.4.5.6.4,1.3-.5,2.3-1.4,3.4-2.1.9-.7,2-1.3,3.2-1.3.2.2.4.4.5.7.4.9.1,2.1-.6,2.8,1.1.2,2,1.1,2.2,2.2.2,1.1-.3,2.3-1.2,2.8.7,0,1.3.6,1.4,1.2,0,.7-.2,1.3-.8,1.8-.5.4-1.2.6-1.9.7.7.2,1,1,.8,1.6s-.8,1.1-1.4,1.3c-.6.2-1.3.2-2,.2.7.8.3,2.2-.6,2.8,0,0-.2.1-.3.2,0-.1,0-.2-.2-.3-1.9-1.2-3.5-2.6-5-4.2-1.4-1.6-3.1-3.6-2.8-5.8,0-.4-.4-.6-.7-.4-.2,0-.3.2-.3.4-.3,2.2,1,4.2,2.4,5.8.1.2.3.3.4.5,1.5,1.7,3.2,3.1,5.1,4.4,0,0,0,0-.1,0,.3.2.5.3.8.4.6.2,1.2.3,1.8.3.7,0,1.3-.2,1.8-.5,1.1-.7,1.6-2.2,1-3.3.9.2,1.8.2,2.6-.2s1.4-1.2,1.4-2.1c0-.8-.6-1.6-1.4-1.7.9,0,1.6-.7,2.2-1.4.3-.4.6-.8.7-1.3.2-1.1-.9-2.3-2-2,.3-.2.5-.4.8-.6.7-.7.9-1.8.5-2.7-.4-.9-1.6-1.3-2.5-.9.5-.6.7-1.6.4-2.3-.3-.8-1-1.4-1.9-1.5-.2,0-.3,0-.5,0-.2,0-.3,0-.5,0"/>
  <path class="cls-13" d="M222.1,448.1c-.6-.1-.9.8-.3,1,4.5.9,9,0,13.3-.8.3,0,.4-.2.4-.4,0-.3-.2-.6-.6-.6-1.7.3-3.5.7-5.2.9-2.5.3-5.1.4-7.6-.1"/>
  <path class="cls-13" d="M254.1,415.8c.6.4,1.3.8,1.9,1.1,1.7,1,3.4,2.1,5.3,2.8.4.2.9.3,1.3.4.6.2.9-.8.3-1-3.1-.9-5.7-2.8-8.5-4.5-3-1.7-6-3.4-9.1-4.9-.3-.1-.5,0-.7.2-.2.2-.2.5.1.7,0,0,0,0,0,0,3.2,1.5,6.3,3.2,9.4,5"/>
  <path class="cls-13" d="M216.6,407.3c.4,0,.9-.1,1.3-.2,6.5-1,13.1-.6,19.5,1,.8.2,1.6.4,2.4.7.3,0,.5,0,.6-.2.1-.3,0-.6-.3-.7-7.7-2.4-15.9-2.9-23.8-1.5-.2,0-.3.2-.3.3,0,.3.2.8.6.7"/>
  <path class="cls-13" d="M242.5,446.8c7.7-1.9,14.8-5.6,22.3-8.3.6-.2.3-1.2-.3-1-.4.1-.7.3-1.1.4-1.9.7-3.8,1.5-5.7,2.3-4.3,1.8-8.6,3.6-13,4.9-.8.2-1.6.5-2.4.7-.4,0-.4.5-.3.7.1.2.3.3.6.2"/>
  <path class="cls-14" d="M190.1,406.9h0s0,0,0,0v-.2c0,0,.2-.1.2-.1l.2-.2h0c0,0,0-.1,0-.1l.3-.2h.2c0,0,.1,0,.1,0,0,0,0,0,0,0,0,0,.1,0,.1,0h.3s0,0,0,0h0c.1,0,.3,0,.4.1h.2c0,.1.1.2.1.2h.1c0,0,0,0,0,0l.2.2s0,0,0,0,0,0,0,0v.2c.1,0,.2.2.2.2,0,0,0,0,0,0h0c0,.1,0,.3.1.4v.2s0,.2,0,.2v.3c0,0-.1.1-.1.1t0,0c0,.1-.1.2-.2.3h-.1c0,.1,0,.2-.1.2l-.3.2h-.1c0,0,0,0,0,0,0,0,0,0,0,0h-.3c0,0,0,0,0,.1h-.1c-.1,0-.2,0-.3,0h-.2c0,0-.2-.1-.2-.1h-.3c0-.1-.1-.2-.1-.2t0,0l-.3-.3v-.2c-.1,0-.2-.1-.2-.1,0,0,0,0,0,0v-.3c0,0-.1-.1-.1-.1,0,0,0,0,0,0h0v-.4h0c0,0,0-.4,0-.4ZM192.3,410.9c1.6-.3,2.7-1.8,2.8-3.4,0-1.5-.9-2.7-2.3-3.3-1.3-.5-2.9,0-3.8,1-.9,1.1-1.1,2.7-.3,4,.8,1.3,2.2,1.9,3.7,1.6"/>
  <path class="cls-14" d="M200.6,391.5c2.2.4,3.8,2.4,3.9,4.6,0,1.9-1.2,3.7-3.1,4.4-1.9.7-4,0-5.3-1.5-1.2-1.5-1.4-3.7-.4-5.3,1-1.7,3-2.6,4.9-2.2ZM194.7,392c-1.7,2.1-2,5.2-.6,7.5s4.2,3.6,6.9,3.1c3.1-.6,5.2-3.3,5.3-6.4,0-2.7-1.7-5.2-4.3-6.1-2.5-1-5.6-.1-7.3,1.9"/>
  <path class="cls-14" d="M190.4,377.4c.6-1.1,2-1.7,3.2-1.5,1.5.3,2.6,1.6,2.6,3.1,0,1.3-.8,2.5-2,2.9-1.3.5-2.7,0-3.6-1-.8-1-.9-2.4-.2-3.5ZM194.1,383.8c2.3-.4,4-2.6,4-4.9,0-2.1-1.3-3.9-3.3-4.7-1.9-.7-4.2-.1-5.5,1.5-1.3,1.6-1.6,3.9-.5,5.7,1.1,1.8,3.2,2.7,5.2,2.3"/>
</svg>