<?xml version="1.0" encoding="UTF-8"?>
<svg id="Camada_1" data-name="Camada 1" xmlns="http://www.w3.org/2000/svg" version="1.1" xmlns:xlink="http://www.w3.org/1999/xlink" viewBox="0 0 435.1 403">
  <defs>
    <style>
      .cls-1 {
        fill: #faba61;
      }

      .cls-1, .cls-2, .cls-3, .cls-4, .cls-5, .cls-6, .cls-7, .cls-8, .cls-9, .cls-10 {
        stroke-width: 0px;
      }

      .cls-2 {
        fill: #a15f43;
      }

      .cls-11 {
        clip-path: url(#clippath-2);
      }

      .cls-3 {
        fill-opacity: .2;
      }

      .cls-3, .cls-6 {
        fill: #060051;
      }

      .cls-4 {
        fill: #b199c5;
      }

      .cls-5 {
        fill: none;
      }

      .cls-7 {
        fill: #ff9355;
      }

      .cls-12 {
        clip-path: url(#clippath-1);
      }

      .cls-8 {
        fill-opacity: .6;
      }

      .cls-8, .cls-9 {
        fill: #fff;
      }

      .cls-13 {
        clip-path: url(#clippath);
      }

      .cls-10 {
        fill: #fc60a6;
      }
    </style>
    <clipPath id="clippath">
      <rect class="cls-5" x="34.4" y="231.2" width="389.3" height="158.3"/>
    </clipPath>
    <clipPath id="clippath-1">
      <rect class="cls-5" x="283.8" y="332.5" width="114.7" height="57"/>
    </clipPath>
    <clipPath id="clippath-2">
      <rect class="cls-5" x="242.4" y="343.2" width="62.7" height="46.3"/>
    </clipPath>
  </defs>
  <path class="cls-9" d="M372.9,181.3c0,.2,0,.5-.1.7-6.9,40-47.8,50.3-65,48.5l-1.8-12.9s31.6-6.9,31.6-31.7-2.4-9.7-5.6-14.4c-1.7-2.5-3.5-4.9-5.3-7.4-6-8.2-11.3-16.9-6.5-27.7.3-.6.6-1.3.9-1.9,7.5-13.9,27.9-14,40.8,2.6.1.1.2.3.4.5,2.8,3.8,5.4,8.3,7.4,13.3,3.5,8.8,5.2,19.2,3.4,30.5Z"/>
  <path class="cls-7" d="M372.9,181.3c-2.7,2.1-5.8,3.7-9,4.5-7,1.7-14.6.2-20.7-3.6-4.4-2.7-8-6.5-11.2-10.6-1.7-2.4-3.5-4.9-5.3-7.4-6-8.2-11.3-16.9-6.5-27.7.3-.6.6-1.3.9-1.9,7.5-13.9,27.9-14,40.8,2.6.1.1.2.3.4.5,2.8,3.8,5.4,8.3,7.4,13.3,3.5,8.8,5.2,19.2,3.4,30.5Z"/>
  <path class="cls-3" d="M372.8,182c-6.9,40-47.8,50.3-65,48.5l-1.8-12.9s31.6-6.9,31.6-31.7-5.7-14.6-10.9-21.7c-6-8.2-11.3-16.9-6.5-27.7-.8,6.9,1.7,14.3,7.4,18.2,5.4,3.6,13.2,4,16.4,9.7,5.4,9.5-8.7,22.1-2.8,31.2,2.9,4.5,9.6,5.2,14.4,2.7,4.7-2.5,7.8-7.3,9.9-12.2,4.8-11,6.2-23.3,4.1-35.1,3.6,8.9,5.2,19.6,3.3,31.2Z"/>
  <path class="cls-6" d="M312.2,233.5c-1.7,0-3.2,0-4.7-.2-1.3-.1-2.3-1.1-2.5-2.4l-1.8-12.9c-.2-1.5.8-2.9,2.2-3.2.3,0,29.3-6.7,29.3-28.9s-4.2-11.7-8.7-17.8c-.5-.7-1.1-1.5-1.6-2.3-6.8-9.3-12.8-19.6-5.8-32.7,3.6-6.7,10.1-10.9,17.8-11.6,10-.8,20.3,4.3,27.7,13.8,0,0,.2.2.3.3h.1c10,13.4,14,30.4,11.2,46.8-6.5,37.5-42.1,51-63.4,51ZM310.3,227.8c15.8.6,53.2-8.5,59.7-46.3,3.6-21.1-5.9-36.6-10.1-42.3v-.2c-.2,0-.2-.2-.3-.2-6.2-8-14.7-12.3-22.7-11.6-5.9.5-10.6,3.6-13.3,8.6-5.5,10.2-.8,18.1,5.4,26.7.5.7,1.1,1.5,1.6,2.2,4.8,6.6,9.8,13.4,9.8,21.2,0,11.2-5.9,20.7-17.1,27.6-5.5,3.4-11,5.3-14.1,6.2l1.2,8.1ZM372.8,182h0,0Z"/>
  <path class="cls-7" d="M318.5,232.6H113.4s7.7-40.8,36.9-69.4c15.8-15.4,37.9-27.3,68.5-27.3s46.2,10.2,64.6,27.7c5.2,4.9,10,10.4,14.3,16.5,7.3,10.3,13.2,22.1,17,35,1.6,5.6,2.9,11.5,3.7,17.5Z"/>
  <path class="cls-3" d="M283.5,163.6c-17.1,8.6-40.5,13.9-66.2,13.9s-49.8-5.4-67-14.2c15.8-15.4,37.9-27.3,68.5-27.3s46.2,10.2,64.6,27.7Z"/>
  <path class="cls-6" d="M318.5,237.1H113.4c-.8,0-1.6-.4-2.2-1-.5-.7-.8-1.5-.6-2.3.2-1,4.8-25,20.4-49.3,20.8-32.5,51.2-49.7,87.9-49.7s46.8,10.1,65.7,27.7c20,18.6,33,44,36.6,71.5.1.8-.1,1.6-.7,2.2-.5.6-1.3,1-2.1,1ZM117,231.4h198.2c-9-56.3-56.5-91-96.3-91s-63.1,15.8-83.1,47c-11.7,18.2-17,36.6-18.8,44Z"/>
  <path class="cls-7" d="M310.5,111.6c0,43.3-41,57.2-91.6,57.2h-1.1c-46.7-.2-85-12.5-89.9-48.9-.4-2.6-.6-5.4-.6-8.3,0-31.6,21.9-65,53.4-80.7,11.6-5.8,24.6-9.2,38.2-9.2s26.3,3.3,37.8,9c31.7,15.6,53.8,49.2,53.8,80.9Z"/>
  <path class="cls-8" d="M246.1,33.9v.2c0,0-.2,0-.3,0-5-1.7-10.2-2.9-15.5-3.7-.2,2.9-5.5,5.1-12.1,5.1s-11.7-2.2-12.1-4.9c-5.1.8-10.1,2-14.9,3.7-.3.1-.7.2-1,.3v-.7c-3.2-1.3-6.5-2.3-9.6-3,11.6-5.8,24.6-9.2,38.2-9.2s26.3,3.3,37.8,9c-3.4.7-7,1.7-10.7,3.2Z"/>
  <path class="cls-9" d="M310.6,114.7h0c0,1.8-.2,3.5-.5,5.2-4.9,36.5-43.2,48.8-90,48.9h-2.3c-46.7-.2-85-12.5-90-48.9-.2-1.7-.4-3.4-.5-5.1h0s8,13.4,33.5,9.6c25.8-3.9,30.5-33.7,58-33.7s30.7,29.9,58.2,33.7c25.5,3.6,33.5-9.6,33.5-9.6Z"/>
  <path class="cls-3" d="M310.5,111.6c0,43.3-41,57.2-91.6,57.2h-1.1c-46.7-.2-85-12.5-89.9-48.9-.4-2.6-.6-5.4-.6-8.3s.2-5.7.5-8.5c0,0,0,.1,0,.2,4.9,36.5,43.2,48.8,90,48.9h1.1c47.3,0,86.2-12.2,91.1-49.1.3,2.8.5,5.7.5,8.5Z"/>
  <path class="cls-6" d="M219,171.7h-1.2c-25.8-.1-46.6-3.9-61.9-11.1-18.1-8.6-28.5-22.2-30.9-40.3-.2-1.7-.4-3.5-.5-5.4h0c0-1.1,0-2.1,0-3.3,0-22.1,10.1-45.1,27.6-63.2,18.5-19.1,42.3-29.6,66.8-29.6s48.3,10.5,66.8,29.6c17.6,18.1,27.6,41.1,27.6,63.2,0,39.3-32.6,60.1-94.3,60.1ZM130.2,114.7c0,1.7.2,3.3.4,4.8,2.2,16.1,11.5,28.2,27.7,35.9,14.5,6.9,34.5,10.5,59.4,10.6h1.2c27.2,0,48.5-4.1,63.4-12.1,16.8-9,25.3-23.3,25.3-42.3,0-40.3-38.8-87.1-88.7-87.1s-88.7,46.8-88.7,87.1,0,2.1,0,3h0Z"/>
  <path class="cls-6" d="M218.9,109h0c-5.6,0-14.2-6.2-11.8-11.9,2.5-5.6,21.1-5.6,23.5,0,2.5,5.6-6.1,11.9-11.8,11.9Z"/>
  <path class="cls-6" d="M231.1,115.3c0,9.7-5.5,17.5-12.2,17.5s-12.2-7.8-12.2-17.5,0-.4,0-.6c.3,0,.6,0,.9,0,8.7,0,11.4-6.6,11.4-6.6,0,0,3.9,6.6,11.1,6.6s.7,0,1,0c0,.2,0,.4,0,.6Z"/>
  <path class="cls-6" d="M242,106.7c-.1.7-.3,1.3-.6,1.9-.2.6-.5,1.2-.8,1.7-.7,1.1-1.5,2.1-2.5,3-1,.8-2.2,1.5-3.5,2-.6.2-1.3.4-1.9.5-.6,0-1.3.3-1.9.3-2.6.3-5.4-.3-7.8-1.4-1.2-.6-2.3-1.3-3.4-2.1-.5-.4-1-.9-1.5-1.3-.2-.2-.5-.5-.7-.7-.1-.1-.2-.3-.3-.4l-.2-.2c0,0-.1-.1-.2-.3l5-.4c0,.2-.1.3-.2.4s-.1.2-.2.3c-.1.2-.2.3-.3.5-.2.3-.4.6-.7.9-.5.5-1,1-1.5,1.5-1.1.9-2.3,1.7-3.5,2.2-2.5,1.1-5.2,1.5-7.8,1.3-1.4,0-2.7-.4-4-.9-1.3-.5-2.4-1.3-3.4-2.1-1-.9-1.8-1.8-2.5-2.9-.3-.5-.7-1.1-1-1.6-.3-.6-.5-1.1-.8-1.8-.2-.6,0-1.3.7-1.6.6-.2,1.2,0,1.5.6h0c.4.9,1.1,1.9,1.7,2.6.7.8,1.4,1.5,2.3,2,.8.5,1.7,1,2.6,1.2.9.2,1.9.4,2.8.3,2,0,4-.7,5.5-1.6.8-.5,1.5-1.1,2.1-1.7.3-.3.6-.7.8-1,.1-.2.2-.4.3-.5,0,0,0-.2.1-.3,0,0,0,0,0-.1,0,0,0,0,0,0l2.9,2.3c.7.6,1.8.5,2.4-.3.6-.7.5-1.8-.3-2.4,0,0,0,0,0,0,0,0,0,0,0,.1,0,0,.1.2.2.3.1.2.3.4.4.6.3.4.6.7.9,1.1.7.7,1.4,1.3,2.2,1.8,1.6,1,3.4,1.6,5.3,1.7.5,0,1,0,1.5,0,.5,0,1-.1,1.4-.2.9-.2,1.8-.6,2.6-1.1.8-.5,1.5-1.2,2.1-2,.3-.4.6-.8.8-1.3.2-.4.4-.9.6-1.3h0c.2-.8.9-1.1,1.5-.9.6.2.9.8.8,1.3Z"/>
  <path class="cls-6" d="M218.9,135.5c-8.4,0-14.9-8.9-14.9-20.2s0-.5,0-.7c0-.8.4-1.5.9-1.9.6-.5,1.3-.7,2.1-.7.2,0,.4,0,.6,0,6.7,0,8.9-4.8,9-5,.4-.9,1.3-1.6,2.3-1.6,1,0,2,.4,2.5,1.3,0,0,3.3,5.2,8.7,5.2s.5,0,.8,0c.7,0,1.5.2,2,.7.5.5.9,1.2.9,1.9,0,.2,0,.5,0,.7,0,11.3-6.6,20.2-14.9,20.2ZM209.5,117.4c.7,7.1,4.7,12.7,9.4,12.7s8.8-5.7,9.4-12.8c-4.1-.5-7.1-2.7-9.1-4.7-1.8,2-4.9,4.2-9.7,4.7Z"/>
  <path class="cls-10" d="M219,145c-4.3,0-7.8-3.5-7.8-7.8v-8.9c0-4.3,3.5-7.8,7.8-7.8s7.8,3.5,7.8,7.8v8.9c0,4.3-3.5,7.8-7.8,7.8Z"/>
  <path class="cls-6" d="M219,147.2c-5.5,0-10-4.5-10-10v-8.9c0-5.5,4.5-10,10-10s10,4.5,10,10v8.9c0,5.5-4.5,10-10,10ZM219,122.7c-3.1,0-5.7,2.5-5.7,5.6v8.9c0,3.1,2.5,5.6,5.7,5.6s5.6-2.5,5.6-5.6v-8.9c0-3.1-2.5-5.6-5.6-5.6Z"/>
  <path class="cls-2" d="M318.4,84.7c0,.3,0,.6,0,1,0,.3,0,.6,0,.9h0c-.8,8.6-4.4,14.7-11.1,15.4-28,3.1-60.5-62.6-60.5-62.6l-.6-5.4-.9-7.7c45.6-18.9,71.9,25.6,73.2,54.1,0,1.4,0,2.8,0,4.1Z"/>
  <path class="cls-8" d="M318.4,84.7c0,.3,0,.6,0,1,0,.3,0,.6,0,.9-2.1-25.9-23.9-63.3-61.4-55.9-3.5.7-7.1,1.7-10.8,3.2v.2s0,0,0,0l-.9-7.7c45.6-18.9,71.9,25.6,73.2,54.1,0,1.4,0,2.8,0,4.1Z"/>
  <path class="cls-6" d="M248.1,38.8c4.7,8,9.6,16,14.8,23.7,5.2,7.7,10.7,15.2,17,21.8,3.1,3.3,6.5,6.4,10.1,9.1,3.6,2.6,7.5,4.8,11.6,5.7,1,.2,2,.3,3,.4.5,0,1,0,1.5,0h.7c.2,0,.5-.1.7-.1,1.7-.3,3.2-1.2,4.4-2.5,1.2-1.4,2.1-3.2,2.7-5.2.6-2,.9-4.1,1.1-6.3.3-4.4-.2-8.8-1-13.3-.9-4.4-2.2-8.7-3.9-12.9-3.4-8.3-8.3-16.1-14.8-22.3-3.2-3.1-6.8-5.7-10.7-7.8-3.9-2-8.1-3.4-12.4-4.1-4.3-.7-8.8-.6-13.1.1-4.4.7-8.7,2-12.9,3.7h0c-1.5.6-3.1,0-3.7-1.5s0-3.1,1.5-3.7c4.5-1.9,9.2-3.3,14.1-4.1,4.9-.8,9.9-.9,14.9-.2,5,.7,9.8,2.3,14.2,4.6,4.4,2.3,8.5,5.3,12,8.7,7.1,6.9,12.4,15.3,16,24.3,1.8,4.5,3.2,9.2,4.2,14,.9,4.8,1.4,9.7,1.1,14.7-.2,2.5-.6,5-1.4,7.5-.8,2.5-2,5-3.9,7.2-1,1.1-2.1,2-3.4,2.8s-2.7,1.2-4.2,1.5c-.4,0-.7.1-1.1.1h-1c-.7.1-1.3,0-2,0-1.3,0-2.7-.3-3.9-.6-2.6-.6-5-1.6-7.2-2.7-2.2-1.2-4.3-2.5-6.3-4-3.9-2.9-7.5-6.3-10.7-9.8-3.3-3.5-6.3-7.2-9.2-11-2.9-3.8-5.6-7.7-8.1-11.7-5.1-8-9.7-16.2-13.5-24.9-.3-.8,0-1.7.8-2,.7-.3,1.6,0,2,.6h0Z"/>
  <path class="cls-2" d="M191.3,26.4l-1,8.2-.6,4.9s-32.5,65.6-60.5,62.6c-7.1-.8-10.8-7.8-11.2-17.4,0-.6,0-1.2,0-1.9s0-1.5,0-2.3c1.3-28.5,27.6-73,73.2-54.1Z"/>
  <path class="cls-8" d="M191.3,26.4l-1,8.2s0,0,0,0v-.7c-3.3-1.4-6.6-2.3-9.7-3-38.1-8.2-60.3,29.6-62.4,55.7,0-.6,0-1.3-.1-1.9,0-.6,0-1.2,0-1.9s0-1.5,0-2.3c1.3-28.5,27.6-73,73.2-54.1Z"/>
  <path class="cls-3" d="M189.8,38.6v.9c-.1,0-32.6,65.6-60.6,62.6-12.7-1.4-14.3-22.5-6.4-42.7-2,13.9,1.3,25.9,10.7,27.8,21.8,4.5,46.2-31.8,56.2-48.5Z"/>
  <path class="cls-3" d="M246.6,42.9v.9c.1,0,32.6,65.6,60.6,62.6,12.7-1.4,14.3-22.5,6.4-42.7,2,13.9-1.3,25.9-10.7,27.8-21.8,4.5-46.2-31.8-56.2-48.5Z"/>
  <path class="cls-6" d="M190.9,40.1c-1.8,4.4-3.9,8.7-6,12.9s-4.5,8.3-7,12.4c-1.2,2-2.5,4-3.8,6-1.3,2-2.7,3.9-4.1,5.9-1.4,1.9-2.9,3.8-4.4,5.7-1.5,1.9-3.1,3.7-4.7,5.5-3.3,3.6-6.9,6.9-10.9,9.8-2,1.5-4.2,2.8-6.5,4-2.3,1.1-4.8,2.1-7.4,2.7-1.3.3-2.7.5-4.1.5-.7,0-1.4,0-2.1,0h-1c-.3-.1-.7-.2-1.1-.3-.8,0-1.5-.4-2.2-.6-.7-.3-1.4-.6-2.1-1-1.4-.8-2.5-1.8-3.5-2.9-1-1.1-1.7-2.4-2.4-3.6-.6-1.3-1.1-2.5-1.5-3.8-.8-2.6-1.1-5.1-1.3-7.6-.3-5.1.3-10,1.3-14.8,1-4.8,2.5-9.5,4.4-14,3.8-9,9.2-17.4,16.4-24.2,1.8-1.7,3.7-3.3,5.7-4.7,2-1.4,4.2-2.8,6.4-3.9,2.2-1.1,4.6-2.1,6.9-2.9,2.4-.7,4.8-1.3,7.3-1.7.6-.1,1.2-.1,1.9-.2.6,0,1.2-.1,1.9-.2h1.9c0,0,1.9,0,1.9,0,.6,0,1.2,0,1.9,0h1.9c0,.1,1.8.3,1.8.3h.9c0,.1.9.3.9.3,4.9.8,9.6,2.2,14.1,4.1,1.4.6,2.1,2.3,1.5,3.7-.6,1.4-2.3,2.1-3.7,1.5h0c-4.2-1.7-8.5-3-12.9-3.7h-.8c0-.1-.8-.2-.8-.2l-1.7-.2h-1.6c-.6-.1-1.1-.2-1.7-.1h-1.6s-1.6,0-1.6,0c-.5,0-1.1,0-1.6.1-.5,0-1.1.1-1.6.2-2.2.3-4.3.8-6.4,1.5-2.1.7-4.1,1.5-6,2.5-1.9,1-3.8,2.2-5.6,3.5-1.8,1.3-3.5,2.7-5.1,4.3-6.4,6.1-11.4,13.9-14.8,22.2-1.7,4.2-3.1,8.5-4,12.9-.9,4.4-1.3,8.8-1.1,13.2.1,2.2.5,4.3,1.1,6.2.3,1,.7,1.9,1.1,2.7.5.8.9,1.6,1.5,2.2.6.6,1.2,1.2,1.9,1.5.3.2.7.3,1.1.5.4,0,.8.2,1.2.3.2,0,.4,0,.6,0h.7c.5,0,1,0,1.4,0,1,0,1.9-.2,2.9-.4,3.9-.9,7.7-3.1,11.2-5.7,3.5-2.6,6.8-5.8,10-9,6.3-6.6,11.9-13.9,17.3-21.5,5.4-7.6,10.4-15.4,15.3-23.4h0c.4-.7,1.2-.9,1.9-.5.6.4.8,1.1.6,1.7Z"/>
  <path class="cls-9" d="M341.6,273.6c0,9.1-5.5,24.8-5.5,24.8H100.7c-3.2-7.9-5-16.2-5-24.8,0-22.2,11.6-42.5,30.6-58,9.4-7.6,20.6-14.1,33.2-19,10.7-4.2,22.4-7.3,34.8-9.1,7.9-1.1,16-1.7,24.3-1.7,33.9,0,64.6,9.8,86.8,25.7,3,2.1,5.9,4.4,8.5,6.8,17.2,15.1,27.5,34.4,27.5,55.3Z"/>
  <path class="cls-6" d="M336,301.2H100.7c-1.1,0-2.1-.7-2.5-1.7-3.4-8.4-5.2-17.1-5.2-25.8,0-24.3,13.2-47.2,37.1-64.3,23.7-16.9,55.1-26.2,88.5-26.2s64.8,9.3,88.5,26.2c24,17.1,37.1,39.9,37.1,64.3s-5.5,25.1-5.7,25.7c-.4,1.1-1.4,1.8-2.6,1.8ZM102.6,295.7h231.4c1.4-4.3,4.8-15.3,4.8-22.1,0-46.9-53.9-85-120.1-85s-120.2,38.1-120.2,85,1.4,14.9,4.1,22.1Z"/>
  <path class="cls-3" d="M305.5,211.6c-12.9-2.2-24.8,4.3-37.3,8.1-7.7,2.3-19.2,3.8-28.1.9-10.9-3.5-17-15-15.1-26.2-6,.7-10.3.3-16.4.4,1.9,7.7-.6,15.3-5.8,20.9,5.2,9.8,10,19.8,14.3,30.1,7.3,17.1,13.4,34.8,18.2,52.8H100.7c-3.2-7.9-5-16.2-5-24.8s.6-9.8,1.7-14.5c.1-.5.2-1,.4-1.5,0-.2,0-.3.1-.5.1-.5.3-.9.4-1.4,0-.2.1-.4.2-.6.2-.6.3-1.1.5-1.7.4-1.3.9-2.6,1.4-3.8.3-.6.5-1.3.8-1.9h0c.3-.6.6-1.3.8-1.9t0,0c.5-1.1,1-2.1,1.6-3.1.4-.7.7-1.4,1.1-2.1,0,0,0,0,0,0,.6-1,1.2-2,1.8-3,0,0,0,0,0,0,5.1-8,11.8-15.4,19.8-21.9,0,0,0,0,0,0,1-.8,2-1.6,3.1-2.4.4-.3.7-.5,1.1-.8,1-.7,2-1.5,3-2.2.3-.2.7-.4,1-.7.7-.5,1.5-1,2.2-1.4.5-.3.9-.6,1.4-.9.6-.4,1.2-.8,1.9-1.1.5-.3,1-.6,1.6-.9.5-.3,1-.6,1.5-.8.5-.3.9-.5,1.4-.8.5-.3,1-.5,1.5-.8,0,0,0,0,.1,0,.6-.3,1.2-.6,1.9-1,.5-.3,1.1-.6,1.7-.8.4-.2.9-.4,1.3-.6,1.1-.5,2.2-1,3.3-1.5.5-.2,1-.4,1.4-.6.4-.2.7-.3,1.1-.5.4-.2.8-.3,1.2-.5.5-.2,1.1-.4,1.6-.7,2.1-.8,4.1-1.6,6.3-2.3,1.1-.4,2.3-.8,3.4-1.1.1,0,.3,0,.4-.1.6-.2,1.2-.4,1.7-.5.3-.1.7-.2,1-.3.6-.2,1.1-.3,1.7-.5.7-.2,1.4-.4,2.1-.6.7-.2,1.5-.4,2.2-.6.7-.2,1.5-.4,2.2-.5.7-.2,1.5-.3,2.2-.5.8-.2,1.5-.3,2.3-.5.8-.2,1.5-.3,2.3-.4.8-.1,1.5-.3,2.3-.4.7-.1,1.4-.2,2.1-.3.2,0,.4,0,.6,0,.6,0,1.3-.2,1.9-.3,0,0,0,0,0,0,7.9-1.1,16-1.7,24.3-1.7,33.9,0,64.6,9.8,86.8,25.7Z"/>
  <path class="cls-3" d="M145.9,202.9s0,0,0,0c-.5.3-1,.5-1.5.8.5-.3,1-.5,1.5-.8Z"/>
  <path class="cls-2" d="M330.3,249.7s17-9,30.6,0c13.7,9,23.1,56.1,23.1,56.1h-32.5l-21.2-56.1Z"/>
  <path class="cls-6" d="M383.9,308.6h-32.5c-1.2,0-2.2-.7-2.7-1.8l-21.2-56.1c-.5-1.3,0-2.8,1.3-3.5.8-.4,18.6-9.7,33.5.1,14.2,9.4,23.3,52.9,24.3,57.9.2.8,0,1.7-.6,2.4-.5.7-1.3,1-2.2,1ZM353.4,302.9h27c-3.3-14.6-11.6-44.5-21.1-50.9-9.3-6.1-20.7-2.8-25.4-.9l19.6,51.7Z"/>
  <path class="cls-7" d="M398.4,386c-5.4,0-11.4,0-17.9,0-19.8,0-44.3,0-70.5.1h0c-16.4,0-33.5,0-50.5,0-79.6,0-158.9,0-166.4-.3-12.1-.6-39.2,2.8-50.3-10.7-3.1-3.7-4.9-8.7-4.9-15.4,0-11.4,4.7-17.8,10.6-21.3,10.2-6,24-3.4,24-3.4,0,0,.7-6.4,14.9-19.6,14.1-13.2,111.3-4.8,111.3-4.8,8.4-22.7,20.7-41.3,37.3-54.5,1.8-1.4,3.6-2.8,5.4-4,16.8-11.6,37.4-18,62.2-18,47.3,0,62.9,48,62.9,48,16.9,5.9,24.5,17.2,27.7,28,.5,1.6.9,3.2,1.2,4.8.2,1.1.4,2.1.5,3.2.6,4.7.6,9,.3,12.3,0,0,0,0,0,0h0c-.8,6.1-4.2,16.3-4.2,16.3,6.3-.2,11.5.7,15.7,2.4,21.7,8.5,16.1,36.9-9.1,36.9Z"/>
  <path class="cls-3" d="M391.8,346.7s3.4-10.2,4.2-16.2h0s0,0,0,0c.2-3.2.3-7.5-.3-12.3-5.7,20.9-26,48.3-93.8,48.3,0,0,0-9-6-13.4,0,0,2.9,17.3-38.6,17.3s-17.9-1.2-23.8-3c-10-3.1-11.8-16.7-2.8-22,4.7-2.8,9.3-7.1,11.9-13.8,7.1-17.9,9.1-39.4,26-47.9,0,0,8-4.3,8.4-11,.3-5-13.8-16.9-35.8-20.4-1.8,1.3-3.7,2.6-5.4,4-16.5,13.2-28.9,31.8-37.3,54.5,0,0-97.2-8.4-111.3,4.8-14.1,13.2-14.9,19.6-14.9,19.6,0,0-13.8-2.5-24,3.4,2.6,3.1,4.3,6.9,4.9,10.9,1.1,7.7-1.8,15.6-6.7,21.7-1.2,1.5-2.5,2.8-3.8,4.1,11.1,13.5,38.2,10.1,50.3,10.7,7.5.3,86.8.3,166.4.3,17.1,0,34.1,0,50.5,0h0c26.2,0,50.7,0,70.5-.1,4.5-4.7,8.7-9.7,12.6-14.2,5.9-6.8,10.9-14.5,14.4-22.7-4.2-1.7-9.4-2.6-15.7-2.4ZM126.2,376c-13.4,0-24.3-5.1-24.3-11.5s10.9-11.4,24.3-11.4,24.3,5.1,24.3,11.4-10.9,11.5-24.3,11.5Z"/>
  <path class="cls-8" d="M395.2,315c-11.4-18-34.9-29.3-34.9-29.3,0,0-7.9-31.4-38-42-29.3-10.4-63.5,2.7-86.4,12.6,17.7-14.1,40.1-22,67.6-22,47.3,0,62.9,48,62.9,48,16.9,5.9,24.5,17.2,27.7,28,.5,1.6.9,3.2,1.2,4.8Z"/>
  <path class="cls-9" d="M396.1,328.8h0c0,.4,0,.7,0,1.1,0,.2,0,.4,0,.5,0,0,0,0,0,0h0c0,.2,0,.4,0,.7-.5,3.3-1.2,6.5-2.2,9.4-14.8,43.8-83.7,45.6-83.7,45.6h0c-16.4,0-33.5,0-50.5,0v-39.6s30.4-8.8,41.1-15.1c11.6-6.7,20.5-19.3,34.8-23.2,14.6-3.9,23.9,2.4,35.8,6.9,11.9,4.5,22.8-5,22.8-5,.8,2.7,1.4,5.4,1.7,7.9,0,.1,0,.2,0,.4,0,.3,0,.7.1,1,0,.3,0,.7,0,1,0,.6.1,1.3.2,1.9,0,.6,0,1.2,0,1.7h0c0,1.8,0,3.3,0,4.7Z"/>
  <path class="cls-3" d="M396.1,328.8h0c0,.4,0,.7,0,1.1,0,.2,0,.4,0,.5,0,0,0,0,0,0h0c0,.2,0,.4,0,.7-.4,2.9-1.4,6.4-2.2,9.4-14.8,43.8-83.7,45.6-83.7,45.6h0c-16.4,0-33.5,0-50.5,0v-15.8c39.1-.6,36.4-17.3,36.4-17.3,6,4.4,6,13.4,6,13.4,67.8,0,88.2-27.4,93.8-48.3,0,.1,0,.2,0,.4,0,.3,0,.7.1,1,0,.3,0,.7,0,1,0,.6.1,1.3.2,1.9,0,.6,0,1.2,0,1.7h0c0,1.8,0,3.3,0,4.7Z"/>
  <path class="cls-9" d="M110.6,336.6c-18.7,7.9-22.9,43.2-43.6,36.9-4.3-1.3-7.1-3.6-8.8-6.6-4.5-7.7-1.6-19.6,1.8-28.5,2.6-6.9,5.5-12,5.5-12l45.2,10.1Z"/>
  <path class="cls-3" d="M110.6,336.6c-18.7,7.9-22.9,43.2-43.6,36.9-4.3-1.3-7.1-3.6-8.8-6.6,1.7.5,3.6.6,5.4.3,4-.7,7.6-3.1,10.3-6.2,0,0,0,0,0,0,4.4-4.9,2.9-12.7-2.9-15.9-3.8-2.1-7.6-4.2-11.1-6.7,2.6-6.9,5.5-12,5.5-12l45.2,10.1Z"/>
  <path class="cls-7" d="M292.4,193.4l11.2,11c-15.4-7.6-36.1,4.9-49.8,7h0c-1.2.2-2.3.3-3.4.3-11.6,0-19.4-9.4-17.2-19.1.5-2.1,1.4-4.2,2.8-6.2h0c.5-.7,1-1.3,1.6-2,11.8-13.2,34.5-11,34.5-11l20.4,20Z"/>
  <path class="cls-1" d="M314.2,214.7l-.8-.8-9.8-9.6c3.9,1.9,7.4,5.1,10.4,10.1h0c0,0,.1.2.2.3Z"/>
  <path class="cls-6" d="M271.9,174.7c-2.9,0-5.8.1-8.7.5-2.9.4-5.8.9-8.5,1.7-5.5,1.6-10.7,4.2-14.5,8.2-.9,1-1.8,2-2.5,3.1s-1.3,2.3-1.7,3.5c-.8,2.4-.9,5-.2,7.3.7,2.4,2.1,4.5,4,6.2,1.9,1.7,4.2,2.8,6.8,3.3,5,1.1,10.5-.5,16.2-2.3,5.6-1.8,11.5-3.8,17.8-4.8,3.1-.5,6.4-.7,9.6-.4,3.2.2,6.5.9,9.5,1.9,6.2,2.1,11.7,5.6,16.4,9.7,1.2,1,1.3,2.8.3,4-1,1.2-2.8,1.3-4,.3-4.4-3.7-9.2-6.7-14.5-8.4-5.3-1.7-10.8-2-16.4-1.2-5.6.8-11.1,2.7-16.9,4.5-2.9.9-5.9,1.7-9.1,2.3-1.6.3-3.3.4-4.9.4-1.7,0-3.4-.2-5.1-.6-3.3-.7-6.6-2.3-9.2-4.7-2.6-2.3-4.6-5.4-5.5-8.8-.5-1.7-.6-3.5-.6-5.3,0-1.8.5-3.5,1-5.1,1.2-3.3,3.2-6.1,5.6-8.4,2.4-2.3,5.1-4.1,8-5.5,1.4-.7,2.9-1.3,4.4-1.8,1.5-.5,3-.9,4.5-1.3,3.1-.7,6.1-1.1,9.2-1.2,3.1-.1,6.1-.1,9.3.3.7,0,1.2.7,1.1,1.4,0,.7-.7,1.1-1.3,1.1h0Z"/>
  <path class="cls-7" d="M162.3,173.4s22.7-2.2,34.5,11c10.7,11.9,2,27.3-12.8,27.3s-48-23.7-63.8,3.1l42.2-41.3Z"/>
  <path class="cls-3" d="M120.1,215.1c.2-.2.5-.4.7-.6h0c.2-.2.4-.4.6-.5,10.1-8.1,23.8-11.6,36.4-8.9,6.8,1.5,13.1,4.5,19.9,5.8,1.1.2,2.1.3,3.2.4h0c5.9.5,12.2-.8,16-5.2,2.2-2.5,3.4-5.6,4-8.8.3-1.6.5-3.2.6-4.8-.5-2.1-1.4-4.2-2.8-6.2-.2,4.5-2.2,9-5.9,11.5-5,3.5-11.9,2.8-17.8,1-5.9-1.8-11.6-4.5-17.8-4.5-5.1,0-10.5,1.7-14.9-.9,0,0,0,0-.1,0-3.4-2.1-5-6.4-5.3-10.4,0-.9-.1-1.9,0-2.8-7.3,10.3-13.2,22.1-16.9,35Z"/>
  <path class="cls-6" d="M162.2,171.9c3.2-.4,6.3-.5,9.5-.3,3.2.1,6.3.6,9.4,1.3,3.1.7,6.2,1.8,9.1,3.2,2.9,1.5,5.7,3.4,8.1,5.8,2.4,2.4,4.4,5.4,5.4,8.8,1.1,3.4,1.1,7.3,0,10.8-1.1,3.5-3.4,6.5-6.2,8.8-2.8,2.2-6.2,3.7-9.7,4.2-1.7.3-3.5.4-5.2.3-1.7-.1-3.4-.4-5-.7-3.2-.7-6.2-1.6-9.1-2.6-5.8-1.9-11.5-3.9-17.2-5.2-5.7-1.3-11.4-1.7-16.5-.1-2.5.8-4.8,2.1-6.8,3.8-2,1.8-3.8,3.9-5.2,6.3h0c-.8,1.4-2.6,1.8-3.9,1-1.3-.8-1.7-2.5-1-3.8,1.7-2.8,3.7-5.6,6.2-7.8,2.5-2.3,5.6-4.1,8.9-5.2,3.3-1.1,6.7-1.5,10-1.4,3.3,0,6.5.6,9.6,1.2,6.2,1.4,12.1,3.4,17.8,5.3,2.9.9,5.7,1.8,8.5,2.4,1.4.3,2.8.5,4.1.6,1.3.1,2.6,0,3.9-.2,2.5-.4,5-1.4,6.9-2.9,2-1.5,3.5-3.6,4.3-5.9.8-2.3.8-4.8.2-7.2-.7-2.4-2-4.7-3.9-6.7-1.8-2-4.1-3.7-6.5-5.1-2.4-1.4-5.1-2.5-7.9-3.3-2.8-.8-5.7-1.4-8.6-1.8-2.9-.4-5.9-.6-8.8-.5h0c-.9,0-1.6-.7-1.6-1.5,0-.8.6-1.4,1.3-1.5Z"/>
  <g class="cls-13">
    <path class="cls-6" d="M187.1,389.1c-50,0-89,0-94.1-.3-2.1,0-4.8,0-7.8,0-13,.1-32.5.4-43-10-4.8-4.7-7.2-11.1-7.2-19s3-16.6,8.8-21.5c8.8-7.3,21.4-6.9,26.7-6.4,1.4-3.3,5.2-9.5,14.9-18.5,2.4-2.2,9.7-9.1,62.9-8.1,21.4.4,41.9,1.9,48.4,2.4,19.2-50,56-76.4,106.8-76.4s38,8.7,51.4,25c8.3,10.2,12.5,20.3,13.8,23.7,14.6,6.8,24.3,16.5,28.6,28.7,5.1,14.5,1.4,28.5-1.1,35.2,18.7,1.5,27.3,12.9,27.3,23.5,0,10.6-8.6,21.3-25,21.3-51,0-141.8.3-211.3.3ZM89.3,383.1c1.4,0,2.7,0,3.9,0,12.3.6,217.5.2,305.2,0,13.3,0,19.3-8.1,19.3-15.6,0-8.7-8.1-18-25.8-18s-1.9-.5-2.4-1.3c-.5-.8-.6-1.9-.1-2.8,0-.2,8.6-17.5,2.5-34.7-3.9-11-12.9-19.7-26.6-25.9-.7-.3-1.3-1-1.5-1.7,0-.1-3.9-11.8-13.3-23.2-12.4-15.1-28.2-22.8-46.9-22.8-48.8,0-84.1,25.8-102.2,74.7-.4,1.2-1.6,2-2.9,1.8-38.5-3.4-99.4-5-109.1,4-12.2,11.4-13.8,17.3-14,17.9,0,.8-.4,1.4-1.1,1.9-.6.5-1.5.6-2.3.5-.2,0-15.5-2.7-24.5,4.8-4.5,3.7-6.7,9.5-6.7,17.1s1.8,11.3,5.5,14.9c8.8,8.6,26.9,8.4,38.9,8.3,1.5,0,2.9,0,4.2,0Z"/>
  </g>
  <g class="cls-12">
    <path class="cls-6" d="M287.9,389c-1.6,0-2.8-1.3-2.8-2.8s1.3-2.8,2.8-2.8c99.4,0,104.5-46.6,104.5-47,.1-1.6,1.5-2.7,3.1-2.6,1.6.1,2.7,1.5,2.6,3.1,0,.6-1.3,13.7-15.9,26.7-19.1,16.9-50.8,25.5-94.2,25.5Z"/>
  </g>
  <path class="cls-7" d="M301.9,366.5c0,5.5-2.4,10.4-6.3,14-3.5,3.2-8.3,5.4-13.5,5.7-.6,0-1.1,0-1.7,0h-34v-39.6h34c7.2,0,13.6,3.3,17.5,8.3,0,0,0,0,0,0,.9,1.2,1.7,2.5,2.3,3.8,0,0,0,0,0,0,1,2.3,1.6,4.7,1.7,7.3,0,.3,0,.4,0,.4Z"/>
  <path class="cls-3" d="M301.9,366.5c0,5.5-2.4,10.4-6.3,14-3.5,3.2-8.3,5.4-13.5,5.7-7.5,0-15,0-22.5,0-4.4,0-8.8,0-13.2,0v-16.4c3.3.3,6.9.5,11,.5,41.4,0,38.6-17.3,38.6-17.3.7.5,1.4,1.2,2,1.8,0,0,0,0,0,0,1,1.2,1.8,2.5,2.3,3.8,0,0,0,0,0,0,1.3,3.1,1.6,6.2,1.7,7.3,0,.3,0,.4,0,.4Z"/>
  <g class="cls-11">
    <path class="cls-6" d="M246.3,345.4c11.1-1,22.2-1.2,33.3-1.3.7,0,1.5,0,2.2,0,.4,0,.8,0,1.2,0h1.1c.4.2.8.2,1.1.3l1.1.3,1.1.3,1.1.4c2.9,1,5.7,2.5,8.1,4.5,2.4,2,4.4,4.5,5.8,7.3,1.4,2.8,2.2,6,2.2,9.2,0,3.2-.7,6.4-2.1,9.3-1.4,2.9-3.4,5.4-5.8,7.5-2.4,2-5.2,3.6-8.2,4.6l-1.1.4-1.1.3-1.1.3c-.4,0-.8.1-1.2.2l-1.2.2c-.4,0-.8,0-1.2,0-.8,0-1.6,0-2.2,0-5.5,0-11.1,0-16.6,0-5.5,0-11.1,0-16.6,0-1.6,0-2.8-1.3-2.8-2.9,0-1.5,1.3-2.8,2.8-2.8,5.5,0,11.1,0,16.6,0,5.5,0,11.1,0,16.6,0,.7,0,1.3,0,1.9,0,.3,0,.6,0,.9,0h.9c.3-.2.6-.2.9-.3l.9-.2.9-.2.9-.3c2.3-.8,4.4-1.9,6.2-3.5,3.7-3.1,5.9-7.6,6-12.3,0-4.7-2.2-9.3-5.8-12.5-1.8-1.6-4-2.8-6.3-3.6l-.9-.3-1.8-.4c-.3,0-.6,0-.9-.1h-.9c-.3-.2-.6-.2-.9-.2-.6,0-1.2,0-1.9,0-11.1,0-22.2-.3-33.3-1.3-.7,0-1.2-.7-1.2-1.4,0-.6.6-1.1,1.2-1.2Z"/>
  </g>
  <path class="cls-6" d="M71.9,377.1c-1.8,0-3.6-.3-5.7-.9-5.7-1.7-9.6-5.2-11.6-10.2-6.1-15.2,7.8-39.9,8.4-40.9.8-1.4,2.5-1.8,3.9-1.1,1.4.8,1.8,2.5,1.1,3.9-.1.2-13.1,23.4-8.1,36,1.4,3.4,4,5.7,8,6.9,9.4,2.8,14.5-4.3,22-16.1,5.4-8.4,10.9-17.1,19.7-20.8,1.4-.6,3.1,0,3.7,1.5.6,1.4,0,3.1-1.5,3.7-7.1,3-12.2,10.9-17.1,18.6-6.1,9.5-12.4,19.3-22.8,19.3Z"/>
  <path class="cls-6" d="M350.6,320.2c-1.3,1.2-3.1,1.7-4.8,1.6-4.4-.4-12.5-1.9-10.8-7.8,1.5-5.3,17.6-7.5,20.6-3.4,2.1,2.8-2.2,7.2-5,9.6Z"/>
  <path class="cls-6" d="M363.7,321.4c-.6.2-8.3,8.3-17.4-.9,0,0-6.9,15.5-26.8,2.2,0,0,15.4,15.5,20.1,30.4,0,0,14.9-6.1,17.6-28.4l6.6-3.3Z"/>
  <path class="cls-6" d="M339.5,355.7c-.4,0-.8,0-1.1-.3-.6-.3-1.1-.9-1.3-1.5-4.5-14.1-19.3-29.2-19.5-29.4-.9-.9-1-2.4-.2-3.4s2.3-1.2,3.4-.5c6.4,4.3,11.9,5.8,16.3,4.6,4.8-1.3,6.7-5.5,6.8-5.7.4-.8,1.1-1.3,1.9-1.5s1.7.1,2.3.7c3.8,3.8,7.1,4.2,9.8,3.2l4.2-2.5c.3-.2.6-.4,1-.5,1.2-.3,2.5.3,3,1.5s0,2.5-1.1,3.2h-.1c0,.1-.1.2-.2.2-1.5,1.2-3,2-4.4,2.6l-.8.4c-3.2,22.5-18.5,28.4-19.2,28.7-.3.1-.6.2-.9.2ZM329.2,330.1c4.1,5.3,8.9,12.3,11.7,19.4,3.8-2.3,11-8.5,13.4-22.1-3-.2-5.5-1.5-7.5-3-1.6,2-4.2,4.5-8.2,5.7-2.9.8-6,.8-9.4,0Z"/>
  <path class="cls-10" d="M327.2,331.6s18,0,23.2,11.8c5.3,11.7-1.2,20.2-8.9,18-11.3-3.3-2.7-18.2-14.4-29.8Z"/>
  <path class="cls-6" d="M344,363.9c-1,0-2-.1-3-.4-7.1-2.1-7.9-8-8.6-13.8-.7-5.3-1.5-11.3-6.7-16.5-.6-.6-.8-1.6-.5-2.4.3-.8,1.1-1.4,2-1.4h0c.8,0,19.5.2,25.2,13.1,3.1,6.9,2.7,13.7-.9,17.9-2,2.3-4.6,3.5-7.5,3.5ZM332.2,334.3c3.2,5.1,3.9,10.3,4.5,14.8.8,6,1.3,9,5.5,10.2,2.3.7,4.5,0,6-1.7,2-2.3,3.1-6.9.2-13.3-3-6.7-11-9.1-16.2-10Z"/>
  <path class="cls-9" d="M206.7,258.2v31.1c0,18.3-25.5,55-84.4,55s-84.4-28.7-84.4-55,3.1-21.7,6.6-28.5c5-9.5,11-13.8,11-13.8,2.1-21.2,18.4-56.5,29-59,10.6-2.6,18.4,16.7,18.4,16.7,12-4.2,31.5-1.6,31.5-1.6,0,0,14.8-21,26.6-21s25.1,21,33.5,41h0c7.6,18.1,12.3,35.2,12.3,35.2Z"/>
  <path class="cls-3" d="M206.7,258.2v31.1c0,18.3-25.5,55-84.4,55s-84.4-28.7-84.4-55,3.1-21.7,6.6-28.5c-6.5,24.6,1.9,62.9,60.7,65.7,78.1,3.8,99.7-56.5,89.2-103.4,7.6,18,12.3,35.2,12.3,35.2Z"/>
  <path class="cls-7" d="M181,264.7c0,1,0,2-.1,3,0,1-.2,2-.4,3-.2,1-.4,1.9-.7,2.9-.3,1-.6,1.9-1,2.8-.4.9-.8,1.8-1.3,2.7-.5.9-1,1.7-1.5,2.6-.6.8-1.2,1.6-1.8,2.4s-1.3,1.5-2,2.2c-.7.7-1.4,1.4-2.2,2-.8.6-1.6,1.2-2.4,1.8-.8.6-1.7,1.1-2.6,1.5-.9.5-1.8.9-2.7,1.3-.9.4-1.9.7-2.8,1-1,.3-1.9.5-2.9.7-1,.2-2,.3-3,.4s-2,.1-3,.1-2,0-3-.1-2-.2-3-.4c-1-.2-2-.4-2.9-.7-1-.3-1.9-.6-2.8-1-.9-.4-1.8-.8-2.7-1.3-.9-.5-1.7-1-2.6-1.5-.8-.6-1.6-1.1-2.4-1.8-.8-.6-1.5-1.3-2.2-2s-1.4-1.4-2-2.2-1.2-1.6-1.8-2.4c-.6-.8-1.1-1.7-1.5-2.6-.5-.9-.9-1.8-1.3-2.7-.4-.9-.7-1.9-1-2.8-.3-1-.5-1.9-.7-2.9-.2-1-.3-2-.4-3,0-1-.1-2-.1-3s0-2,.1-3c0-1,.2-2,.4-3,.2-1,.4-1.9.7-2.9.3-1,.6-1.9,1-2.8.4-.9.8-1.8,1.3-2.7.5-.9,1-1.7,1.5-2.6.6-.8,1.1-1.6,1.8-2.4s1.3-1.5,2-2.2,1.4-1.4,2.2-2c.8-.6,1.6-1.2,2.4-1.8.8-.6,1.7-1.1,2.6-1.5.9-.5,1.8-.9,2.7-1.3.9-.4,1.9-.7,2.8-1,1-.3,1.9-.5,2.9-.7,1-.2,2-.3,3-.4s2-.1,3-.1,2,0,3,.1,2,.2,3,.4c1,.2,1.9.4,2.9.7,1,.3,1.9.6,2.8,1,.9.4,1.8.8,2.7,1.3.9.5,1.7,1,2.6,1.5.8.6,1.6,1.2,2.4,1.8.8.6,1.5,1.3,2.2,2,.7.7,1.4,1.4,2,2.2s1.2,1.6,1.8,2.4c.6.8,1.1,1.7,1.5,2.6.5.9.9,1.8,1.3,2.7.4.9.7,1.9,1,2.8.3,1,.5,1.9.7,2.9.2,1,.3,2,.4,3,0,1,.1,2,.1,3Z"/>
  <path class="cls-6" d="M205.1,258.7c-3.7-9.9-7.3-19.8-11.3-29.5-4-9.7-8.4-19.3-13.9-28-1.4-2.2-2.9-4.3-4.4-6.2-1.6-2-3.2-3.8-5-5.4-1.8-1.6-3.7-2.9-5.7-3.7-1-.4-2-.6-3-.7h-.7s-.7,0-.7,0c-.5,0-1,.1-1.5.3-2,.5-4.1,1.7-6.1,3-2,1.4-3.9,3-5.8,4.7-1.8,1.7-3.6,3.6-5.3,5.5-1.7,1.9-3.4,3.9-4.9,5.9h0c-.6.9-1.7,1.3-2.7,1.2h0c-2.5-.3-5.1-.5-7.7-.6-2.6-.1-5.2-.2-7.7-.1-2.6,0-5.1.2-7.6.6-2.5.4-4.9.9-7.2,1.6h0c-1.4.5-3-.2-3.6-1.6-.3-.8-.7-1.7-1.1-2.5-.4-.8-.9-1.7-1.3-2.5-.9-1.6-1.9-3.2-3-4.6-1.1-1.4-2.3-2.7-3.6-3.7-1.3-1-2.7-1.7-3.9-1.9-.6,0-1.3,0-1.9,0-.2,0-.3,0-.4.1-.1,0-.3,0-.4.2-.3.2-.6.3-.9.5-1.3.8-2.6,2.1-3.7,3.4-1.2,1.4-2.3,2.8-3.4,4.4-1.1,1.5-2.1,3.2-3,4.8-3.8,6.6-6.9,13.7-9.5,21-1.3,3.6-2.4,7.3-3.4,11-1,3.7-1.7,7.4-2.1,11.2,0,.8-.5,1.5-1.1,2h0c-.4.3-.9.8-1.4,1.2-.5.4-.9.9-1.4,1.4-.9.9-1.8,1.9-2.6,2.9-1.7,2-3.1,4.3-4.4,6.6-2.5,4.7-4.3,9.7-5.4,15l-.4,2c-.1.7-.3,1.3-.3,2l-.5,4c0,2.7-.3,5.4,0,8,.2,2.6.7,5.2,1.4,7.7.7,2.5,1.6,5,2.8,7.3,2.4,4.7,5.6,9,9.4,12.7l.7.7.7.7,1.5,1.3,1.6,1.3.8.6.8.6,1.6,1.2,1.7,1.1c1.1.8,2.3,1.4,3.5,2.1,9.4,5.3,20,8.4,30.8,10.2,5.4.9,10.9,1.4,16.4,1.7,5.5.2,11,.3,16.5-.1,10.9-.7,21.8-2.9,31.9-6.9,10.1-4,19.5-9.9,27-17.6,1.9-1.9,3.6-4,5.2-6.1,1.6-2.1,3-4.4,4.3-6.7,1.3-2.3,2.3-4.8,3.1-7.2.8-2.5,1.3-5,1.3-7.4h0c0-1.6,1.3-2.9,2.9-2.9,1.6,0,2.8,1.3,2.8,2.9,0,3.2-.6,6.2-1.5,9.1-.9,2.9-2.1,5.6-3.5,8.2-1.4,2.6-3,5.1-4.8,7.4-1.8,2.3-3.7,4.6-5.7,6.7-8.2,8.4-18.2,14.7-29,18.9-10.8,4.3-22.2,6.5-33.6,7.3-5.7.4-11.4.4-17.1.1-5.7-.3-11.4-.8-17.1-1.7-5.7-.9-11.3-2.2-16.8-4-5.5-1.8-10.9-4-15.9-6.9-1.3-.7-2.5-1.4-3.7-2.3l-1.8-1.2-1.8-1.3-.9-.6-.9-.7-1.7-1.4-2.5-2.2-.8-.8c-4.2-4.1-7.8-8.9-10.5-14.2-1.4-2.7-2.4-5.5-3.2-8.3-.8-2.9-1.4-5.8-1.6-8.8-.3-3,0-5.9,0-8.8l.5-4.4c0-.7.2-1.4.3-2.2l.4-2.2c1.2-5.7,3.2-11.3,6-16.5,1.5-2.6,3-5.1,4.9-7.4.9-1.2,1.9-2.3,3-3.4.5-.6,1.1-1.1,1.6-1.6.6-.5,1.1-1,1.9-1.6l-1.2,2c.4-4.1,1.2-8.1,2.2-12,1-3.9,2.2-7.7,3.5-11.5,2.7-7.5,5.9-14.9,10-21.9,1-1.8,2.1-3.5,3.2-5.2,1.1-1.7,2.4-3.4,3.8-5,1.4-1.6,2.9-3.1,5-4.5.5-.3,1.1-.6,1.7-.9.3-.2.6-.3,1-.4.3,0,.7-.2,1-.3,1.3-.3,2.6-.3,3.9-.2,2.6.4,4.9,1.6,6.7,3,1.8,1.4,3.3,3,4.6,4.7,1.3,1.7,2.4,3.4,3.5,5.2.5.9,1,1.8,1.5,2.7.5.9.9,1.8,1.3,2.9l-3.6-1.6c2.8-.9,5.5-1.5,8.3-1.9,2.8-.4,5.5-.6,8.2-.6,2.7,0,5.4,0,8.2.1,2.7.1,5.4.3,8.2.7l-2.7,1.2h0c1.6-2.3,3.3-4.4,5-6.5,1.8-2.1,3.6-4.1,5.6-6,2-1.9,4.1-3.8,6.5-5.4,2.4-1.6,5-3.1,8.1-4,.8-.2,1.6-.3,2.4-.4.4,0,.9,0,1.3,0h1.2c1.6.2,3.2.6,4.7,1.2,3,1.2,5.4,2.9,7.6,4.8,4.4,3.8,7.6,8.4,10.6,13,2.9,4.6,5.4,9.4,7.7,14.3,2.3,4.9,4.4,9.8,6.3,14.8,1.9,5,3.7,10.1,5.2,15.2,1.5,5.1,2.9,10.3,3.9,15.6.2.9-.4,1.8-1.3,1.9-.8.2-1.6-.3-1.9-1h0Z"/>
  <path class="cls-10" d="M144,210.7s12.7-.9,23.5,5.3c0,0-.9-22.3-6.6-23.7-6.1-1.5-16.9,18.4-16.9,18.4Z"/>
  <path class="cls-6" d="M167.5,218.2c-.4,0-.8,0-1.1-.3-10.1-5.8-22.2-5.1-22.3-5-.8,0-1.6-.3-2-1-.4-.7-.5-1.5,0-2.2,2.7-5,12.2-21.3,19.4-19.5,6.6,1.7,8,18.6,8.3,25.7,0,.8-.4,1.6-1.1,2-.3.2-.7.3-1.1.3ZM147.8,208.5c4.1.2,10.7.9,17.3,3.8-.2-2-.5-4.7-.9-7.3-1.6-9.9-3.8-10.6-3.8-10.6-2-.5-7.7,5.9-12.6,14Z"/>
  <path class="cls-6" d="M55.5,249.5c-.3,0-.7,0-1-.2-1.3-.6-1.9-2.1-1.3-3.4,14.7-33.4,47.6-43.4,48.9-43.8,1.4-.4,2.8.4,3.2,1.7.4,1.4-.4,2.8-1.7,3.2-.3,0-32,9.8-45.7,40.9-.4,1-1.4,1.5-2.3,1.5Z"/>
  <path class="cls-10" d="M91.8,209.3s-1.9-12.1-5.6-11.7-12.1,21.3-13.8,25.5c0,0,14.6-11.5,19.4-13.7Z"/>
  <path class="cls-6" d="M72.4,225.2c-.5,0-.9-.1-1.3-.4-.8-.6-1.1-1.6-.7-2.6,10.3-26.4,14.2-26.8,15.6-26.9,5.2-.4,7.3,9.4,8,13.6.2,1-.3,1.9-1.2,2.3-3.7,1.8-15,10.3-19,13.5-.4.3-.9.5-1.4.5ZM86.4,199.8c-1.5,1.2-4.8,7.1-8.9,16.5,3.9-2.9,8.8-6.4,11.9-8.3-.8-3.8-2.1-7.4-3-8.3Z"/>
  <path class="cls-6" d="M104.2,277.6c-1.8,1-4,.9-5.6-.3-2.5-1.8-5.9-4.7-5.5-6.7.6-3.1,15.1-3.1,17.3,0,1.5,2.1-3,5.1-6.2,6.9Z"/>
  <path class="cls-6" d="M112.1,281.7c0,1.2-.1,2.4-.3,3.5-1.1,7.7-5,13.4-9.8,13.4s-.4,0-.6,0c-5.2-.6-9.4-8.1-9.4-17.4,3.1.1,6.7-1.1,9.9-5.5,0,0,2.6,5.8,10.2,6Z"/>
  <path class="cls-10" d="M112.1,281.2c0,10.8-6.5,17.4-12.3,17.4s-.5,0-.8,0c-.4-1.2-.8-2.5-.6-3.8,1.5-12.5,11.2-13.2,13.8-13.6Z"/>
  <path class="cls-6" d="M120.3,281.4c-1.5,1-3.2,1.8-5,2.3-1.8.5-3.8.7-5.9.5s-4.2-1-5.9-2.2c-.9-.6-1.7-1.3-2.4-2.1-.4-.4-.7-.8-1-1.3-.2-.2-.3-.5-.5-.7-.2-.3-.3-.5-.5-.9l5.3.6c-1.2,1.6-2.6,3.1-4.4,4.2-1.8,1.1-3.9,1.9-6.1,2-2.1,0-4.2-.4-5.9-1.3-.9-.4-1.7-.9-2.4-1.5-.8-.6-1.4-1.2-2-2-.3-.4-.3-1,.1-1.3.3-.2.6-.3.9-.1h.1c1.5.6,3.1,1.1,4.5,1.3,1.5.2,2.9.2,4.1-.1,1.2-.3,2.3-.9,3.3-1.7,1-.8,1.9-1.8,2.8-3l5.3.6c0,0,0,.1.1.2,0,.1.1.2.2.4.2.3.4.5.6.7.4.5.8.9,1.3,1.3,1,.8,2.1,1.4,3.4,1.8,1.3.4,2.8.6,4.3.6,1.5,0,3.2-.1,4.8-.3h0c.7,0,1.3.4,1.3,1.1,0,.5-.2.9-.5,1.1Z"/>
  <path class="cls-6" d="M113.2,280.6c.2.3.4.6.4,1,0,.5,0,.4,0,.5v.4s0,.7,0,.7c0,.5,0,1,0,1.4,0,1-.2,1.9-.3,2.9-.3,1.9-.9,3.8-1.7,5.6-.8,1.8-1.9,3.6-3.5,5.1-.8.8-1.8,1.4-2.8,1.9-1.1.5-2.3.7-3.6.7-.6,0-1.2-.2-1.8-.3l-.9-.3-.4-.2-.4-.2-.8-.4-.7-.5c-.5-.3-.8-.7-1.3-1.1-1.5-1.6-2.6-3.4-3.3-5.2-.8-1.8-1.3-3.8-1.5-5.7-.3-1.9-.3-3.8-.1-5.7h0c0-.9.8-1.5,1.6-1.5,1.7,0,3.3-.5,4.7-1.4,1.4-.9,2.6-2.2,3.6-3.7h0s0,0,0,0c.6-.8,1.8-1,2.6-.4.3.2.5.5.6.8,0,0,.1.3.2.5,0,.2.2.4.3.5.2.4.5.7.8,1,.6.6,1.3,1.2,2,1.7.8.4,1.5.8,2.4,1.1.4.2.9.2,1.3.3h.2s.3,0,.3,0c.2,0,.5,0,.7.1.5.1.9.3,1.3.4ZM110.9,282.8c-.1.1-.2.2-.3.3s0,0,0,0c0,0,0,0,0,0h-.2c-.6-.1-1.2-.2-1.7-.3-1.2-.3-2.3-.7-3.3-1.3-1.1-.6-2-1.3-2.9-2.2s-.8-.9-1.2-1.4c-.2-.3-.4-.5-.5-.8-.2-.3-.3-.5-.5-.9l3.3.3h0c-1.3,1.7-2.9,3.3-4.9,4.4-1,.6-2.1,1-3.2,1.2-1.1.3-2.3.3-3.4.3l1.6-1.5c.4,3.4,1.1,6.8,2.5,9.7.7,1.4,1.5,2.8,2.6,3.8,1,1,2.2,1.7,3.3,1.7,1.1,0,2.3-.4,3.4-1.4,1.1-.9,2-2.3,2.7-3.7.7-1.4,1.3-3,1.7-4.6.2-.8.4-1.7.5-2.5l.2-1.3v-.6c0,0,.1-.3.1-.3,0,0,0-.3,0,.1,0,.3.2.5.4.7Z"/>
  <path class="cls-6" d="M128.5,270.9c.5-1.5,1.1-2.7,1.9-4,.8-1.2,1.7-2.4,2.7-3.5,2.1-2.2,4.6-4,7.7-5,3-1,6.3-1.1,9.3-.4,3,.7,5.6,2.1,7.9,3.9.6.5.7,1.4.2,2-.4.5-1.1.7-1.6.4h0c-2.4-1-4.8-1.7-7.2-2-.3,0-.6,0-.9,0-.3,0-.6,0-.9,0h-.9s-.9,0-.9,0c-1.1.2-2.2.4-3.3.8-2.1.8-4.1,2.1-6,3.6-.9.8-1.8,1.6-2.7,2.5-.9.9-1.7,1.9-2.5,2.8h0c-.5.7-1.5.8-2.1.3-.5-.4-.6-1-.4-1.6Z"/>
  <path class="cls-6" d="M59.4,258.7c1.2-.6,2.3-.8,3.5-1,.6,0,1.2-.2,1.8-.2.6,0,1.2,0,1.8,0,2.4.2,4.8.9,7,2,.6.3,1,.6,1.6.9.5.3,1,.7,1.5,1.1.5.4.9.8,1.4,1.2l1.2,1.3c.2.2.4.4.6.7.2.2.3.5.5.7.3.5.7,1,1,1.5.3.5.6,1,.8,1.5.3.5.5,1,.7,1.6.3.8,0,1.6-.8,1.9-.6.2-1.2.1-1.6-.3h-.1c-.8-.9-1.4-1.6-2.1-2.3-.8-.7-1.4-1.4-2.2-2l-1.1-.9c-.4-.3-.8-.5-1.2-.8-.4-.3-.8-.5-1.2-.8-.4-.2-.8-.5-1.2-.7-1.7-.9-3.5-1.5-5.3-1.9-.9-.2-1.9-.4-2.9-.6-1-.2-2-.3-2.9-.4h-.2c-.7-.1-1.2-.8-1.1-1.5,0-.4.4-.8.7-1Z"/>
  <path class="cls-6" d="M170.3,263.2c2.2-1.3,4.7-2.1,7.3-2.5,2.6-.4,5.2-.4,7.8,0,1.3.2,2.6.6,3.8.9.6.2,1.2.5,1.8.7.3.1.6.2.9.4l.9.5c2.3,1.2,4.3,3,5.8,5-2.4-1.1-4.5-2.2-6.8-2.9-1.1-.5-2.3-.7-3.4-1.1-1.2-.2-2.3-.6-3.5-.7-2.3-.4-4.7-.6-7.1-.6-2.4,0-4.9,0-7.4.2Z"/>
  <path class="cls-6" d="M166.2,282.5c2.6-.9,5.4-1.3,8.1-1.3,2.8,0,5.6.3,8.3,1,2.7.7,5.3,1.9,7.6,3.6,2.3,1.7,4.3,3.8,5.4,6.3-2.2-1.7-4.3-3.2-6.6-4.3-2.3-1.2-4.7-2-7.2-2.7-2.5-.7-5.1-1.2-7.7-1.6-2.6-.4-5.3-.7-8-.9Z"/>
  <path class="cls-6" d="M160.9,301.4c2.5-.4,5.1,0,7.5.9,2.4.8,4.7,2.2,6.7,3.7.9.9,1.9,1.7,2.8,2.7.4.5.9.9,1.2,1.4.4.5.7,1,1.1,1.6.4.5.7,1.1,1,1.6.3.6.6,1.1.9,1.7.5,1.2.9,2.3,1.3,3.5-.9-.9-1.7-1.9-2.5-2.8-.4-.4-.8-.9-1.2-1.3l-.6-.7c-.2-.2-.4-.4-.6-.6-.4-.4-.8-.8-1.2-1.3-.4-.4-.9-.8-1.3-1.2-.4-.4-.8-.8-1.3-1.2l-1.3-1.1c-1.8-1.4-3.7-2.8-5.8-3.9s-4.2-2.2-6.5-3Z"/>
  <path class="cls-6" d="M42.3,260.2c-2.6-.2-5-.3-7.4-.2-2.4,0-4.8.2-7.1.6-1.2.1-2.3.5-3.5.7-1.1.4-2.3.6-3.4,1.1-2.3.7-4.4,1.9-6.8,2.9,1.6-2,3.5-3.8,5.8-5l.9-.5c.3-.2.6-.3.9-.4.6-.3,1.2-.5,1.8-.7,1.3-.4,2.5-.8,3.8-.9,2.6-.4,5.2-.4,7.8,0,2.5.4,5.1,1.2,7.3,2.5Z"/>
  <path class="cls-6" d="M46.4,279.6c-2.7.3-5.4.5-8,.9-2.6.4-5.2.9-7.7,1.6-2.5.7-4.9,1.5-7.2,2.7-2.3,1.1-4.5,2.6-6.6,4.3,1.2-2.5,3.1-4.6,5.4-6.3,2.3-1.7,4.9-2.8,7.6-3.6,2.7-.7,5.5-1.1,8.3-1,2.8,0,5.5.4,8.1,1.3Z"/>
  <path class="cls-6" d="M51.7,298.5c-2.4.8-4.5,1.8-6.5,3-2,1.2-3.9,2.5-5.8,3.9l-1.3,1.1c-.5.4-.9.8-1.3,1.2-.4.4-.9.8-1.3,1.2-.4.4-.8.9-1.2,1.3-.2.2-.4.4-.6.6l-.6.7c-.4.4-.8.9-1.2,1.3-.8.9-1.6,1.9-2.5,2.8.3-1.2.8-2.4,1.2-3.5.3-.6.6-1.1.9-1.7.3-.6.6-1.1,1-1.6.4-.5.7-1,1.1-1.6.4-.5.8-1,1.2-1.5.8-1,1.8-1.8,2.8-2.6,2-1.6,4.3-2.9,6.7-3.7,2.4-.8,5-1.3,7.5-.9Z"/>
  <path class="cls-9" d="M209.6,330.2c-11.6,12.9-13.8,43.9-37.5,39.8-11.7-2-14.5-11.7-13.9-22.1.2-3.1.7-6.3,1.4-9.4,2.3-10.7,6.7-20.1,6.7-20.1l8.9,2.4,11.1,3,23.3,6.3Z"/>
  <path class="cls-3" d="M186.3,323.9l-11.1-3-8.9-2.4s-4.3,9.3-6.7,20.1c4.6-1.6,8.8-3.4,12.6-5.4,3.1-1.6,6.8-.8,9.1,1.8.8.9,1.6,1.7,2.4,2.4,3.9,3.4,5.2,8.9,2.9,13.5-.3.5-.6,1-.9,1.5-2.2,3.2-5.3,5.9-9.1,6.8-4.7,1.1-9.7-.8-13.2-4-2.2-2-3.9-4.5-5.2-7.2-.7,10.4,2.1,20.1,13.9,22.1,23.7,4.1,25.9-27,37.5-39.8l-23.3-6.3Z"/>
  <path class="cls-6" d="M167.7,319.2c-1.3,4.7-2.7,9.4-3.9,14-1.3,4.6-2.3,9.4-2.6,14-.2,2.3-.2,4.6,0,6.9.3,2.2.8,4.3,1.7,6.2.9,1.8,2.1,3.3,3.7,4.5,1.6,1.1,3.5,1.8,5.6,2.2,2.2.4,4.3.5,6.3.2,2-.3,3.9-1,5.7-2.2,3.5-2.3,6.2-6.1,8.5-10.2,2.3-4.1,4.3-8.6,6.5-13.2,2.2-4.5,4.5-9.2,8.2-13.3,1.1-1.2,2.9-1.3,4-.2,1.1,1,1.3,2.8.2,4h0c-1.4,1.7-2.7,3.6-3.8,5.7s-2.2,4.2-3.2,6.4c-2.1,4.4-4,9.1-6.5,13.6-1.3,2.3-2.7,4.5-4.4,6.6-1.7,2.1-3.7,4.1-6.1,5.7-2.4,1.6-5.2,2.7-8.1,3.1-2.9.4-5.7.3-8.4-.2-2.8-.5-5.6-1.5-8-3.3-2.5-1.7-4.4-4.2-5.7-6.8-1.3-2.7-1.9-5.4-2.1-8.1-.3-2.7-.2-5.4,0-8,.5-5.2,1.6-10.2,3.1-15.1.4-1.2.8-2.4,1.3-3.6.4-1.2.9-2.4,1.4-3.5,1.1-2.3,2.2-4.6,3.6-6.7.5-.7,1.5-.9,2.2-.5.6.4.8,1.1.7,1.8h0Z"/>
  <path class="cls-2" d="M273.5,258.7s-32.4-25.7-64.7,9.5c-27.8,30.3-28.2,65.7-2.1,69.5,26.1,3.8,38.8-45.2,58.1-56,0,0,22.4-6.5,8.7-23Z"/>
  <path class="cls-8" d="M268.1,255.7c-9.4-6.6-22.1-7.4-33.1-4-11,3.5-20.4,10.8-28,19.4-6.7,7.5-12.3,16-15.2,25.6-3,9.5-3.2,20.1.5,29.4-.9-19.8,7-39.6,21.8-52.8,14.8-13.2,34.5-20.7,54.1-17.6Z"/>
  <path class="cls-3" d="M268.6,280.2c-2.2,1-3.8,1.5-3.8,1.5-19.3,10.8-32,59.8-58.1,56-13.2-1.9-19.6-11.9-19.1-25.3,3.3,4.1,7.9,7.3,13.7,9.5,27.5,10.3,40.9-35.4,61.3-41.3,0,0,2.9.2,6.1-.4Z"/>
  <path class="cls-3" d="M277.1,272.7c-.2,4.9-4.5,6.8-8.4,7.6,2.9-1.4,6.7-3.9,8.4-7.6Z"/>
  <path class="cls-6" d="M272.5,260c-1-.5-2.1-1.1-3.2-1.6-1.1-.5-2.2-1-3.3-1.4-1.1-.5-2.2-.8-3.4-1.2s-2.3-.7-3.4-1c-4.6-1.2-9.2-1.9-13.9-1.8-9.3.2-18.3,4-25.7,9.9-.9.8-1.8,1.5-2.7,2.3l-2.6,2.4-2.5,2.6c-.8.9-1.6,1.8-2.4,2.7-3.2,3.7-6.1,7.6-8.6,11.7-2.5,4.1-4.7,8.4-6.4,12.9-.4,1.1-.8,2.3-1.2,3.4l-.5,1.7-.2.8-.2.9c-.6,2.3-.9,4.6-1.1,6.9-.2,2.3-.1,4.6.2,6.8.3,2.2.8,4.3,1.7,6.3.9,1.9,2.1,3.7,3.5,5.1,1.5,1.4,3.2,2.6,5.2,3.5l1.5.6,1.6.4c.5.2,1.1.2,1.6.3.3,0,.5.1.8.2h.8c1,.2,2.1.1,3.1,0l1.5-.2c.5,0,1-.3,1.5-.4,2-.6,4-1.6,5.8-2.8,1.8-1.3,3.6-2.8,5.3-4.5,3.3-3.4,6.3-7.2,9.2-11.3,2.8-4,5.5-8.3,8.3-12.5,1.4-2.1,2.8-4.2,4.3-6.3,1.5-2.1,3-4.1,4.7-6.1.8-1,1.7-2,2.6-2.9.9-.9,1.9-1.8,2.9-2.7,2-1.7,4.2-3.3,6.7-4.4.8-.3,1.7,0,2,.8.3.7,0,1.4-.5,1.8h0c-1.9,1.5-3.6,3.1-5.1,4.9-1.6,1.8-3,3.7-4.4,5.7s-2.8,4-4.1,6.1c-1.4,2.1-2.7,4.2-4,6.3-2.7,4.2-5.4,8.5-8.2,12.8-2.9,4.2-6,8.4-9.7,12.3-1.9,1.9-3.9,3.7-6.2,5.3-2.3,1.6-4.8,2.9-7.6,3.8-.7.2-1.4.4-2.1.6l-2.2.4c-.7,0-1.5,0-2.2.1h-.6s-.6,0-.6,0h-1.1c0,0-1.1-.2-1.1-.2-.4,0-.7-.1-1-.2-.7-.1-1.4-.2-2.1-.4l-2.1-.6c-.7-.2-1.3-.5-2-.8-2.7-1.1-5.2-2.7-7.3-4.8-2.1-2.1-3.8-4.5-5-7.2-1.2-2.6-2-5.4-2.3-8.2-.4-2.8-.5-5.5-.3-8.3.2-2.7.6-5.4,1.3-8l.2-1,.8-2.9c.4-1.3.8-2.5,1.3-3.8,1.9-5,4.2-9.7,7-14.1,2.8-4.4,5.9-8.6,9.3-12.6.9-1,1.7-1.9,2.6-2.9l2.8-2.8,2.9-2.7c1-.9,2-1.7,3.1-2.5,4.2-3.2,8.8-6,13.9-8l1.9-.7c.6-.2,1.3-.4,1.9-.6,1.3-.4,2.6-.7,3.9-1,2.7-.5,5.4-.8,8.1-.8,5.4-.1,10.8.9,15.8,2.7,1.3.5,2.5,1,3.7,1.6,1.2.6,2.4,1.2,3.5,1.9,2.3,1.4,4.4,2.9,6.4,4.8.6.6.6,1.7,0,2.3-.5.5-1.3.6-1.9.3h-.1Z"/>
  <path class="cls-3" d="M314.8,215.1c-.2-.2-.5-.4-.8-.6h0c-.2-.2-.4-.4-.6-.5-10.1-8.1-23.8-11.6-36.4-8.9-6.8,1.5-13.1,4.5-19.9,5.8-1.1.2-2.1.3-3.2.4h0c-5.9.5-12.2-.8-16-5.2-2.2-2.5-3.4-5.6-4-8.8-.3-1.6-.5-3.2-.6-4.8.5-2.1,1.4-4.2,2.8-6.2.2,4.5,2.2,9,5.9,11.5,5,3.5,11.9,2.8,17.8,1,5.9-1.8,11.6-4.5,17.8-4.5,5.1,0,10.5,1.7,14.9-.9,0,0,0,0,.1,0,3.4-2.1,5-6.4,5.3-10.4,0-.9.1-1.9,0-2.8,7.3,10.3,13.2,22.1,16.9,35Z"/>
  <path class="cls-3" d="M126.4,215.7s0,0,0,0c-10.7,8.7-19.1,18.9-24.4,30.2,5.3-11.2,13.6-21.5,24.3-30.2Z"/>
  <path class="cls-9" d="M224.8,96.7c0,.2-.1.4-.4.5-.3.2-.7.3-1.3.5-.6.1-1.2.2-1.9.3-.7,0-1.5.1-2.3.1s-1.5,0-2.3-.1c-.7,0-1.4-.2-1.9-.3-.6-.1-1-.3-1.3-.5-.3-.2-.4-.4-.4-.5s.2-.4.4-.5c.3-.2.7-.3,1.3-.5.6-.1,1.2-.2,1.9-.3.7,0,1.5-.1,2.3-.1s1.5,0,2.3.1c.7,0,1.4.2,1.9.3.6.1,1,.3,1.3.5.3.2.4.4.4.5Z"/>
  <path class="cls-9" d="M351.3,311c0,.2,0,.4-.4.6-.3.2-.7.4-1.2.7-.5.2-1.1.4-1.8.6-.7.2-1.4.3-2.2.5-.8.1-1.5.2-2.2.3-.7,0-1.4,0-1.9,0-.6,0-1-.1-1.3-.3-.3-.1-.5-.3-.5-.5,0-.2,0-.4.4-.6.3-.2.7-.4,1.2-.7.5-.2,1.1-.4,1.8-.6.7-.2,1.4-.3,2.2-.5.8-.1,1.5-.2,2.2-.3.7,0,1.4,0,1.9,0,.6,0,1,.1,1.3.3.3.1.5.3.5.5Z"/>
  <path class="cls-6" d="M183.4,74.9c-5.9-1-11.3,5.6-12.2,14.6-.9,9.1,3.2,17.3,9,18.2s11.3-5.6,12.2-14.6c.9-9.1-3.2-17.3-9-18.2Z"/>
  <path class="cls-9" d="M183,78.7c-1.9.7-2.7,3.8-1.8,6.8.9,3.1,3.1,4.9,4.9,4.2s2.7-3.8,1.8-6.8c-.9-3-3.1-4.9-4.9-4.2Z"/>
  <path class="cls-4" d="M176.5,97.9c-.9.7-1,2.4-.3,3.8.7,1.5,2.1,2.1,3,1.5.9-.6,1-2.4.3-3.8-.7-1.5-2.1-2.1-3-1.5Z"/>
  <path class="cls-6" d="M253.5,74.9c5.9-1,11.3,5.6,12.2,14.6.9,9.1-3.2,17.3-9,18.2-5.9,1-11.3-5.6-12.2-14.6s3.2-17.3,9-18.2Z"/>
  <path class="cls-9" d="M253.9,78.7c1.9.7,2.7,3.8,1.8,6.8-.9,3.1-3.1,4.9-4.9,4.2s-2.7-3.8-1.8-6.8c.9-3,3.1-4.9,4.9-4.2Z"/>
  <path class="cls-4" d="M260.4,97.9c.9.7,1,2.4.3,3.8-.7,1.5-2.1,2.1-3,1.5-.9-.6-1-2.4-.3-3.8.7-1.5,2.1-2.1,3-1.5Z"/>
  <path class="cls-6" d="M352.6,285c3.9-1,8.1,3.1,9.3,9.2,1.2,6.1-1.1,12-5,13-3.9,1.1-8.1-3.1-9.3-9.2-1.2-6.2,1.1-12,5-13Z"/>
  <path class="cls-9" d="M353.1,287.5c1.3.4,2.1,2.4,1.7,4.6-.4,2.1-1.8,3.6-3.1,3.2-1.3-.4-2.1-2.4-1.7-4.6.4-2.1,1.8-3.6,3.1-3.2Z"/>
  <path class="cls-4" d="M358.8,300.3c.7.4.8,1.5.4,2.6-.4,1-1.3,1.6-1.9,1.2-.6-.4-.8-1.5-.4-2.6.4-1,1.3-1.6,1.9-1.2Z"/>
  <path class="cls-6" d="M304,293.2c-5.5-.4-9.9,6.2-9.8,14.6s4.5,15.6,10,15.9c5.5.4,9.9-6.2,9.8-14.6,0-8.4-4.5-15.6-10-15.9Z"/>
  <path class="cls-9" d="M304,296.8c-1.7.8-2.1,3.7-1.1,6.5,1.1,2.7,3.3,4.2,4.9,3.4,1.7-.8,2.1-3.7,1.1-6.5-1.1-2.7-3.3-4.3-4.9-3.4Z"/>
  <path class="cls-4" d="M299.9,315.1c-.8.7-.7,2.3.1,3.5.8,1.3,2.1,1.7,2.8,1.1.8-.7.7-2.3-.1-3.5-.8-1.3-2.1-1.7-2.9-1.1Z"/>
</svg>