<?xml version="1.0" encoding="UTF-8"?>
<svg id="Camada_1" data-name="Camada 1" xmlns="http://www.w3.org/2000/svg" version="1.1" xmlns:xlink="http://www.w3.org/1999/xlink" viewBox="0 0 1285.6 768">
  <defs>
    <style>
      .cls-1 {
        fill: #e29696;
      }

      .cls-1, .cls-2, .cls-3, .cls-4, .cls-5, .cls-6, .cls-7, .cls-8, .cls-9, .cls-10, .cls-11, .cls-12, .cls-13, .cls-14, .cls-15, .cls-16, .cls-17, .cls-18, .cls-19, .cls-20, .cls-21, .cls-22, .cls-23, .cls-24, .cls-25, .cls-26, .cls-27, .cls-28, .cls-29, .cls-30, .cls-31, .cls-32, .cls-33, .cls-34, .cls-35, .cls-36, .cls-37, .cls-38, .cls-39, .cls-40, .cls-41, .cls-42, .cls-43, .cls-44, .cls-45, .cls-46, .cls-47, .cls-48, .cls-49, .cls-50, .cls-51, .cls-52, .cls-53, .cls-54, .cls-55, .cls-56, .cls-57, .cls-58, .cls-59, .cls-60, .cls-61, .cls-62, .cls-63, .cls-64, .cls-65, .cls-66, .cls-67, .cls-68, .cls-69, .cls-70, .cls-71, .cls-72, .cls-73, .cls-74, .cls-75, .cls-76, .cls-77, .cls-78, .cls-79, .cls-80, .cls-81, .cls-82, .cls-83, .cls-84, .cls-85, .cls-86, .cls-87, .cls-88, .cls-89, .cls-90, .cls-91, .cls-92, .cls-93, .cls-94, .cls-95, .cls-96, .cls-97, .cls-98, .cls-99, .cls-100, .cls-101, .cls-102, .cls-103, .cls-104, .cls-105, .cls-106, .cls-107, .cls-108, .cls-109, .cls-110, .cls-111, .cls-112, .cls-113, .cls-114, .cls-115, .cls-116, .cls-117, .cls-118, .cls-119, .cls-120, .cls-121, .cls-122, .cls-123, .cls-124, .cls-125, .cls-126, .cls-127, .cls-128, .cls-129, .cls-130, .cls-131, .cls-132, .cls-133, .cls-134, .cls-135, .cls-136, .cls-137, .cls-138, .cls-139, .cls-140, .cls-141, .cls-142, .cls-143, .cls-144, .cls-145, .cls-146, .cls-147, .cls-148, .cls-149, .cls-150, .cls-151, .cls-152, .cls-153, .cls-154, .cls-155 {
        stroke-width: 0px;
      }

      .cls-2 {
        fill: #a0afc7;
      }

      .cls-3 {
        fill: #9eb5d4;
      }

      .cls-4 {
        fill: #875343;
      }

      .cls-5 {
        fill: #5c5859;
      }

      .cls-6 {
        fill: #8e6b6f;
      }

      .cls-7 {
        fill: #444429;
      }

      .cls-8 {
        fill: #d49c7c;
      }

      .cls-9 {
        fill: #b2b29a;
      }

      .cls-10 {
        fill: #51463b;
      }

      .cls-11 {
        fill: #f3d2c1;
      }

      .cls-12 {
        fill: #dd5d5b;
      }

      .cls-13 {
        fill: #000;
      }

      .cls-14 {
        fill: #9e9899;
      }

      .cls-15 {
        fill: #f4c6af;
      }

      .cls-16 {
        fill: #55573a;
      }

      .cls-17 {
        fill: #ce8444;
      }

      .cls-18 {
        fill: #4c494a;
      }

      .cls-19 {
        fill: #9f868a;
      }

      .cls-20 {
        fill: #e0e0e0;
      }

      .cls-21 {
        fill: #dcdfad;
      }

      .cls-22 {
        fill: #3a3938;
      }

      .cls-23 {
        fill: #737373;
      }

      .cls-24 {
        fill: #938a85;
      }

      .cls-25 {
        fill: #ffc7a0;
      }

      .cls-26 {
        fill: #ffb68b;
      }

      .cls-27 {
        fill: #544f50;
      }

      .cls-28 {
        fill: #818181;
      }

      .cls-29 {
        fill: #b9b9b9;
      }

      .cls-30 {
        fill: #b0ae89;
      }

      .cls-156 {
        clip-path: url(#clippath-2);
      }

      .cls-31 {
        fill: #e7dbd0;
      }

      .cls-32 {
        fill: #b8ca8d;
      }

      .cls-33 {
        fill: #fdece3;
      }

      .cls-34 {
        fill: #b4b4b4;
      }

      .cls-35 {
        fill: #bfb9b2;
      }

      .cls-36 {
        fill: #8f574d;
      }

      .cls-37 {
        fill: #646174;
      }

      .cls-38 {
        fill: silver;
      }

      .cls-39 {
        fill: #fff7ee;
      }

      .cls-40 {
        fill: #262633;
      }

      .cls-41 {
        fill: #c77c6d;
      }

      .cls-42 {
        fill: #e67270;
      }

      .cls-43 {
        fill: #b3baaa;
      }

      .cls-44 {
        fill: #e6a989;
      }

      .cls-45 {
        fill: #864636;
      }

      .cls-46 {
        fill: #e5a694;
      }

      .cls-47 {
        fill: #ba7842;
      }

      .cls-48 {
        fill: #d3c5be;
      }

      .cls-49 {
        fill: #d34637;
      }

      .cls-50 {
        fill: #bec8b2;
      }

      .cls-51 {
        fill: #615d42;
      }

      .cls-52 {
        fill: #2d2f3b;
      }

      .cls-53 {
        fill: #383736;
      }

      .cls-54 {
        fill: none;
      }

      .cls-55 {
        fill: #595d41;
      }

      .cls-56 {
        fill: #303030;
      }

      .cls-57 {
        fill: #b2b2b2;
      }

      .cls-58 {
        fill: #757574;
      }

      .cls-59 {
        fill: #fdece6;
      }

      .cls-60 {
        fill: #514538;
      }

      .cls-61 {
        fill: #575757;
      }

      .cls-62 {
        fill: #707c60;
      }

      .cls-157 {
        clip-path: url(#clippath-1);
      }

      .cls-63 {
        fill: #d98581;
      }

      .cls-64 {
        fill: #6e6e6e;
      }

      .cls-65 {
        fill: #495639;
      }

      .cls-66 {
        fill: #e3e3e3;
      }

      .cls-67 {
        fill: #7e9166;
      }

      .cls-68 {
        fill: #a48488;
      }

      .cls-69 {
        fill: #4f5a40;
      }

      .cls-70 {
        fill: #0f0f0f;
      }

      .cls-71 {
        fill: #777487;
      }

      .cls-72 {
        fill: #645960;
      }

      .cls-73 {
        fill: #657251;
      }

      .cls-74 {
        fill: #996554;
      }

      .cls-75 {
        fill: #f3c8bd;
      }

      .cls-76 {
        fill: #e0d6d8;
      }

      .cls-77 {
        fill: #fae4c7;
      }

      .cls-78 {
        fill: #e9a29a;
      }

      .cls-79 {
        fill: #475336;
      }

      .cls-80 {
        fill: #e9e5e6;
      }

      .cls-81 {
        fill: #343844;
      }

      .cls-82 {
        fill: #d4d1d1;
      }

      .cls-83 {
        fill: #ba9da1;
      }

      .cls-84 {
        fill: #b5c09b;
      }

      .cls-85 {
        fill: #a89286;
      }

      .cls-86 {
        fill: #b6b3b3;
      }

      .cls-87 {
        fill: #dddfb5;
      }

      .cls-88 {
        fill: #fdf4e7;
      }

      .cls-89 {
        fill: #7e7b8f;
      }

      .cls-90 {
        fill: #dba55d;
      }

      .cls-91 {
        fill: #eab8a7;
      }

      .cls-92 {
        fill: #e9ac9e;
      }

      .cls-93 {
        fill: #575467;
      }

      .cls-94 {
        fill: #fad9c7;
      }

      .cls-95 {
        fill: #ebb89b;
      }

      .cls-96 {
        fill: #454142;
      }

      .cls-97 {
        fill: #232931;
      }

      .cls-98 {
        fill: #96848c;
      }

      .cls-99 {
        fill: #687656;
      }

      .cls-100 {
        fill: #b5a192;
      }

      .cls-101 {
        fill: #9eb185;
      }

      .cls-102 {
        fill: #b19797;
      }

      .cls-103 {
        fill: #7e7772;
      }

      .cls-104 {
        fill: #925341;
      }

      .cls-158 {
        clip-path: url(#clippath);
      }

      .cls-105 {
        fill: #2a2f45;
      }

      .cls-106 {
        fill: #383838;
      }

      .cls-107 {
        fill: #262626;
      }

      .cls-108 {
        fill: #a3a3a3;
      }

      .cls-109 {
        fill: #dda262;
      }

      .cls-110 {
        fill: #636141;
      }

      .cls-111 {
        fill: #e3d8c9;
      }

      .cls-112 {
        fill: #fdf5ea;
      }

      .cls-159 {
        clip-path: url(#clippath-3);
      }

      .cls-113 {
        fill: #ffe3c7;
      }

      .cls-114 {
        fill: #9794a7;
      }

      .cls-115 {
        fill: #fceedc;
      }

      .cls-116 {
        fill: #f7c9b1;
      }

      .cls-117 {
        fill: #afc3dd;
      }

      .cls-118 {
        fill: #bfbfbf;
      }

      .cls-119 {
        fill: #e4ceb9;
      }

      .cls-120 {
        fill: #bf9a80;
      }

      .cls-121 {
        fill: #eddbd1;
      }

      .cls-122 {
        fill: #bebbb6;
      }

      .cls-123 {
        fill: #e8ad92;
      }

      .cls-124 {
        fill: #ffefde;
      }

      .cls-125 {
        fill: #4d443a;
      }

      .cls-126 {
        fill: #fff;
      }

      .cls-127 {
        fill: #fff2e4;
      }

      .cls-128 {
        fill: #887f7a;
      }

      .cls-129 {
        fill: #3f442b;
      }

      .cls-130 {
        fill: #bbca98;
      }

      .cls-131 {
        fill: #52483e;
      }

      .cls-132 {
        fill: #202020;
      }

      .cls-133 {
        fill: #955c4a;
      }

      .cls-134 {
        fill: #e29b98;
      }

      .cls-135 {
        fill: #5e5e5e;
      }

      .cls-136 {
        fill: #f4e62f;
      }

      .cls-137 {
        fill: #313341;
      }

      .cls-138 {
        fill: #d9d1c6;
      }

      .cls-139 {
        fill: #0f0e0e;
      }

      .cls-140 {
        fill: #32384a;
      }

      .cls-141 {
        fill: #77380e;
      }

      .cls-142 {
        fill: #d4bba5;
      }

      .cls-143 {
        fill: #4d4e38;
      }

      .cls-144 {
        fill: #393536;
      }

      .cls-145 {
        fill: #b8b5b0;
      }

      .cls-146 {
        fill: #eecaa4;
      }

      .cls-147 {
        fill: #fbe9d1;
      }

      .cls-148 {
        fill: #d66950;
      }

      .cls-149 {
        fill: #ffe2cf;
      }

      .cls-150 {
        fill: #8f8d8d;
      }

      .cls-151 {
        fill: #435134;
      }

      .cls-152 {
        fill: #0a0a0a;
      }

      .cls-153 {
        fill: #646463;
      }

      .cls-154 {
        fill: #f0cabe;
      }

      .cls-155 {
        fill: #b28083;
      }
    </style>
    <clipPath id="clippath">
      <rect class="cls-54" x="11.8" y="687.9" width="5.9" height="5.3"/>
    </clipPath>
    <clipPath id="clippath-1">
      <rect class="cls-54" x="15.1" y="41.2" width="313.5" height="652"/>
    </clipPath>
    <clipPath id="clippath-2">
      <rect class="cls-54" x="1234.9" y="352" width="33.3" height="253.3"/>
    </clipPath>
    <clipPath id="clippath-3">
      <rect class="cls-54" x="956" y="701.6" width="83.8" height="25.2"/>
    </clipPath>
  </defs>
  <path class="cls-131" d="M593.9,690.8h573.9v-344.4h-573.9v344.4Z"/>
  <path class="cls-118" d="M604.8,681.5h550.4v-338.1h-550.4v338.1Z"/>
  <path class="cls-29" d="M1155.2,662.9c-9-19-29-60.6-43.8-88.2v-109.5c2.4-9.1,4.3-17.8,5.2-25.6,1.2-.3,2.4-.7,3.6-1.1,0,0,11.4-44.7,9.2-88l25.5-.9.2,313.3"/>
  <path class="cls-57" d="M1117.9,681.5h-37.7v-12.6h28.6c3.2,4.9,6.3,9.2,9.1,12.6M1075.5,681.5h-29.2c.5-3.9,1.1-8.2,1.7-12.6h27.6s0,12.6,0,12.6M999.2,681.5h-394.4v-32.9l52.2-.2c.2.2.5.4.9.5.3.2.4.3.4.3,0,0,0,0,0-.2h.4c.7,0,1.8-.2,3.1-.6h34.4c-13.4,4-27,3.6-33.7,7.8-11.2,7-21.5,1.3-22.7,13.6-.1.3-.1.5,0,.6-.2,2.5,7.1,3.3,16,3.3,14.3,0,33.1-2,33.1-2,0,0,62.1-.7,69.3-10.2l7.1-9.5,8.3-3.2,2.2-.9h4.6c-.6,3.3-1.6,10,1.1,11.1.9.4,1.8.5,2.7.5,7,0,13.6-10,14.6-11.7h.3c.7,1.1,4,5.6,7,5.6s1.6-.3,2.3-1.1c.8-.9,2-2.5,3.5-4.5h19.2c1.1,2.9,2.3,5.1,3.4,5.8,4,2.4-48,9.4-49.8,16.8-.4,1.6,2.5,2.5,7.5,2.9.7,0,1.3,0,1.4,0,1.3,0,2.8,0,4.3,0,27.8,0,89.9-9.9,90.8-17.5.2-1.7-.9-4.6-2-8.4l60.9-.2c-.8.5-1.5.9-2.2,1.4-7.1,4.9-9.2,20.1-9.2,20.1h59.4s0,9.4,0,9.4h4.1c-.2,1.1-.4,2.1-.6,3.1M1000.5,675.5v-6.6h1.3c-.4,2.2-.9,4.4-1.3,6.6"/>
  <path class="cls-131" d="M513.1,349.6h700V85h-700v264.6Z"/>
  <path class="cls-88" d="M525.1,338.6h677.1V97.5h-677.1v241.1Z"/>
  <path class="cls-10" d="M828.4,97.5h-303.4l303.4-.5v.5"/>
  <path class="cls-115" d="M817.5,306.9c-3.9-4.9-8.6-9.4-14-13.3V122.6h-253.3l-25.1-25h303.4v209.4h-11"/>
  <path class="cls-60" d="M1203.7,338.6h-20.5,18.9v-1.2l1.6,1.2"/>
  <path class="cls-147" d="M1202.2,338.6h-18.9s-9.9-15.8-27.6-32.1h7.4s39.1,30.9,39.1,30.9v1.2M867.5,338.6h-38.5c0-.1,0-.1,0-.1h0v-.2h0s0,0,0-.1h0v-.2h0c0,0,0-.2,0-.2h0c0-.2,0-.2,0-.2h0c0-.1,0-.1,0-.1h0v-.2h0c0,0,0,0,0-.1h0v-.2s0,0,0,0h0v-.2s0,0,0,0h0c0,0,0,0,0,0h0c0-.2,0-.2,0-.2h0v-.2s0,0,0,0h0c0-1.4-.2-2.8-.5-4.2v-25h46.4c-5.5,12.7-7.3,31.7-7.3,31.7M642.3,338.6h-81.5c-.4-.8-1-1.3-1.8-1.4,0,0-.2-.2-.3-.3,12.6-4.7,50.9-19.4,43.1-20.2-.6,0-1.4-.1-2.1-.1-12.6,0-37.4,9.2-48.8,13.7-3.4-2.4-7.5-4.7-11.9-6.1l14.6-16.9h91.9c-5.4,3.7-14.2,10.7-13.9,15.1.4,5.2,3.8,5.6,4.9,5.6s.4,0,.4,0c-2.7,2.4-2.5,4,5.9,4.7-.2,1.9-.4,3.8-.4,5.7h0c0,0,0,0,0,0h0"/>
  <path class="cls-77" d="M828.4,331.9c-1.4-9.2-5.2-17.6-11-25h11s0,25,0,25"/>
  <path class="cls-10" d="M1203.7,337l-1.6-1.2V97.5h-358.1l-1.6-1.6h359.7l1.6,241.1"/>
  <path class="cls-115" d="M1202.2,335.9l-39.1-29.4V117.8l-86-.2v-20.1h-4.7v20.1l-208.7-.6-19.6-19.5h358.1v238.3"/>
  <path class="cls-42" d="M1141.2,668.8h-204.9c0,0,2.1-15.2,9.2-20,33.8-23,141.8-22.1,179.3-4.4,12.2,5.7,16.4,24.4,16.4,24.4"/>
  <path class="cls-80" d="M611,721.7c-249.6,0-495.8-7.2-595.5-30.8h310.9v-1l267.4-.2v1.2h403.4c-1.4,6.6-2.4,11-2.4,11h48.7s.6-4.3,1.5-11h76.6c-3.7,3.5-8.6,8.2-13.2,12.8-84,7.7-206.2,15.8-356.2,17.3-46.5.5-93.9.7-141.2.7M389.7,694.8l-11.9,14.6,101.1-.2-89.2-14.4M1164.8,698c.4-1.3.4-2.7.1-4.1l-.7-3.1h3.6v-1.5h67.2s-24.7,3.8-70.2,8.7"/>
  <path class="cls-24" d="M1167.8,690.8h-3.6l-.3-1.5h4s0,1.5,0,1.5M1121.6,690.8h-76.6c0-.5.1-1,.2-1.5h78c-.5.4-1,.9-1.6,1.5M997.2,690.8h-403.4v-1.2l403.7-.2c-.1.5-.2,1-.3,1.4"/>
  <g class="cls-158">
    <path class="cls-80" d="M15.3,690.8c-1.1-.3-2.1-.5-3.1-.8h3.1v.8"/>
  </g>
  <g class="cls-157">
    <path class="cls-131" d="M15.3,690.8h311.2V41.2H15.3v649.7Z"/>
  </g>
  <path class="cls-88" d="M24.7,679.9h290.9V52.1H24.7v627.8Z"/>
  <path class="cls-118" d="M24.7,467h290.9v-181.6H24.7v181.6Z"/>
  <path class="cls-125" d="M24.7,467h-1.2l1.2-1.2v1.2"/>
  <path class="cls-34" d="M314,467H24.7v-1.2l21.6-22.3c9.5,11.2,22.1,18.4,28.3,19.3,7.4,1.1,14.6,1.3,18.9,1.3s4.2,0,4.2,0l37.8-.7h.1s5.2-.1,5.2-.1c0,0,2.6-1.3,2.3-5.9-.1-1.7-3.2-2.3-7.1-2.3-6.5,0-15,1.5-15,1.5,0,0,9.1-8.1,15.7-17.8h122.1c.3.9.7,1.8,1.2,2.6-8.4-.7-18.3-1.1-28.8-1.1-31.4,0-56.9,3.5-56.9,7.9s25.5,7.9,56.9,7.9,56.9-3.5,56.9-7.9h0c0,0,25.8,18.8,25.8,18.8M85.2,458.6c-5.1,0-12.8-1.8-18.9-5.8-6.4-4.2-11.8-8.6-15.9-13.5l.5-.5h25.4c.9,1.6,1.9,3.1,2.9,4.4,5.7,7.5,9.5,9.1,11.1,12.8.7,1.7-1.5,2.6-5.1,2.6M284.4,445.4c-1.3-.5-2.9-.9-4.9-1.3.4-.4.8-.9,1.2-1.3l3.7,2.7"/>
  <path class="cls-29" d="M314.1,465.9l-32.9-23.7c1.5-2.1,2.4-4.6,2.4-7.3h0v-.2h0v-.2s0,0,0,0h0c0-.1,0-.2,0-.2h0c-.2-4.8-3-8.9-7-10.9v-138.1h39l-1.4,180.5"/>
  <path class="cls-115" d="M315.5,679.2l-20.9-13.4-16.2-11.8c10.5-16.9,14.3-34.7,14.4-47.5,0-15.5-3.2-24.6-15.5-38l-.3-90.5h36.9v-11h1.6v212.2M315.5,285.4h0v-10.9c0,0,0,10.9,0,10.9"/>
  <path class="cls-122" d="M315.5,467h-1.5v-1.1s1.5,1.1,1.5,1.1"/>
  <path class="cls-10" d="M315.5,274.4V52.1h-71.6l71.6-.2v222.5"/>
  <path class="cls-115" d="M315.5,274.4l-38.6-28.2h-.5l-.5-156.5H117.6c-.5-.6-.9-1-1.3-1s-.8.3-1.1,1h-62.7l-27.2-37,218.6-.5h71.6v222.3"/>
  <path class="cls-145" d="M315.5,467l-1.5-1.1,1.4-180.5h0v181.6"/>
  <path class="cls-147" d="M315.5,274.4H25.1l27.4-28.2h5.6c-.2.8-.3,1.6-.3,2.4v7.4c0,4.8-2.5,9,10.7,9h197.1c13.3,0,10.8-4.2,10.8-9v-7.4c0-.8-.1-1.7-.4-2.4h.6l39.1,28.2"/>
  <path class="cls-77" d="M315.5,274.4l-39.1-28.2h.5l38.6,28.2"/>
  <path class="cls-60" d="M314,679.9H23.5l1.2-1.2v1.2h289.3"/>
  <path class="cls-147" d="M314,679.9H24.7v-1.2l14.2-14.6c-.1,1.1-.2,2.2-.2,3.3h150.6c10.8,6,24.9,10.8,42.4,10.8s12.7-.6,19.6-1.9c0,0,6.2-.6,13.8-6.6,2.1-1.5,4.3-3.4,6.4-6,2.3-2.9,4.4-5.8,6.3-8.7l16.8,10.8,19.4,14.1M219.4,657.5s-6.5-3.1-11.7-3.7c-.2-.7-.5-1.4-.7-2.1h6.4c3.3,3.8,5.9,5.7,6.1,5.8,0,0,0,0,0,0"/>
  <path class="cls-77" d="M294.6,665.8l-16.8-10.8c.2-.3.4-.7.6-1l16.2,11.8"/>
  <path class="cls-117" d="M829,338.6c-.8-38.3-42.3-64.2-93.4-64.2s-92.6,26-93.4,64.2h186.7"/>
  <path class="cls-111" d="M829,338.6h0c0,0,0,0,0,0M642.3,338.6h0c0,0,0,0,0,0M829,338.5h0c0,0,0,0,0,0M642.3,338.5h0s0,0,0,0M829,338.4h0c0,0,0,0,0,0M829,338.3s0,0,0,0c0,0,0,0,0,0M829,338.2h0c0,0,0,0,0,0M829,338h0c0,0,0,0,0,0M829,337.9c0,0,0-.1,0-.2,0,0,0,.1,0,.2M829,337.7h0c0,0,0,0,0,0M829,337.6s0,0,0,0c0,0,0,0,0,0M829,337.5h0c0,0,0,0,0,0M829,337.4h0c0,0,0,0,0,0M829,337.3h0c0,0,0,0,0,0M829,337.1s0,0,0,0c0,0,0,0,0,0M828.9,337h0c0,0,0,0,0,0M828.9,336.9s0,0,0,0c0,0,0,0,0,0M828.9,336.8h0c0,0,0,0,0,0M828.9,336.7s0,0,0,0c0,0,0,0,0,0M828.9,336.6s0,0,0,0c0,0,0,0,0,0M828.9,336.4h0s0,0,0,0M828.9,336.3h0s0,0,0,0M828.9,336.1h0s0,0,0,0"/>
  <path class="cls-3" d="M829,338.6h-186.7c0-.1,0-.1,0-.1h0c0-2,.2-3.9.5-5.7,2.6.2,6,.3,10.3.3s4,0,6.3,0c10.4-.2,15.5-1.8,18.7-3.8h49.6c-1.1.8-1.8,1.8-1,2.9.8,1.1,2.8,1.4,5,1.4,3.9,0,8.5-1,8.5-1l.9-3.2h6.6c-2.2,1.7-3.7,3.3-3.4,4.5h17.2c.6-1.2,1.3-2.7,2-4.5h24.1c12.6,0,20.7-13.7,14.4-24.7-5.3-9.3-13.5-17.2-23.7-23.5,28.9,9.7,49,29.5,50.7,55.1h0s0,0,0,0h0v.2s0,0,0,0h0c0,.2,0,.2,0,.2h0c0,0,0,0,0,0h0v.2s0,0,0,0h0v.2s0,0,0,0h0v.2s0,0,0,0h0c0,.1,0,.2,0,.2h0c0,.2,0,.3,0,.3h0v.2h0c0,0,0,0,0,.1h0v.2s0,0,0,0h0"/>
  <path class="cls-83" d="M1183.3,338.6h-315.7s2.8-30.5,12.5-40.2c45.9-45.9,195.4-43.3,248.8-12,34.2,20,54.4,52.2,54.4,52.2"/>
  <path class="cls-58" d="M985.5,279.5c-8.6,3.3-16.7,14-11.5,15.4.8.2,3.3-.5,7-1.2,4.9-.9,11.8-1.8,19.9-.8,22.1,2.8,32,1,36.7.8,0,0,13.5-9.8,16-12.5,4.4-4.8,20.5-13.5,20.5-13.5l12.7-13.9-29.7,15.9,4.4-15.9-15.1,12.4,2.2-17.6-13.2,13.7v-20.4l-7.2,17.8s4.3,14.9-2.1,17c-2.7.9-8.9.8-15.7.8-9.1,0-19.5-.1-25,2"/>
  <path class="cls-64" d="M952.1,158.8s8.9-7.1,10-7.1-1.8,8.7-1.8,8.7c0,0-29.5,13.6-32,15.6-6.1,4.9-5.2,29.3-1.4,30.7,1.9.7,3.3-4.7,4.8-10,1.5-5.5,3-10.9,5.1-10,4.1,1.8,6.9,16.2,10.2,17.3,3.3,1.1,6.8-1.8,6.8-1.8,0,0,3.9,6.6,5.6,5.7s9.2-6.8,9.2-6.8c0,0-2.8,18.2-16.5,31.6-10.2,9.9-22.3,30.8-22.3,30.8l8.4-3,4-3.8,2.8,8.4,10.6-5.8,5.2-11.8,4.1-5.8,2.5,4.4,2.5-.7v9.8l3.6,14.2,18.8,17,5.2-10.2,7.5-5.9,1.5.7s-3.1,5.3-1.1,7.2c1.6,1.6,6.9-6.5,6.9-6.5,0,0-3.2,4.8-3.4,6.5,0,.4.7,0,1.4-.3s1.5-.8,1.5-.3c-.1,2.2,0,4.1.5,4.1,3.4,0,10.5-10.7,10.5-10.7,0,0-3.2,3.8-1,5.4,3,2.2,9.2.2,15.3-1.9,5.6-1.9,11.2-3.8,14.4-2.3,6.5,3,8.6-5.6,8.6-5.6l1.6,12.8,11.6-9.7-5.4,12.3.4,3.6s31.2-11,33.7-15.5c11.6-21.2-4.3-42.5-4.9-48.7-.6-6.2-20.5-15.6-39.1-13.6-14.8,1.6-29.2,10.9-46.4,4.1-12.2-4.8-13.1-10-11.4-22.5,1-7.5,5.2-33.9,5.2-33.9,0,0,2.3,5.8,3.8,7.1,1,1,3.2,1.4,5.4-1.8,3.1-4.5-1.8-18.3-1.8-18.3l-17.1-2.7-4.7,4.7-20.1-.6s-8.7-3.8-11.8-4.1c-1.3-.1-8.3,13.7-6.8,19.1"/>
  <path class="cls-13" d="M980.2,161.6c-.3,2.6.4,4.8,1.6,5s2.5-1.8,2.8-4.4c.3-2.6-.4-4.8-1.6-5-1.2-.2-2.5,1.8-2.8,4.4"/>
  <path class="cls-13" d="M963.4,158.8c-.5,2.6,0,4.8,1.3,5.1,1.2.2,2.6-1.7,3.1-4.2.5-2.6,0-4.8-1.3-5.1s-2.6,1.7-3.1,4.2"/>
  <path class="cls-82" d="M901.4,295.5c5.1-1.1,9.6-13.3,15.3-13s25.6-.5,25.6-.5c0,0,5.7-2.3,13.4-22.5,1.6-4.1-16,6.9-16,6.9l5.5-3.4,9-15.9-16.5,11.7,5.8-15.5s-18.4,27.6-21.6,27.3c-3.2-.3-20.7,6.2-23.9,12.4-3.3,6.2-3.3,13.9,3.5,12.4"/>
  <path class="cls-153" d="M1039.6,273.6c1.4-.5,2.8-.9,4.1-1.2h0s-4.1,1.2-4.1,1.2"/>
  <path class="cls-135" d="M1039.6,273.6s-5.9-37,18.3-50.6c0,0-1.2,1.5-3,4.1-.1.2-.2.3-.4.5-5.3,7.9-14.6,24.7-11.4,41.2l-.2.6s.4,1.2.7,2.9c-1.3.3-2.7.8-4.1,1.2"/>
  <path class="cls-135" d="M996.9,276s.2-.2.7-.6c1.9-1.6,4.5-9.2,7.3-18.4,2.7-7.4,5.3-17.4,6.5-22,.1-.4.2-.8.3-1.2.2-.8.5-1.2.6-1.2,1,0,.6,11.7-1.6,22.1-1.5,7.1-6,15-6,15,0,0-7.8,6.2-8,6.2"/>
  <path class="cls-108" d="M904.7,286.5s-6.3,3.4-7,9h1.6s1.7-4.3,5.4-9"/>
  <path class="cls-108" d="M895.4,292.4s5.6-10.1,7.4-10.4c1.8-.3-3.5-.1-6.6,6.3l-.8,4.1"/>
  <path class="cls-82" d="M986.7,293.8c-8.4,2.9-51,4.4-52.8,5.3s-9.6,12.4-16.7,10.6c-7.1-1.8-2.7-12.4,6.5-19.1,5.5-4,26.6-6.1,28.4-7.1,3.6-2,11.7-16,11.7-16l10-25,2.8,17.1,10.2-12.4-4.3,28.7,14.4-15.8-6.6,23.5,6.6-11.3s-2.5,18.9-10.2,21.5"/>
  <path class="cls-20" d="M954,281.9s-12.6.4-11.7,0c9.9-4.7,21-44.7,21-44.7l2.3,5.5,11.4-14.3-6.9,23.4s-8.5,24.6-16.1,30.2"/>
  <path class="cls-82" d="M1000.6,289.3c-13.9,4.6-16.7,14-11.5,15.4.8.2,3.3-.5,7-1.2,4.9-.9,11.8-1.8,19.9-.8,22.1,2.8,32,1,36.7.8,0,0,13.5-9.8,16-12.5,4.4-4.8,20.5-13.5,20.5-13.5l12.7-13.9-29.7,15.9,4.4-15.9-15.1,12.4,1.7-17.6-13.7,13.7v-20.4l-6.7,17.8s4.5,14.9-1.8,17c-6.3,2.1-30.6-.5-40.5,2.8"/>
  <path class="cls-138" d="M1003.6,173.1l-.8-2c1.3-8.2,2.5-15.8,2.5-15.8l-1.7,17.8"/>
  <path class="cls-135" d="M1002.8,171.2l-9.5-24.1s2.3-3.1,3.5-3.1,8.4,11.4,8.4,11.4c0,0-1.2,7.6-2.5,15.8"/>
  <path class="cls-138" d="M952.1,158.8c0,0,8.9-7.1,10-7.1-2,.6-10,7-10,7.1"/>
  <path class="cls-135" d="M952.1,158.8l7.5-14.9s3,7.6,2.5,7.8c-1.2,0-10,7-10,7.1"/>
  <path class="cls-66" d="M967.9,148.9c-2.5.7-9.3,9.2-6.5,8.3,2.8-.9,6.5-2.6,6.5-2.6,0,0,1.5,5.4,4.1,3.6,2.7-1.7,3.1-3.6,3.1-3.6,0,0,0,6.6,1.8,4.7s3.3-5,3.3-5c0,0,2.8,8.4,4.4,4.6,1.6-3.8,5.6,6,6.1,0,.4-6-4-7.4-4-7.4,0,0-8.3-5.5-18.8-2.5"/>
  <path class="cls-28" d="M950.7,178.9h-1.7c0,0-20-.7-20-.7,0,0,12.8-7.9,18.6-7.9s.9,0,1.3.2c4.9,1.5,1.9,8.5,1.9,8.5"/>
  <path class="cls-28" d="M1054.4,229.6c-.7,0-.8-.6,0-1.9,0,0,0,0,0,0,.1-.2.2-.3.4-.5,1.1-1.5,2.8-2.6,4.7-3.5-.2.6-.3,1.2-.5,1.7-.2.9-.5,1.9-.8,2.8-1.8.9-3.2,1.5-3.9,1.5"/>
  <path class="cls-23" d="M1054.5,227.7c.1-.2.2-.3.4-.5-.1.2-.2.3-.4.5"/>
  <path class="cls-112" d="M1066.2,207.5c-1,0-2.1,0-3.1,0s-1.2,0-1.7,0c1.7-.1,3.4-.2,5-.3,0,.1-.1.2-.2.3"/>
  <path class="cls-28" d="M1050.9,213.1c-4,0-7.9-.3-11.4-1,6.5-1.6,12.9-3.8,19.3-4.5.9,0,1.7-.2,2.6-.2.6,0,1.2,0,1.7,0,1,0,2.1,0,3.1,0-.8,1.4-1.6,2.9-2.3,4.4-4,.8-8.4,1.2-13,1.2"/>
  <path class="cls-28" d="M1004.9,257l2-34.9c.2-1.4.4-2,.8-2,1.5,0,4.5,12.3,4.5,12.3,0,0-.2,1-.7,2.6-2.1,7-4.4,15-6.5,22"/>
  <path class="cls-23" d="M1004.9,257c2.1-7,4.4-15,6.5-22-1.2,4.7-3.9,14.6-6.5,22"/>
  <path class="cls-108" d="M918.9,310s.2-6.6,3.8-9.1c0,0-6.3-2-5.6,8.9l1.8.2"/>
  <path class="cls-135" d="M952.5,259.3c0-.2,6.3-18.5,11.9-26.7,0-.2.2-.2.2-.2.2,0-.3,2-1.3,5h0c0-.1-.2.8-.7,2.3-2.5,7.6-6.3,18.3-6.3,18.3l-2.1.8c-.5.1-1,.3-1.6.6"/>
  <path class="cls-86" d="M952.5,259.3h0c.6-.3,1.2-.5,1.6-.6l-1.6.6"/>
  <path class="cls-38" d="M962.5,239.6c.5-1.5.7-2.4.7-2.4h0c-.2.8-.5,1.6-.7,2.4"/>
  <path class="cls-138" d="M965.6,211.9h0,0"/>
  <path class="cls-135" d="M969.1,213.5c-2.2,0-3.5-1.5-3.5-1.6h0s1.3-2.7,1.3-2.7c1,.3,2.2.5,3.4.5s1.4,0,2.1-.2c3.4-.7,7-9.9,7-12.7s.1-.8.3-1.3c3.1-3.2,5.8-6.3,6.8-8.2-.7,1.4-3.2,6.6-4.1,8.3-1,2-2.3,13.8-11.4,17.4-.7.3-1.3.4-1.9.4M986.5,187.3c.1-.2.2-.4.2-.4,0,.1-.1.2-.2.4"/>
  <path class="cls-82" d="M924,199.3s3.8,16.4,6.5,11.8c.8-1.4,2,12.9,7.8,12.9s7.8-10.3,7.8-10.3c0,0,2.3,1.6,5.1,2.6,4.2,1.4,7.5-2.6,8.4-4.8,1.5-4.2,3.6-3.3,6.5-2.4,1.8.5,3.8,1,6.3.5,3.4-.7,7-9.9,7-12.7s7.3-9.8,7.3-9.8c0,0-8.4-5-9.7-2.8-2.4,3.9-6.1,9.3-8.3,12.2-2,2.6-10.3,8.2-12.9,0-1.5-4.7-2.1-2.6-3.2-.6-.8,1.5-1.9,3.1-3.9,1.8-4.5-2.9-5.9-11.6-10.3-11.6s-6,3.6-8,7.1c-2.5,4.5-4.1,9.1-6.3,6.2"/>
  <path class="cls-108" d="M930.5,211.1s3.3-11.7,7-10.8c2.7.7,5.9,11.8,8.5,13.4l-1.1,3.7s-3.3-3.4-6.1-12.2c-1.5-4.8-4.4.9-7,9.7l-1.4-3.7"/>
  <path class="cls-56" d="M937.5,188c-3.7.4-8.5-9.8-8.5-9.8l21.7.7s-7.9,8.5-13.2,9.1"/>
  <path class="cls-150" d="M937.3,188c0,0-.1,0-.2,0,0,0,.1,0,.2,0s.1,0,.2,0c1-.1,2-.5,3.1-1-1.1.5-2.2.9-3.1,1,0,0-.2,0-.2,0M937.1,188h0,0M937.1,188s0,0,0,0c0,0,0,0,0,0M937,188h0,0M937,188h0,0M937,188h0,0M937,188s0,0,0,0t0,0M936.9,188h0,0M936.9,188s0,0,0,0c0,0,0,0,0,0M936.9,187.9h0,0"/>
  <path class="cls-61" d="M950.7,178.9h-1.7c0,0,1.7,0,1.7,0"/>
  <path class="cls-132" d="M937.3,188c0,0-.1,0-.2,0h0s0,0,0,0h0s0,0,0,0h0s0,0,0,0h0c-1-.2-2-1-3-2.1.8.8,1.7,1.2,2.5,1.2s.1,0,.2,0c4.3-.5,10.2-6.1,12.4-8.3h1.7c0,0-5.2,5.7-10,8.1-1.1.5-2.2.9-3.1,1,0,0-.2,0-.2,0"/>
  <path class="cls-108" d="M989,304.6s-1.9-5,3-6.4c2.4-.7-3.5-4.7-5.3,4.9l2.3,1.5"/>
  <path class="cls-19" d="M936.2,282.2c3.5-.1,6-.2,6-.2-.1,0,0,.1.4.1-2.1,0-4.3,0-6.4,0M942.4,281.9c.4-.2,1.5-.9,3.1-2.9,0,0,.2,0,.3,0-1.1,1.3-2.3,2.3-3.4,2.9"/>
  <path class="cls-86" d="M922.7,282.3s12.3-1.5,22.8-3.4c-1.6,2-2.7,2.7-3.1,2.9,0,0,0,0-.1,0,0,0-2.5.1-6,.2-7.1,0-13.5.2-13.5.2"/>
  <path class="cls-86" d="M954,281.9c1.1-.8,2.2-2,3.4-3.5-1.3,1.7-2.7,3.5-3.4,3.5M958.7,276.4c.2-.4.5-.8.7-1.2,0,0,0,0,.1-.1,0,0-.3.5-.8,1.3"/>
  <path class="cls-38" d="M942.7,282.1c-.4,0-.6,0-.4-.1,0,0,0,0,.1,0,1.1-.6,2.2-1.6,3.4-2.9,6.7-1.2,12.5-2.5,13.7-3.7-.2.4-.5.8-.7,1.2-.4.6-.9,1.3-1.4,2-1.1,1.5-2.3,2.7-3.4,3.5-.6,0-5.5,0-11.3.1"/>
  <path class="cls-39" d="M90.3,456c-1.5-3.7-5.4-5.3-11.1-12.8-7.7-10.1-15-30.5,2.8-28.9,0,0,14.6-37.3,45.1-55.5l10.6-30.1,2.9,13.5,11.1-1,7.8-11.7s-3.3,14.6-.6,16.5c2.7,1.9,6,13.9,2,21.7-4,7.7-17.1,6.8-17.1,6.8l-8.5,19-10.6,23.6s15-6.5,17.7.1c6.2,15.1-21.6,39.4-21.6,39.4,0,0,22.1-3.4,22.3,1.2.1,3.6-2.3,5.4-2.3,5.4l-43.2.8s-11.2.5-23.1-1.3c-10.8-1.6-40.8-22.1-40.3-49.7.5-27.6,17.2-49.2,24.1-44.3,4,2.9-9.2,13.5-13.3,25.3-9.8,28.2,0,44.8,21.3,58.7,10.4,6.8,25.7,7.3,24,3.2"/>
  <path class="cls-39" d="M158.6,388.1c.4.4,1,.2,1.4.7,3,4.1,6.1,12.2,1.3,12.5-8.3.6-2.3-4.9-7.3-6.2-1.4-.4-7.7,2.3-13.5,4.9-5.9,2.7-11.2,5.4-10.3,4.9l5.1-11.4s15.1-6.8,21.3-6.7c1,0,1.5.8,1.9,1.3"/>
  <path class="cls-109" d="M143.1,457.4c-.3-4.6-22.1-.8-22.1-.8,0,0,28-24.8,21.4-39.8-2.9-6.5-17.6,0-17.6,0l8.7-19.4c-12.2,2-23.4,10.4-28.5,23.1-6.4,15.7-1.6,33.4,10.2,43.1l25.6-.5s2.6-1.3,2.3-5.9"/>
  <path class="cls-140" d="M113.9,382.6c2.3-5.5,3-11.2,2.3-16-12,10.1-20.8,22.7-26.4,32.3,8.3,3.3,19.1-4,24.1-16.3"/>
  <path class="cls-140" d="M132.9,358c7.6.3,15-7,15-16.3h0c0-.1-7.1.5-7.1.5l-3.1-13.5-9.8,28.1c1.5.7,3.3,1.2,5,1.2"/>
  <path class="cls-109" d="M158.9,346c-2.7-1.9.6-16.5.6-16.5l-7.8,11.7-2,.2c0,.1,0,.3,0,.4-.3,9.2,5.5,16.8,13,17.2,0-6-2.1-11.7-3.9-13"/>
  <path class="cls-126" d="M143.3,350.1c0,1.5-1.1,2.6-2.4,2.6-1.3,0-2.3-1.3-2.2-2.7,0-1.5,1.1-2.6,2.4-2.6,1.3,0,2.3,1.3,2.2,2.7"/>
  <path class="cls-126" d="M157.5,350.5c0,1.5-1.1,2.7-2.2,2.7s-2.1-1.3-2-2.8c0-1.5,1-2.7,2.2-2.6s2.1,1.3,2.1,2.8"/>
  <path class="cls-13" d="M156.6,350.4c0,1.3-.6,2.4-1.2,2.4-.6,0-1.1-1.1-1.1-2.4,0-1.3.6-2.4,1.2-2.4.6,0,1.1,1.1,1.1,2.4"/>
  <path class="cls-13" d="M142.4,349.9c0,1.3-.6,2.4-1.2,2.4-.6,0-1.1-1.1-1.1-2.4,0-1.3.6-2.4,1.2-2.4.6,0,1.1,1.1,1.1,2.5"/>
  <path class="cls-148" d="M134.5,343.3l3.1-1-.6-8.6-2.6,9.6Z"/>
  <path class="cls-141" d="M153.2,342.2l3,1.5.7-8.6-3.7,7.1Z"/>
  <path class="cls-140" d="M44.6,395.5c.2-.6.8-2.4,1.1-3-1.9-1.9-4.3-2.8-6.6-3.9-2.9,7.2-5.1,15.4-4.8,24.8.3,9,2.9,16.4,7,23.1,1.7-1,3.3-2.2,4.8-3.6-5.4-10.1-7.1-20.1-1.4-37.4"/>
  <path class="cls-149" d="M159.8,359.1c0,1.6-5.1,2.7-11.4,2.6s-11.3-1.6-11.3-3.1c0-1.6,5.1-2.7,11.4-2.5,6.3.2,11.3,1.6,11.3,3.1"/>
  <path class="cls-13" d="M146.2,354.6q3.4.7,6.4.2c1.3-.2-2.9,3.8-2.9,3.8,0,0-5-4.3-3.5-4"/>
  <path class="cls-13" d="M151.4,362.7h-.5c.2-.8,0-2.7-.6-3.5-.2-.2-.3-.3-.5-.3-.5,0-1.2,1.9-1.6,3.7h-.6c.2-1.1,1-4.2,2.2-4.2s.7.2,1,.5c.7.9.9,3,.7,3.8"/>
  <path class="cls-124" d="M142.1,378.5c-4.3-1.9-6.9-7.9-6.9-7.9,0,0,4.8,3.8,8.5,3.8s.1,0,.2,0l-1.8,4"/>
  <path class="cls-14" d="M78.7,414.3c.1,0,.2,0,.4,0-.1,0-.2,0-.4,0"/>
  <path class="cls-48" d="M81.4,434.7c-.4,0-5.1-20-5.1-20,0,0,1.2-.4,2.4-.5.1,0,.2,0,.4,0h0c.2,0,.5,0,.8,0,1,0,2.2,0,2.2,0,0,0-1.2,15.5-.7,19.8,0,.5,0,.7,0,.7"/>
  <path class="cls-17" d="M114.3,430.4s.9-5.4,2.9-9.4c1.8-3.7,6.6-3.9,7.4-3.9h.1s-4.7,3.1-5.9,4.6c-1.6,1.9-4.5,8.7-4.5,8.7"/>
  <path class="cls-35" d="M130.2,404.9c.8-.4,5.3-2.6,10.3-4.9,2.3-1.1,4.7-2.1,6.9-3l-6.6,2.9-10.5,5"/>
  <path class="cls-124" d="M130.2,404.9l5.1-11.4.4,5.7,11.5-2.2c-2.1.9-4.5,1.9-6.9,3-4.9,2.3-9.5,4.5-10.3,4.9"/>
  <path class="cls-26" d="M156.2,358.6h-.2c-.4,0-.8,0-.8-.1s.2,0,.6,0h.2c.4,0,.8,0,.8.1,0,0-.2,0-.6,0"/>
  <path class="cls-26" d="M154.3,359h-.2c-.4,0-.8,0-.8-.2,0,0,.3,0,.6,0s.1,0,.2,0c.4,0,.8,0,.8.1,0,0-.3,0-.6,0"/>
  <path class="cls-17" d="M116.4,457.6l12.3-8.7-7.6,7.7-4.6,1"/>
  <path class="cls-120" d="M160.7,401.4h0c.2,0,.4,0,.6,0,.2,0,.3,0,.5,0h0c0,.1-1.1.1-1.1.1"/>
  <path class="cls-25" d="M160.7,401.4v-3.3c0,1,.9,2.7,1.1,3.2-.1,0-.3,0-.5,0-.2,0-.4,0-.6,0"/>
  <path class="cls-146" d="M135.5,463.4h1.7s-1.6,0-1.6,0h-.1"/>
  <path class="cls-17" d="M135.5,463.4s1.8-4.1.7-4.7c-.7-.4-.5-.8,0-.8s.8.1,1.3.4c1.5.8.5,4.4,0,5h-2.1"/>
  <path class="cls-139" d="M674.3,271.4l1.1-6.9-3.1-1.7-3.9,4.4,5.9,4.2"/>
  <path class="cls-2" d="M668.3,318.7c-.2,0-.5-.1-.6-.2.7-.1,2.7-1.4,4.8-2.8.3,0,.4,0,.4,0-1.2,1.2-2.8,2.1-4.6,2.8M667.5,318.5c0,0,0,0-.1,0-.2,0-.2,0-.2,0s.2,0,.4.1h0"/>
  <path class="cls-106" d="M647.1,263.1s-5.1-6.8-9.4-7.9c-2.2-.6-12.4,6.5-8,10.2,1.1.9,4.6-2.7,4.6-2.7,0,0,2,13.5,2.6,10.9,1.2-5.4,10.3-10.4,10.3-10.4"/>
  <path class="cls-139" d="M643.5,264.5l-5.2-5.6-2.4,2,2.7,8.8,4.9-5.2"/>
  <path class="cls-106" d="M668.1,261.6s5.5-9.3,8.6-9.5c3.5-.2,10.8,6.7,9.7,10-1.1,3.1-6.4,0-6.4,0l1.3,8.9-13.2-9.5"/>
  <path class="cls-18" d="M718.1,285.7s2.2,1.6,4.7,7.1c2.2,5,12.8,13.7,12.8,13.7l-2.7,20.4s-8.5,2.2-6.4,5.2c2.1,2.9,13.5.4,13.5.4l8.5-31s-18.3-3.8-16.4-16.2c3.2-20.7-15.4-21.5-14.1.5"/>
  <path class="cls-5" d="M647.1,320.4l14.9-9.5c2.7,3.4,10.9,4.9,10.9,4.9-6.5,6.7-25.7,4.6-25.7,4.6M631.5,322.4c.4,6.3,5.3,5.6,5.3,5.6-3.8,3.5-1.8,5.4,22.5,4.9,30-.5,15.4-12.6,40.7-13,25.3-.4,31.7-27.4,31.7-27.4,4.4,10.4,26.1,9.6,26.1,9.6l-1.1,21.4s-13.6,7-12.6,10.1h17.2c4.4-7.8,10.4-33.1,10.8-36.5.4-3.4-4.7-9.3-8.2-18.1-3.4-8.4-.5-16.9-8.6-29.5-8-12.4-11.9-14.4-23.4-15.1-3.8-.2-15.9,3-25,14.7-9,11.5-25.6,19.1-25.6,19.1,0,0,.9-.3-8.1-5.9s-21.1-5-30.1,1.8c-8.9,6.8-9.4,18.1-7.2,27.8,2.1,9.7,13.4,12.3,13.4,12.3,0,0-18.3,11.7-17.9,18"/>
  <path class="cls-27" d="M656.9,302.8c-7.6,0-13.7-3.7-13.7-8.1s0-.6,0-.9c.7,4.1,6.5,7.3,13.6,7.3h.5s0,0,0,0h0c6.8-.2,12.3-3.3,13-7.3,0,.3,0,.6,0,.9,0,4.5-6.1,8.1-13.7,8.1"/>
  <path class="cls-106" d="M643.2,292.9c0,4.5,6.1,8.1,13.7,8.1s13.7-3.6,13.7-8.1-6.1-12.7-13.7-12.7-13.7,8.2-13.7,12.7"/>
  <path class="cls-144" d="M656.9,301.1c-7.1,0-12.9-3.2-13.6-7.3.7,4.1,6.5,7.3,13.6,7.3h0,0M656.9,301.1h0,0M657,301.1h0,0M657,301.1h0,0M657.1,301.1h0,0M657.1,301.1h0,0M657.1,301.1h0,0M657.2,301.1h0,0M657.2,301.1h0,0M657.3,301.1h0,0M657.3,301.1h0,0M657.4,301.1h0,0M657.4,301.1h0M657.4,301.1h0,0M657.5,301.1h0,0"/>
  <path class="cls-107" d="M656.9,301.1c-7.1,0-12.9-3.2-13.6-7.3,0-.3,0-.5,0-.8h0c0-1.5.6-3.1,1.6-4.8-.5,1.1-.7,2.2-.7,3.1,0,4.5,6.1,8.1,13.7,8.1s10.5-2,12.6-5c-1.1,3.7-6.4,6.5-12.8,6.6h0s0,0,0,0h-.5"/>
  <path class="cls-18" d="M733.8,235.3s6.7,11.4,14.5,8.7c9.8-3.4,9.6-23.8-5.3-21.1-6,1.1-10.8,3.5-11,9.6,0,1.9,2.5-2.2,2.5-2.2,0,0,2.9-3.9,8.9-2.6,6.6,1.5,5.5,9.6,2.3,9.5-4.8-.2-3.8-3.3-9.2-2.7-4.6.6-2.7.7-2.7.7"/>
  <path class="cls-139" d="M664.3,279.6c0,1.5.6,2.8,1.3,2.8s1.3-1.3,1.3-2.8-.6-2.8-1.3-2.8-1.3,1.2-1.3,2.8"/>
  <path class="cls-139" d="M647.1,279.6c0,1.5.6,2.7,1.3,2.7s1.3-1.2,1.3-2.7-.6-2.7-1.3-2.7-1.3,1.2-1.3,2.7"/>
  <path class="cls-139" d="M656.1,287.6c3.1.5,8.5-2.5,6.5-4.7-1.5-1.6-5.6-1-5.6-1,0,0-5.1-1-5.6,1-.6,2.3,1.9,4.2,4.7,4.7"/>
  <path class="cls-27" d="M668.7,274.6c-.5,0-1-.1-1.5-.4-1.2-.6-1.8-1.7-1.5-2.4.2-.4.7-.6,1.2-.6s1,.1,1.5.4c1.2.6,1.8,1.7,1.5,2.4-.2.4-.7.6-1.2.6"/>
  <path class="cls-27" d="M645.7,275.4c-.6,0-1.1-.2-1.3-.6-.3-.7.4-1.7,1.6-2.3.5-.2,1-.3,1.4-.3.6,0,1.1.2,1.3.6.3.7-.4,1.8-1.6,2.3-.5.2-1,.3-1.4.3"/>
  <path class="cls-96" d="M731,295c.3-.9.5-1.6.6-2,0,0,0,.2,0,.2l-.7,1.8"/>
  <path class="cls-27" d="M729.3,299s-10.4-20.6,2.4-41.1c0,0-6.6,19.6,0,35.1-.1.4-.3,1.1-.6,2l-1.6,4"/>
  <path class="cls-2" d="M689.6,321.2h0c.3-.1.7-.2,1-.3-.6.2-1.1.3-1.1.3"/>
  <path class="cls-27" d="M689.6,321.2c4.7-5.7,6.6-7.3,9-7.3s.3,0,.5,0c2.9.2,3.9,5.9,3.9,5.9,0,0-.3,0-.9,0-1.3,0-3.9,0-6.2.1-1.1,0-3.8.7-5.3,1-.4,0-.7.2-1,.3"/>
  <path class="cls-27" d="M682,284.7c-.7,0-.1-10.9-5.1-19.2,0,0,0,0,0,0,.3,0,4.4,3.6,4.4,3.6,0,0,2.7,10,1.1,14.7-.2.7-.4,1-.5,1"/>
  <path class="cls-107" d="M657.1,296.1h-.9l-.3-8.5h.2c.2,0,.5,0,.8,0s.5,0,.8,0l-.6,8.5"/>
  <path class="cls-152" d="M656.8,287.7c-.3,0-.5,0-.8,0h-.2s1.7-.1,1.7-.1h0c-.3.2-.5.2-.8.2"/>
  <path class="cls-2" d="M647.1,320.4l14.9-9.5c-2.4,1.8-14.9,9.5-14.9,9.5"/>
  <path class="cls-31" d="M649.3,304.5c-.2,0-.3-.1-.3-.1s.2,0,.3,0h0"/>
  <path class="cls-27" d="M642,321.2s10.5-12.5,16.5-14.1c-4.6-1.2-8.2-2.3-9.2-2.6h0c4.7,1,8.7,1.4,12.3,1.4,29.1,0,23.9-30.7,23.9-30.7,0,0,5.3,3.6,2.9,15-3.1,14.3-12.1,18.1-20.8,18.1s-4.5-.3-6.6-.7c.5.9.8,3.2.8,3.2l-14.9,9.5-5.1.8"/>
  <path class="cls-27" d="M641.4,325.5c-.7,0-1.1,0-.8-.3,1.3-.9,2.6-1.1,3.6-1.1s2.2.4,2.2.4l-1.2.7s-2.4.3-3.7.3"/>
  <path class="cls-49" d="M659.6,299.3s-1.3-2.9-3.7-2.4c-2,.4-2.1,2.1-2.1,2.1,0,0,2.2,2.2,5.8.3"/>
  <path class="cls-18" d="M721.8,244c-5.2,9.1-13.9,18.4-24.6,18.4s-2.7-.1-3.8-.4c4.6-3.2,9.7-7.3,13.5-12.1,5.8-7.4,12.7-11.4,18-13.3-.6,2.4-1.7,4.9-3.1,7.4"/>
  <path class="cls-18" d="M675.8,331s17.9-12.6,15.7-15.5c-2.3-2.9-17.1,16.1-15.7,15.5"/>
  <path class="cls-121" d="M658.4,640.8c-2.9,3.4-3.1,8.3.4,8.1,3.5-.2,18.7-5.1,18.7-5.1l47.8,1.6,9.4-23.7s-65,5.7-76.2,19.1"/>
  <path class="cls-127" d="M733.7,561.1s-15.9,27.9-11.9,30.5c4,2.6-19.6,20.8-9.8,22.9l9.8,2.1s4.1,6.4,0,13c-16.1,25.7-47.8,19.5-59.1,26.6-11.4,7.1-21.9,1.2-22.7,14.3-.4,6.6,49.1,1.3,49.1,1.3,0,0,62.1-.7,69.3-10.2l7.1-9.5,15.6-6s-2.9,11.6.7,13c8.6,3.5,17.4-11.4,17.4-11.4,0,0,5.7,8.8,9.4,4.7,3.7-4.1,16.9-24.8,16.9-24.8,0,0,5.2,23.6,9.2,26,4,2.4-48,9.4-49.8,16.8-2.2,9.3,102.8-4.5,104-14.4.6-5.2-10.9-21.7,2.4-40.6,13.3-19,14.1-30.4,12.1-43-2-12.6.6-37.5-35.6-30.9-36.2,6.5-51.8,30.9-77.7,28.8-9.9-.8-13.6-10.6-13.6-10.6l-42.9,1.4"/>
  <path class="cls-109" d="M733.7,561.1s5.1,3.2,9.8,9c3.3,4,14.1-10,15.2-10.6,6.8-3.3,15.1,1.7,14.8-6.3,0,0,1.3-27.8-2.2-47.2-.6-3.7,5.7-5,4.1-10.9-1.6-5.9-10.1-14.8-10.1-14.8,0,0-15.1,8.8-20.1,11.4-2.9,1.5-16.4,4.4-19.3,5.2-6.3,1.7-8.8,13.4-8.8,13.4l-27.9,2.7s0,9.1,7.9,15.5c5.9,4.8,20.6,8.5,30.8,10.1,2.5.4-2.7,8.1,4.3,7.6,1.5-.1,5-6.8,5.7-6.7,2.9.5-4.4,21.6-4.4,21.6"/>
  <path class="cls-127" d="M702.8,525.2c1.2,10.8,25.2,13.4,25.2,13.4,0,0,.4,9.8-6.2,11s-5.9-10.4-5.9-10.4c0,0-4.2,12.9-7.3,12s-5.9-10.5-5.9-10.5c0,0,0,6-6.8,4.7-6.8-1.3-12.2-31.3-6.7-32.5,5.4-1.2,13.1,7.7,13.6,12.3"/>
  <path class="cls-47" d="M766.2,513.4c-3.8,0-9-3.9-15.8-11.5,0,0-1.5-4.9.1-4.9s.2,0,.3,0c1.8.5,9.6,10.9,15.9,10.9s1.4-.1,2-.4l2.5-1.6s0,4.2-1.5,5.8c-1,1.1-2.2,1.6-3.6,1.6"/>
  <path class="cls-13" d="M724,509.7c-.5,2.1.2,4.1,1.4,4.4,1.2.3,2.6-1.3,3.1-3.4.5-2.2-.2-4.1-1.4-4.4-1.2-.3-2.6,1.3-3.1,3.4"/>
  <path class="cls-13" d="M687,520.1s4.7-.5,7.6-2.5c3.6-2.5,3.4-5.2,3.4-5.2,0,0-13.9-6.7-11.1,7.7"/>
  <path class="cls-140" d="M954.3,535.1c-7,27.5-55.9,12.2-55.9,12.2-5.8-6-22.5-13.3-37.9-10.5-36.2,6.5-44.5,34.9-70.3,32.8-.6,0-1.2,0-1.8-.2-5.9,16.3-14.2,37.7-6.3,45.4,2.3,2.2,6.7,2.3,12.1.7,1.9-.6,2,11.3,10,7.2,1.8-.9-.2-11.3,1.8-12.5,15.1-8.5,32.6-24.8,40.5-42.9,8.6-19.9,18.6,5.9,39.3-2.6,5.4-2.2,8.2-5.4,10.4-11.6,65.3,23.5,58.2-18,58.2-18"/>
  <path class="cls-103" d="M765.4,652.1l8.3-3.2-8.3,3.2"/>
  <path class="cls-100" d="M765.4,652.1l9.2-34.3-.8,31.1-8.3,3.2"/>
  <path class="cls-134" d="M730.5,566.7l-5,10.2s40.8-7.7,51.1-15.9l-3.1-7.8s-25,12.3-43,13.5"/>
  <path class="cls-63" d="M725.5,576.9l28.5-10.6c16.9-7.5,19.5-13.1,19.5-13.1l3.1,7.8c-10.3,8.2-51.1,15.9-51.1,15.9"/>
  <path class="cls-128" d="M816.9,640.6s0,0,0,0h0"/>
  <path class="cls-100" d="M816.9,640.6c.4-9.8,9.1-27.4,12.5-33.9-2.9,7-4,21-4,21l-8.5,12.9s0,0,0,0M829.4,606.7c.3-.6.5-1.2.8-1.7.3-.6.5-.8.5-.8s-.5.9-1.3,2.6"/>
  <path class="cls-103" d="M639.9,670.5c0-.2,0-.4,0-.6,0,.2,0,.4,0,.6"/>
  <path class="cls-100" d="M641.9,672.4s-1.3-.6-2-2c0-.2,0-.4,0-.6.7-1.5,4.3-4.3,4.9-4.3s0,.2-.2.5c-2.1,2.6-2.7,6.3-2.7,6.3"/>
  <path class="cls-103" d="M658.4,649.1s-.2,0-.4-.3c.1,0,.3,0,.5,0,0,.1,0,.2,0,.2"/>
  <path class="cls-85" d="M658.4,649c-.2,0-.3,0-.5,0-.4-.3-1.1-.9-1.6-1.7-.6-1.1,4.3-4.9,4.9-4.9s0,.1-.2.5c-1.8,2.2-2.5,5.3-2.7,6.2"/>
  <path class="cls-103" d="M793.7,673.4c-.1,0-.7,0-1.4,0,.5,0,.9,0,1.4,0"/>
  <path class="cls-100" d="M793.7,673.4h0c-.5,0-1,0-1.4,0-1.4-.1-3.4-.5-3.9-1.3-.6-1.1,4.3-4.9,4.9-4.9s0,.2-.2.5c-2.1,2.6.6,5.8.6,5.8"/>
  <path class="cls-73" d="M276.2,256c0,4.8,2.5,9-10.8,9H68.4c-13.3,0-10.7-4.2-10.7-9v-7.4c0-4.8,3.4-8.7,16.6-8.7h186.2c11.5,0,15.8,3.9,15.8,8.7v7.4"/>
  <path class="cls-71" d="M125.9,168.3s-1.5,25.1-2.4,33c-1.2,11.8-16.1,23.6-11.8,29.8,4.3,6.1,6.2,8.1,8.6,6.3,2.4-1.8-3.3-7.5-3.3-7.5,0,0,17-11.5,22-22.4,1-2.1,1.5,8.2,2.8,18.4,1.2,9.4,3.2,18.8,6.9,18.7,7.7-.3,6.3-1.8,2.2-6.1-4.1-4.3,6.7-24.5,6.7-33.4l24.1,5.6s-6.5,38.8,9.1,35.5c8.7-1.8-6-5.3-2.6-15.5,2-5.9,11.3-17.7,11.3-17.7l16.8.6s8.5,33.3,17.7,32.6c9.2-.8,5-3.7,0-6.3-2.8-1.5-9.4-34.3-7-41.4,2.4-7.1-4.9-21.6-3.8-27.1,1-5.5,7.7-10.4,7.7-15.9s-3.8-5.9-7.4-10.3c-4.2-5.2-8.3-11.3-9.2-12.9-1.7-3.1-4.6-10.1-7.2-12.7-2.3-2.3-.7,13.3-.7,13.3l-12.9,4.9s-13.8-9.1-16-5.5c-.9,1.4,14.9,32.6,16,36.7,2.1,7.4,3.2,4.3-5.3,3-6.7-1-25.7-8.5-40.5-11-4-.7-7.7-1-10.8-.6-4,.4-9.4-29-10.9-38.5-3.9-25.5-9.9-42.7-11.7-27.5-5.3,45.7,10.8,58,11.7,66.6.4,4.2,0,7.3,0,7.3"/>
  <path class="cls-1" d="M186.9,149.2c0-5.6,3.8-8.7,3.8-8.7l-8.9-4.8s5.1,16.5,5.1,13.5"/>
  <path class="cls-1" d="M209,133.5h3.8l-4.8-8.8,1,8.8Z"/>
  <path class="cls-13" d="M207.3,148.4c1.2,1.4,1.7,2.9,1.2,3.4s-2-.3-3.2-1.7c-1.2-1.4-1.7-2.9-1.2-3.4.6-.5,2,.3,3.2,1.7"/>
  <path class="cls-13" d="M217.7,146.4c0,1.9-.4,3.4-1.1,3.4s-1.3-1.5-1.4-3.3c0-1.9.4-3.4,1.1-3.4s1.3,1.5,1.4,3.3"/>
  <path class="cls-90" d="M215.1,154.4s.6,6.3-3.7,6.5-9.3-4.9,0-8.3c4.7-1.7,10.5-2.1,11.3-.7,2.4,4.2-2,9-7.6,2.5"/>
  <path class="cls-13" d="M208.8,152.7l4.5-1.1,4.3-1.2-2.6,4-6.3-1.7"/>
  <path class="cls-93" d="M219.2,213.4h-2.9c0-.5.3-2,.5-3.8,4.8-4.5,10.2-11.3,10.2-11.3,0,0-3.5,15.1-7.7,15.1"/>
  <path class="cls-93" d="M140.4,213.5s-.5-6.5-1.2-6.5l2.5-6.5,15.8,4.4-.2,2.3-14.1-3.1-2.9,9.4"/>
  <path class="cls-114" d="M216.2,213.5l-4.6-.2h4.7c0,.1,0,.2,0,.2"/>
  <path class="cls-114" d="M211.4,213.4l-12.1-.4s8.5-11.3,12.1-12.3c.5-.1,1-.2,1.4-.2,3.8,0,4.1,5.3,3.8,9.2-2,1.8-3.9,3.3-5.2,3.8"/>
  <path class="cls-89" d="M216.2,213.4h-4.8c1.4-.5,3.3-1.9,5.2-3.8-.1,1.8-.4,3.3-.5,3.8"/>
  <path class="cls-142" d="M223,173.2c0-.7,0-1.3,0-1.8.2-.8.4-1.7.8-2.5,0,0-.7,1.6-.9,2.7,0,.5,0,1.2,0,1.6"/>
  <path class="cls-72" d="M223,173.2c-.9,0-3,0-5.8-.3l6.7-4c-.4.8-.7,1.6-.8,2.5-.1.5-.1,1.1,0,1.8"/>
  <path class="cls-13" d="M219.2,153l-.2-.2v-.3c.1,0,20.8-8.3,20.8-8.3h.3c0,.1-.1.5-.1.5l-20.6,8.3h0"/>
  <path class="cls-140" d="M193.4,168.9l-1.3,4.2s18.7,7.3,31.7,4.8l-.4-4.8s-20.7-.4-30-4.2"/>
  <path class="cls-105" d="M217.8,178.5c-12.1,0-25.6-5.3-25.6-5.3l20.5,3.5c.8,0,1.5.1,2.2.1,6.6,0,8.5-3.6,8.5-3.6l.4,4.8c-1.9.4-4,.5-6,.5"/>
  <path class="cls-136" d="M217.4,183.7c0,2.2-2.1,3.9-4.7,3.9s-4.7-1.8-4.7-3.9,2.1-3.9,4.7-3.9,4.7,1.8,4.7,3.9"/>
  <path class="cls-13" d="M182.9,157l-.2.2h.2c0,0,26.7-1.5,26.7-1.5l.3.3h-.2c0-.1-26.7,1.1-26.7,1.1h0"/>
  <path class="cls-13" d="M182.9,162.4l-.2-.2.2-.3,29.1-5.8.3.2-.2.3-29.1,5.8h0"/>
  <path class="cls-13" d="M221,153l-.2-.2.2-.3,20.2-6.2.3.2-.2.3-20.2,6.2h0"/>
  <path class="cls-140" d="M113.5,101.6l8.1-1.2s-3.3-14.6-5.3-13.8c-2.8,1.2-2.8,15-2.8,15"/>
  <path class="cls-114" d="M157.5,205l-15.8-4.4s2.7-5.8,7.4-5.8,1.3.1,2.1.4c6.1,2,6.3,9.8,6.3,9.8"/>
  <path class="cls-93" d="M181.6,210.6l-3.3-.8,5.6-7.2s-1.1,3.2-1.4,4.3c-.3.9-.9,3.7-.9,3.7"/>
  <path class="cls-126" d="M206.7,148.8c.2.4.2.8,0,.8-.1,0-.4-.2-.6-.6s-.2-.8,0-.8.4.2.6.6"/>
  <path class="cls-126" d="M216.7,145.8c.2.4.2.8,0,.8s-.4-.2-.6-.6c-.2-.4-.2-.8,0-.8.2,0,.4.2.6.6"/>
  <path class="cls-126" d="M216.1,147.5c.1.3.1.6,0,.6-.1,0-.3-.2-.4-.4s-.1-.6,0-.6c.1,0,.3.2.4.4"/>
  <path class="cls-126" d="M206.6,150.5c.1.3.1.6,0,.6s-.3-.2-.4-.4c-.1-.3-.1-.6,0-.6.1,0,.3.1.4.4"/>
  <path class="cls-16" d="M189.6,246.3h0s0,0,0,0h0"/>
  <path class="cls-72" d="M189.6,246.3c1.5-.8-.7-3.5-.7-3.5,2.8,1.3,2,3.2,2,3.2l-1.3.2s0,0,0,0"/>
  <path class="cls-72" d="M235.5,245.9c1.4-.6-.5-3.6-.5-3.6,2.8,1.3,1.8,3.4,1.8,3.4l-1.4.2"/>
  <path class="cls-72" d="M152.2,244.2c.3-1.1-2.5-2.7-2.5-2.7.1,0,.2,0,.3,0,3.5,0,3.1,2.4,3.1,2.4l-1,.3"/>
  <path class="cls-13" d="M212.7,187.6s.4-3,1-2.7c.6.3,0,2.6,0,2.6h-1"/>
  <path class="cls-98" d="M191.6,141.1l-1-.5s0,0,0,0l-4.7-2.5-5.4-3,12.9,4.4-1.8,1.7"/>
  <path class="cls-78" d="M190.6,140.6l-4.7-2.6,4.7,2.5s0,0,0,0"/>
  <path class="cls-9" d="M1066.9,202.7l-6.4-5.1-2.6-1.4c10.1-.1,12.5-8.4,12.8-9.5l-3.8,16.1M1070.6,186.7h0c0-.1,0,0,0,0"/>
  <path class="cls-71" d="M621.3,195.8l-1.2-1c10.8-13.8-5.2-96.5-5.4-97.3h1.6c1.7,8.8,20.5,78.6,5,98.3"/>
  <path class="cls-109" d="M645.1,186.1c-2.1-.2-4.1.8-5.1,2.6l-30.1-3.4c-.3-2.4-2.1-4.3-4.6-4.6-2.9-.3-5.5,1.7-5.8,4.6-.1,1,0,2,.5,2.9-.6.7-1,1.7-1.1,2.7-.3,2.9,1.7,5.5,4.6,5.8,1.9.2,3.7-.7,4.8-2.2l30.5,3.5c.4,2.2,2.2,3.9,4.5,4.2,2.9.3,5.5-1.7,5.8-4.6.1-1,0-2-.5-2.9.6-.7,1-1.7,1.1-2.7.3-2.9-1.7-5.5-4.6-5.8"/>
  <path class="cls-43" d="M506.3,438.8l3.5-2.7,25.7,1.2-8.9.9c-8.1-.8-17.8-.9-17.8-.9,0,0-.9.4-2.5,1.5"/>
  <path class="cls-126" d="M919.1,338.6h-4.7V97.5h4.7v241.1"/>
  <path class="cls-126" d="M998.9,338.6h-4.7V97.5h4.7v241.1"/>
  <path class="cls-126" d="M1072.4,335.5h4.7V97.5h-4.7v238Z"/>
  <path class="cls-126" d="M1156.8,338.6h-4.7V97.5h4.7v241.1"/>
  <path class="cls-126" d="M676.8,338.6h-4.7V97.5h4.7v241.1"/>
  <path class="cls-126" d="M756.5,338.6h-4.7V97.5h4.7v241.1"/>
  <path class="cls-126" d="M593.9,337h-4.7V97.5h4.7v239.5"/>
  <path class="cls-131" d="M842.5,349.6h-14.1V91.3h14.1v258.3"/>
  <path class="cls-130" d="M209.9,667.4c-.7-35.1-38.7-58.9-85.6-58.9s-84.9,23.8-85.6,58.9h171.3"/>
  <path class="cls-87" d="M122.9,643.9c-2.8,0-5.1-2.3-5.1-5.1s2.3-5.1,5.1-5.1,5.1,2.3,5.1,5.1-2.3,5.1-5.1,5.1"/>
  <path class="cls-87" d="M72.8,647c-2.8,0-5.1-2.3-5.1-5.1s2.3-5.1,5.1-5.1,5.1,2.3,5.1,5.1-2.3,5.1-5.1,5.1"/>
  <path class="cls-87" d="M99.4,631.4c-2.8,0-5.1-2.3-5.1-5.1s2.3-5.1,5.1-5.1,5.1,2.3,5.1,5.1-2.3,5.1-5.1,5.1"/>
  <path class="cls-87" d="M104.1,658c-2.8,0-5.1-2.3-5.1-5.1s2.3-5.1,5.1-5.1,5.1,2.3,5.1,5.1-2.3,5.1-5.1,5.1"/>
  <path class="cls-87" d="M143.2,661.1c-2.8,0-5.1-2.3-5.1-5.1s2.3-5.1,5.1-5.1,5.1,2.3,5.1,5.1-2.3,5.1-5.1,5.1"/>
  <path class="cls-87" d="M140.1,626.7c-2.8,0-5.1-2.3-5.1-5.1s2.3-5.1,5.1-5.1,5.1,2.3,5.1,5.1-2.3,5.1-5.1,5.1"/>
  <path class="cls-87" d="M54.1,662.7c-2.8,0-5.1-2.3-5.1-5.1s2.3-5.1,5.1-5.1,5.1,2.3,5.1,5.1-2.3,5.1-5.1,5.1"/>
  <path class="cls-87" d="M188.5,648.6c-2.8,0-5.1-2.3-5.1-5.1s2.3-5.1,5.1-5.1,5.1,2.3,5.1,5.1-2.3,5.1-5.1,5.1"/>
  <path class="cls-88" d="M288.1,448.2c0,4.4-25.5,7.9-56.9,7.9s-56.9-3.5-56.9-7.9,25.5-7.9,56.9-7.9,56.9,3.5,56.9,7.9"/>
  <path class="cls-42" d="M283.5,434.8c0,7-5.7,12.6-12.6,12.6s-12.6-5.7-12.6-12.6,5.7-12.6,12.6-12.6,12.6,5.7,12.6,12.6"/>
  <path class="cls-102" d="M281.1,442.2c1.5-2.1,2.4-4.6,2.4-7.3,0,2.7-.9,5.3-2.4,7.3M283.5,434.8h0s0,0,0,0M283.5,434.8h0s0,0,0,0M283.5,434.8h0s0,0,0,0M283.5,434.7h0s0,0,0,0M283.5,434.7h0s0,0,0,0M283.5,434.6h0s0,0,0,0M283.5,434.6h0s0,0,0,0M283.5,434.5h0s0,0,0,0M283.5,434.5h0s0,0,0,0M283.5,434.5h0s0,0,0,0M283.5,434.4h0M283.5,434.4h0M283.5,434.3h0s0,0,0,0M283.5,434.3h0M283.5,434.2h0M283.5,434.2h0s0,0,0,0"/>
  <path class="cls-75" d="M270.8,447.5h0,0M270.7,447.5h0M270.7,447.5h0,0"/>
  <path class="cls-12" d="M270.9,447.5h-.1s0,0,0,0h0c-2.6,0-5-.9-7-2.2.2,0,.4,0,.6,0,7,0,12.6-5.7,12.6-12.6s-2.2-8.1-5.5-10.4c6.5.3,11.7,5.5,12.1,12h0c0,.1,0,.1,0,.2h0c0,.1,0,.1,0,.2h0v.2h0v.2c0,2.7-.9,5.3-2.4,7.3-2.3,3.2-6,5.3-10.3,5.3"/>
  <path class="cls-76" d="M377.8,709.4l11.9-14.6,89.2,14.4-101.1.2"/>
  <path class="cls-59" d="M495.9,657.6l.8-.2c.2,0,.3,0,.5.1h-1.3M508,656.4c17.3-3.7,45.6-14.8,45.6-14.8l1.7,10.1-47.3,4.7"/>
  <path class="cls-117" d="M705.7,714.3h-37.6c-6.5,0-11.7-5.3-11.7-11.7v-4.5c0-1.4,1.2-2.6,2.6-2.6h55.8c1.4,0,2.6,1.2,2.6,2.6v4.5c0,6.5-5.2,11.7-11.7,11.7"/>
  <path class="cls-42" d="M785.5,714.3h-37.6c-6.5,0-11.7-5.3-11.7-11.7v-4.5c0-1.4,1.2-2.6,2.6-2.6h55.8c1.4,0,2.6,1.2,2.6,2.6v4.5c0,6.5-5.2,11.7-11.7,11.7"/>
  <path class="cls-126" d="M698.6,706.5h-17.2v-3.1h17.2v3.1"/>
  <path class="cls-126" d="M769,706.5h-17.2v-3.1h17.2v3.1"/>
  <path class="cls-140" d="M251.3,676.3s17-1.6,28.9-26.5c12-25,14.6-60.9,0-76-14.6-15.1-15.6-18.1-15.6-18.1,0,0-5.9-27.3-13.3-38.2-7.5-10.8-16.7-16-16.7-16l4.3,13.5-15.6,5.7-12.2-7.8,4.8,9.9s.8,6.5,0,11.1c-.8,4.5-3.3,7-1.4,11.2,3.7,8.3,5.5,7.9,6.6,15.2s-.5,32.8-5.2,38c-4.7,5.2-18.4,11-14.5,27.8,3.6,15.7,18.1,31.5,18.1,31.5,0,0-20.3-9.8-18,1.9,0,0-7.9-.4-19.9-13.3-16.1-17.3-15-31-24.7-26.6-7.1,3.2,1,22,12.5,33,12.5,12,39,32,82,23.8"/>
  <path class="cls-95" d="M218,596.3c2-6.6,5.5-24.3,6.5-30.1.4-2.3,5.7-5.6,7.1-5.5,2.3.1-1.3-2,2.2-2,5.7,0,13.2-2.7,17.6-4.9s5.4,0,6.3-.9c.5-.4-4.7-1.8-3.2-1.6,1.9.2,3.1-.8,4-1.8,1.2-1.5,1.7-2.9,2.3-.6,1,3.8,2.1,6.6,3.2,8.5-3.2-.5-9.9-.9-16.9,1.8-11.4,4.5-10.6,23.8-10.1,29.2,0,.9.1,1.4.1,1.4,0,0-12.5,1.9-19.1,6.5M201.3,627.7c4.3,19.9,18.1,29.9,18.1,29.9,0,0,27.4-7.4,28.2-4.7.8,2.7-1.2,14-7.4,12.9-2.1-.4-1.2,1.7,1.7,3.8,5.5,4.1,18.2,8.1,29.6-5.8,15.9-19.4,21.3-42,21.3-57.2,0-18.2-4.4-27.6-22.7-45.5v.3c-.7-.7-1.4-1.2-2.2-1.9-4.6-6.8-8.2-27.5-15.1-39.5-7.9-13.8-18.2-18.5-18.2-18.5l4.3,13.6-15.6,5.7-13.8-8.7,6.4,10.8s.7,4.1,0,9.8c-.3,2.2-3.9,5-2.3,9.8,2.6,8.3,6.1,12.3,7.5,17.8,1.4,5.5-4.7,30.2-4.4,37.2-.3.2-2,1.3-2.3,1.5-5.2,3.1-17.1,9.1-12.9,28.7"/>
  <path class="cls-70" d="M239.7,531.7c.4,1.8.1,3.4-.6,3.5-.7.1-1.5-1.2-1.9-3-.4-1.8-.1-3.4.6-3.5.7-.1,1.5,1.2,1.9,3"/>
  <path class="cls-70" d="M228,534.7c.4,1.8.1,3.4-.6,3.5-.7.1-1.5-1.2-1.9-3-.4-1.8-.1-3.4.6-3.5.7-.1,1.5,1.2,1.9,3"/>
  <path class="cls-140" d="M259.1,534.9s-19.4-10.3-22-12.9c-2.6-2.6-1.8-5.7-1.8-5.7l3.6-1.3-4.3-13.5s10.7,4.7,17.9,18c2.3,4.2,4.4,9.3,6.6,15.5"/>
  <path class="cls-95" d="M246.4,517.1h-3.1l-3.4-7.5,6.5,7.5Z"/>
  <path class="cls-70" d="M233.9,541.3l3.3-5.3-8.3,2.1,4.9,3.2Z"/>
  <path class="cls-53" d="M224.5,531.7c2.4.2,5.3-2.9,2.3-3.1s-6.1,2.9-2.3,3.1"/>
  <path class="cls-53" d="M236.2,528.8c2.4.2,5.3-2.9,2.3-3.1-3-.3-6.1,2.9-2.3,3.1"/>
  <path class="cls-119" d="M216,525.4l-.2-2.6-3.8-6.5h0s3.8,6.5,3.8,6.5h0s.1,1.1.2,2.6"/>
  <path class="cls-52" d="M216.1,525.9v-.5c-.2-1.6-.3-2.6-.3-2.6h0s0,0,0,0c0,0,.2,1.2.3,3.2"/>
  <path class="cls-8" d="M216.2,527.2v-1.2c-.2-2-.4-3.2-.4-3.2h0s-3.8-6.5-3.8-6.5l7.6,6.8-3.4,4.1"/>
  <path class="cls-140" d="M286.2,638.7s-9.9-4-13.3-2c-3.4,2.1,4.3,8,3.4,10.7-.7,2.2-6.5,1.8-7.3,5.7-.8,3.9,6.3,5.6,6.3,5.6,0,0,3.2-3.8,7.3-11.9,1.2-2.3,2.4-5.1,3.6-8.1"/>
  <path class="cls-137" d="M229.1,591.6c0,0,5.6-3.6,7.8-4.1h0c0,.3,0,.7,0,.9,0,.9.1,1.4.1,1.4-1,0-3.1.5-4.8,1-1,.2-2,.5-3.2.8"/>
  <path class="cls-44" d="M229.1,591.6c1.1-.3,2.2-.6,3.2-.8-1.7.4-3.2.8-3.2.8M264.4,591.4s-15.9-1.6-24.4-1.6-2.1,0-3,0c0,0,0-.5-.1-1.4,0-.3,0-.6,0-.9,1.4-.4,4.5-.5,7-.5s4.1,0,4.1,0l16.4,4.3"/>
  <path class="cls-22" d="M239.3,544.4s-.4-.6-1.2-1.3c-.4-.4-.8-.8-1.4-1.2-.5-.4-1.1-.8-1.9-1.1-.2,0-.4-.1-.7,0l-.4.2-.2.2h0c0,.3-.1.4-.2.6,0,.2-.1.3-.2.5-.1.3-.1.6-.2.9,0,.3,0,.6-.1.9-.1,1.1,0,1.8,0,1.8,0,0,.2-.7.5-1.7.1-.5.3-1.1.5-1.7l.2-.4c0-.1.2-.3.2-.5h0c0-.1,0-.1,0-.1h.4c.6.3,1.2.6,1.7,1,.5.3,1,.7,1.5,1,.4.3.8.5,1,.7.3.2.4.3.4.3"/>
  <path class="cls-126" d="M238,531.9c0,.4.2.7.4.7.1,0,.2-.4.1-.8,0-.4-.2-.7-.4-.7-.1,0-.2.4-.1.8"/>
  <path class="cls-126" d="M226.3,534.2c0,.4.2.7.4.7.1,0,.2-.4.1-.8,0-.4-.2-.7-.4-.7-.1,0-.2.4-.1.8"/>
  <path class="cls-126" d="M227.2,536.1c0,.2.2.4.3.4.1,0,.2-.2.1-.4s-.2-.4-.3-.4c-.1,0-.2.2-.1.4"/>
  <path class="cls-126" d="M238.9,534.5c0,.2.2.4.3.4.1,0,.2-.2.1-.4,0-.2-.2-.4-.3-.4-.1,0-.2.2-.1.4"/>
  <path class="cls-81" d="M206.6,661.3l-2.2-.7s.5-2.6,1.6-3c.4-.1.8-.2,1.2-.2,2.3,0,4,2.1,4,2.1-.8-.2-1.5-.2-2.1-.2-3.2,0-2.6,2.1-2.6,2.1"/>
  <path class="cls-140" d="M223.6,644.1c.9,2.2,2.7,3.5,4,2.9,1.3-.5,1.6-2.7.7-4.9-.9-2.2-2.7-3.5-4-2.9-1.3.5-1.6,2.7-.7,4.9"/>
  <path class="cls-126" d="M173.2,679.9h-4.7V52.1h4.7v627.8"/>
  <path class="cls-126" d="M93.5,679.9h-4.7V52.1h4.7v627.8"/>
  <path class="cls-126" d="M254.5,679.9h-4.7V52.1h4.7v627.8"/>
  <path class="cls-131" d="M320.2,285.4H21.5v-10.9h298.7v10.9"/>
  <path class="cls-131" d="M320.2,477.9H21.5v-11h298.7v11"/>
  <path class="cls-71" d="M1245.2,689.3h-47.1l-5-84.1h58.8l-6.7,84.1"/>
  <path class="cls-37" d="M1245.2,689.3h-47.1l37-9.4,16.8-74.7-6.7,84.1"/>
  <g class="cls-156">
    <path class="cls-32" d="M1235.1,605.2s16.6-251.2,28.6-252.9c17.6-2.5-23.5,252.9-23.5,252.9h-5"/>
  </g>
  <path class="cls-32" d="M1226.2,605.2s-.5-201.7,11.4-204.1c17.4-3.5-6.2,204.1-6.2,204.1h-5.1"/>
  <path class="cls-32" d="M1213.2,605.2s-23.2-230.5-11.7-234.1c17-5.3,16.8,234.1,16.8,234.1h-5.2"/>
  <path class="cls-32" d="M1202.1,605.2s-28.4-125.9-20.7-128.4c14-4.5,24.6,128.4,24.6,128.4h-3.9"/>
  <path class="cls-67" d="M460.9,390.9c-8.8-28.3-28.9,9.6-28.9,9.6,0,0,23.4-63.3,8.5-93s-24,4.2-24,4.2c0,0,1-54-20.7-62.3-18.3-7-12.1,39.8-9.7,54.7-1.6-5.7-6.6-14.9-22-13.5-16.9,1.5-2,60.3,6,88.5-3.3-6-9-10.3-18.5-5.1-19.2,10.5,29.6,161.1,64.3,168.6l2.7,35.7h7.8l-4.3-35.8c39.1-7.7,47.3-124,38.7-151.6"/>
  <path class="cls-83" d="M460.5,684.8h-58.3l-6.2-106.5h72.8l-8.3,106.5"/>
  <path class="cls-68" d="M459.8,684.8h-52l40.9-10.4,18.3-81.2c0,.2,0,.4.1.6l-7.3,91.1"/>
  <path class="cls-50" d="M422.2,542.6h0c0,0,.2,0,.3,0,0,0,0,0,0,0,0,0-.2,0-.3,0M364.4,372.9c-1.4-.8-3-1.2-4.8-1.2s-1,0-1.5,0c.7-.2,1.3-.3,2-.3,1.5,0,3,.6,4.3,1.4"/>
  <path class="cls-101" d="M419.9,542.7c-2.1,0-4.5-.2-4.5-.2.2-12.5-.7-38-2.4-69l-54.9-101.7h0c.5,0,1,0,1.5,0,1.8,0,3.4.4,4.8,1.2,3.4,2.2,5.8,6.3,5.8,6.3l41.9,78.7c-1.3-22.7-3-47.4-4.9-71.7,2.3,4.4,4.7,8.8,7.2,13.2,5.4,71.8,9,142.6,8.1,143.2-.1,0-.2,0-.3,0h0c-.6.1-1.5.2-2.4.2"/>
  <path class="cls-50" d="M389.7,249.4c-.1-.3.5-.5,1.3-.5h.1c-.5,0-1,.3-1.4.5"/>
  <path class="cls-101" d="M407.9,322.7c-2.1-.8-4.3-1.4-6.5-1.5-3.8-37.1-7.9-65.5-11.6-71.7,0,0,0,0,0-.1.4-.2.9-.4,1.4-.5,1.8,0,4.7.6,4.7.6,3.8,3.4,8.1,33.5,12.1,73.2"/>
  <path class="cls-32" d="M480.6,343.7s26.8-52,25.3-72.1c-2.1-28.9-25.4-11-25.4-11,0,0,13.9-87.3-12.5-83.4-22.7,3.3-26.7,80.7-26.7,80.7,0,0-7.9-35.4-21.1-29.4-24.9,11.2-.6,100.7-.6,100.7,0,0-27.7-20.7-29.7,4.7-2.6,33,56.3,115.6,58.3,118.3l-13,126,7.7.3,10.9-132.6c7.9-9.3,23.9-28.9,45.6-58.9,31.6-43.7-18.7-43.2-18.7-43.2"/>
  <path class="cls-113" d="M472.6,177.5c-.6-.2-1.3-.3-1.9-.4h2c0,0,0,.4,0,.4"/>
  <path class="cls-21" d="M448.2,451.6l6.6-90.8-39.3-128.6,4.8-3.8,35.7,116.7-.7,10.1,12.8-178.1h2.7c.7,0,1.3.1,1.9.3l-18.8,267.5-5.6,6.7"/>
  <path class="cls-154" d="M569.4,607.2l-17.3,30.3,8.2,45.4s63.2-72.4,56.5-93.4c-1-3-49.7,18.3-49.7,18.3l2.2-.6"/>
  <path class="cls-42" d="M463.8,579.9c7,34.7,20.1,55.1,31.3,76.4,3.6,6.9,58.6-14.7,58.6-14.7l-17.1-48.5,30.7,14.7s54.5-11.2,50.4-20.8c-4.1-9.6-69.3-45.4-69.3-45.4,0,0-93.6-6.7-84.5,38.2"/>
  <path class="cls-94" d="M471.7,708.6s82.5,7.8,87.7-18.2c4.9-24.6-5.7-48.9-5.7-48.9l-57.7,16,4.7,6.4s-27-.4-28.1.4c-1.1.7-2.9,39.5-.9,44.3"/>
  <path class="cls-127" d="M377.8,709.7l101.1-.6s-7.2-24.1-6.3-44.8c.1-3.2-65,15.3-74,20.2-9,5-20.8,25.2-20.8,25.2"/>
  <path class="cls-140" d="M398.3,684.2l-20.5,25.2-41.2.3c-2,0-2.9-2.5-1.4-3.8,10.4-8.6,35.9-29.3,48.9-38.6,8-5.7,14.2,16.8,14.2,16.8"/>
  <path class="cls-140" d="M519.4,709.7s71.1,1.9,71.9-.9c2.2-8.6-32-25.9-32-25.9,0,0,1.4,21.5-39.9,26.8"/>
  <path class="cls-154" d="M537.3,432.8l.7-12.2s19.7,9.1,20.9-24.7c0,0,7.3,1.6,9.4-1.8,0,0-5.9-4.1-6.8-27.1-.6-16.7,3.9-34.9-6.7-28.6-6.7,3.9-29.6,17.2-38.9,36.1-5.6,11.4-1.4,24.9.6,39.5l-.6,12,21.4,6.7"/>
  <path class="cls-140" d="M517.6,410.6s2.2,4.3.3,8.8c-4.4,10.6-21.5,12.1-27.4,2.1-5.1-8.6,1.2-15.6,1.2-15.6,0,0-4.4,7.9-20,3.2-15.6-4.7-15-21.2-10.6-27.7,4.4-6.5,18.2-10.9,23.8-14.4,5.6-3.5,6.4-5.9,7.4-13.3,2.1-15.4,18.5-28.6,35.9-30.6,17.4-2.1,33,16.5,33,16.5,0,0-1.1,42.7-31.3,41.1-12.2-.7-14,4.3-9.3,9.6,4.4,5,4.4,14.6-4.4,21.5l1.5-1.2"/>
  <path class="cls-99" d="M549.9,329.6s-29.3,15.8-34,41.2c-.7,3.5,8.7-7.1,20.7-16,11.3-8.4,24.6-15.2,24.6-15.2l-11.3-9.9"/>
  <path class="cls-62" d="M544.8,332.8s41.6-17.6,56.9-16c9.3.9-47,21.6-47,21.6l-9.9-5.6"/>
  <path class="cls-41" d="M553,406.6c-2.3,0-3.8-3.4-4-3.8-.2-.4,0-.9.4-1,.1,0,.2,0,.3,0,.3,0,.6.2.7.5.4.9,1.5,2.8,2.5,2.8s1.5-1,2.3-2.8c.1-.3.4-.5.7-.5s.2,0,.3,0c.4.2.6.6.4,1-1.1,2.6-2.3,3.8-3.7,3.8"/>
  <path class="cls-13" d="M552.3,379c-.6,2.1-.2,4,.8,4.3,1.1.3,2.4-1.1,3-3.2s.2-4-.8-4.4c-1.1-.3-2.4,1.1-3,3.2"/>
  <path class="cls-73" d="M515.4,426.3l-6.3,10.9,28.5,3.9.9-11-23.1-3.9"/>
  <path class="cls-46" d="M548.4,393.3c-3.5,0-6.3-1.8-6.3-3.9s2.8-3.9,6.3-3.9,6.3,1.8,6.3,3.9-2.8,3.9-6.3,3.9"/>
  <path class="cls-140" d="M562.7,379.6s8.4,1.6,8-16.4c-.2-9.7-9.5-23.5-9.5-23.5,0,0,.5,35.3,1.5,40"/>
  <path class="cls-73" d="M508.9,437.3s-29.5,12.9-46.5,101.3c-2.1,10.8,0,44,0,44,0,0,86.6-30.6,88.5-40.8,2-10.2-13.8-96.8-13.5-100.5.3-3.7-28.5-3.9-28.5-3.9"/>
  <path class="cls-151" d="M537.8,445.3l39.6,28.9-18.6,44.2-10.9-8.4-10.1-64.6"/>
  <path class="cls-94" d="M561.2,513s.2.2.6.5c3.6,2.9,22,16.7,32.3,11.4,11.5-5.9,24.1-41.9,37.6-56,13.5-14.1,35.3-14.3,37.1-18.8,2.2-5.5-13.5-4.8-13.5-4.8,0,0-3.5-7.5-18.2-4.1-17.9,4.1-34.3,21.2-48,43.1-5.9,9.4-16.5,1.4-16.5,1.4l-11.4,27.3"/>
  <path class="cls-79" d="M496,534.5l-13.1-6.1c-.3-7,3-34.7,16.8-60.5-10.5,21.1-11.7,59.7-11.7,59.7l8-1.5s.4,3.2,1.3,8.1l-1.3.2M531.4,527.7s0,0,0-.1l-.5-7.8-20.2,3.7,27.8-5.1s1.6-34.8-7.9-53c0,0,0,0,.1,0,.4,0,.9.4,1.5,1.1,9,11.4,12,58.8,12,58.8l-12.8,2.5"/>
  <path class="cls-11" d="M496,526.1s7.7,58.3,24.5,69.8c15.3,10.5,54.5-6.7,71.8-13.3,11.2-4.3,22.7-15.1,10.5-13.5,0,0,5.9-2.6,5.3-8.5-.9-9-23.4,2.6-23.4,2.6,0,0,13.9-7.3,9.2-8.8-4.7-1.6-20.1,7.6-20.1,7.6,0,0,6-5.5,2.3-7.4-1.7-.9-8.1,1.6-15.2,4.1-8.3,2.9-17.8,5.8-22.3,3.4-5.9-3.2-7.7-42.2-7.7-42.2l-34.8,6.4"/>
  <path class="cls-99" d="M488,527.6l50.5-9.2s2.9-63.8-22.6-63.8-27.9,73-27.9,73"/>
  <path class="cls-7" d="M531.4,527.6c-.3-4.6-.5-7.8-.5-7.8l.5,7.8"/>
  <path class="cls-123" d="M531.4,527.6l-35.3-1.5,14.7-2.7,20.2-3.7s.2,3.2.5,7.8"/>
  <path class="cls-110" d="M496,526.1l14.7-2.7-14.7,2.7"/>
  <path class="cls-97" d="M556.5,342.2h0c2.9-1.7,4.8-2.6,4.8-2.6l-4.7,2.6"/>
  <path class="cls-65" d="M556.4,342.2l-11.6-9.4,9.9,5.6s.7-.3,1.9-.7l4.5,1.9s-1.9,1-4.8,2.6"/>
  <path class="cls-69" d="M554.8,338.4l-9.9-5.6,11.8,4.9c-1.2.4-1.9.7-1.9.7"/>
  <path class="cls-91" d="M537.6,426.3l-13.8-11.9,14.1,6.2-.3,5.7"/>
  <path class="cls-140" d="M513.9,484.1c-1.8,0-3.5.5-5,1.3-2.5,1.5-4.2,4-4.8,7.1-.6,3.2,0,6.5,1.8,9.5,2.5,4.2,6.7,6.8,11,6.8s3.5-.5,5-1.3c5.2-3.1,6.6-10.5,3-16.6-2.5-4.2-6.7-6.8-11-6.8ZM516.9,510.9c-5,0-9.9-3-12.8-7.8-2-3.4-2.7-7.3-2-10.9.7-3.7,2.7-6.7,5.8-8.5,1.8-1.1,3.9-1.6,6-1.6,5,0,9.9,3,12.8,7.8,4.1,7.1,2.5,15.8-3.7,19.4-1.8,1.1-3.9,1.6-6,1.6"/>
  <path class="cls-140" d="M517.1,502.5s-1.2,4.3-3.8,2.2c-2.9-2.4-2.6-9.5,2.8-10.3,5.5-.8,7.7,6.3,5.2,8.6-2.5,2.3-4.2-.5-4.2-.5"/>
  <path class="cls-140" d="M513,492c.5,1.3,1.8,2,2.8,1.6,1-.4,1.5-1.8,1-3.1-.5-1.3-1.8-2.1-2.8-1.6s-1.5,1.8-1,3.1"/>
  <path class="cls-140" d="M507.5,495.5c.5,1.3,1.8,2,2.8,1.6,1-.4,1.5-1.8.9-3.1s-1.8-2-2.8-1.6c-1,.4-1.5,1.8-1,3.1"/>
  <path class="cls-140" d="M518.7,491.5c.5,1.3,1.8,2,2.8,1.6,1-.4,1.5-1.8,1-3.1s-1.8-2.1-2.8-1.6-1.5,1.8-.9,3.1"/>
  <path class="cls-33" d="M577.4,488.2c-2.8-.9-4.8-2.5-4.8-2.5l4.8,2.5"/>
  <path class="cls-116" d="M561.2,513l11.4-27.3s2.1,1.6,4.8,2.5l-16.3,24.8"/>
  <path class="cls-155" d="M462.2,581.4h0s0,0,0,0h0"/>
  <path class="cls-12" d="M468.6,580.3c7.8-2.8,21.8-8,36.1-13.8.8,2.5,1.6,5,2.5,7.4l-38.5,6.4"/>
  <path class="cls-51" d="M462.3,581.3h0s42.1-15.8,42.1-15.8h0c0,.3.2.6.3.9-14.3,5.8-28.3,11-36.1,13.8l-6.3,1.1"/>
  <path class="cls-92" d="M507.1,573.9c-.9-2.4-1.7-4.9-2.5-7.4,0-.3-.2-.6-.3-.9l2.7,8.3"/>
  <path class="cls-15" d="M634.8,452.6l-1.3-1.3s12.5-8.5,9.9-10.4c-.5-.4-.7-.5-.6-.5.3,0,4.2,2.7,1.1,5.4-3.9,3.4-9.1,6.8-9.1,6.8"/>
  <path class="cls-126" d="M756.5,681.5h-4.7v-331.9h4.7v331.9"/>
  <path class="cls-126" d="M837.8,681.5h-4.7v-331.9h4.7v331.9"/>
  <path class="cls-126" d="M676.8,681.5h-4.7v-331.9h4.7v331.9"/>
  <path class="cls-126" d="M995.8,678.3h4.7v-327.2h-4.7v327.2Z"/>
  <path class="cls-126" d="M1075.5,681.5h4.7v-330.3h-4.7v330.3Z"/>
  <path class="cls-126" d="M919.1,681.5h-4.7v-331.9h4.7v331.9"/>
  <path class="cls-140" d="M1001.5,701.8s-27.6-.2-25.9-5.2c1.7-5,25.9,5.2,25.9,5.2,0,0-27.5-1.5-26,5.3,1.5,6.8,26-5.3,26-5.3"/>
  <path class="cls-83" d="M1032.1,425.9s-24.3,119.2-25.1,132.3c-.8,13.2,0,54.5,0,72.6s-12.2,71-12.2,71h48.7s10.4-75.8,11.1-89c.8-13.2.2-42.1.2-42.1,0,0,46.4,94.6,67.1,115.2,8.7,8.7,38.1-13,38.1-13,0,0-48.5-103-62.4-122.1-12.9-17.6,15.2-75,19.2-111.9,0,0-58.4,19.2-84.7-13.1"/>
  <path class="cls-73" d="M1120.4,438.5s26.3-102.7-8.6-147.8l-29.2-3.3c-36.4,13.7-62.5,67.7-62.5,67.7l18.8,11.8-6.5,61.9s22.9,29.6,88,9.7"/>
  <path class="cls-79" d="M1097.3,436.3c14.1-9.5,18.4-49.5,19-56l5.1-.3s-2.1,51.9-24,56.3c0,0,0,0,0,0M1073,399.2c-2,0-4.7-1-7.9-2.5-.3-7.4.7-15.3,3.3-23.1,3.7-11.2,15.3-37.7,15.3-37.7l-10.4,38.3,7.4.9-.6,3.4c-1.1,6.3-3.5,19.4-5.4,20.4-.5.3-1.1.4-1.8.4"/>
  <path class="cls-68" d="M1055,591.5s-17.2-36.2-17.9-52.5c-.9-20.7,14.4-66.2,14.4-66.2,0,0-9.8,38.6-8.3,58.7.7,10.2,11.6,39.2,11.6,39.2h0v.2l.2,20.6"/>
  <path class="cls-74" d="M1112,249.2l-3.4,39.1s-21.2.5-27.9-3.3l2.4-16.7s-27,8.2-22.8-25.5l-8.3-.7s4.9-8.2,7.1-16.8c3.6-14.5,15-38.7,31.8-29.3,16.9,9.4,21.1,53.2,21.1,53.2"/>
  <path class="cls-56" d="M1052.3,193.9c-4.6,0-8.1,13.1-5.5,18.1,4.5,8.8,14.3,13,23.2,5.7,9.4-7.7,11.9-4.5,12.5.2s-9.4,17.2-4.7,17.2,16.9-17.6,21.4-14.1c4.5,3.5-3.7,13-6,20.1-.6,1.8-.4,3.6,0,5.4,1.8,6.2,8.4,9.7,14.7,8.4l3.6-.8s7.9-38.4,6.2-49.5c-1.7-10.7-23.8-36-45.9-15.3-22.1,20.7-15.4,4.5-19.6,4.5"/>
  <path class="cls-13" d="M1066.1,232.3c-2,0-3.2-2.9-3.5-3.4-.2-.4,0-.9.4-1,.4-.2.9,0,1,.4.4,1,1.3,2.5,2,2.5s.9-.2,1.8-2.5c.2-.4.6-.6,1-.4.4.2.6.6.4,1-.9,2.3-2,3.4-3.3,3.4"/>
  <path class="cls-45" d="M1065.7,257.1c-2.3,0-4.3-2.5-4.4-2.7l1.2-.9c.5.6,1.8,2,3.1,2h.1c.8,0,1.4-.7,2-1.9l1.4.7c-.9,1.7-2,2.6-3.3,2.8h-.3"/>
  <path class="cls-133" d="M1082,276.2l1.2-7.9,9.7-3.1-10.9,11"/>
  <path class="cls-73" d="M1064,196.2l12.8-9.6,39,43.8-1.8,10.8s-45.2-44.4-50.1-44.9"/>
  <path class="cls-73" d="M1076.9,186.5s-63.6-30.4-61.7-19.8c1.9,10.6,51.5,30.9,51.5,30.9l10.2-11.1"/>
  <path class="cls-13" d="M1027,363.7h-3.1v-32.9c0-.9.7-1.6,1.6-1.6s1.6.7,1.6,1.6v32.9"/>
  <g class="cls-159">
    <path class="cls-140" d="M1037.2,701.8l1.5,16.1c.4,4.8-3.3,9-8.2,9h-70.9c-2.5,0-3.4-3.4-1.2-4.6l43.1-20.5h35.6"/>
  </g>
  <path class="cls-140" d="M1128.2,684.7s-39.3,36-34.7,37.8l65.6-18.9c4.2-1.2,6.7-5.5,5.7-9.7l-4.8-20.9s-28,13.7-31.8,11.7"/>
  <path class="cls-140" d="M1103.5,345.3c-4.3.7-7.8,4.5-8.7,9.4-1.2,6.1,2.2,11.9,7.5,12.9,1,.2,2,.2,3,0,4.3-.7,7.8-4.5,8.7-9.4.6-3,0-6-1.3-8.4-1.4-2.4-3.6-4-6.1-4.5-1-.2-2-.2-3,0ZM1105.5,369.4c-1.2.2-2.4.2-3.6,0-6.2-1.2-10.2-7.9-8.9-15,1.1-5.6,5.1-10,10.2-10.8,1.2-.2,2.4-.2,3.6,0,3,.6,5.6,2.5,7.3,5.3,1.7,2.8,2.2,6.3,1.6,9.7-1.1,5.6-5.1,10-10.2,10.8"/>
  <path class="cls-140" d="M1102,361.4s-3.3,2.2-3.8-.7c-.5-3.2,3.8-7.9,7.9-5.2,4.1,2.7,1.4,8.7-1.5,8.7s-2.5-2.8-2.5-2.8"/>
  <path class="cls-140" d="M1105.3,352c-.4,1.2,0,2.4.9,2.7.9.3,2-.4,2.5-1.5.4-1.2,0-2.4-.9-2.7-.9-.3-2,.3-2.4,1.5"/>
  <path class="cls-140" d="M1099.7,351.1c-.4,1.2,0,2.4.9,2.7.9.3,2-.3,2.5-1.5.4-1.2,0-2.4-.9-2.7-.9-.3-2,.3-2.4,1.5"/>
  <path class="cls-140" d="M1109.5,355c-.4,1.2,0,2.4.9,2.7.9.3,2-.4,2.4-1.5s0-2.4-.9-2.7c-.9-.3-2,.3-2.4,1.5"/>
  <path class="cls-99" d="M1075.5,289.7l5.6-10.6h32.6l1.6,15.7-39.8-5.1"/>
  <path class="cls-140" d="M1128.2,684.7s-22.5-12.5-23.1-3.4c-.6,7.8,23.1,3.4,23.1,3.4"/>
  <path class="cls-140" d="M1126,685.1s-28.8,5.5-23.8,12.7c4.9,7.2,26-13,26-13l-2.2.3"/>
  <path class="cls-36" d="M1009.4,369.6c-2.4-4.9-1.4-25.1,6.6-26.5s11.5,5.9,11.5,5.9c0,0,3.8-8.7,10.5-8.7s9.3,24.2,3.5,33.7c-5.8,9.4-26.3,8-32.2-4.3"/>
  <path class="cls-84" d="M1013.1,419.6l43.2-10-54.1-75.4-41.8,11.2,52.7,74.2"/>
  <path class="cls-74" d="M1080.7,375l35.6,4.4s-4.6,58.9-25.4,58.9c-27.5,0-75.3-35.8-91-58.3-4.1-5.8.3-15.4,5.3-12.9,6,3,9.2,6.9,19.8,15.9,0,0-5.4-7.3-.4-11,1.5-1.1,11.5,6.2,22.3,13.6,11.4,7.8,23.7,15.5,27.8,13.3,2.5-1.4,5.9-23.8,5.9-23.8"/>
  <path class="cls-55" d="M1121.3,380l-37.4-4.6-3.2-.4,40.7,5"/>
  <path class="cls-129" d="M1116.2,380.3c0-.6,0-.9,0-.9l-32.4-4,37.4,4.6-5.1.3M1080.1,378.3l.6-3.4s-.2,1.3-.6,3.4"/>
  <path class="cls-4" d="M1079.5,382.2l.6-3.9c.3-2,.5-3.3.6-3.4l3.2.4,32.4,4s0,.3,0,.9l-36.7,2"/>
  <path class="cls-30" d="M1000.4,368.4c-.2-.4-.3-.7-.3-1,0,0,.2.2.6.7,0,0-.2.2-.2.3"/>
  <path class="cls-133" d="M1019.3,389.2c-.7,0-1.7-.1-1.7-.1,0,0-14.7-15.1-17.2-20.7,0,0,.2-.2.2-.3,2.3,2.8,10.9,13.2,19.3,20.6.5.4,0,.5-.7.5"/>
  <path class="cls-6" d="M1143.9,680.3c-1.8-3.4-68.8-131.7-74.6-141.7-6-10.3,12.9-88.8,14-93.3.1,0,.2,0,.4,0l1.2.3c-6.9,28.5-18.8,84.4-14.2,92.3,5.9,10.1,74,140.5,74.7,141.8l-.7.4c-.2.1-.5.2-.7.3"/>
  <path class="cls-143" d="M1083.3,445.3s0,0,0,0h.3c-.1,0-.2,0-.4,0"/>
  <path class="cls-40" d="M1144,680.3s0,0,0,0c.2,0,.5-.2.7-.3l-.7.4"/>
  <path class="cls-104" d="M1070.4,245.8c-2.9,0-5.2-1.6-5.2-3.6s2.3-3.7,5.2-3.7,5.2,1.6,5.2,3.7-2.3,3.6-5.2,3.6"/>
</svg>