<?xml version="1.0" encoding="UTF-8"?>
<svg id="Camada_1" data-name="Camada 1" xmlns="http://www.w3.org/2000/svg" version="1.1" xmlns:xlink="http://www.w3.org/1999/xlink" viewBox="0 0 1020 768">
  <defs>
    <style>
      .cls-1 {
        fill: #684135;
      }

      .cls-1, .cls-2, .cls-3, .cls-4, .cls-5, .cls-6, .cls-7, .cls-8, .cls-9, .cls-10, .cls-11, .cls-12, .cls-13, .cls-14, .cls-15, .cls-16, .cls-17, .cls-18, .cls-19, .cls-20, .cls-21, .cls-22, .cls-23, .cls-24, .cls-25, .cls-26, .cls-27, .cls-28, .cls-29, .cls-30, .cls-31, .cls-32, .cls-33, .cls-34 {
        stroke-width: 0px;
      }

      .cls-2 {
        fill: #ff8e8b;
      }

      .cls-3 {
        fill: #eeae9d;
      }

      .cls-4 {
        fill: #ee9287;
      }

      .cls-5 {
        fill: #f9d7c5;
      }

      .cls-6 {
        fill: #ac8e76;
      }

      .cls-7 {
        fill: #70483f;
      }

      .cls-8 {
        fill: #ccc2be;
      }

      .cls-9 {
        fill: none;
      }

      .cls-35 {
        clip-path: url(#clippath-1);
      }

      .cls-10 {
        fill: #577242;
      }

      .cls-11 {
        fill: #e08d53;
      }

      .cls-12 {
        fill: #3f3637;
      }

      .cls-13 {
        fill: #f9ebe2;
      }

      .cls-14 {
        fill: #9b7d68;
      }

      .cls-15 {
        fill: #fff4ee;
      }

      .cls-16 {
        fill: #824434;
      }

      .cls-17 {
        fill: #f9b28a;
      }

      .cls-18 {
        fill: #af8f7d;
      }

      .cls-19 {
        fill: #b5b5b5;
      }

      .cls-36 {
        clip-path: url(#clippath);
      }

      .cls-20 {
        fill: #4f4441;
      }

      .cls-21 {
        fill: #e08f6c;
      }

      .cls-22 {
        fill: #a07f68;
      }

      .cls-23 {
        fill: #cb6b55;
      }

      .cls-24 {
        fill: #e89972;
      }

      .cls-25 {
        fill: #ceae95;
      }

      .cls-26 {
        fill: #7aac63;
      }

      .cls-27 {
        fill: #d5d1d2;
      }

      .cls-28 {
        fill: #ed6b55;
      }

      .cls-29 {
        fill: #93908f;
      }

      .cls-30 {
        fill: #f09f67;
      }

      .cls-31 {
        fill: #423430;
      }

      .cls-32 {
        fill: #dbc7bf;
      }

      .cls-33 {
        fill: #582c2b;
      }

      .cls-34 {
        fill: #605451;
      }
    </style>
    <clipPath id="clippath">
      <rect class="cls-9" x="82.8" y="729.7" width="917.9" height="38.3"/>
    </clipPath>
    <clipPath id="clippath-1">
      <rect class="cls-9" x="82.8" y="659.8" width="917.9" height="91.3"/>
    </clipPath>
  </defs>
  <path class="cls-17" d="M737.8,376.8l44.8,135.8-49.5,24.8-49.4-151.5,54.1-9.1Z"/>
  <path class="cls-28" d="M667.6,255s60.3,80.3,81.6,144.4l-53.3,20.3-30.5-3-23.9-84.5,26-77.1Z"/>
  <path class="cls-17" d="M289.6,371.6s-64.3,144.1-60.3,155.7c4,11.7,36.1,50.4,48.2,39.5,12.1-10.9,89.2-151.7,89.2-151.7l-77.1-43.5Z"/>
  <path class="cls-26" d="M343.5,216.6s-66.8,104.9-94.7,119.9c-27.9,15.1-11.8,17.1-9,16.6,2.9-.5-21.8,19.2-16.9,22.2,4.9,3,25.5-18.6,24.3-15.7-1.2,2.9-3.6,9.7,1,10.4,4.6.7,22.7-17.2,33.9-28.4,11.2-11.2,77.6-84.3,79.4-103.3,1.9-19-18-21.7-18-21.7Z"/>
  <path class="cls-10" d="M271.1,332.6c6.4-6.2,11.9-13.4,17.2-20.5,6.6-8.7,13-17.5,19-26.6,2.4-3.7,4.8-7.4,6.8-11.3.4-.8-.8-1.5-1.2-.7-4.1,7.8-9.3,15.2-14.4,22.4-6.3,8.9-12.8,17.6-19.8,26.1-2.8,3.4-5.6,6.7-8.7,9.7-.6.6.4,1.6,1,1Z"/>
  <path class="cls-10" d="M288.6,323.9c13.4-11.5,24.6-25.6,32.9-41.3,2.3-4.4,4.4-8.9,6.2-13.6.3-.9-1-1.2-1.4-.4-6.5,16.3-16,31.3-28,44.1-3.4,3.6-6.9,7-10.6,10.2-.7.6.3,1.6,1,1Z"/>
  <path class="cls-26" d="M290.4,198.8c1,2.2,2.1,4.5,3.2,6.7,7.7,15.7,15.4,32.2,27.7,45,13.2,13.7,22.4,14.5,31.6,12.1,18.4-4.9,31.3-26.2,33.6-28.7,2.3-2.4,11.7-10.1,17.5-31.6,3.1-11.6,4.9-23.6,6.2-35.5,1.7-15,2.9-30.6.6-45.6-1-6.4-2.8-13.5-7.3-18.4-5.4-5.8-12-5.1-19-3.1-3,.9-6.8,2.1-8.7-1.4-1.7-3.2-4.4-6-4.4-9.7,0-2.2.2-4.4.3-6.3.3-4,.8-6.9.8-7.1.1-5.1.4-10.6-.5-15.4-.9-4.4-2.8-8.3-6.9-11-4.6-3-10-4.6-15.5-5.3-8.8-1.1-18.5-1.2-26.2,3.9-8.3,5.5-11.8,15.1-12.8,24.7-.3,3.6-.8,7.3-.9,10.9-.1,5.1.2,10.5-2.5,15-1.2,2.1-3.5,5.4-6,4.7-3.9-1.1-7.2-2.4-11.3-1.5-3.8.8-6.8,3.2-9.7,5.8-10.5,9.9-8.6,26.1-6.4,38.9,3.2,18.3,8.6,36,16.4,52.9Z"/>
  <path class="cls-13" d="M328.9,80.2c1.7,4.5,4.6,8.4,9.3,9.8,6.6,1.9,13.7,4.3,19.1.9,4.8-3,10.5-2.2,10.5-2.2,0,0,1.9-2.8,4-6.2.3-4,.8-6.9.8-7.1.1-5.1.4-10.6-.5-15.4-.2.5-4.1,10.1-10.9,6.5-5.2-2.7-8.6-3.8-14-5.9-6.4-2.6-11.6-3-17.2,1.5-3.7,3-3.4,7.8-2.7,12,.3,2.1.8,4.2,1.6,6.3Z"/>
  <path class="cls-20" d="M341.3,65c.4,0,.7,0,1.1.3.3.2.6.5.9.8s.5.7.6,1.2c.1.4.2.9.2,1.4,0,.5,0,.9-.2,1.4-.2.4-.4.8-.6,1.2-.3.3-.6.6-.9.8s-.7.3-1.1.3c-.4,0-.7-.1-1.1-.3-.3-.2-.6-.5-.9-.8-.3-.3-.5-.7-.6-1.2-.1-.5-.2-.9-.2-1.4,0-.5,0-.9.2-1.4.1-.4.4-.8.6-1.2.3-.3.6-.6.9-.8.3-.2.7-.3,1.1-.2Z"/>
  <path class="cls-31" d="M368.7,95s-10.8-1.8-12.1-5.1c-1.7-4.5-1.7-6.3-1.7-6.3l10.7.9,3.1,10.6Z"/>
  <path class="cls-20" d="M362.9,65s22.3,6.8,10.3,34.5c-.6,1.5-2.8,1.5-3.4,0-2-5.3-6.1-13.7-11.6-12.7-8.1,1.5-7.1-23.2,4.7-21.7Z"/>
  <path class="cls-28" d="M543.5,212.4s108.9,14.2,124.1,42.5c-8.9,87.5-12,425.8-12,425.8l-299.1-1.7s16.2-361-10-423.7c14.7-18.4,62.2-38.2,125.2-44.2,60.8-5.8,71.8,1.3,71.8,1.3Z"/>
  <path class="cls-17" d="M459.1,220.4l21.9,30.6c3.1,4.6,35.3,4.9,38,0l23.9-30.5h-83.9Z"/>
  <path class="cls-20" d="M382.9,235.4c.1,0,.2-.1.4-.2-.3.1,0,0,.1,0,.1,0,.3,0,.4-.1s.5,0,.2,0c-.3,0,.3,0,.3,0h.4c.1,0,.3,0,.4,0,.2,0,.3,0,0,0,.3,0,.6.1.9.2.1,0,.3,0,.4.1,0,0,.4.2.2,0-.2,0,.3.1.3.2.1,0,.3.1.4.2.3.2.6.4.8.5,0,0,.4.3.2.2-.1-.1.2.1.2.2.3.2.5.4.7.7.5.4.9.9,1.3,1.4.4.5.8,1,1.3,1.4.1.1.2.2.3.3,0,0,.2.3,0,0,.2.3.4.6.6.9.5,1.1,2.1,1.4,3.1.8,1.1-.7,1.4-2,.8-3.1-.7-1.4-1.9-2.6-3-3.8-1.1-1.2-2.3-2.3-3.7-3.3-2.8-1.8-6.6-2.4-9.6-.7-1,.6-1.4,2.1-.8,3.1.7,1,2,1.4,3.1.8Z"/>
  <path class="cls-20" d="M379.1,235.7c-.7.1.1,0,.3,0s.3,0,.4,0c.3,0-.5-.1,0,0,.3,0,.5.1.8.2,0,0,.3.1.3.1-.3-.1-.4-.2-.2,0,0,0,.1,0,.2,0,.2.1.5.3.7.4,0,0,.2.1.3.2.4.3-.4-.3,0,0,.2.2.4.4.6.6s.3.4.5.6c-.2-.1-.2-.3,0,0,0,.1.2.2.2.3.2.3.3.5.5.8.1.2.2.5.4.7,0,.1.1.3.2.4.2.4-.2-.4,0,0,.4,1.1.8,2.2,1.1,3.3.3,1.1,1.6,2,2.8,1.6,1.1-.4,1.9-1.6,1.6-2.8-.8-2.8-1.8-5.6-3.7-7.9-.9-1-2-1.9-3.3-2.5-1.6-.7-3.1-.9-4.8-.6-.5,0-1.1.6-1.3,1-.3.5-.4,1.2-.2,1.7.4,1.3,1.5,1.8,2.7,1.6Z"/>
  <path class="cls-10" d="M333.3,261.1s-.1,0-.2,0c-4-.7-11.7-9.3-12.5-10.3-.3-.4-.3-.9,0-1.2.3-.3.9-.3,1.2,0,2.2,2.5,8.7,9.2,11.6,9.7.5,0,.8.5.7,1,0,.4-.4.7-.8.7Z"/>
  <path class="cls-10" d="M334.3,197.9c.8,2.3,1.6,4.6,2.6,6.8,1,2.2,2.1,4.8,3.5,6.7.8,1.1,2.6,1.9,3.6.6.6-.7.6-1.9.7-2.7.2-1.4.2-2.8.2-4.2-.4,0-.9.1-1.3.2.7,2,1.6,3.9,2.7,5.7.9,1.5,2,3.4,3.6,4.2,4.2,1.8,3.4-6.5,3.2-8.4-.4,0-.9.1-1.3.2.7,1.8,1.6,3.5,2.8,5,1,1.4,2.4,3,4.3,3.1,1.8.1,2.6-1.4,3-2.9.6-2.2.9-4.4.9-6.6-.4,0-.9.1-1.3.2.6,1.8,1.5,3.5,2.6,5,.9,1.2,2.2,2.9,3.9,3.1,3.7.3,4.9-6,5.2-8.5.1-.9-1.2-1.2-1.3-.4-.2,1.7-1.5,8.5-4.3,7.4-1.2-.5-2.3-2-3-3.1-.8-1.2-1.4-2.5-1.9-3.8-.2-.7-1.3-.6-1.3.2,0,1.8-.1,9.2-3.1,8-1.3-.5-2.3-1.9-3.1-3.1-.8-1.2-1.5-2.5-2.1-3.9-.3-.6-1.4-.6-1.3.2.1,1.6.1,3.3,0,4.9s0,1.8-.7,2.2c-.8.4-1.5-.4-2-1-1.8-2.3-3.2-5.1-4.3-7.8-.3-.7-1.4-.6-1.3.2,0,1.7.2,4-.4,5.6-.8,2.2-3-2.3-3.4-3.1-1.7-3.2-3.1-6.5-4.2-10-.2-.8-1.5-.4-1.3.4Z"/>
  <path class="cls-10" d="M320.9,243.3c1.3,1.9,2.7,3.8,4.1,5.6,1.3,1.5,2.6,3.2,4.3,4.3,1,.6,3,1.4,3.6-.1.3-.8,0-1.9-.3-2.6-.3-1.2-.7-2.4-1.2-3.6-.4.2-.8.3-1.2.5.8,1.3,1.7,2.6,2.7,3.7.8.9,1.8,2.2,3,2.6.9.3,2,0,2.4-.8.5-1,0-2.3,0-3.3-.4.2-.8.3-1.2.5,1.7,1.9,3.8,3.4,6.4,2.6,2.3-.7,3.6-3,3.4-5.3,0-.9-1.4-.9-1.4,0,.1,1.9-.9,3.6-2.8,4.1-2,.5-3.5-.9-4.8-2.3-.4-.4-1.2,0-1.2.5,0,.7.3,1.4.3,2.1.1.4,0,.5-.5.5-.3.3-.6.3-.9,0-.4-.2-.7-.7-1.1-1-1.3-1.3-2.4-2.8-3.4-4.4-.4-.6-1.5-.2-1.2.5.3.7.6,1.5.8,2.2.2.7.7,1.9.6,2.6,0,.6-.2.6-.7.5-.4,0-.8-.3-1.1-.5-.7-.4-1.3-1-1.8-1.6-2.2-2.3-4.2-5-6-7.7-.4-.7-1.6,0-1.1.7Z"/>
  <path class="cls-10" d="M371.7,231c.7.8,1.4,1.7,2.2,2.3.7.6,1.6.7,2.4.1,1.4-1.2,1.5-3.3,1.4-5-.3.2-.7.4-1,.6.9.6,1.5,1.4,2.4,1.8.9.4,1.9.3,2.6-.4.7-.7.9-1.7,1.1-2.6.2-1.2.2-2.4.1-3.5-.4.1-.8.2-1.3.3.3.4.6.8.9,1.2.2.3.4.7.8.9.6.4,1.3,0,1.6-.6.4-.7.4-1.6.5-2.4,0-.9,0-1.8,0-2.7,0-.9-1.4-.9-1.4,0,.1,1.1.1,2.3,0,3.4,0,.3-.1.6-.2.9,0,0,0,.1,0,.1-.1.2,0,.2.2,0,0,0-.5-.7-.6-.8-.2-.3-.4-.5-.6-.8-.4-.5-1.3-.4-1.3.3,0,.9,0,1.7,0,2.6,0,.8-.2,1.7-.6,2.4-.9,1.5-2.8-.8-3.6-1.4-.4-.3-1,0-1,.6,0,1.2.1,2.6-.6,3.6-.2.2-.4.5-.7.4-.3-.1-.5-.5-.7-.6-.5-.6-1.1-1.2-1.6-1.8-.6-.6-1.6.3-1,1Z"/>
  <path class="cls-10" d="M315,82.8c-1.2,2.8-2.1,6.3-1.5,9.4.2,1.1.9,1.9,2.1,1.8,1.4-.2,2-1.5,2.4-2.6-.4,0-.9-.1-1.3-.2,0,1.6,0,3.3.3,4.8.2,1.3.4,2.8,1.1,3.9.5.8,1.4,1.2,2.3.8,1.3-.6,1.4-2,1.9-3.2-.4-.1-.8-.2-1.3-.3,0,2.3.1,6.5,2.8,7.4,2.4.8,4.5-1.4,4-3.8-.2-.7-1.4-.6-1.3.2.2,3.4,4,5.4,6.8,3.3.7-.5,0-1.7-.7-1.2-1.9,1.4-4.6.4-4.8-2.1-.4,0-.9.1-1.3.2.4,2-2.1,3-3.2,1.4-.9-1.4-1-3.7-.9-5.3,0-.6-1-1-1.3-.3-.3.7-.5,2.1-1.1,2.5-1,.7-1.3-1.4-1.4-2-.5-2.1-.6-4.1-.6-6.2,0-.8-1.1-.9-1.3-.2-.3.7-1.3,2.6-1.9,1-.3-.7-.1-2,0-2.8.1-1.9.6-3.9,1.4-5.7.4-.8-.8-1.4-1.1-.7Z"/>
  <path class="cls-10" d="M329,48.7c-2.7-.1-5.9,1-7.5,3.2-.7,1-.6,2.3.4,3,.9.6,2.1.7,3.1.6-.2-.4-.3-.8-.5-1.2-1.6,1.4-3,2.9-4.1,4.7-.5.8-1.2,1.7-1.5,2.6-.4,1,.8,1.5,1.6,1.3.9-.2.5-1.5-.4-1.3,0,0,0,0,0,0v.7c1.4-2.7,3.2-5,5.5-7,.4-.4,0-1.2-.5-1.2-.7,0-1.6,0-2.2-.3-.9-.5,0-1.4.4-1.9,1.6-1.4,3.7-2.1,5.8-2,.9,0,.9-1.3,0-1.3Z"/>
  <path class="cls-10" d="M319.9,117.3c-.9,2-1.5,4.1-1.8,6.3-.2,1.4-.6,3.8,1.2,4.4,1.8.5,3.3-1.4,4.3-2.5,1.6-1.7,3-3.5,4.4-5.4-.4-.1-.8-.2-1.3-.3,0,2.7.4,7.3,3.9,7.8,3.3.6,4.7-4.3,5.5-6.6h-1.3c.4,1.9,2.2,5.6,4.7,5.2,1.1-.2,1.5-1.4,1.8-2.3.5-1.6.9-3.2,1.1-4.8-.4,0-.8.1-1.2.2.9,2,2.8,5,5.1,5.3,2.7.3,3.4-4,3.8-5.8-.4,0-.8,0-1.2.2,1,1.8,3.4,5,5.8,4.5,1-.2,1.5-1.1,1.9-1.9.6-1.5.9-3.1,1.3-4.6-.4,0-.8.2-1.1.3,2.2,2.3,7.1,5.2,10.2,2.9,1.3-.9,1.7-2.6,1.5-4.1-.3-2-1.8-3.6-3.2-4.9-.6-.6-1.6.3-1,1,1.1,1,2.3,2.2,2.7,3.6.4,1.4,0,3.2-1.5,3.7-2.7.9-6-1.2-7.8-3.1-.4-.4-1-.2-1.1.3-.3,1.1-.6,2.1-.8,3.2-.2.7-.4,1.8-1,2.2-1.5,1.1-4-2.6-4.6-3.7-.3-.5-1.1-.4-1.2.2-.3,1.5-1,6-3.3,4.4-1.4-1-2.4-2.6-3.1-4.1-.2-.5-1.2-.4-1.2.2-.1.9-.3,1.8-.5,2.7-.2.9-.4,2.1-.9,2.9-1.3,2.1-3.4-2.4-3.6-3.5-.2-.7-1.1-.6-1.3,0-.5,1.5-1.9,6.2-4.2,5.6-2.5-.7-2.6-4.4-2.5-6.5,0-.7-.9-.9-1.3-.3-.9,1.3-1.9,2.6-3,3.8-.9,1.1-2,2.5-3.2,3.3-.4.2-1,.3-1.3-.1-.2-.3,0-1.1,0-1.4,0-.8.2-1.5.3-2.3.3-1.6.8-3.2,1.4-4.7.3-.8-.8-1.5-1.2-.7Z"/>
  <path class="cls-10" d="M382.8,108.6c-.3,3.4,0,6.8,1.1,10,1.1,3.2,2.8,6.3,4.1,9.4,2.7,6.3,5,12.7,6.9,19.3,3.8,13.2,5.9,26.9,6.2,40.6.2,7.6-.2,15.3-1.1,22.9,0,.9,1.3.9,1.4,0,3.2-27-.5-54.8-10.8-80-1.4-3.4-3-6.7-4.5-10.1-1.7-3.9-2.4-7.9-2-12.1,0-.9-1.3-.8-1.4,0Z"/>
  <path class="cls-10" d="M301.8,122c-2.6,7.5-.8,15.4,1.3,22.8,2.3,8,4.9,16,6.5,24.2,2.7,13.3,2.3,27,.7,40.4-.9,7.1-2.1,14.2-4.3,21-.3.8,1,1.2,1.3.4,1.9-5.9,3.1-12,3.9-18.1,1-6.7,1.5-13.5,1.7-20.3.1-6.3,0-12.6-1.1-18.8-1.3-8.2-3.7-16.2-6-24.1-2.5-8.6-5.8-18.1-2.7-27,.3-.8-1-1.2-1.3-.4Z"/>
  <path class="cls-10" d="M323,163.8c.2,2.3.6,4.6,1.1,6.9.4,1.8.8,4,2.1,5.4,3.1,3.4,5.5-3.5,6.2-5.7-.4,0-.9-.1-1.3-.2.2,2,.7,4,1.4,5.9.6,1.4,1.3,3.6,2.8,4.3,1.4.6,3-.3,3.8-1.5,1-1.7,1.3-3.9,1.5-5.8h-1.4c.1,2.4,1,4.7,2.5,6.6,1.1,1.4,3.4,2.5,4.6.6.5-.7-.7-1.4-1.2-.7-1,1.6-3-1.5-3.4-2.2-.7-1.3-1.1-2.8-1.2-4.3,0-.9-1.3-.9-1.4,0-.1,1.5-.4,3-.9,4.4-.6,1.5-2.2,2.6-3.3.8-1.5-2.4-2.3-5.3-2.6-8.1,0-.7-1.1-1-1.3-.2-.4,1.5-1.1,3-1.9,4.3-.4.7-1,1.6-1.8.9-.5-.4-.8-1.1-1-1.7-1.1-3.1-1.6-6.5-2-9.8-.1-.8-1.5-.8-1.4,0Z"/>
  <path class="cls-10" d="M368.9,150.2c0,1.2-.1,2.6.8,3.6.8.8,1.9,1,2.8.4,1-.6,1.4-1.9,1.8-3,.4-1.4.5-2.8.4-4.3-.4,0-.9.1-1.3.2.4,1.3,2,5.6,4,3.8.8-.7,1.3-2.1,1.6-3.1.4-1.3.6-2.6.5-4-.4.2-.8.3-1.2.5.5.6.3,1.6,1.3,1.9.8.2,1.4-.3,1.8-.9.5-.9.4-2.1.4-3.1,0-1.4,0-2.8,0-4.2,0-.9-1.4-.9-1.4,0,0,1.8,0,3.6-.1,5.4,0,.2-.1,1.6-.4,1.4-.1,0-.2-.6-.2-.8-.1-.3-.3-.5-.4-.7-.4-.5-1.2,0-1.2.5,0,1.7-.3,3.4-1,5-.1.2-.3.8-.5.9-.4.3-.7-.4-.9-.7-.5-.7-.8-1.5-1-2.3-.2-.7-1.4-.6-1.3.2.2,1.8,0,3.7-.9,5.3-.4.7-1.1,1.4-1.8.6-.7-.7-.5-1.8-.4-2.6,0-.9-1.3-.9-1.3,0Z"/>
  <path class="cls-10" d="M280.9,168.6c.3,1.1,1.2,1.7,2.3,1.7,1.3,0,2.3-.9,3-2,1.7-3.2,2-7.4,1.8-10.9-.4.1-.8.2-1.3.3,1.1,1.5,3.2,5.9,5.4,3.3.9-1.1,1.4-2.7,1.7-4,.4-1.7.6-3.4.6-5.1-.3.2-.6.4-.9.7,1.2.2,1.5,1.9,2.9,1.5,1.4-.4,2-2.7,2.4-3.9,1.3-3.9,1.2-8.1,1.2-12.2,0-.9-1.4-.9-1.4,0,0,3.4,0,6.8-.6,10-.2.8-.4,1.5-.6,2.2-.2.6-.5,1.8-1,2.2-.6.5-.9-.3-1.3-.7-.3-.3-.7-.5-1.1-.6-.4,0-.9.2-.9.7,0,2.2-.3,4.4-1.1,6.5-.2.5-.4,1-.6,1.4-.6,1-1.1.5-1.6-.2-.6-.8-1.2-1.7-1.8-2.6-.4-.5-1.3-.4-1.3.3.1,2.5,0,5-.6,7.4-.2,1-.5,2.1-1,3-.5.8-2.3,2-2.7.5-.3-.8-1.6-.5-1.3.4Z"/>
  <path class="cls-10" d="M287.5,160.3c3.5,12.1,4.7,24.7,3.5,37.3,0,.9,1.3.9,1.4,0,1.3-12.6,0-25.4-3.5-37.6-.2-.8-1.5-.5-1.3.4Z"/>
  <path class="cls-10" d="M297.3,151c3.6,17.2,5.3,34.7,4.1,52.2-.4,5.2-1,10.3-1.9,15.4-.1.9,1.2,1.2,1.3.4,3.1-17.6,3-35.6.5-53.2-.7-5.1-1.6-10.1-2.7-15.1-.1-.8-1.5-.5-1.3.4Z"/>
  <path class="cls-10" d="M274.4,141.9c-.4,3.2,3.6,3.7,5.5,2,2.6-2.3,2.8-7.1,2.5-10.3-.4.1-.8.2-1.3.3.5,1.2.7,2.6,1.8,3.4.8.6,2,.8,2.8.2,1-.8,1.3-2.5,1.6-3.6.4-1.6.5-3.3.4-4.9-.3.2-.7.4-1,.6.8.6,1.1,1.8,2.3,1.7.9,0,1.5-1,1.7-1.8.4-1.4.3-3.1.3-4.6,0-1.9,0-3.8,0-5.7,0-.9-1.4-.9-1.4,0,0,2.4,0,4.8,0,7.2,0,.7.2,2.5-.4,3.1-.7.7-1.3-.6-1.8-1-.4-.3-1,.1-1,.6,0,2-.1,4-.8,5.9-.2.6-.3,1.2-.9,1.4-.7.3-1,0-1.4-.5-.5-.7-.7-1.8-1-2.6-.3-.6-1.3-.3-1.3.3.2,2.3,0,4.7-.7,6.9-.3,1-.9,2.1-1.8,2.7-1.2.7-2.9.2-2.7-1.4,0-.9-1.3-.9-1.4,0Z"/>
  <path class="cls-10" d="M384.5,118.6c.6,1.5,1.3,2.9,2.1,4.2.5.8,1.2,1.7,2.2,1.8,2.8.5,3.4-2.9,3.3-4.9-.4.2-.8.3-1.2.5,2.1,2.5,2,6.7,5.5,8,2.4.9,5.3-1.2,4-3.8-.4.2-.8.5-1.2.7,1.3,2,2.6,4.1,4.8,5.2,1.8,1,4,1.1,5.8,0,.7-.4,0-1.6-.7-1.2-3.8,2.2-6.9-2.1-8.7-4.8-.5-.7-1.6,0-1.2.7.6,1.3-.9,2.2-2,2-1.2-.3-2.1-1.3-2.6-2.4-1-1.8-1.4-3.8-2.8-5.4-.4-.4-1.2-.1-1.2.5,0,.8.1,1.6-.1,2.3-.4,1.3-1.7,1.7-2.5.6-1-1.3-1.7-2.9-2.3-4.3-.3-.8-1.6-.5-1.3.4Z"/>
  <path class="cls-10" d="M393.2,140.1c.9,2.1,2.7,4.4,5.1,4.6,2.6.2,3.2-2.4,3.1-4.3-.4.1-.8.2-1.3.3,1.2,2.3,2.7,4.8,5.5,5.3,2.2.4,4.6-1.1,4.5-3.5,0-.9-1.4-.9-1.4,0,0,2-2.3,2.6-3.8,1.9-1.8-.8-2.8-2.7-3.7-4.3-.3-.6-1.3-.3-1.3.3,0,1.4-.1,3.5-2.1,2.9-1.6-.5-2.9-2.1-3.5-3.6-.3-.8-1.6-.5-1.3.4Z"/>
  <path class="cls-10" d="M400.8,143.4c1.9,5.9,3.4,11.9,4.7,17.9,1.3,6.2,1.6,12.4,1.8,18.7,0,.9,1.4.9,1.4,0-.1-6.3-.5-12.5-1.7-18.6-1.3-6.2-2.9-12.4-4.8-18.4-.3-.8-1.6-.5-1.3.4Z"/>
  <path class="cls-10" d="M406,145.7c2,4.8,3.1,10,3.3,15.2,0,.9,1.4.9,1.4,0-.2-5.3-1.3-10.6-3.4-15.6-.3-.8-1.6-.4-1.3.4Z"/>
  <path class="cls-3" d="M635.4,245c.6.4.8,1.4.6,2.1-.2.7-.8,1.3-1.4,1.9-1.3,1.2-2.9,2.4-4.7,2.4s-.2,0-.3,0c-.1-.1,0-.3,0-.5.1-.3.3-.6.6-.9-1.2.6-2.6.8-3.9.7.2-.5.5-.9.9-1.2-.8.2-1.5.4-2.3.6-.1-.4.2-.8.5-1,1.6-1.3,3.9-1.9,4.9-3.7.2-.3.3-.6.5-.9.2-.2.5-.3.8-.4,1.2-.4,2.6,0,3.6.7"/>
  <path class="cls-3" d="M609.6,241.2c.6.4.8,1.4.6,2.1-.2.7-.8,1.3-1.4,1.9-1.3,1.2-2.9,2.4-4.7,2.4s-.2,0-.3,0c-.1-.1,0-.3,0-.5.1-.3.3-.6.6-.9-1.2.6-2.6.8-3.9.7.2-.5.5-.9,1-1.2-.8.2-1.5.4-2.3.6-.1-.4.2-.8.5-1,1.6-1.3,3.9-1.9,4.9-3.7.2-.3.3-.6.5-.9s.5-.3.8-.4c1.2-.4,2.6-.1,3.6.7"/>
  <path class="cls-3" d="M646.5,235.9s17.4,11.7,9.6,28.2c-7.8,16.5-40.8,11-44.5,8.7-3.7-2.3,10.4,2.5,21.6.2,11.2-2.3,21.6-5.7,19.7-17.1-1.9-11.5-11-16.9-11-16.9l4.6-3Z"/>
  <path class="cls-27" d="M625.8,164.1s-2.3-10.1-7.6-13.3c-5.3-3.2-10.5-3.7-12.6-3.6-2.1.1-7.5-.5-8.8-.7-1.3-.1-2.5,4.3-1.9,6.9.7,2.7,3.3,9.7,5.1,13.2,1.7,3.5,2.8,6.4,1.1,9.2-1.7,2.8-2.5,13.7-2.8,16.8-.3,3.1,5.7,11,5.6,15.8-.1,4.8.3,4.9-.7,7.6-.9,2.7-5.7,17.6.5,24.2,0,0,4.1,2.8,11,1.3,6.9-1.5,12.1,3.5,19.3,3.3s19.5-8.3,18.1-20c-1.5-11.7-14.5-30.7-15.4-33.4-.9-2.7-2.3-9.2-4.1-12.4-1.9-3.2-5.2-7.2-6.8-15Z"/>
  <path class="cls-3" d="M623.5,158.6s.7-6.8,5.1-5.8c4.3,1.1,7.4,8.3,3.8,9.8-3.5,1.5-8.9-.9-8.9-2.5s0-1.6,0-1.6Z"/>
  <path class="cls-4" d="M624.8,159.4h0c-.1,0-.2-.2-.2-.3.6-4.3,5.1-4.1,5.1-4.1.1,0,.2.1.2.3s-.1.2-.3.2h-.2c-.9,0-3.9.2-4.3,3.6,0,.1,0,.2-.2.2Z"/>
  <path class="cls-12" d="M613.1,153.8c.3.1.4.4.5.8,0,.4,0,.8-.2,1.2-.2.4-.5.7-.8,1s-.6.3-.9.1-.4-.4-.5-.8c0-.4,0-.8.2-1.2.2-.4.5-.7.8-1,.3-.2.6-.3.9-.1Z"/>
  <path class="cls-3" d="M620.1,201.2c-.9,2.5-1,5.3-.2,7.9.3.9.6,1.8.7,2.7-.7-.6-1.3-1.3-1.8-2.1,0,.9,0,1.8,0,2.6-.6-.6-1.1-1.4-1.4-2.2,0,0,0-.2-.1-.2-.2,0-.3.2-.3.4v1.4c-.3-.2-.5-.6-.6-1-1-3.7-.7-7.6.8-11.1"/>
  <path class="cls-3" d="M602.2,198.6c-.9,2.5-1,5.3-.2,7.9.2.9.6,1.8.7,2.7-.7-.6-1.3-1.3-1.8-2.1,0,.9,0,1.8,0,2.6-.6-.6-1.1-1.4-1.4-2.2,0,0,0-.2-.1-.2-.2,0-.3.2-.3.4v1.4c-.3-.2-.5-.6-.6-1-1-3.7-.7-7.6.8-11.1"/>
  <path class="cls-27" d="M624.4,197.6c-.5,1.3-1.2,2.5-2,3.7-.5.7-1.1,1.4-2,1.5-.1,0-.3,0-.4-.1,0,0,0-.2-.1-.3,0-.4,0-.8,0-1.3-.4,1-1.1,1.8-2,2.4-.3.2-.8.3-.9,0,0-.1,0-.3,0-.4v-1.1c0,.5-.2,1-.5,1.3,0,0-.2.2-.3.2-.3,0-.5-.4-.6-.7-.2-1.5,0-2.9.4-4.3"/>
  <path class="cls-19" d="M624,197.4c-.5,1.3-1.2,2.5-2,3.7-.3.4-.7.9-1.2,1.1,0,0-.3.1-.4,0-.2,0,0,0,0-.1-.1-.3,0-.8,0-1.2s-.6-.6-.7-.2c-.3.7-.8,1.3-1.4,1.9-.1,0-.7.7-.9.5,0,0,0-.5,0-.7v-.6c0-.5-.8-.5-.8,0s0,.5-.1.7c0,0-.1.3-.2.3,0,0,0,0,0,0-.1-.1-.1-.5-.1-.7,0-.2,0-.5,0-.7,0-1,.2-2,.5-3,.1-.5-.6-.7-.8-.2-.3.8-.4,1.6-.5,2.5,0,.7-.1,1.6,0,2.3.2.5.6,1,1.2.6.6-.3.8-1.2.8-1.8h-.8c0,.5-.2,1.3.2,1.8.3.4.8.3,1.2.1,1-.5,1.9-1.6,2.3-2.6-.2,0-.5-.1-.7-.2,0,.6-.1,1.8.6,2,.7.2,1.4-.2,1.9-.7.6-.6,1-1.3,1.5-2.1.5-.8.9-1.7,1.2-2.6.1-.4-.6-.6-.8-.2Z"/>
  <path class="cls-19" d="M635.8,214.2c-5.4,0-9.6,4.2-11,9.2-1.6,6,.4,12.2,3,17.6.2.5.9,0,.7-.4-2.3-5-4.3-10.6-3.1-16.2,1.1-5,5-9.5,10.4-9.5.5,0,.5-.8,0-.8Z"/>
  <path class="cls-19" d="M605.7,207.3c2.3,5.4,3,11,2.8,16.8-.2,5-.4,10.4,2.7,14.7.3.4,1,0,.7-.4-3.3-4.6-2.6-10.4-2.5-15.7s-.8-10.6-2.9-15.5c-.2-.5-1-.3-.8.2Z"/>
  <path class="cls-19" d="M604.7,181.4c-1.7,1.7-2,4.2-2.1,6.5,0,.8,0,1.8.8,2.2.7.3,1.5-.1,1.4-.9,0-.4-.7-.6-.7,0-.5,3.3-.5,6.5.2,9.8.1.5.9.3.8-.2-.6-3.1-.7-6.3-.2-9.4-.2,0-.5,0-.7,0-.2.3-.4.3-.6-.2,0-.2,0-.4,0-.6,0-.2,0-.5,0-.7,0-.7.1-1.4.2-2.1.2-1.3.7-2.6,1.6-3.6.3-.4-.2-.9-.6-.6Z"/>
  <path class="cls-19" d="M644.5,220.4c.5.9.8,1.9.9,2.9,0,.2.2.4.4.4s.4-.2.4-.4c-.1-1.2-.4-2.3-1-3.3-.2-.4-.9,0-.7.4Z"/>
  <path class="cls-19" d="M644.5,225.9s0,0,0,0c0,0,0,0,0,0,0,0,0,0,0,.1,0,0,0,.2,0,.2,0,0,0,0,0-.1,0,.1,0,.3,0,.4,0,0,0,0,0-.1,0,.1,0,.3-.1.4,0,0,0,.2,0,.3,0,0,.1.2.2.2.1,0,.2,0,.3,0,0,0,.1-.1.2-.2.2-.5.2-1.1,0-1.6,0-.2-.4-.2-.5-.1-.2.1-.2.4-.1.5Z"/>
  <path class="cls-19" d="M642.4,219.7c0,.4.2.9.3,1.3,0,.2.3.3.5.3.2,0,.3-.3.3-.5,0-.4-.2-.9-.3-1.3,0-.2-.3-.3-.5-.3-.2,0-.3.3-.3.5Z"/>
  <path class="cls-19" d="M626.9,175.6c.2.4.4.8.5,1.2,0,0,.1.2.2.2,0,0,.2,0,.3,0s.2-.1.2-.2c0-.1,0-.2,0-.3-.2-.4-.4-.8-.5-1.2,0,0-.1-.2-.2-.2,0,0-.2,0-.3,0s-.2.1-.2.2c0,0,0,.2,0,.3Z"/>
  <path class="cls-19" d="M628.1,180.5c0,.5,0,1,.3,1.4,0,.2.4.3.5.1.2-.1.2-.3.1-.5,0,0,0-.1,0-.2,0,0,0,0,0,.1,0-.2-.1-.4-.2-.6,0,0,0,0,0,.1,0-.1,0-.3,0-.4,0-.2-.2-.4-.4-.4s-.4.2-.4.4Z"/>
  <path class="cls-19" d="M625.4,178c.1.3.3.5.4.8,0,0,.1.2.2.2.1,0,.2,0,.3,0,0,0,.2-.1.2-.2,0-.1,0-.2,0-.3-.1-.3-.3-.5-.4-.8,0,0-.1-.2-.2-.2-.1,0-.2,0-.3,0,0,0-.2.1-.2.2,0,0,0,.2,0,.3Z"/>
  <path class="cls-19" d="M613.3,172.4c-.3-.3-.6-.6-.8-.8-.2-.2-.6-.1-.7.2-.1.5-.2,1.1-.1,1.6l.4-.4c-.7,0-1.2-.6-1.5-1.1-.1-.2-.3-.2-.5-.2-.2,0-.3.3-.2.5,0,.1,0,0,0,0,0,0,0,0,0,0,0,0,0,0,0,0-.1,0-.3-.2-.4-.4-.3-.3-.6-.6-.9-.9-.3-.4-.9.2-.6.6.2.3.5.5.7.8.2.2.4.5.7.7.3.1.6.2.9,0,.2-.2.4-.5.3-.8-.2,0-.5.2-.7.3.5.7,1.2,1.5,2.2,1.4.2,0,.4-.2.4-.4,0-.5,0-.9,0-1.4-.2,0-.4.1-.7.2.3.3.6.6.8.8.3.4.9-.2.5-.5Z"/>
  <path class="cls-19" d="M595.7,148.4c-.3.6-.5,1.2-.7,1.9,0,.3-.2.7-.1,1,0,.3.2.6.3.8.3.5.6,1,1.1,1.3.5.3,1.1.4,1.7.1.2,0,.2-.4.1-.5-.1-.2-.3-.2-.5-.1-.3.2-.8,0-1-.2-.4-.3-.6-.7-.8-1.1,0-.2-.2-.4-.2-.6,0-.2.1-.5.2-.7.1-.5.3-1,.5-1.5,0-.2,0-.4-.1-.5-.2,0-.5,0-.6.1Z"/>
  <path class="cls-3" d="M598.4,147.5c0,.4-.2.7-.5,1-.3.3-.7.4-1.1.4s-.8-.1-1.1-.4c-.3-.3-.5-.6-.5-1s.2-.7.5-1c.3-.3.7-.4,1.1-.4s.8.1,1.1.4c.3.3.5.6.5,1Z"/>
  <g class="cls-36">
    <path class="cls-29" d="M995,767.9H88.6c-2.2,0-4-1.8-4-4v-32h915.9v30.5c0,3-2.5,5.5-5.5,5.5Z"/>
  </g>
  <g class="cls-35">
    <path class="cls-8" d="M997.3,749.9H87.8c-1.8,0-3.2-1.4-3.2-3.2v-82.1c0-1.8,1.4-3.2,3.2-3.2h909.4c1.8,0,3.2,1.4,3.2,3.2v82.1c0,1.8-1.5,3.2-3.2,3.2Z"/>
  </g>
  <path class="cls-14" d="M321.5,568.1s-11.4,133.5-4.5,132.7c7-.9,9.4,2.9,9.4,7.2s-.4,5.8-7,6.7c-6.6.9-21,1.1-21-1.9s-5.9-72.8-6.3-83.8,2.7-38.5,2.7-38.5l26.5-22.3Z"/>
  <path class="cls-6" d="M318.2,580.1c-3.1,8.1-7.2,16.2-11.2,23.2-4.2,7.3-8.4,13.4-11.6,16.8-2.7,2.9-4.5,3.9-5,2.3,0,0-1,4.6-3,11.7-.2.8-.5,1.7-.8,2.6-.2.5-.3,1.1-.5,1.7s-.2.8-.4,1.2c-.2.6-.4,1.3-.6,2-.9,2.9-2,6-3.2,9.3-.5,1.3-1,2.5-1.5,3.9-.6,1.5-1.3,3.1-1.9,4.7-.1.3-.3.7-.4,1-.5,1.1-1,2.3-1.5,3.4-.4,1-.9,1.9-1.4,2.9-.3.7-.7,1.5-1.1,2.2-1.6,3.4-3.4,6.7-5.4,10.1-.2.4-.5.9-.7,1.3-.1.2-.3.5-.4.7-.3.5-.6.9-.8,1.4-.1.2-.3.5-.4.7-.3.4-.5.9-.8,1.3-1.8,2.8-3.7,5.5-5.7,8.1-.3.4-.7.9-1,1.3-.9,1.1-1.8,2.2-2.8,3.3-.4.5-.9,1-1.3,1.4-.4.5-.9,1-1.3,1.4-.4.5-.9.9-1.4,1.4-.3.2-.5.5-.8.8-.5.4-.9.9-1.4,1.3-.7.6-1.4,1.2-2.1,1.8-3.1,2.7-6.5,5-10,7-4.8,2.7-10,4.7-15.6,5.8-45.5,8.7-86.2,3.9-105.8-30.4-4.5-7.9-6.2-17.2-4.8-26.2,5.2-33.2,24.8-70.9,63.5-97.9,34.3-28.2,60.3-68,58.4-79.8-1.5-9,38.7-10.2,60.3-4.1,2.1.6,4.1,1.3,5.8,2,3.6,1.5,6.1,3.4,7.1,5.5,6.3,13.7,15.6,51.8,17.2,63.3,1.2,7.9-1.5,18.7-5.7,29.5Z"/>
  <path class="cls-6" d="M146.9,685.8c-1.1.2-2.1,18.3-2.4,20.6-1.2,0-47.2,16.9-86.7-25-32.5-34.5-42.6-77.9-24.9-106.6,3.9-6.3,9-11.8,15.6-16.4,36.7-25.8,37.1,4.4,28.6,11.5-8.5,7.1-17.2,13.2-22.9,21.9-2.5,3.7-4.4,7.9-5.5,12.9-2.8,12.3,0,25.2,5.2,36.6,7.1,15.4,17.3,33.5,33.6,40.1,18.7,7.6,39.8,9.2,59.4,4.5Z"/>
  <path class="cls-6" d="M300.9,489.2c-6.2.8-12.5,1.1-18.8,1.6-8.8.6-17.7.6-26.5,0-11.2-.8-18.7-2.2-29.1-6.9-9.6-4.3-15.5-12.9-14.3-24.4,0-.2,0-.5,0-.7.3-2.2.7-4.3,1.2-6.4,3.6-14.5,12.1-25.7,24-33.8,3.7-2.5,7.8-4.5,12-5.8,8.1-2.7,16.9-3.3,25.3-2.5,1.7.1,3.3.4,5,.6,15.9,2.6,31.6,10.4,42.7,23,1.4,1.5,2.5,3.2,3.5,4.9,10.6,19.2-3.7,47.6-25,50.4Z"/>
  <path class="cls-25" d="M300.9,489.2c-6.2.8-12.5,1.1-18.8,1.6-8.8.6-17.7.6-26.5,0-11.2-.8-18.7-2.2-29.1-6.9-9.6-4.3-15.5-12.9-14.3-24.4,0-.2,0-.5,0-.7.3-2.2.7-4.3,1.2-6.4,3.6-.8,7.5,0,11.2.3,5.9.6,11.9.1,17.7-1.3,5.9-1.4,12.3-4.7,13.6-10.6.6-2.9,0-5.9-.8-8.7-1.1-3.9-2.4-7.8-3.8-11.6-1-2.5-2-5.2-2-7.7,8.1-2.7,16.9-3.3,25.3-2.5,1.2,4.9,1.1,10.1.5,15.1-.7,5.3-1.7,11.1,1,15.7,3.5,5.9,11.7,6.9,18.5,6.3,6.8-.7,13.5-2.3,19.9-5,3.5-1.4,6.9-3.2,10.6-3.5.2,0,.4,0,.6,0,10.6,19.2-3.7,47.6-25,50.4Z"/>
  <path class="cls-6" d="M283.6,413.3s11.9-29,17-27.3,15.5,29.9,12.9,40-29.9-12.8-29.9-12.8Z"/>
  <path class="cls-6" d="M244.1,417.2s-18.6-25.3-23.2-22.3c-4.5,3-7.8,32.8-2.7,42,5,9.2,25.9-19.7,25.9-19.7Z"/>
  <path class="cls-34" d="M271.8,442.1c-.2-.6-.8-1-1.8-1.2-3.3-.5-7.3-.2-10.3,1.2-.2.1-.5.3-.6.5-1,1.6,1.1,3.7,2.2,4.5,1.5,1,3.3,1.8,5.1,2,1.4.2,3.3-1.7,4-2.6,1-1.2,1.9-3.1,1.4-4.4Z"/>
  <path class="cls-34" d="M259,460c-2.9,0-5.4-1.9-5.5-2-.3-.3-.4-.7-.1-1.1s.7-.4,1.1-.2c0,0,3.4,2.5,6.3,1.3,2.4-1,4-4,4.8-9,0-.4.4-.6.7-.7.4,0,.7.2.8.6,0,0,2.1,6.8,6.4,7.7,2.5.6,5.5-1,8.7-4.6.3-.3.8-.3,1.1,0,.3.3.4.8,0,1.1-3.6,4.1-7.1,5.8-10.2,5.1-3.3-.7-5.5-4-6.6-6.3-1,4.1-2.8,6.7-5.3,7.7-.8.3-1.6.4-2.3.4Z"/>
  <path class="cls-34" d="M247.6,434.3c.4,0,.7.2,1.1.5.3.2.6.6.8,1s.4.9.5,1.4,0,1,0,1.5-.2,1-.4,1.5-.5.9-.8,1.2c-.3.3-.7.6-1.1.7-.4.2-.8.2-1.2.2-.4,0-.7-.2-1.1-.5-.3-.2-.6-.6-.8-1s-.4-.9-.5-1.4,0-1,0-1.5c0-.5.2-1,.4-1.5s.5-.9.8-1.2c.3-.3.7-.6,1.1-.7.4-.2.8-.2,1.2-.2Z"/>
  <path class="cls-34" d="M281.2,431.5c.4,0,.7.2,1.1.5.3.2.6.6.8,1s.4.9.5,1.4,0,1,0,1.5-.2,1-.4,1.5c-.2.5-.5.9-.8,1.2-.3.3-.7.6-1.1.7-.4.2-.8.2-1.2.2-.4,0-.7-.2-1.1-.5-.3-.2-.6-.6-.8-1s-.4-.9-.5-1.4,0-1,0-1.5.2-1,.4-1.5.5-.9.8-1.2c.3-.3.7-.6,1.1-.7.4-.2.8-.2,1.2-.2Z"/>
  <path class="cls-34" d="M225.4,426.3c-4.8,0-4.3-19.6-1.1-21,2.7-1.1,9.3,8,11.4,11,.4.5.3,1.3-.2,1.7l-10.1,8.3Z"/>
  <path class="cls-34" d="M305.2,418.9c4.6-1.6-2.6-19.9-6.1-20.1-2.9-.2-6,10.7-7,14.2-.2.6.2,1.3.8,1.5l12.3,4.4Z"/>
  <path class="cls-34" d="M205.5,461.5c11.9-4.9,24.8-7.1,37.6-6.5.7,0,.7-1,0-1-12.9-.6-25.9,1.6-37.9,6.5-.6.3-.3,1.3.3,1Z"/>
  <path class="cls-34" d="M238.2,458.1c-11.3,3.3-22.3,7.2-33.1,11.8-.6.3-.3,1.3.3,1,10.8-4.5,21.9-8.5,33.1-11.8.6-.2.4-1.2-.3-1Z"/>
  <path class="cls-34" d="M303,447.9c13.3-2.1,27-2.1,40.3.2.7,0,.9-.9.3-1-13.5-2.3-27.3-2.3-40.8-.2-.7.1-.4,1.1.3,1Z"/>
  <path class="cls-34" d="M303.1,452.6c11.3.9,22.4,3.2,33.1,7,.6.2.9-.8.3-1-10.7-3.8-22-6.2-33.3-7.1-.7,0-.7,1,0,1Z"/>
  <path class="cls-25" d="M264.9,476.1c1.3,0,1.3-2.1,0-2.1s-1.3,2.1,0,2.1Z"/>
  <path class="cls-25" d="M318.2,580.1c-3.1,8.1-7.2,16.2-11.2,23.2-4.2,7.3-8.4,13.4-11.6,16.8-3.6,4-6.5,8.8-8,14-.2.8-.5,1.7-.8,2.6-.2.5-.3,1.1-.5,1.7s-.2.8-.4,1.2c-.2.6-.4,1.3-.6,2-.9,2.9-2,6-3.2,9.3-.5,1.3-1,2.5-1.5,3.9-.6,1.5-1.3,3.1-1.9,4.7-.1.3-.3.7-.4,1-.5,1.1-1,2.3-1.5,3.4-.4,1-.9,1.9-1.4,2.9-.3.7-.7,1.5-1.1,2.2-1.6,3.4-3.4,6.7-5.4,10.1-.2.4-.5.9-.7,1.3-.1.2-.3.5-.4.7-.3.5-.6.9-.8,1.4-.1.2-.3.5-.4.7-.3.4-.5.9-.8,1.3-1.8,2.8-3.7,5.5-5.7,8.1,0,.1-.2.2-.3.4-1.5-5.5-2.9-10.9-1.9-14.1,5.9-17.6,4.2-37.3,10.4-54.9,2.8-8,5.5-16,7.9-24.1,1.2-4.1,2.8-8.2,3.4-12.4.6-4.5-.4-8.9-1-13.4-1.2-8.8.6-17.6.2-26.4-.5-9.9-2.7-19.8-8-28.4-12-19.2-11.8-30.4-11.8-30.4l35-9.2c2.1.6,4.1,1.3,5.8,2,3.6,1.5,6.1,3.4,7.1,5.5,6.3,13.7,15.6,51.8,17.2,63.3,1.1,8-1.5,18.7-5.7,29.5Z"/>
  <path class="cls-6" d="M279.3,580.8c2.3,0-4.9,130.2.1,129.3,7.7-1.3,8.2,2.8,8.2,6.8s-.4,5.5-7.8,6.4c-7.4.9-21,.1-21-2.8s-6.7-68.2-7.1-78.7c-.4-10.5,3-36.6,3-36.6l24.6-24.5Z"/>
  <path class="cls-34" d="M320.9,706.6c.7,2,.9,4.2.7,6.3,0,.3.3.5.5.5s.5-.2.5-.5c.2-2.2,0-4.5-.7-6.6-.2-.6-1.2-.4-1,.3Z"/>
  <path class="cls-34" d="M323.9,705.9c.4,1.8.5,3.7.3,5.5,0,.3.3.5.5.5s.5-.2.5-.5c.2-1.9,0-3.9-.3-5.8-.1-.7-1.1-.4-1,.3Z"/>
  <path class="cls-34" d="M280.8,714.8c.7,2.4,1,5,.7,7.5,0,.7,1,.7,1,0,.2-2.6,0-5.3-.8-7.8-.2-.6-1.2-.4-1,.3Z"/>
  <path class="cls-34" d="M283.9,714.4c.7,2.2.9,4.5.4,6.7-.1.7.9.9,1,.3.5-2.4.4-5-.4-7.3-.2-.6-1.2-.4-1,.3Z"/>
  <path class="cls-6" d="M135.3,707s2.6,8,1.4,11.1c-.6,1.6.4,3.4,2.1,3.7,20.1,3.3,106.9,5.4,108.1-1.1,1.3-7.3-5.2-17.9-22.8-14.2-17.6,3.6-88.8.5-88.8.5Z"/>
  <path class="cls-34" d="M162.2,626c8.4-5,18.7-4.5,27.8-1.6,9.1,2.9,17.7,8.1,24.3,15,7,7.4,11.2,17.4,12.3,27.5.6,5.2.2,10.5-1.3,15.5-1.4,4.4-4,8.4-7.1,11.8-3.5,3.7-7.6,6.7-11.9,9.4-4.8,3-10.3,6.8-16.2,6.8v1c7.5,0,15,0,22.5,0,6,0,12,0,17.8-1.6,4.6-1.3,9.7-2.4,13.4,1.4.5.5,1.2-.3.7-.7-5.9-5.9-13.5-1.1-20.4-.4-5.2.5-10.5.3-15.7.3-6.1,0-12.2,0-18.3,0-.7,0-.7,1,0,1,5.5,0,10.3-3.1,14.8-5.8,4.1-2.4,8-5.1,11.6-8.3,3.5-3.1,6.5-6.8,8.5-11,2.2-4.8,3.1-10.1,3.1-15.3-.1-10.4-3.8-21.2-10.3-29.4-6.2-7.7-14.8-13.5-23.9-17.1-10.2-4-22.2-5.3-32,.5-.6.4,0,1.3.5.9Z"/>
  <path class="cls-34" d="M237.8,713.3c1.9,2.3,2.8,5.4,2.4,8.4,0,.7,1,.7,1,0,.3-3.3-.7-6.6-2.8-9.1-.4-.5-1.2.2-.7.7Z"/>
  <path class="cls-34" d="M242,713.2c1.3,2.1,2.1,4.5,2.1,6.9,0,.7,1,.7,1,0,0-2.6-.8-5.2-2.2-7.5-.4-.6-1.3,0-.9.5Z"/>
  <path class="cls-34" d="M256,697.5c-.2,0-.5-.2-.5-.4,0-.4-6.5-37.7-7.6-46.8-.6-4.8.7-11.1,1.9-16.6,1-4.9,2-9.6,1.3-11.8,0-.3,0-.6.3-.7.3,0,.6,0,.7.3.8,2.5-.2,7-1.3,12.3-1.1,5.5-2.4,11.7-1.9,16.3,1.1,9,7.5,46.4,7.5,46.7,0,.3-.1.6-.4.6h-.1Z"/>
  <path class="cls-18" d="M233.6,487.4c1.6.8,3.5,1.2,5.2,1.5,2.9.6,5.8,1,8.6,1.4,5.5.8,10.9,1.4,16.4,1.9,2.1.2,4.1.3,6.2.4.8,0,.8-1.2,0-1.2-4,0-8-.5-11.9-.9-6-.7-11.9-1.4-17.8-2.5-2-.4-4.3-.7-6.2-1.6-.7-.4-1.3.6-.6,1Z"/>
  <path class="cls-18" d="M299.9,500.4c1.6,2.2,2.9,4.6,3.8,7.2.2-.3.4-.5.6-.8-.9,0-1.7-.2-2.4-.7-.2-.1-.5,0-.7,0-.5.4-.4,1.1-.2,1.6.4.8,1,1.6,1.4,2.4.9,1.8,1.4,3.8,1.2,5.8,0,.8,1.1.8,1.2,0,.2-1.7-.1-3.3-.7-4.9-.3-.7-.6-1.5-1-2.2-.1-.2-1.2-1.9-1-2-.2,0-.5,0-.7.1,1,.6,1.9.8,3,.8.4,0,.7-.4.6-.8-.9-2.7-2.2-5.2-3.9-7.5-.5-.6-1.5,0-1.1.6Z"/>
  <path class="cls-18" d="M295.9,524c.3,1.1,1,2,1.9,2.7.2.2.7,0,.8-.2.6-1.4.8-2.9.6-4.5-.3.2-.7.4-1,.6.6.7,1.3,1.4,2,2,.7.6,1.7.6,2.1-.3.4-.8.6-1.7.8-2.6.2-.9.2-1.9.2-2.8,0-.8-1.2-.8-1.2,0,0,1.5-.2,2.9-.6,4.3,0,.1-.2.7-.3.7-.2,0-.5-.3-.6-.4-.5-.5-1.1-1.1-1.6-1.7-.4-.5-1.1,0-1,.6.2,1.2,0,2.5-.5,3.6.3,0,.5-.1.8-.2-.7-.5-1.1-1.2-1.4-2-.3-.7-1.4-.4-1.2.3Z"/>
  <path class="cls-18" d="M287.1,600c-.1,1-.2,1.9-.3,2.8,0,.5,0,.9,0,1.4,0,.4,0,.8.4,1.1.8.7,1.7-.1,2.2-.7.6-.6,1.2-1.3,1.7-2.1-.4-.1-.7-.2-1.1-.3,0,.6,0,1.2,0,1.9,0,.6,0,1.2.5,1.5.5.2,1.1-.1,1.6-.3.5-.2,1.1-.5,1.6-.8.7-.4,0-1.4-.6-1-.4.2-.8.5-1.2.7-.2,0-.4.2-.6.3,0,0-.2,0-.3.1-.2,0-.1,0,0,0,0,0,.1.1.2.2,0,0,0-.3,0-.4,0-.2,0-.5,0-.7,0-.5,0-.9,0-1.4,0-.6-.8-.8-1.1-.3-.4.5-.8,1.1-1.3,1.5-.2.2-.5.5-.7.7,0,0-.2.1-.2.2-.1,0-.1,0,0,0,0,0,0,0,0,0,0,0,0,.2,0,0,0-.3,0-.6,0-.9s0-.7,0-1.1c0-.7.1-1.4.2-2.2,0-.3,0-.6-.4-.7-.3-.1-.7,0-.8.4Z"/>
  <path class="cls-18" d="M296.2,508.2c.8,1.2,1.4,2.6,1.7,4,0,.3.4.5.7.4.3,0,.5-.4.4-.7-.3-1.5-.9-3-1.8-4.3-.2-.3-.5-.4-.8-.2-.2.2-.4.5-.2.8Z"/>
  <path class="cls-22" d="M126.1,646.6c-.8,1.4-1.3,2.9-1.5,4.6,0,.4.4.8.8.8.5,0,.7-.3.8-.8q0,0,0,0s0,0,0-.1c0,0,0-.2,0-.3,0-.2,0-.4.1-.5,0-.3.2-.7.3-1,0-.2.1-.3.2-.5,0,0,.1-.3,0-.2,0,0,0-.1,0-.2.2-.3.3-.7.5-1,.2-.4,0-.9-.3-1.1-.4-.2-.9,0-1.1.3Z"/>
  <path class="cls-22" d="M125.9,655v3c0,.4.4.8.8.8.4,0,.8-.3.8-.8v-3c0-.4-.4-.8-.8-.8-.4,0-.8.4-.8.8Z"/>
  <path class="cls-22" d="M130,646.9c-.4.8-.6,1.6-.8,2.4,0,.2,0,.4,0,.6.1.2.3.3.5.4.4,0,.9-.1,1-.6.1-.7.4-1.4.6-2,0,0,0,.1,0,.2,0,0,0-.2.1-.2,0-.2.1-.4,0-.6,0-.2-.2-.4-.4-.5-.2-.1-.4-.1-.6,0-.2.1-.4.2-.5.4Z"/>
  <path class="cls-22" d="M252.9,648.9c0,1,.1,1.9.5,2.8.2.4.7.5,1.1.3.4-.2.5-.7.3-1.1s0-.2,0-.2c0,0,0,.1,0,.2-.1-.4-.2-.7-.3-1.1,0,0,0,.1,0,.2,0-.4,0-.7,0-1.1,0-.2,0-.4-.2-.6-.1-.1-.4-.2-.6-.2s-.4,0-.6.2c-.1.2-.2.3-.2.6Z"/>
  <path class="cls-22" d="M254.6,642.1c-.1,1,0,1.9.5,2.8.2.4.7.5,1.1.3.4-.2.5-.7.3-1.1,0,0,0-.2-.1-.2,0,0,0,.1,0,.2-.1-.4-.2-.7-.3-1.1,0,0,0,.1,0,.2,0-.4,0-.7,0-1.1,0-.2-.1-.4-.2-.6-.1-.1-.4-.2-.6-.2s-.4,0-.6.2c-.1.2-.2.3-.2.6Z"/>
  <path class="cls-22" d="M257.4,650.2v.8c0,.1,0,.2,0,.3,0,0,0,.2.2.2,0,0,.2.1.3.2,0,0,.2,0,.3,0,0,0,.1,0,.2,0,.1,0,.3,0,.3-.2.1-.2.2-.3.2-.6v-.8c0,0,0-.2,0-.3,0-.1,0-.2-.2-.3s-.2-.1-.3-.2c0,0-.2,0-.3,0,0,0-.1,0-.2,0-.1,0-.3.1-.3.2-.2.2-.2.3-.2.6Z"/>
  <path class="cls-22" d="M202.5,551.9c-.9,1.5-1.8,3.1-2.6,4.6-.2.4,0,1,.5,1.2,1,.2,2,0,2.8-.7-.4-.3-.9-.5-1.3-.8-.3,1.3-.4,2.6-.2,3.9,0,.7.8,1,1.3.6.5-.4,1-.8,1.5-1.2.2-.2.5-.4.7-.6.2-.1.4-.4.7-.4h-.4s0,0,0,0l-.3-.3c0-.2,0-.4.1-.6.1,0,.2-.1.3-.2,0,0,0,0,0,0h.4,0c-.4,0-.8,0-1,.6,0,.4.1.9.6,1,.7.1,1.2-.3,1.2-1,0-.8-.9-1.2-1.6-.8-.6.3-1.1.8-1.6,1.2-.5.4-1.1.9-1.6,1.3.4.2.9.4,1.3.6-.1-1.2-.1-2.3.2-3.5.2-.8-.7-1.3-1.3-.8-.4.3-.8.4-1.3.3.2.4.3.8.5,1.2.9-1.5,1.8-3.1,2.6-4.6.5-.9-.8-1.7-1.3-.8Z"/>
  <path class="cls-25" d="M77.1,569.7c-8.5,7.1-17.2,13.2-22.9,21.9-13.6-1.5-19.1-10.6-21.3-17,3.9-6.3,9-11.8,15.6-16.4,36.7-25.8,37.1,4.4,28.6,11.5Z"/>
  <path class="cls-28" d="M346.6,255.3s-33,51.5-65,130.6c0,0,65.4,16.4,79.6,30.7l14.1-109.9,2.6-37.6-31.4-13.8Z"/>
  <path class="cls-20" d="M342.1,254.5c-4.7,4.8-5.8,12.4-2.7,18.3.6,1.1,2.1,1.4,3.1.8,1.1-.6,1.4-2,.8-3.1,0-.1-.1-.3-.2-.4,0,0-.2-.5-.2-.3,0,.2,0-.2,0-.3,0-.1,0-.3-.1-.4-.2-.6-.4-1.3-.5-2,0-.4,0,.3,0,0,0-.2,0-.4,0-.6,0-.3,0-.6,0-.9s0-.7,0-1c0-.1,0-.3,0-.4,0,0,0-.6,0-.2.1-.6.2-1.3.4-1.9,0-.3.2-.6.3-1,0-.1.1-.3,0,0,0-.1.1-.3.2-.4.3-.6.6-1.2,1-1.7,0-.1.2-.2.3-.4-.1.2,0,0,0,0,.2-.3.5-.6.8-.8,2.1-2.1-1.1-5.3-3.2-3.2Z"/>
  <path class="cls-20" d="M342.5,254.4c-2,4.4-1.2,9.7,2.2,13.2.8.8,2.4.9,3.2,0,.8-.9.9-2.3,0-3.2-.2-.2-.3-.3-.5-.5,0,0-.1-.2-.2-.2-.2-.2.2.3,0,.1-.2-.4-.5-.7-.7-1.1,0-.2-.3-.8-.1-.2,0-.2-.1-.4-.2-.6-.1-.4-.3-.9-.3-1.3,0,0,0-.2,0-.3,0,.1,0,.5,0,.2,0-.2,0-.4,0-.7,0-.4,0-.8,0-1.3,0-.4,0,.4,0,0,0-.1,0-.2,0-.3,0-.2.1-.4.2-.7,0-.2.1-.4.2-.6,0-.1,0-.2.1-.4,0-.3-.2.5,0,0,.5-1.1.3-2.5-.8-3.1-1-.5-2.6-.3-3.1.8Z"/>
  <path class="cls-17" d="M542.9,220.6h-83.8c0-.1.4-22.6.4-22.6l.6-31.5.4-21.3h81.4l.3,21.3.4,29.6.3,24.5Z"/>
  <path class="cls-24" d="M542.6,196c-1.5.7-4.2,1.7-4.7,1.9-2.1.9-4.3,1.6-6.5,2.3-9.6,2.9-19.6,4-29.6,4.1-9.8,0-20-.4-29.6-2.6-2.3-.5-4.6-1.1-6.9-1.8-.5-.2-4.2-1.2-5.8-1.9l.6-31.5h82.1l.4,29.6Z"/>
  <path class="cls-16" d="M537.6,16s-39.5-21.6-73.7-6.2c-34.2,15.4-36.2,31.2-29.1,90,3.1,25.9,57.8-9.9,57.8-9.9l74.1,21.9s8.2-52.3,0-73.2c-6.6-16.8-13.9-21.3-29.1-22.6Z"/>
  <path class="cls-17" d="M506.1,188.7h-12.9c-26.8,0-48.4-21.7-48.4-48.4l-3-92.1c34.1-29.3,77.9-26.9,116.8.7l-4.1,91.4c0,26.8-21.7,48.4-48.4,48.4Z"/>
  <path class="cls-16" d="M527.8,43.1s-34.8-1.6-56.9.3c-31.1,2.7-17.6,47.7-22.4,54.1-4.7,6.4-3,10.8-6.2,9.8-9.1-2.9-12.2-49-6.3-55.4,5.8-6.4,30.2-26.8,51.9-28.8,21.7-2,55.9-2.4,63,6.1,6.8,8,28.1,28.2,12.1,71.8-.8,2.3-4.1,2.2-4.8-.2-3.4-12-6.4-40.9-13.3-49.1-9.4-11.2-17-8.6-17-8.6Z"/>
  <path class="cls-33" d="M476.1,109.2c0,.9,0,1.8-.3,2.6-.2.8-.5,1.6-.8,2.2s-.7,1.1-1.2,1.5-.9.5-1.4.5-1-.2-1.4-.5c-.5-.3-.9-.8-1.2-1.5-.4-.6-.6-1.4-.8-2.2-.2-.8-.3-1.7-.3-2.6s0-1.8.3-2.6c.2-.8.5-1.6.8-2.2.3-.6.7-1.1,1.2-1.5.5-.3.9-.5,1.4-.5s1,.2,1.4.5.9.8,1.2,1.5c.3.6.6,1.4.8,2.2.2.8.3,1.7.3,2.6Z"/>
  <path class="cls-33" d="M529.3,109.2c0,.9,0,1.8-.3,2.6-.2.8-.5,1.6-.8,2.2-.3.6-.7,1.1-1.2,1.5-.5.3-.9.5-1.4.5s-1-.2-1.4-.5-.8-.8-1.2-1.5c-.3-.6-.6-1.4-.8-2.2-.2-.8-.3-1.7-.3-2.6s0-1.8.3-2.6c.2-.8.5-1.6.8-2.2.4-.6.7-1.1,1.2-1.5s.9-.5,1.4-.5,1,.2,1.4.5c.5.3.9.8,1.2,1.5.4.6.6,1.4.8,2.2.2.8.3,1.7.3,2.6Z"/>
  <path class="cls-16" d="M484.7,91.9v-2.3c0-1.7-1.6-3.6-3.6-3.9-5.5-1.1-16.8.1-23.2,4.9-1.6,1.1-1.2,3.2.6,2.7,7.4-1.7,15.3-1.6,22.8.4,1.9.5,3.4-.3,3.4-2Z"/>
  <path class="cls-16" d="M514.5,91.9v-2.3c0-1.7,1.7-3.6,3.6-3.9,5.7-1.1,17.2.1,23.8,4.9,1.7,1.1,1.2,3.2-.6,2.7-7.6-1.7-15.7-1.6-23.4.4-1.9.5-3.5-.3-3.5-2Z"/>
  <path class="cls-17" d="M449.2,104.8s-16.2-14.9-22.7.3c-6.4,15.2,14.9,32.5,22.7,29.5v-29.8Z"/>
  <path class="cls-17" d="M552.8,104s16.2-14.9,22.7.3-14.9,32.5-22.7,29.5v-29.8Z"/>
  <path class="cls-33" d="M561.1,41.7c.9,1.8,1.5,3.7,1.9,5.7,0,.5-.2.8-.6.8-.8.1-1.5-.5-1.9-1.1-.1-.2-.3-.3-.4-.5,0,0-.1-.1-.2-.2,0,0,0,0,0,0,0,0,0,0-.1-.1-.1-.1-.2-.3-.4-.4s0,0,0,0c0,0,0,0-.1,0,0,0-.2,0-.2-.1.3-.2.6-.5,1-.7.6,2.3,1.1,4.6,1.4,7,0,.4-.3.7-.7.7s-.6-.3-.7-.7c-.3-2.2-.7-4.4-1.4-6.6,0-.3,0-.5.2-.7.2-.2.5-.2.7,0,.7.3,1.2,1,1.6,1.6,0,0,0,0,0,0,0,0,0,.1,0,0,0,0,0,0,0,0,0,0,0,0,0,0,.1.1.2.2.3.3,0,0,0,0,0,0,0,0,0,0,.1,0s0,0,0,0c0,0,0,0,0,0,0,0,0,0,.1,0,0,0,0,0,0,0h.3c-.2.3-.4.6-.6.8-.4-1.9-1-3.7-1.8-5.4-.2-.3,0-.7.2-.9.2-.1.7,0,.8.3Z"/>
  <path class="cls-33" d="M441.7,60.4c-.2,1.3-.4,2.5-.4,3.8,0,.6-.7.9-1.1.5-.6-.5-1.1-1.1-1.5-1.7.4,0,.8,0,1.2-.2-.5,2.5-.6,5-.4,7.6,0,.4-.3.7-.7.7s-.6-.3-.7-.7c-.2-2.6,0-5.3.5-7.9,0-.3.3-.4.5-.5.3,0,.5,0,.7.3.4.5.8,1,1.3,1.4-.4.2-.8.3-1.1.5,0-1.4.2-2.8.5-4.2,0-.4.5-.6.8-.5.4,0,.5.4.5.8Z"/>
  <path class="cls-33" d="M436.6,51c-.6,1.7-.7,3.6-.4,5.3,0,.4,0,.7-.5.8-.3,0-.8-.1-.8-.5-.4-2-.2-4.1.4-6,.1-.3.5-.6.8-.5.3,0,.6.5.5.8Z"/>
  <path class="cls-7" d="M557.8,118.9c0,0-.2,0-.2,0-.4-.1-.6-.6-.5-1,4.1-12,12.8-12.1,13.2-12.1s.8.4.8.8-.4.8-.8.8c-.3,0-8.1.2-11.7,11,0,.3-.4.5-.8.5Z"/>
  <path class="cls-7" d="M562.9,123c-.1,0-.2,0-.3,0-.4-.2-.6-.7-.4-1.1.4-.8.4-1.4.1-2-.7-1.2-2.8-1.8-3.6-2-.4,0-.7-.5-.7-.9,0-.4.5-.7.9-.7.1,0,3.6.6,4.7,2.8.5,1,.5,2.2,0,3.4-.1.3-.4.5-.7.5Z"/>
  <path class="cls-7" d="M445.4,119.8c-.3,0-.7-.2-.8-.5-3.7-10.8-11.4-11-11.7-11s-.8-.4-.8-.8.4-.8.8-.8,9.2.1,13.2,12.1c.1.4,0,.9-.5,1,0,0-.2,0-.3,0Z"/>
  <path class="cls-7" d="M440.4,123.9c-.3,0-.6-.2-.7-.5-.6-1.3-.6-2.4,0-3.4,1.2-2.2,4.6-2.8,4.7-2.8.4,0,.9.2.9.7,0,.4-.2.9-.7.9-.8.1-2.9.7-3.6,2-.3.6-.3,1.2.1,2,.2.4,0,.9-.4,1.1,0,0-.2,0-.3,0Z"/>
  <path class="cls-7" d="M498.1,156.7c-9.4,0-17.7-2.7-18.3-2.8-.4-.1-.7-.6-.5-1s.6-.7,1-.5c.2,0,21.4,6.8,33.8-1.2.4-.2.9-.1,1.1.2s.1.9-.2,1.1c-5,3.2-11.1,4.2-16.9,4.2Z"/>
  <path class="cls-30" d="M948.2,639.2c2.6-4.8,5.7-9.4,9.3-13.6,3.1-3.6,6.8-7,11.3-8.3,2.1-.6,4.7-.5,5.9,1.3.6,1,.6,2.2.5,3.3-.3,3.5-1.5,7-3.5,9.9,1.5,0,2.7,1.4,2.9,2.9.2,1.5-.4,3-1,4.3-5.2,11.6-14.1,21.5-25,28-1.9,1.1-4.9,1.9-6,0"/>
  <path class="cls-15" d="M657.8,712c-2,1.1-4.5,1.3-6.8,1.6-6.2.8-12.5,1-18.8,1-2.6,0-5.2,0-7.8-.1-1.8,0-3.9,0-5.5-.9-1.7-1-2.3-3.1-2.9-4.8-1.3-4-2-9,.7-12.5,2.2-2.8,5.7-4,8.3-6.3,1.9-1.7-.2-13.4-3.1-26.9-.7-3.4-1.5-6.8-2.3-10.3-1.6-7.2-3.2-14.3-4.3-20.1-3.6-19.1-11.9-55.3-12.5-57.7,0,0,0-.1,0-.1l57,61s.5,11.3.8,25.2c.5,21.5.5,49.2-2.9,51Z"/>
  <path class="cls-30" d="M660.8,671.4c-4.7-2.4-9.3-5.2-13.6-8.4-3.5-2.6-7.3-5.5-11.5-5-4.8.6-8.9,5.7-13.7,4.9-.7-3.4-1.5-6.8-2.3-10.3-1.6-7.2-3.2-14.3-4.3-20.1-3.6-19.1-11.9-55.3-12.5-57.7,0,0,0-.1,0-.1l57,68.4s.6,12.6.9,28.2Z"/>
  <path class="cls-30" d="M674.9,350.9s16.8-19.2,27-34.2c4.2-6.2,10.6-11.6,18.4-12,11.5-.4,14.3,11.5,15.2,20.6,1.1,10.3.8,21.1-1.6,31.2-1.7,7.4-4.8,15.2-10.8,20.2l-48.2-25.9Z"/>
  <path class="cls-5" d="M681.7,350.8s17-17,25.8-29.4c8.8-12.4,14.6-14.2,17.8-12.2,9.2,5.7,8.9,18.8,7.9,28.2-1.2,10.8-3.2,23.6-9.7,32.7-.9,1.2-1.8,2.3-3,3.3-9.9,8-38.7-22.7-38.7-22.7Z"/>
  <path class="cls-30" d="M641.6,350.9s-16.8-19.2-27-34.2c-4.2-6.2-10.6-11.6-18.4-12-11.5-.4-14.3,11.5-15.2,20.6-1.1,10.3-.8,21.1,1.6,31.2,1.7,7.4,4.8,15.2,10.8,20.2l48.2-25.9Z"/>
  <path class="cls-5" d="M634.8,350.8s-17-17-25.8-29.4c-8.8-12.4-14.6-14.2-17.8-12.2-9.2,5.7-8.9,18.8-7.9,28.2,1.2,10.8,3.2,23.6,9.7,32.7.9,1.2,1.8,2.3,3,3.3,9.9,8,38.7-22.7,38.7-22.7Z"/>
  <path class="cls-30" d="M744.6,429.1c-5.2,22.1-9.3,28.9-10.7,30.6,0,0,0,0,0,0,0,0,0,.1-.1.1,0,0-.1.1-.2.2,0,0,0,0,0,0,0,0,0,0,0,0l-139,8.8s-28-16.8-20.8-40.7c.7-2.4,1.4-5,2.2-7.8,0-.1,0-.2,0-.3,7.3-25.8,19.2-67.4,54.4-71,15.6-.6,31.3-1,46.9-.6,6.6.1,13.4.2,19.3,3.4,4.6,2.5,8.8,6.2,12.6,9.8,8.9,8.2,16.8,17.7,23.3,27.9,5.7,9,11.1,19.1,12.4,29.7.5,3.5.4,6.7-.3,9.7Z"/>
  <path class="cls-30" d="M946.5,685.3c-15.5,31.9-59.6,34.9-90.1,31.5-27.7-3.1-48.9-15.9-76.7-16.8-4.6-.1-10.1-.9-15.9-2.2-12.3-2.6-26.6-7.4-40.1-12.9-15.8-6.5-30.6-14.2-39.8-20.9-20.8-15.2-55.7-39.9-71-58.3-15.3-18.4-29.7-70.3-23.3-98.3,6.4-28,4.8-38.4,4.8-38.4l139-8.8c6.2,9.3,15,16.1,23.2,23.5,12.8,11.5,28.8,20.7,43.4,29.4,18.2,10.8,37.2,20.3,56.8,28.5,19.7,8.1,40.3,12.9,57.7,25.6,35.2,25.6,51.6,77.4,31.9,117.9Z"/>
  <path class="cls-15" d="M775.6,679.7c-1.8,5.2-3,10-2.8,13.4.8,11.5-2.7,21.8-4.3,23.4-1.6,1.6-21.8,1.6-26.9,1.6s-11.2,1.3-12.8-6.1c-2.7-16.5,9.1-14.4,12.3-17.1,1.4-1.2-.2-14.4-2.4-29-2.9-19.4-7-41.3-7-41.3,0,0,51.9,12,54.1,20.9,1.5,6.3-6,21.7-10.3,34.2Z"/>
  <path class="cls-15" d="M763.8,697.8c-12.3-2.6-26.6-7.4-40.1-12.9-15.8-6.5-30.6-14.2-39.8-20.9-11.3-8.3-27.1-20.8-41.1-31.2-5.4-4-11.4-8.4-14.6-9-3.5-3.1-7.3-9.6-9.7-7.6-1.8-1.9-4-8.7-5.5-10.5-15.3-18.4-29.7-70.3-23.3-98.3,6.4-28,4.8-38.4,4.8-38.4,0,0-28-16.8-20.8-40.7.7-2.4,1.4-5,2.2-7.8.2-.9,5.5-2,6.3-2.2,2.7-.8,5.4-1.3,8.2-1.6,4.9-.5,9.9-.3,14.7.7,4.7,1,9,2.9,13.9,3.1,12.4.6,25.7-6.2,29.5-18.7,1.2-4,1.9-8,2.3-12.1.3-2.7.3-5.3.3-8,0-1.8-.7-5.2,1.5-6.2,1.4-.6,3.9-.5,5.2.4.8.6,1.1,1.6,1.3,2.5.3,1.8.7,3.5,1,5.3.6,3.5,1,7.1,1.5,10.6.3,1.9.5,3.9,1,5.8,1.4,5.6,15.4,27.4,51.5,16.4,13.7-6.8,25.6-2.6,31,2.8.4,3.4.4,6.7-.3,9.7-5.2,22.1-9.3,28.9-10.7,30.6,0,0,0,0,0,0,0,0,0,.1-.1.1,0,0-.1.1-.2.2s0,0,0,0c0,0,0,0,0,0-29,32.1-29.2,92.5-24.4,115.3,4.8,22.8,36.2,72.5,36.2,72.5,16.6,26.3,24.4,44.5,18.6,49.8Z"/>
  <path class="cls-1" d="M654.1,426.7s-11.1.6-11.2,3.4,4.3,11.5,11.8,10.7c7.6-.8,12.3-10.7,10.4-12.3-1.8-1.6-11-1.7-11-1.7Z"/>
  <path class="cls-1" d="M632,399.4c0,.9-.1,1.7-.3,2.5s-.5,1.5-1,2.1-.9,1.1-1.4,1.4c-.5.3-1.1.5-1.7.5s-1.1-.2-1.7-.5c-.5-.3-1-.8-1.4-1.4-.4-.6-.7-1.3-1-2.1-.2-.8-.3-1.7-.3-2.5s.1-1.7.3-2.5c.2-.8.5-1.5,1-2.1.4-.6.9-1.1,1.4-1.4.5-.3,1.1-.5,1.7-.5s1.1.2,1.7.5c.5.3,1,.8,1.4,1.4s.7,1.3,1,2.1.3,1.7.3,2.5Z"/>
  <path class="cls-1" d="M683.7,399.4c0,.9-.1,1.7-.3,2.5s-.5,1.5-1,2.1-.9,1.1-1.4,1.4c-.5.3-1.1.5-1.7.5s-1.1-.2-1.7-.5c-.5-.3-1-.8-1.4-1.4-.4-.6-.7-1.3-1-2.1-.2-.8-.3-1.7-.3-2.5s.1-1.7.3-2.5c.2-.8.5-1.5,1-2.1.4-.6.9-1.1,1.4-1.4.5-.3,1.1-.5,1.7-.5s1.1.2,1.7.5c.5.3,1,.8,1.4,1.4s.7,1.3,1,2.1.3,1.7.3,2.5Z"/>
  <path class="cls-2" d="M664.3,484.4c-3.8,5-12.4,4.5-18.3,1.6-5.9-2.9-4.7-12.5-3-18.4.7-2.4.8-5.1.7-7.5,6.3-2.9,8.9-8.7,9.9-11.7.3,0,.6,0,.9,0,1,3.7,3.8,11.7,10.9,12.5,0,2,0,3.9.3,4.9.6,3.2,2.3,13.6-1.5,18.6Z"/>
  <path class="cls-1" d="M637.7,462.5c-1.8,0-3.6-.6-5.3-1.7-8-5.5-11.2-22.5-11.3-23.3,0-.4.2-.8.6-.9.4,0,.8.2.9.6,0,.2,3.1,17.1,10.6,22.3,1.9,1.3,3.8,1.7,5.8,1.3,1.5-.3,2.9-.8,4.2-1.4,6-2.8,8.5-8.2,9.5-11.2.3-1.1.5-1.8.5-1.8,0-.4.4-.6.8-.6s.7.3.8.7c0,0,.1.7.4,1.8.9,3.3,3.6,11.1,10.2,11.9,1.3.2,2.7,0,4.1-.3,12.4-3.2,18.5-24.6,18.6-24.8.1-.4.5-.7,1-.5s.7.5.5,1c-.3.9-6.4,22.4-19.7,25.9-1.6.4-3.2.6-4.7.4-7-.8-10.1-8.1-11.3-12.1-1.3,3.3-4.1,8.5-10,11.3-1.4.7-2.9,1.2-4.6,1.5-.5,0-1.1.1-1.7.1Z"/>
  <path class="cls-30" d="M777.2,677.1c-3.3,1.5-7,2.7-10.6,3.1-12.2,1.4-15.2-20.6-21.9-15.9-3.5,2.4-5.5,1.4-6.9-1.4-3.1-20-7.4-42.6-7.4-42.6,0,0,55.6,12.4,57.9,21.6,1.6,6.5-6.4,22.3-11,35.3Z"/>
  <path class="cls-32" d="M741.7,692.4h0c-.4,0-.8-.4-.8-.8.1-4.1-3-24.3-3-24.5,0-.4.2-.8.7-.9.4,0,.8.2.9.7.1.8,3.1,20.5,3,24.8,0,.4-.4.8-.8.8Z"/>
  <path class="cls-32" d="M739.3,718.3c-.3,0-.6-.2-.7-.4-6.6-12.8-.7-18.4-.5-18.6.3-.3.8-.3,1.1,0,.3.3.3.8,0,1.1-.2.2-5.2,5.1.8,16.7.2.4,0,.9-.3,1.1,0,0-.2,0-.3,0Z"/>
  <path class="cls-32" d="M627.2,713.5c-.3,0-.6-.2-.7-.4-6.6-12.8-.7-18.4-.5-18.6.3-.3.8-.3,1.1,0,.3.3.2.8,0,1.1-.2.2-5.2,5.1.8,16.7.2.4,0,.9-.3,1.1,0,0-.2,0-.3,0Z"/>
  <path class="cls-32" d="M639.7,713.5c-.3,0-.6-.2-.7-.4-6.6-12.8-.7-18.4-.5-18.6.3-.3.8-.3,1.1,0,.3.3.3.8,0,1.1-.2.2-5.2,5.1.8,16.7.2.4,0,.9-.3,1.1,0,0-.2,0-.3,0Z"/>
  <path class="cls-32" d="M750.5,718.3c-.3,0-.6-.2-.7-.4-6.6-12.8-.7-18.4-.5-18.6.3-.3.8-.3,1.1,0,.3.3.3.8,0,1.1-.2.2-5.2,5.1.8,16.7.2.4,0,.9-.3,1.1-.1,0-.2,0-.3,0Z"/>
  <path class="cls-32" d="M597.1,471.4c.5,2.3,1.3,5,3.7,5.9,1.8.7,4.4,0,5-2.1,0-.2.2-.6.1-.8,0-.3,0,0,0,0,.4,0,.7.5.9.8.7.9,1.4,1.8,2.6,2.1,2.1.5,4.3-.6,5-2.6.5-1.4-1.8-2-2.3-.6-.4,1.1-2.1,1.4-2.9.5-.7-.7-1.1-1.6-2-2.1-.9-.4-2-.5-2.8.2-.4.4-.6.8-.7,1.3,0,.3,0,.7-.2,1-.3.4-1,.4-1.5.4-1.8-.3-2.2-2.9-2.6-4.4-.3-1.5-2.6-.8-2.3.6Z"/>
  <path class="cls-32" d="M718.6,464c.7,1.5,2.7,1.7,4,1.1.7-.4,1.3-1,1.7-1.7.2-.4.4-.9.6-1.3,0-.2.2-.4.3-.7,0,0,0-.1,0-.2,0-.2.1-.2.1-.1-.2,0-.4.1-.6.2-.2-.1-.2-.1,0,0,.1,0,.2.2.3.3.2.2.5.4.7.5.5.3,1.1.5,1.6.5,1.2.2,2.3,0,3.4-.5,2.3-1,3.7-3.4,4.8-5.6.7-1.3-1.3-2.5-2-1.2-.8,1.5-1.7,3.3-3.1,4.3-1.1.8-2.8,1.1-3.9.1-.7-.6-1.4-1.2-2.4-.7-.8.4-1.1,1.3-1.4,2-.3.6-.6,1.5-1.2,1.9-.4.2-.8.2-1-.1-.3-.6-1.1-.7-1.6-.4-.6.4-.7,1-.5,1.6Z"/>
  <path class="cls-11" d="M887.2,599.5c-14.1-12.6-36-5.2-46.8,8-12.2,14.8-14.6,37-11.2,55.4,2,10.9,6.4,21.3,12.7,30.4.9,1.2,2.9,0,2-1.2-10.2-14.6-15-32.6-13.6-50.3,1.5-18.2,9.7-37.9,28.2-44.4,8.9-3.2,19.6-2.7,27,3.8,1.1,1,2.8-.7,1.7-1.7Z"/>
  <path class="cls-11" d="M932.6,619.5c2.1,1.1,3.9,2.9,4.8,5.1.4,1.1.7,2.6.1,3.7-.4.8-1.7,1.5-2.5.8-1.2-.9-2.7.5-1.7,1.7,3.3,3.7,4.8,8.8,4.1,13.7.7-.2,1.3-.3,2-.5-1.7-2.1-4.7-2.5-6.9-1.1-1.3.8,0,2.8,1.2,2,1.4-.9,3.1-.5,4.1.7.5.6,1.8.3,2-.5.8-5.8-.8-11.6-4.7-16-.6.6-1.1,1.1-1.7,1.7,3.1,2.4,6.8-.5,6.8-3.9,0-4-3.1-7.7-6.5-9.4-1.3-.7-2.5,1.3-1.2,2Z"/>
  <path class="cls-11" d="M628.3,351.1c-5-2.8-11.3-2.1-15.6,1.8-.8.7-.1,1.9.8,2,1.8.2,3.7.4,5.5.5,0-.8-.2-1.5-.3-2.3-6.3,1.7-12.2,4.2-17.8,7.6-.7.4-.8,1.6,0,2,2.8,1.3,5.7,1.7,8.8,1.2,1.5-.2.9-2.5-.6-2.3-6.5.9-12.2,4.6-15.9,10-.9,1.3,1.2,2.4,2,1.2,3.3-4.9,8.6-8.1,14.5-8.9-.2-.8-.4-1.5-.6-2.3-2.4.3-4.8,0-7-1v2c5.4-3.3,11.1-5.7,17.2-7.3,1.4-.4.9-2.2-.3-2.3-1.8-.2-3.7-.4-5.5-.5.3.7.6,1.3.8,2,3.5-3.1,8.7-3.7,12.8-1.4,1.3.7,2.5-1.3,1.2-2Z"/>
  <path class="cls-11" d="M686,352.7c5.4,0,10.8.5,16.1,1.4v-2.3c-2.5.7-5.1,1.2-7.7,1.4-1.2.1-1.7,2-.3,2.3,5.8,1.2,11.3,3.6,16.2,7,0-.7.2-1.4.3-2.1-1.1.2-2.1.3-3.2.5-1.4.2-1,2.3.3,2.3,3.5.1,6.5,2.3,7.9,5.5.6,1.4,2.6.2,2-1.2-1.7-4-5.6-6.5-9.9-6.7.1.8.2,1.5.3,2.3,1.1-.2,2.1-.3,3.2-.5,1.1-.2,1-1.6.3-2.1-5.1-3.5-10.8-5.9-16.8-7.2,0,.8-.2,1.5-.3,2.3,2.8-.2,5.6-.7,8.4-1.5,1.1-.3,1.2-2,0-2.3-5.5-1-11.1-1.5-16.7-1.5-1.5,0-1.5,2.4,0,2.4Z"/>
  <path class="cls-11" d="M712.2,399.8c1.3,1.2,2.9,2.1,4.6,2.6.6.2,1.4-.2,1.4-.8.3-1.7-.2-3.3-1.3-4.7v1.7s-.2.1-.1,0c.1,0-.2,0,0,0-.1,0-.1,0,0,0,0,0,0,0,0,0,0,0,.2,0,.3,0,.2,0,0,0,0,0,0,0,.2,0,.2.1.2,0,.4.2.6.2.7.3,1.6.3,2.3-.1.4-.2.7-.7.8-1.1.1-.5,0-1.1-.1-1.6-.3-.9-.6-1.8-.9-2.8-.2-.6-.8-1-1.4-.8-.6.2-1,.8-.8,1.4.3.8.5,1.6.8,2.4,0,.2.1.4.2.6,0,0,0,.2,0,.1,0,0,0-.2,0-.2,0,.1,0,0,0,0s0,0,.1,0q0,0,0,0c0,0,0,0,0,0s0,0,0,0c.1,0,.1,0,0,0h-.3c0,0,.2,0,0,0,0,0-.1,0-.2,0,0,0-.2,0,0,0,.2,0,0,0,0,0,0,0-.1,0-.2,0-.2,0-.4-.2-.6-.3-.9-.3-1.8-.2-2.5.4-.5.4-.4,1.2,0,1.7,0,0,0,0,0,0,0,0,0,.1.1.2,0,.1.1.2.2.3,0,0,0,.1,0,.2q0,0,0,0c0,.1.1.3.1.4,0,.1,0,.2,0,.3,0,.1,0,.2,0,0,0,0,0,.2,0,.2v.4s0,.5,0,.3c.5-.3,1-.5,1.4-.8-.8-.2-1.2-.4-1.9-.8-.3-.2-.6-.4-.9-.6,0,0-.2-.1-.3-.2,0,0-.2-.1,0,0-.2-.1-.3-.3-.5-.4-.5-.4-1.2-.5-1.7,0-.4.4-.4,1.2,0,1.6Z"/>
  <path class="cls-11" d="M588.9,401.3c-2.2,1.3-3.9,3.3-5,5.6-.4.8,0,1.7,1,1.8,1.3,0,2.7.2,4,.3-.3-.6-.7-1.2-1-1.8-.8,1.3-1.2,2.7-1.4,4.2,0,.6.6,1.2,1.2,1.2s1.1-.5,1.2-1.2c0-1.1.5-2.1,1.1-3,.5-.8-.2-1.7-1-1.8-1.3-.1-2.7-.2-4-.3.3.6.7,1.2,1,1.8.9-2,2.4-3.6,4.2-4.7,1.2-.8,0-2.8-1.2-2Z"/>
  <path class="cls-11" d="M708.6,532.9c-2.9,7.7-4.2,15.9-3.8,24.1,0,1.2,1.5,1.5,2.2.6,1-1.4,2-2.8,3.1-4.2-.7-.2-1.5-.4-2.2-.6-.3,5.3,0,10.6.7,15.9.2,1.2,1.9,1,2.3,0,.4-1.2.7-2.5,1.1-3.7-.8-.1-1.5-.2-2.3-.3-.9,8.1-.1,16.1,2.3,23.9.3.9,1.7,1.2,2.1.3,1.1-2.2,1.6-4.5,1.7-7-.8,0-1.5.2-2.3.3,2.9,7.8,1.6,16.9,7.1,23.7.5.6,1.5.4,1.8-.2.8-1.4,1.1-2.7.9-4.3-.8,0-1.5.2-2.3.3,1.3,5.5,3.7,10.6,7,15.2.9,1.2,2.9,0,2-1.2-3.2-4.4-5.4-9.3-6.7-14.6-.3-1.3-2.5-1-2.3.3.1,1.2,0,2.1-.6,3.1.6,0,1.2-.2,1.8-.2-5.2-6.3-3.9-15.4-6.5-22.6-.4-1.2-2.3-1.1-2.3.3,0,2.1-.4,3.9-1.3,5.8.7,0,1.4.2,2.1.3-2.4-7.5-3.1-15.4-2.2-23.2.2-1.3-1.9-1.5-2.3-.3-.4,1.2-.7,2.5-1.1,3.7h2.3c-.7-5.1-.9-10.2-.6-15.3,0-1.3-1.6-1.5-2.2-.6-1,1.4-2,2.8-3.1,4.2.7.2,1.5.4,2.2.6-.4-8,.9-15.9,3.7-23.5.5-1.4-1.8-2-2.3-.6Z"/>
  <path class="cls-11" d="M841,695.3c8.2-2.3,16.8-2.7,25.2-1.2,1.5.3,2.1-2,.6-2.3-8.8-1.7-17.8-1.3-26.4,1.2-1.5.4-.8,2.7.6,2.3Z"/>
  <path class="cls-15" d="M825,694.8c-7.4,1.3-12.9,5.3-10.8,15.3,1.4,6.4,3.7,8.6,8.8,8.5,7.7,0,15.4.6,23,.5,4.3,0,16.2,1,24.8-1.7,2.1-.6-5.5-7.8-5.9-8.2-2.9-2.5-5.5-5.1-8-7.9-2.1-2.3-4.2-5.4-7.6-5.7-4.4-.3-15.7-2.5-24.4-.9Z"/>
  <path class="cls-32" d="M841.7,718.7c-.3,0-.6-.2-.7-.4-6.6-12.8-.7-18.4-.5-18.6.3-.3.8-.3,1.1,0,.3.3.3.8,0,1.1-.2.2-5.2,5.1.8,16.7.2.4,0,.9-.3,1.1-.1,0-.2,0-.3,0Z"/>
  <path class="cls-32" d="M827.4,718.7c-.3,0-.6-.2-.7-.4-6.6-12.8-.7-18.4-.5-18.6.3-.3.8-.3,1.1,0,.3.3.2.8,0,1.1-.2.2-5.2,5.1.8,16.7.2.4,0,.9-.3,1.1,0,0-.2,0-.3,0Z"/>
  <path class="cls-11" d="M778.2,676.4c.4-2,.8-4.1,1.3-6.1.2-.9.2-2,.6-2.9.5-1.2,1.1-.6,2.2-.5,3.5.4,2.7-6,2.7-8.1-.3.4-.6.8-.9,1.1.1,0,.9.7,1,.8.4.2,1,.3,1.5.3,1-.1,1.7-1,2-1.8.5-1.2.5-2.5.6-3.8.2-2,.3-4,.5-5.9-.6.3-1.2.7-1.8,1,.4.2.8.5,1.2.7.8.5,1.7-.1,1.8-1,0-2.5.1-5,0-7.5,0-1.5-2.4-1.5-2.3,0,0,2.5,0,5,0,7.5.6-.3,1.2-.7,1.8-1-.4-.2-.8-.5-1.2-.7-.8-.5-1.7.2-1.8,1-.2,2.5-.3,5.1-.6,7.6,0,.3,0,1.1-.3,1.3-.5.3-.7-.1-1.1-.4-.6-.4-1.1-.5-1.9-.3-.5,0-.9.6-.9,1.1,0,1.1,0,2.1,0,3.1,0,.5,0,2.5-.2,2.5-.3.1-1.5-.5-1.9-.4-.7,0-1.2.3-1.7.8-1.1,1.1-1.2,3-1.5,4.4l-1.3,6.4c-.3,1.4,1.9,2.1,2.2.6Z"/>
  <path class="cls-32" d="M609.1,602.3c2.5,5.8,5.7,11.2,9.6,16.2.6.7,1.7.3,2-.5.5-1.7.7-3.4.7-5.1-.7.2-1.5.4-2.2.6,2.3,4.6,5.4,8.7,9.2,12.2.7.6,1.6.3,2-.5.6-1.5.6-2.9.2-4.5-.7.3-1.4.6-2.1.9,2.5,5.5,6.9,9.8,12.4,12.3.7.3,1.5,0,1.7-.7.4-1.5.2-2.9-.6-4.2-.6.5-1.2.9-1.8,1.4,3.3,4.2,7.4,7.7,12,10.4,1.3.8,2.5-1.3,1.2-2-4.5-2.6-8.3-6-11.5-10.1-.8-1-2.6.3-1.8,1.4.5.8.6,1.5.4,2.4.6-.2,1.1-.5,1.7-.7-5.2-2.4-9.2-6.3-11.5-11.5-.6-1.2-2.5-.4-2.1.9.3,1.2.2,2.1-.2,3.2.7-.2,1.3-.3,2-.5-3.6-3.4-6.6-7.3-8.8-11.7-.5-1.1-2.2-.5-2.2.6,0,1.6-.2,3-.6,4.5.7-.2,1.3-.3,1.9-.5-3.8-4.8-6.9-10.1-9.2-15.7-.6-1.4-2.6-.2-2.1,1.2Z"/>
  <path class="cls-32" d="M619.8,524c-2.9,4-4.7,8.6-5.3,13.5-.2,1.5-.1,3.6,1.8,4,1.9.3,4.2-2.2,5.3-3.5-.7-.3-1.3-.6-2-.8,0,2.9-.2,5.7-.2,8.6,0,2.1-.6,4.8.2,6.8.7,1.6,2.3,2.3,4,1.8,1.9-.7,2.7-2.7,3.2-4.4h-2.3c.4,1.9-.4,3.9.7,5.6.8,1.3,2.2,2,3.7,1.5,1.4-.5.8-2.8-.6-2.3-1.9.7-1.3-4.6-1.5-5.5-.2-1.2-2-1.1-2.3,0-.2.8-1.4,4.2-2.6,2.6-.7-.9-.2-3.6-.2-4.6.1-3.4.2-6.7.3-10.1,0-1-1.3-1.6-2-.8-.5.6-1.1,1.2-1.7,1.7-.3.3-.7.6-1,.8-.5.2-.3.4-.5-.1-.2-.6.2-1.8.3-2.4.1-.8.3-1.6.5-2.3.9-3.1,2.3-6.1,4.2-8.7.9-1.2-1.2-2.4-2-1.1Z"/>
  <path class="cls-32" d="M677.2,561.4c2,.1,3-1.7,3.4-3.5.6-3,.8-6.2,1.2-9.2-.8,0-1.5.2-2.3.3.5,1.4,1.1,2.8,2.6,3.1,1.4.3,2.4-.5,3-1.8,1.7-3.7,2.5-8,2.8-12-.7.2-1.5.4-2.2.6.4,1,.9,2.1,1.3,3.1.4,1,1.8.6,2.1-.3,1.8-4.9,2.7-10,2.8-15.1,0-1.5-2.3-1.5-2.3,0,0,5-1,9.8-2.7,14.5.7,0,1.4-.2,2.1-.3-.4-1-.9-2.1-1.3-3.1-.5-1.2-2.1-.4-2.2.6-.2,2.3-.6,4.5-1.2,6.7-.3,1-.6,2-.9,3-.1.4-.3,1.3-.6,1.6-.7.6-1-.8-1.1-1.2-.4-1.3-2.1-1-2.3.3-.3,2-.5,3.9-.8,5.9-.1.9-.1,4.5-1.5,4.5-1.6-.1-1.5,2.2,0,2.3Z"/>
  <path class="cls-32" d="M642.8,568c-.4,4.1.4,8.3,2.2,12,.4.7,1.3.7,1.8.2,1.6-1.3,2.5-3.2,2.8-5.3-.7.2-1.4.4-2.2.6,1.2,2.3,2.3,4.6,3.5,7,.7,1.3,2.7.2,2-1.2-1.2-2.3-2.3-4.6-3.5-7-.2-.5-.8-.7-1.3-.5-.5.1-.8.6-.9,1.1-.2,1.4-1,2.7-2.1,3.6.6,0,1.2.2,1.8.2-1.7-3.4-2.3-7.1-1.9-10.8,0-.6-.6-1.2-1.2-1.2s-1.1.5-1.2,1.2Z"/>
  <path class="cls-11" d="M794.2,583.6c.8,1.3,1.7,2.6,2.7,3.8.8,1,2.1,2,3.5,1.8,1.6-.2,2-1.7,2.2-3.1.2-1.7.3-3.4.5-5.1-.8.1-1.5.2-2.3.3.9,2.3,2.7,3.9,5,4.7.8.3,1.4-.4,1.5-1.1.2-2,.4-4,.6-6-.7.2-1.4.4-2.2.6.5,1.1,1.8,1.7,3,1.3,1.1-.3,2-1.5,1.8-2.7,0-.6-.5-1.2-1.2-1.2s-1.2.5-1.2,1.2c0,.4-.2.7-.4.2-.2-.5-.9-.7-1.3-.5-.5.1-.8.6-.9,1.1-.2,2-.4,4-.6,6,.5-.4,1-.8,1.5-1.1-1.5-.5-2.8-1.6-3.4-3.1-.5-1.2-2.2-1.1-2.3.3-.1,1.2-.2,2.4-.3,3.6,0,.4,0,2.3-.3,2.3-.3,0-.7-.3-.9-.5-.4-.3-.7-.7-1-1.1-.7-.9-1.3-1.9-1.9-2.8-.8-1.3-2.8-.1-2.1,1.2Z"/>
  <path class="cls-11" d="M863.1,618.5c-1.4.7-2.8,1.5-4.1,2.5-1.1.9-2.5,1.9-3.1,3.2-.6,1.1-.3,2.6.8,3.2,1,.6,2.4.3,3.5-.1-.4-.7-.8-1.3-1.1-1.9-1.1,1.1-2,2.3-2.9,3.5-.7,1.1-1.8,2.4-2,3.7-.2,1.3.6,2.4,1.8,2.8,1.4.5,2.7-.2,3.9-1-.6-.3-1.2-.7-1.8-1-.2,1.7-.3,3.5-.2,5.3,0,1.5,2.4,1.5,2.3,0,0-1.8,0-3.5.2-5.3,0-.9-1.1-1.5-1.8-1-.4.3-1.5,1.1-2,.8-.2-.2-.1-.3,0-.6.2-.4.5-.9.8-1.3,1-1.5,2.1-2.9,3.4-4.2.7-.8,0-2.4-1.1-2-.3.1-1.4.6-1.7.3.1.1.4-.3.5-.5.3-.4.7-.7,1-1,1.5-1.4,3.1-2.4,4.9-3.3,1.3-.6.1-2.7-1.2-2Z"/>
  <path class="cls-11" d="M952.3,630.5c2.6,6.7,3.1,14,1.4,21-.4,1.5,1.9,2.1,2.3.6,1.8-7.4,1.3-15.1-1.4-22.2-.5-1.4-2.8-.8-2.3.6Z"/>
  <path class="cls-11" d="M740,640.5c0,2.3.9,4.7,2.7,6.2.6.5,1.7.4,2-.5.6-2.8.9-5.7.8-8.5-.7.3-1.3.6-2,.8,1.3,1.5,2.7,2.8,4.2,3.9.6.4,1.6,0,1.7-.7.5-2.7.8-5.3.8-8,0-1.5-2.3-1.5-2.3,0,0,2.5-.3,5-.8,7.4.6-.2,1.1-.5,1.7-.7-1.4-1-2.6-2.3-3.7-3.6-.7-.8-2.1-.2-2,.8.1,2.7,0,5.3-.7,7.9.7-.2,1.3-.3,1.9-.5-1.4-1.1-2.1-2.7-2-4.5,0-1.5-2.3-1.5-2.3,0Z"/>
  <path class="cls-11" d="M623.5,639.3c.2,1.5.3,3,.5,4.4.1,1.1.5,2.3,1.5,2.9,1.1.6,2.3,0,2.8-1,.2-.4.3-.8.5-1.3,0,0,.1-.3,0-.2,0,.1,0,0,0-.1,0-.2-.1,0,0,0-.2.1.1,0-.1,0-.4-.2-.9-.4-1.3-.5,1.3,2.1,2.4,4.3,3.3,6.6.2.6.8,1,1.4.8.6-.2,1-.8.8-1.4-.9-2.5-2.1-4.9-3.5-7.1-.3-.4-.8-.7-1.3-.5-.9.3-1.3,1-1.6,1.8,0,.3-.2.6-.3.9,0-.2,0,0,0,0,0,.1-.1.1,0,0-.1,0,0,0,0,0,.2,0,0,0,0,0s.4,0,.3,0c0,0,0,0,0,0,0,0,0-.1-.1-.2,0-.1,0,0,0-.1-.2-.5-.2-.7-.2-1.2-.1-1.2-.3-2.5-.4-3.7,0-.6-.5-1.2-1.2-1.2s-1.2.5-1.2,1.2Z"/>
  <path class="cls-11" d="M841.3,543.4c3.4.4,6.7,1.3,9.8,2.6.6.3,1.2.2,1.6-.4.3-.5.2-1.3-.4-1.6-3.5-1.6-7.2-2.6-11-3-.6,0-1.2.6-1.2,1.2,0,.7.6,1.1,1.2,1.2Z"/>
  <path class="cls-11" d="M851.1,551.5c1,.6,2.1,1.1,3.1,1.7.5.3,1.3.2,1.6-.4.3-.5.2-1.3-.4-1.6-1-.6-2.1-1.1-3.1-1.7-.5-.3-1.3-.2-1.6.4-.3.6-.2,1.3.4,1.6Z"/>
  <path class="cls-11" d="M859.7,550.2c.5,0,.9.2,1.4.4-.1,0-.2,0-.3-.1.6.3,1.1.6,1.7,1,0,0-.2-.1-.2-.2.2.2.4.3.6.5.4.4,1.2.5,1.7,0,.4-.5.5-1.2,0-1.7-1.2-1.1-2.6-1.9-4.2-2.2-.3,0-.6,0-.9.1-.2.1-.5.4-.5.7-.1.6.2,1.3.8,1.4Z"/>
  <path class="cls-17" d="M781.4,489.9s-17.9-16.5-19.9-24.7c-2-8.2-17.2,8.4-2.8,24.5,14.4,16.1,11.6,10.7,11.6,10.7l11.1-10.5Z"/>
  <path class="cls-21" d="M770.4,502.1c-.9,0-3.2-1.7-12.3-11.9-7.7-8.6-7.3-17.6-4.4-23.2,1.6-3.1,4.1-5,6-4.8.7,0,2,.6,2.6,2.7,2,7.9,19.5,24.2,19.7,24.4.2.1.3.4.3.6s0,.4-.2.6l-10.7,10.1c.2.8-.1,1.1-.3,1.3-.1,0-.3.2-.5.2ZM759.3,463.8c-1.1,0-2.9,1.3-4.3,4-2.7,5.1-2.9,13.4,4.2,21.4,6.4,7.2,9.2,9.8,10.4,10.8,0,0,0-.1.1-.2l10.5-9.9c-3.2-3.1-17.7-17-19.5-24.6-.2-.7-.5-1.5-1.2-1.6,0,0,0,0-.2,0Z"/>
  <path class="cls-17" d="M773.1,481.1s-5-2-17.2,13c-12.2,15-14.3,20.7-10.7,22.5,3.6,1.7,7.9,2.6,12.3-.7,0,0-4.8,7.9-1.1,10.4,3.7,2.5,9,3.3,15.7-1.4,0,0-.5,7.4,5.4,8.4,5.9,1,14.9-5.8,14.9-5.8,0,0-.2,5.3,2.8,6.7,2.4,1.1,8.6.2,17.2-6.3,4.2-3.1,9.2-10.4,5.6-14.2-1.6-1.7-5.3-3.1-7.5-5.2-1.7-3.3-7.2-8.7-13-10.3-1.4-3.3-7.7-9.6-12.6-10.7-1.9-3-5.7-5.1-11.8-6.3Z"/>
  <path class="cls-21" d="M757.5,516.6c-.2,0-.4,0-.5-.2-.3-.3-.4-.8,0-1.1.9-1,21.5-24.9,25.7-27.2.4-.2.9,0,1.1.3.2.4,0,.9-.3,1.1-3.2,1.8-17.9,18.3-25.3,26.9-.2.2-.4.3-.6.3Z"/>
  <path class="cls-21" d="M772,525.6c-.2,0-.4,0-.5-.2-.3-.3-.4-.8-.1-1.1,3.6-4.3,21.6-25.9,25.4-26.4.4,0,.8.3.9.7s-.3.8-.7.9c-2.2.3-14.2,13.5-24.4,25.8-.2.2-.4.3-.6.3Z"/>
  <path class="cls-21" d="M792.2,527.9c-.2,0-.4,0-.6-.3-.3-.3-.3-.8,0-1.1.1-.1,11.3-10.2,16-15.4.3-.3.8-.3,1.1,0,.3.3.3.8,0,1.1-4.8,5.3-16,15.4-16.1,15.6-.2.1-.3.2-.5.2Z"/>
  <path class="cls-21" d="M754.6,496.5c0,0-.2,0-.3,0-.4-.2-.6-.6-.4-1.1.3-.7,9.1-11.9,15.1-14.2.4-.2.9,0,1,.4.2.4,0,.9-.4,1-5.3,2.1-13.7,12.5-14.2,13.4-.1.3-.4.5-.7.5Z"/>
  <path class="cls-17" d="M183.8,534.9s20.5-12.6,24.2-20.1c3.8-7.6,14.9,12-2.7,24.5-17.6,12.5-13.7,7.8-13.7,7.8l-7.8-12.2Z"/>
  <path class="cls-17" d="M192.7,529.1s4.7-2.8,19.2,10c14.5,12.8,17.5,18.1,14.2,20.4-3.3,2.3-7.3,3.8-12.3,1.3,0,0,6.1,7,2.8,10.1s-8.3,4.8-15.7,1.2c0,0,1.7,7.2-3.9,9.2-5.7,2-15.7-3.3-15.7-3.3,0,0,1.1,5.2-1.7,7-2.1,1.4-8.5,1.6-18-3.4-4.6-2.4-10.8-8.7-7.8-13,1.3-1.9,4.7-4,6.5-6.4,1.1-3.5,5.7-9.8,11.1-12.3.8-3.5,6-10.7,10.6-12.7,1.4-3.2,4.8-6,10.6-8.1Z"/>
  <path class="cls-21" d="M213.8,561.6c-.2,0-.4,0-.5-.2-8.7-7.2-26-21.1-29.4-22.3-.4-.1-.6-.6-.5-1,.1-.4.6-.6,1-.5,4.5,1.6,28.8,21.8,29.9,22.6.3.3.4.8,0,1.1-.1.2-.4.3-.6.3Z"/>
  <path class="cls-21" d="M200.9,572.8c-.2,0-.4,0-.5-.2-12.1-10.5-26.1-21.5-28.3-21.5-.4,0-.8-.3-.8-.8,0-.4.3-.8.8-.8h0c4,0,25.1,18.2,29.3,21.8.3.3.4.8,0,1.1-.2.2-.4.3-.6.3Z"/>
  <path class="cls-21" d="M181.4,578.4c-.1,0-.3,0-.4-.1s-12.9-8.2-18.5-12.7c-.3-.3-.4-.8-.1-1.1.3-.3.8-.4,1.1-.1,5.5,4.4,18.2,12.5,18.3,12.6.4.2.5.7.2,1.1-.2.2-.4.4-.7.4Z"/>
  <path class="cls-21" d="M213.3,541.1c-.3,0-.5-.1-.7-.3-.7-.8-10.7-9.7-16.2-10.8-.4,0-.7-.5-.6-.9,0-.4.5-.7.9-.6,6.3,1.3,16.9,10.9,17.3,11.5.2.4,0,.9-.3,1.1-.1,0-.3.1-.4.1Z"/>
  <path class="cls-23" d="M361.2,417.4h0c-.4,0-.8-.4-.7-.9l5.3-66c0-.4.4-.7.9-.7s.8.4.7.9l-5.3,66c0,.4-.4.7-.8.7Z"/>
  <path class="cls-16" d="M533.1,42.4c-3.3,3.6-7,6.7-11,9.4-3.3,2.2-7.1,4.2-11.1,4.1.7-1.5,1.7-2.8,2.8-4-4.1,1.6-8.1,3.2-12.2,4.8-2.6,1-5.2,2-7.9,2.3-.4,0-.8,0-1-.2-.5-.4-.3-1.2,0-1.8.9-1.7,2.1-3.1,3.6-4.3-8,2.8-16.1,5.4-24.3,7.6-.6.2-1.3.2-1.5-.3,0-.2,0-.5,0-.8.5-1.1,1.5-1.8,2.5-2.4-9.9,4.6-19.5,9.9-28.6,16,.7-8.4,4.3-16.6,10-22.8,2-2.2,4.2-4.1,6.5-5.9,15.9-12.7,36.3-19.6,56.6-19.3,2.6,0,5.3.2,7.7,1.1s4.7,2.8,5.5,5.3c.4,1.4.4,2.9.4,4.4,0,2.3,0,4.5-.1,6.8"/>
  <path class="cls-7" d="M501.1,136.6h0c-9.9-.8-10.6-2.5-10.9-3.2-.2-.5-.2-1.2.5-2.1,1.6-1.8,4.2-17,5.4-26.2,0-.4.5-.8.9-.7.4,0,.8.5.7.9-.3,2.5-3.3,24.3-5.9,27-.2.2-.2.3-.2.4.2.5,2.4,1.6,9.5,2.2.4,0,.8.4.7.9,0,.4-.4.8-.8.8Z"/>
  <path class="cls-33" d="M519.5,32.7c-1.6,2.4-3.3,4.7-5,7-.9,1.2-1.8,2.4-2.8,3.5-.9,1.1-2.1,2.8-3.6,2.3.1.2.3.5.4.7.6-2.4,1.3-4.8,1.9-7.2.1-.5-.6-1-1-.6-4.7,5.5-11.4,9-18.6,9.7-.8,0-.8,1.3,0,1.2,7.5-.7,14.5-4.3,19.4-10.1-.3-.2-.7-.4-1-.6-.6,2.4-1.3,4.8-1.9,7.2,0,.3.1.6.4.7,2.9.9,5.1-2.9,6.5-4.8,2.2-2.8,4.3-5.7,6.2-8.6.4-.6-.6-1.2-1-.6Z"/>
  <path class="cls-33" d="M457.3,52.4c8.2-1.3,15-6.4,21.5-11.4.6-.5,0-1.5-.6-1-6.3,4.9-13.1,10-21.2,11.2-.7.1-.4,1.3.3,1.1Z"/>
  <path class="cls-33" d="M474.2,49.1c3.6-1.9,7-4.2,10.1-6.6.6-.5-.2-1.3-.8-.8-3.1,2.4-6.4,4.6-9.9,6.5-.7.4,0,1.4.6,1Z"/>
  <path class="cls-33" d="M489,7.5c-3.6-.8-7.2-.4-10.6,1.1-.7.3-.1,1.3.6,1,3-1.3,6.4-1.7,9.7-1,.7.2,1.1-1,.3-1.1Z"/>
  <path class="cls-33" d="M482.1,10.8c-2.3.1-4.6.7-6.7,1.8-.7.3,0,1.4.6,1,1.9-1,4-1.5,6.1-1.6.8,0,.8-1.2,0-1.2Z"/>
</svg>