<?xml version="1.0" encoding="UTF-8"?>
<svg id="Camada_1" data-name="Camada 1" xmlns="http://www.w3.org/2000/svg" version="1.1" xmlns:xlink="http://www.w3.org/1999/xlink" viewBox="0 0 528.7 494">
  <defs>
    <style>
      .cls-1 {
        fill: #ff6b53;
      }

      .cls-1, .cls-2, .cls-3, .cls-4, .cls-5, .cls-6, .cls-7, .cls-8, .cls-9, .cls-10, .cls-11, .cls-12, .cls-13, .cls-14, .cls-15, .cls-16, .cls-17, .cls-18, .cls-19, .cls-20, .cls-21, .cls-22, .cls-23 {
        stroke-width: 0px;
      }

      .cls-2 {
        fill: #db9e86;
      }

      .cls-3 {
        fill: #ffd7ca;
      }

      .cls-4 {
        fill: #4f3d40;
      }

      .cls-5 {
        fill: none;
      }

      .cls-6 {
        fill: #6a8fb9;
      }

      .cls-7 {
        fill: #d6511a;
      }

      .cls-8 {
        fill: #ffc4b4;
      }

      .cls-9 {
        fill: #929090;
      }

      .cls-10 {
        fill: #ff6a2f;
      }

      .cls-11 {
        fill: #ff9976;
      }

      .cls-12 {
        fill: #42678a;
      }

      .cls-13 {
        fill: #382729;
      }

      .cls-14 {
        fill: #9f5433;
      }

      .cls-15 {
        fill: #e52b1e;
      }

      .cls-24 {
        clip-path: url(#clippath);
      }

      .cls-16 {
        fill: #ffa887;
      }

      .cls-17 {
        fill: #ffad9c;
      }

      .cls-18 {
        fill: #ff6ea7;
      }

      .cls-19 {
        fill: #fff;
      }

      .cls-20 {
        fill: #f24488;
      }

      .cls-21 {
        fill: #ffb28e;
      }

      .cls-22 {
        fill: #c16b4b;
      }

      .cls-23 {
        fill: #ffede7;
      }
    </style>
    <clipPath id="clippath">
      <rect class="cls-5" x="37.4" y="92" width="67.2" height="103.6"/>
    </clipPath>
  </defs>
  <path class="cls-14" d="M318.1,239.2c0,.5,0,1,0,1.4,0,.2,0,.3,0,.5-.8,7.9-6.2,2-7.7-2.8-1.5-4.9-1.6-12.9,0-14.8.2-.2.4-.4.5-.6,1-1.2,2.8-.9,3.4.6,1.5,3.7,3.8,10.2,3.8,15.8Z"/>
  <path class="cls-23" d="M177,43.2c.3,1.7,1.7,7.9,6.2,11.4.1,0,.2.2.2.4,0,.7,0,2.7-2.7,3.7-3.2,1.1-5.1-5.9-5.3-6.8,0,0,0-.1,0-.2l.6-8.4c0-.3.3-.5.6-.5.2,0,.5.2.5.4Z"/>
  <path class="cls-9" d="M125,225.8h9.1v135.2h-9.1v-135.2Z"/>
  <path class="cls-21" d="M318.1,229.6s-2,1.1-3.2-2.1c-.2-.4-.5-1-.5-1.6-.3-4.5-2-10-3.2-11.8h0c-.2-.2-.3-.4-.4-.5-.5-.3-1.2-.5-1.9-.6-1.3,0-2.4.5-1.5,2.1,1.4,2.5,5.3,5.8,5.5,9.5.2,3.8-5.7-3-7.7-4.2-2-1.2-6.2-3.7-10-8.5-.3-.4-.6-.7-1-1-4.7-3.7-16.3-2.8-16.3-2.8l1.7-11.3s25.1,2.2,30.8,6.6c5.4,4.2,5.9,11.9,6.6,15.8,0,.2,0,.4.1.6.7,3.6.3,8.3,1,9.7Z"/>
  <path class="cls-23" d="M160.5,74.9l-1.1,5.3s23.3,12.1,28,16.4c4.7,4.3,9.7,14.2,9.7,15.6,0,1.5-9.4-1.9-11.3-3.9-1.9-2.1-20.9-17.7-24.2-20.8-3.3-3.1-7.4-7.5-7.4-7.5l2.6-5.1h3.7Z"/>
  <path class="cls-6" d="M180.4,199.4l6.8,11.4s5.1,17.2,8,46c0,0-10.6,20.3-30.3,17.1-19.7-3.1-21.3-16.6-21.3-16.6,0,0-13.5,18.6-30.9,12.6-17.4-6-14.3-27.2-14.2-34.3.1-9,5.7-24.8,7-30.6,1.3-5.8,74.7-5.7,74.7-5.7Z"/>
  <path class="cls-13" d="M158.3,75.3s14.5,3.4,20.1.9c0,0-3.4-22.4-5.3-27.3-1.9-4.9-10.2,0-10.2.7s-4.7,25.7-4.7,25.7Z"/>
  <path class="cls-23" d="M100.4,220.6s-2.6,2.9-.8,4.4c1.8,1.5,6.4.2,9.6,3.5,3.2,3.2,5.6,6.5,10.3,7.2,4.7.7,11.7,0,13.5,1.3s10,5.8,15.1,5.2c5.1-.5,13.4-4.9,17-4,1.1.3,2.7.8,4.3,1.5,4.8,1.9,10.2-.5,11.9-5.4,0,0,0,0,0-.1,0,0,.6-3,4.6-3.3s6.8-4.3,7-5.6-.8-5.4-.8-5.4c0,0-37.4,5.5-42.7,5-5.4-.5-49.1-4.3-49.1-4.3Z"/>
  <path class="cls-13" d="M171.1,19.9s.1-2.9,5.1-.8c4.9,2.1,2.4,24.1-1.6,33.3-4,9.2-8.2-30.4-8.2-30.4l4.7-2.1Z"/>
  <path class="cls-23" d="M129.3,69.3s-.9,8-1.2,8.8c-.3.8-5.8,1.4-8.6,4.2-2.8,2.7,6.5,1.1,7.3,1.8s7.2-4.1,7.6-4.8-1.4-9.5-1.4-9.5l-3.7-.5Z"/>
  <path class="cls-18" d="M282.5,206.3c-4.6,7.7-6.8,6.3-6.8,6.3,0,0-8.6-1.8-19.4-4.5-7.6-2-16.3-4.4-23.9-7.1-5.2-1.9-10-3.8-13.5-5.9-16-9.1-33.2-31.7-33.2-31.7l3.7,25.7,2.4,16.6,2.5,17.5c-14.7,12.1-47.2,18.5-63.9,13.2-15.5-5-23.6-12.6-31.4-14.2,3.1-10.5,6.7-21.4,10.3-28.2,0,0,1.4-12.3-6-35.7-1.7-5.3-3.2-11.2-4.5-17-4.3-19.7-6.4-39.3-6.4-39.3,0,0,0-4.2,4.9-9.1,4.1-4.1,11.8-8.8,25.8-12l1-.2h.2c2.1-.5,4.4-.9,6.8-1.3,0,0,12.7,5.8,27.2,1.7,0,0,3.4,2,8.3,5.2,4.7,3.2,10.7,5.1,16.1,8.5,2.5,1.6,4.9,3.4,6.9,5.9,1.8,2.2,3.7,5.2,5.7,8.7,6.8,12.2,14.2,30.6,22.4,43.7,2.9,4.7,5.9,8.8,9.1,11.6.3.3.6.5.9.8,17.3,14.5,52.8,26.9,55.4,26.2,0,0,3.9,7.1-.7,14.7Z"/>
  <path class="cls-21" d="M166.8,86.2c-27.6,13.7-43.5-5.3-43.5-5.3l1-.2h.2c2.1-.5,4.4-.9,6.8-1.3,0,0,12.7,5.8,27.2,1.7,0,0,3.4,2,8.3,5.2Z"/>
  <path class="cls-21" d="M91,180.2s8.4,6.3,11.2,6.3,11-6.3,11-6.3c0,0,.6-1.7,4.9,0,4.4,1.7,2.3,1.5,0,2.8-2.3,1.2-2.9,3.3-4.6,5.4s-4.4,9.1-6.5,10.7-17.9-2.5-22.9-7.4c-5-4.9,6.8-11.4,6.8-11.4Z"/>
  <g class="cls-24">
    <path class="cls-18" d="M101.9,139.6l-2.9,1.6-28.1,15.2,23.6,23.8c-.3.7-.7,1.5-1.1,2.2-3.7,5.9-12.2,11.5-12.2,11.5,0,0-4.4-3.5-10.3-8.1-6-4.8-13.6-10.8-19.4-15.7-4-3.3-7.1-6-8.6-7.4-5.5-5.5-3.6-8.2-3.6-8.2.8-3.5,8.6-12.5,18.2-22.5,4.1-4.3,8.6-8.8,12.9-13.1,13.8-13.7,27.1-26,27.1-26,0,0,0,0,0,0,6.3,13.5,4.4,46.8,4.4,46.8Z"/>
  </g>
  <path class="cls-21" d="M159.9,71.3s-1.9,4.8-1.4,9.6c.7,7.7-29.2-1.3-29.2-1.3,0,0,4.3-19.9,5.5-23.6,1.2-3.6,25.2,15.3,25.2,15.3Z"/>
  <path class="cls-10" d="M171.6,72.5s-22.8,1.8-27-13.1,11-5.9,11-5.9l16,18.9Z"/>
  <path class="cls-21" d="M181.9,56.9c-.8.9-1.8,1.8-2.6,1.8h0c0,.4,0,1-.9,3.5,0,0-.2.8-.3.7h-.1s-.5,1.7-.8,2.4c0,0,0,.1,0,.2.1,0,.2.1.3.1,0,.1-.1.2-.2.3,0,.1-.1.2-.2.4-2.2,4.7-1.5,7.8-6.9,6.7-7.7-1.6-17.6-5.9-22.3-12.6-.7-1-1.3-2.1-1.8-3.3-1.7-4.3-1.2-14.2,1.7-22.9.2-.5.3-1,.5-1.5,0-.3.2-.6.3-.9.1-.4.3-.7.4-1.1.7-1.8,1.6-3.4,2.5-4.9,0,0,0,0,0,0,.2-.4.5-.7.7-1.1,1.8,0,3.6,0,5.3.1,2.7,0,5.3.3,7.5.5h.3c1.3.2,2.5.3,3.6.5.2,0-.7-.5-.5-.5.5,0-.3-2.4,0-2.3,2.1.4,2.6-1.5,3.4-1,.9-2.3,3.5,5.7,3.5,5.8,0,.1,0,.3.1.4,0,.2.1.3.2.5.9,3.3,1.6,7.6,1.1,12.2-.8,7.3,2.7,11.5,4.8,13.3.2.2.4.4.5.7.3.6.2,1.4-.3,2Z"/>
  <path class="cls-10" d="M173.8,44.5s.1-2-.5-3.1c0,0-3.8-.5-6.1,1.1l-1.2,1.6,7.9.4Z"/>
  <path class="cls-13" d="M165,40.3s6.2-3.2,10-2.8c0,0,.3-1.2-.2-2.3-.5-1.1-9,3.1-9.9,5.1Z"/>
  <path class="cls-21" d="M172.8,45.5s-.8,2.4-2.3,3.2c0,0-3.4-1-4.7-4.4,0,0,.8-.3,1.2-.4.4,0,2.9-.8,4.3.1,1.4.9,1.5,1.5,1.5,1.5Z"/>
  <path class="cls-13" d="M170.4,44.9c-.9,1.5-1.1,2.9-.5,3.3,0,0,0,0,0,0,0,0,.1,0,.2,0,0,0,0,0,0,0,.7,0,1.8-.8,2.6-2.1.2-.4.4-.8.6-1.1-.2-.3-.4-.6-.7-.8-.5-.3-1.1-.3-1.7-.1-.2.2-.3.5-.5.7Z"/>
  <path class="cls-13" d="M175.3,44.2s-1.1,1.3-2.5.5c-1.4-.7-4.5-1-6.9-.4,0,0,1.4-1.4,4.8-1.1,3.4.3,3.9,1.1,4.6.9Z"/>
  <path class="cls-10" d="M165.8,44.3s.8-3.1,5.5-3.1c0,0-2.9,0-5.5,3.1Z"/>
  <path class="cls-10" d="M179.3,58.7h0c.8,0,1.8-1,2.6-1.8.5-.6.6-1.3.3-2-1.4.5-3.7,1.3-4.2,2.1-.4.7.5,1.3,1.2,1.6Z"/>
  <path class="cls-16" d="M164.9,53.2c-.2,1.7,1.4,3.3,3.5,3.6,2.1.2,4-1,4.2-2.7.2-1.7-1.4-3.3-3.5-3.6-2.1-.2-4,1-4.2,2.7Z"/>
  <path class="cls-19" d="M178.4,62.9h-.3c.1,0,.2,0,.3,0Z"/>
  <path class="cls-13" d="M169.7,25.9c-.2.3-.5.6-.7,1,0,0,0,.1-.1.2s0,.1-.1.2h-.1c0,.2,0,.3-.2.3,0,0-.1.2-.2.2,0,0,0,.1-.1.2,0,0,0,0,0,.1,0,0-.1.1-.2.2-.4.5-.8,1.1-1.2,1.6,0,0,0,.1-.1.2-.3.4-.6.8-.9,1.2,0,0,0,0,0,0-.5.6-1,1.3-1.5,2-1.8,2.5-3.8,4.7-5.7,6.6-3.4,3.5-6.6,6.2-8.9,8-2.2,1.7-3.6,2.5-3.6,2.5,0,0,1.5,7.2,1.8,10,0,.6,0,1,0,1.1,0,.1-1.4-.6-3.3-2,0,0,0,0,0,0-.3-.2-.7-.5-1-.8,0,0,0,0,0,0h0c-.2-.1-.3-.3-.5-.4,0,0,0,0,0,0-5.8-4.5-14.7-12.8-15.4-19.9,0-.8-.1-1.7-.2-2.5,0-1.3,0-2.6,0-3.9.1-1.1.3-2.2.5-3.3,0-.3.2-.7.3-1,.3-.2.8-.5,1.4-.7,3.3-1.2,11-2.1,20.1-2.2.7,0,1.4,0,2.2,0h.4c1.8,0,3.6,0,5.3.1,2.7,0,5.3.3,7.5.5h.3c1.3.2,2.5.3,3.6.5.2,0,.4,0,.6.1Z"/>
  <path class="cls-13" d="M143,58.3c-9.4-7.6-13.5-29.7-13.5-29.7,0,0-1,1.6-2,3.4-.2,2.1-.1,4.2,0,6.4.7,7,9.6,15.4,15.4,19.8Z"/>
  <path class="cls-13" d="M169.7,25.9c-.2.3-.5.6-.7,1,0,0,0,.1-.1.2s0,.1-.1.2h-.1c0,.2,0,.3-.2.3,0,0-.1.2-.2.2,0,0,0,.1-.1.2,0,0,0,0,0,.1,0,0-.1.1-.2.2-.4.6-.8,1.2-1.3,1.8-.3.4-.6.8-.9,1.2,0,0,0,0,0,0-.7.2-1.5.3-2.5.2-.3,0-.6,0-.9,0t0,0c-1.1,0-2-.2-2.8-.3-.3,0-.6-.2-.9-.2-.2,0-.5-.2-.7-.2-1.2-.4-2.1-1-2.8-1.7-.2-.1-.3-.3-.5-.4-1-.9-1.9-1.9-3-2.8,0,0,0,0,0,0-.3-.2-.5-.4-.8-.6s-.6-.3-.9-.5c.7,0,1.4,0,2.2,0h.4c1.8,0,3.6,0,5.3.1.2.2.4.5.6.7h0c.1.1.2.3.4.4.2.2.4.5.7.8.9.9,1.9,1.4,3,1.5.3,0,.6,0,.9,0,1.6-.1,3.2-.8,4.5-1.5.5-.3,1-.6,1.5-.9.2,0,.4,0,.6.1Z"/>
  <path class="cls-19" d="M144.6,59.5c-.3-.2-.6-.5-1-.8.3.3.7.5,1,.8Z"/>
  <path class="cls-13" d="M165.5,25.3c-.3.3-.5.7-.8,1-.5.7-1,1.3-1.5,1.8-1,1.1-1.9,1.9-2.7,2.5-.3.2-.6.4-.9.6-.4.2-.7.4-1.1.6-1.8.8-2.9.5-2.9.5.4,0,.9-.2,1.4-.4.5-.2,1.1-.5,1.6-.9.2,0,.3-.2.5-.3,1.1-.7,2.3-1.7,3.3-2.6.7-.6,1.4-1.3,1.9-1.8.3-.3.7-.7.9-1h.3Z"/>
  <path class="cls-13" d="M138.5,36.3s9.3-1,19.8-10.8c0,0-8.7,11.6-19.8,10.8Z"/>
  <path class="cls-21" d="M179.3,58.7s-.6,2.2.9,3.2l-1,4.3s-2.2.8-3.2,3.1l-1.6-5.3,4.9-5.3Z"/>
  <path class="cls-13" d="M174.3,24.7c-3.1-1-4.6,1.2-4.6,1.2-1.8,0-4.1,1.3-6.6,3.6-2.5,2.3-5.1,5.3-7.4,8.6-4.3,6-7.8,12.6-8.1,15.6-.5,6.2,7.3,21.6,7.3,21.6-3.6,0-24.4-4.4-24.4-4.4-11.5-3.9-17.9-9.4-21.5-13.9l3.2-7.4c-.1.2-2.8,4-4.2,6.1-2.5-3.5-3.1-6.1-3.1-6.1,1.1-3.7,4-10,7.5-16.2,1.9-3.5,3.9-6.9,5.8-9.9,2.6-4.1,4.9-7.3,6.3-8.5,4.1-3.5,16.6-7.9,33.8-2.7,17.3,5.2,16,12.4,16,12.4Z"/>
  <path class="cls-11" d="M149,47.7c-.4-1.5-1.4-2.9-2.7-3.8-1.4-.9-3.1-1.5-4.3.3-2.2,3.2,3.7,14.1,6.5,11.3,1.8-1.8,1.2-5.5.5-7.9Z"/>
  <path class="cls-10" d="M145.9,47.4c-.9.7-1.2,2.1-.6,3.2s1.9,1.6,3,1.2c.5-.1.3-.9-.2-.8-.8.2-1.7-.1-2.1-.9-.4-.7-.1-1.7.5-2.2.2-.1.1-.4,0-.6-.2-.2-.4-.1-.6,0Z"/>
  <path class="cls-21" d="M141.5,57.6s1.1,13,5.3,17.3h-4.6s-2.2-6.3-.7-17.3Z"/>
  <path class="cls-15" d="M171.6,61.5s3.6,2,8.3,2.5c0,0,2.3-2,.6-2.4,0,0-2.9,1.9-8.9,0Z"/>
  <path class="cls-10" d="M174.3,62.7s3.5,3.5,4.8,3.5,1.4-1.7.5-2.2c-.9-.5-5.3-1.3-5.3-1.3Z"/>
  <path class="cls-4" d="M166.8,29.9s0,.1-.1.2c-.3.4-.6.8-.9,1.2,0,0,0,0,0,0-.5.6-1,1.3-1.5,2-1.8,2.5-3.8,4.7-5.7,6.6-.7-.7-1.7-1.4-2.8-1.9-1.8-.8-4.2-1.1-7.4-.4-8.6,2-16,2.1-21-1.7-.4-.3-.7-.6-1-.9-2.7-2.6-8.9-2.3-14-1.6,1.9-3.5,3.9-6.9,5.8-9.9,3.3-.4,6.6-.1,9.2,1.7.8.6,1.6,1.1,2.3,1.6,6.6,4.5,12,6.9,23.2,4,4.4-1.2,7.8-1.5,10.3-1.4,1.5,0,2.7.2,3.6.4Z"/>
  <path class="cls-21" d="M185.1,424.6c6.3,14.1,9.7,25,11.3,32.6.7,3.3,1.3,9.1,0,14-1.3,4.9.6,7.5,3.5,8,2.8.5,20.1-.9,29.9,0,9.8.8,22.7,1,25.3,0,2.6-1-1.5-3.8-1.5-4.8s-4.3-3.7-10-5.8c-5.7-2.1-13.9-2.3-22.4-7.4-8.5-5.2-10.9-40.9-12.1-48.7-1-6.9-.3-15.3-2.7-22.4l-14.4,1.1-15.3,16.1c2.4,5.3,5.9,11.2,8.7,17.4Z"/>
  <path class="cls-3" d="M219.8,456.7s-3.5,7.3-13.4,4.5c-9.9-2.8-10.4-3.1-11.7-2.8-1.3.3-2.6,14-2.4,18.7s1.8,5.2,4,5.5c2.2.3,54.6,4.2,60.6-2,0,0-.7-5.9-1.1-6.3-.4-.4-1-4.1-4.5-4.8s-28.8-6.7-31.5-12.7Z"/>
  <path class="cls-22" d="M256.2,478.2c-8,2.2-16.4,2-24.6,1.6-8.5-.4-17-1.3-25.4-2.5-4.8-.7-9.6-1.5-14.4-2.5-.7-.1-.4-1.2.3-1.1,8.3,1.7,16.7,3,25.1,3.9,8.2.9,16.6,1.5,24.8,1.4,4.7,0,9.3-.6,13.9-1.8.7-.2,1,.9.3,1.1Z"/>
  <path class="cls-22" d="M255.1,474.3c-7.5.7-15,.3-22.4-1-1.8-.3-3.6-.7-5.4-1.2-1.1-.3-1.9-1.1-1.8-2.3.3-2.7,3.1-5.1,5.3-6.2.6-.3,1.2.6.6,1-1.2.6-2.2,1.3-3.1,2.3-.7.8-2.7,3.3-1,4,1.3.5,2.9.7,4.2,1,1.6.3,3.1.6,4.7.8,6.2.9,12.5,1,18.8.5.7,0,.7,1,0,1.1Z"/>
  <path class="cls-22" d="M222.3,460.2c-3.6,3.3-8.2,5-13.1,5.2-5.4.2-10.6-1.3-15.8-2.8-.7-.2-.4-1.3.3-1.1,4.8,1.4,9.6,2.8,14.6,2.8,4.9,0,9.5-1.7,13.1-4.9.5-.5,1.3.3.8.8Z"/>
  <path class="cls-22" d="M207.3,477.2c-.2,1.9,0,3.8.3,5.6.1.7-.9,1-1.1.3-.4-2-.5-3.9-.4-5.9,0-.7,1.2-.7,1.1,0Z"/>
  <path class="cls-22" d="M212.8,478c-.2,1.7-.2,3.4.2,5.1.2.7-.9,1-1.1.3-.4-1.8-.5-3.6-.3-5.4,0-.7,1.2-.7,1.1,0Z"/>
  <path class="cls-22" d="M219.6,478.9c-.6,1.5-.5,3.1,0,4.6.3.7-.8.9-1.1.3-.7-1.7-.7-3.5,0-5.2.2-.7,1.3-.4,1.1.3Z"/>
  <path class="cls-22" d="M225.1,479.5c-.3,1.3-.4,2.6-.2,3.9.1.7-1,1-1.1.3-.2-1.5-.2-3,.2-4.5.2-.7,1.2-.4,1.1.3Z"/>
  <path class="cls-6" d="M192.7,236.9s9.9,62.9,11.7,79.1c1.7,16.2,14.8,120.3,14.8,123.7s-27.7,10.2-38.1,9.7c0,0-26.1-118.7-37.4-191.9l49-20.6Z"/>
  <path class="cls-21" d="M99.8,435.7s3.9,18.4,2,25.4c-2,7,17.8,1.3,17.8,1.3,0,0-3.1-16.5,0-25.2,3.1-8.8-19.7-1.4-19.7-1.4Z"/>
  <path class="cls-6" d="M98.7,235.7s-5.4,192.1-6.1,193.3c-.8,1.1,0,8.8,0,8.8,0,0,21.7,4.2,35.4,1.9l18.9-180.6s-4.8-7.6-6.3-7.6-41.8-15.7-41.8-15.7Z"/>
  <path class="cls-3" d="M100.9,458.9s5.3-7.3,17.9-1.9c0,0,5,8.3,6,17.6.3,3-1.6,5.9-4.5,6.8-3.9,1.3-10,2.5-17.7,1-3.3-.7-5.6-3.7-5.3-7.1.5-5.5,1.6-13.4,3.6-16.5Z"/>
  <path class="cls-22" d="M100.7,462.1c2.5-2.8,6.4-2.5,9.8-2.4,3.6.2,7.2.5,10.1,2.8.6.5,1.2-.5.6-1-3.2-2.5-7.3-2.8-11.3-3-3.6-.2-7.5-.2-10,2.7-.5.6.3,1.4.8.8Z"/>
  <path class="cls-22" d="M97.6,476.7c4.9.3,9.9.5,14.9.4,4.3,0,8.5-.6,12.5-2.3.7-.3,0-1.3-.6-1-4.1,1.8-8.6,2.2-13,2.2-4.6,0-9.2-.1-13.8-.5-.7,0-.7,1.1,0,1.1Z"/>
  <path class="cls-22" d="M117.5,477c.3,1.7.2,3.4-.3,5.1-.2.7.9,1,1.1.3.5-1.9.6-3.8.3-5.7-.1-.7-1.2-.4-1.1.3Z"/>
  <path class="cls-22" d="M108.8,476.5c-.3,2.3,0,4.4,1,6.5.3.7,1.3,0,1-.6-.8-1.8-1.1-3.7-.9-5.6.1-.7-1-1-1.1-.3Z"/>
  <path class="cls-22" d="M100.2,476.8c-.1,2.2.6,4.3,2.1,5.9.5.5,1.3-.3.8-.8-1.3-1.4-1.9-3.2-1.8-5.1,0-.7-1.1-.7-1.1,0Z"/>
  <path class="cls-12" d="M139.5,272c-2.9,20.3-5.7,40.7-8.6,61-2.8,20.3-5.7,40.7-8.5,61-1.6,11.5-3.2,22.9-4.8,34.4-.1.7,1,1,1.1.3,2.8-20.3,5.7-40.7,8.5-61,2.8-20.3,5.7-40.7,8.5-61,1.6-11.5,3.2-23,4.8-34.4.1-.7-1-1-1.1-.3Z"/>
  <path class="cls-12" d="M131.7,242.1c-1.5,6.7-.2,14,3.8,19.6,3.7,5.3,9.5,8.8,15.9,9.9.7.1,1-1,.3-1.1-6-1-11.6-4.4-15.2-9.4-3.9-5.4-5.1-12.3-3.7-18.8.2-.7-.9-1-1.1-.3Z"/>
  <path class="cls-20" d="M96.1,121.2c-1,6.7,0,13.4,2.9,19.5.3.7,1.3,0,1-.6-2.7-5.8-3.7-12.3-2.7-18.6.1-.7-1-1-1.1-.3Z"/>
  <path class="cls-20" d="M185.6,162.4c-7.4-3.5-13.1-9.4-16.8-16.7-3.7-7.2-5.4-15.2-7.1-23.1-.2-.7-1.3-.4-1.1.3,1.8,8.1,3.6,16.4,7.5,23.8,3.8,7.3,9.6,13.1,17,16.7.7.3,1.2-.7.6-1Z"/>
  <path class="cls-20" d="M185.5,162.5c-2.4-3.2-4.8-6.3-7.1-9.5-.4-.6-1.4,0-1,.6,2.4,3.2,4.8,6.3,7.1,9.5.4.6,1.4,0,1-.6Z"/>
  <path class="cls-20" d="M119,184.1c3-1.5,5.9-3,8.9-4.5.7-.3,0-1.3-.6-1-3,1.5-5.9,3-8.9,4.5-.7.3,0,1.3.6,1Z"/>
  <path class="cls-20" d="M105,163.4c1.6,10.8,13.4,14.3,22.4,16.4.7.2,1-.9.3-1.1-8.7-2-20.1-5.2-21.6-15.6-.1-.7-1.2-.4-1.1.3Z"/>
  <path class="cls-20" d="M113,178c2.7,1.1,5.4,2.3,8.1,3.4.7.3,1-.8.3-1.1-2.7-1.1-5.4-2.3-8.1-3.4-.7-.3-1,.8-.3,1.1Z"/>
  <path class="cls-12" d="M174.2,240.8c1.3,3.8,3.9,7.6,7.7,9.3,3.9,1.9,9.1,1.7,12.1-1.7.5-.5-.3-1.4-.8-.8-2.8,3.1-8,3.2-11.5,1.1-3.1-1.9-5.2-4.9-6.4-8.3-.2-.7-1.3-.4-1.1.3Z"/>
  <path class="cls-20" d="M120.7,83.9c6,6.4,14.1,10.8,22.8,12,9.1,1.3,18.5-.8,26.3-5.7.6-.4,0-1.4-.6-1-7.6,4.9-16.9,7-25.9,5.6-8.4-1.3-16.1-5.5-21.9-11.7-.5-.5-1.3.3-.8.8Z"/>
  <path class="cls-20" d="M191.8,205.7c-5.1,3.9-12,5.8-12,5.8-10.6-4.9-13.2-11.2-13.8-14.6,0-.3,0-.6-.1-.8s0-.3,0-.4c0-.3,0-.6,0-.8,0-.3,0-.5,0-.5.5-4.3,4.4-7.4,8.7-7,4.3.5,7.4,4.4,7,8.7.5-4.1,3.9-7.1,7.9-7l2.4,16.6Z"/>
  <path class="cls-20" d="M163.1,155.2c0,.3,0,.6,0,.9,0,.6,0,1.1-.1,1.7,0,.2,0,.5-.2.7,0,0,0,0,0,.1-1.9,7.8-13,14.3-13,14.3-11.5-2-15.7-7.3-17.2-10.5-.1-.3-.2-.5-.3-.8,0-.1,0-.2-.1-.3-.1-.3-.2-.6-.2-.8,0-.3,0-.5,0-.5-.7-4.3,2.3-8.3,6.6-9,4.3-.7,8.3,2.3,9,6.6-.7-4.3,2.3-8.3,6.6-9,4.3-.7,8.3,2.3,9,6.6Z"/>
  <path class="cls-20" d="M226.9,164.6c-.2.2-.3.4-.5.7-.1.2-.3.4-.5.6,0,0,0,0,0,.1-5.3,6-18.1,6.7-18.1,6.7-9.3-7.1-10.6-13.7-10.4-17.2,0-.3,0-.6,0-.8,0-.1,0-.2,0-.4,0-.3.1-.6.2-.8,0-.3.2-.5.2-.5,1.4-4.1,5.9-6.3,10-5,4.1,1.4,6.3,5.9,5,10,.8-2.5,2.8-4.3,5.1-5,2.9,4.7,5.9,8.8,9.1,11.6Z"/>
  <path class="cls-20" d="M256.3,208c-7.6-2-16.3-4.4-23.9-7.1.2-.3.5-.5.7-.8,3.2-2.9,8.2-2.8,11.1.5-2.9-3.2-2.7-8.2.5-11.1s8.2-2.8,11.1.5c.2.2.4.4.5.7.3.5.6,1,.8,1.5.1.2.2.5.3.7,0,0,0,0,0,.1,1.7,4.8.2,11.1-1.2,15.2Z"/>
  <path class="cls-20" d="M195.4,109.2c-1.1,4.5-2.8,8.2-2.8,8.2-10.7,4.8-17.1,2.7-20.1.9-.3-.2-.5-.3-.7-.5,0,0-.2-.2-.3-.2-.3-.2-.5-.4-.6-.5-.2-.2-.4-.4-.4-.4-2.9-3.2-2.7-8.2.5-11.1,3.2-2.9,8.2-2.8,11.1.5-2.9-3.2-2.7-8.2.5-11.1,0,0,.2-.2.3-.2,2.5,1.6,4.9,3.4,6.9,5.9,1.8,2.2,3.7,5.2,5.7,8.7Z"/>
  <path class="cls-20" d="M133.5,121c-.1.3-.3.5-.5.7-.3.5-.7.9-1.1,1.3-.2.2-.4.3-.6.5,0,0,0,0,0,0-6.2,5.1-19,3.6-19,3.6-8-8.5-8.1-15.3-7.4-18.7,0-.3.1-.6.2-.8,0-.1,0-.2.1-.3.1-.3.2-.6.3-.8.1-.3.2-.5.2-.5,2.1-3.9,6.8-5.3,10.7-3.2,3.8,2,5.3,6.8,3.2,10.7,2-3.9,6.8-5.3,10.7-3.2,3.8,2.1,5.3,6.8,3.2,10.7Z"/>
  <path class="cls-20" d="M84.5,134.1c-.1.3-.3.5-.5.7-.3.5-.7.9-1.1,1.3-.2.2-.4.3-.6.5,0,0,0,0,0,0-6.2,5.1-19,3.6-19,3.6-2.8-3-4.7-5.8-5.9-8.3,4.1-4.3,8.6-8.8,12.9-13.1,1.4,2.3,1.6,5.3.2,7.8,2-3.8,6.8-5.3,10.7-3.2,3.8,2.1,5.3,6.8,3.2,10.7Z"/>
  <path class="cls-20" d="M146.4,216.7c0,.3-.1.6-.2.8-.2.5-.4,1.1-.7,1.5-.1.2-.3.4-.4.6,0,0,0,0,0,.1-4.6,6.6-17.2,8.8-17.2,8.8-10.1-5.9-12.1-12.4-12.4-15.8,0-.3,0-.6,0-.8s0-.3,0-.4c0-.3,0-.6,0-.8,0-.3,0-.5,0-.5.9-4.3,5.1-7,9.3-6.1,4.2.9,7,5.1,6.1,9.3.9-4.3,5.1-7,9.3-6.1,4.2.9,7,5.1,6.1,9.3Z"/>
  <path class="cls-20" d="M76.2,176.7c0,.2,0,.5-.2.7,0,0,0,0,0,.1-.7,3.1-2.9,5.9-5.2,8.3-6-4.8-13.6-10.8-19.4-15.7h.2c4.3-.7,8.3,2.2,9,6.5-.7-4.3,2.2-8.3,6.5-9,4.3-.7,8.3,2.2,9,6.5,0,.3,0,.6,0,.9,0,.6,0,1.1-.1,1.7Z"/>
  <path class="cls-10" d="M363.1,341.3h-.3.3Z"/>
  <path class="cls-10" d="M323,349.1h.1c0,0-.1.1-.2.2,0-.1,0-.2,0-.2Z"/>
  <path class="cls-13" d="M312.3,231.8c0,1.1-.5,2.1-1,2.1s-1-.9-1-2.1.5-2.1,1-2.1,1,.9,1,2.1Z"/>
  <path class="cls-13" d="M313.2,234.8c-.3.6-.8,1-1.1.8s-.3-.8,0-1.4.8-1,1.1-.8.3.8,0,1.4Z"/>
  <path class="cls-13" d="M318.1,239.2c0,.5,0,1,0,1.4,0,.2,0,.3,0,.5-.3,0-.6,0-.9,0-1.1-.1-2-.7-2-1.2,0-.6,1-.9,2.2-.8.3,0,.5,0,.8.2Z"/>
  <path class="cls-21" d="M310,209.6h4.3l6.3,8.6s2.5,2.7,2.3,3c-.2.2-1,1.2-1.8.7-.8-.5-5.6-3.6-7.1-5.5-1.5-2-2.7-6.3-2.7-6.3l.6-1.5-1.9,1.2Z"/>
  <path class="cls-10" d="M310.9,206.1c2.9,3.8,5.8,7.6,8.7,11.4l1.4,1.9c.2.3,1,1,1.1,1.3.1.6-.4,1-.8,1-.1,0-.3-.1-.5-.2-1-.4-1.9-1.3-2.7-2-3-2.7-5.9-6.3-10-7.5-5.3-1.5-11.3-.2-16.2-3.1-.4-.3-.8.4-.4.7,4.7,2.7,10.2,1.8,15.3,2.9,1.3.3,2.6.7,3.7,1.4,1.3.8,2.4,2,3.5,3,1.7,1.5,3.3,3.1,5,4.5.9.7,2.5,1.8,3.6.8,1.1-1.1-.4-2.4-1.1-3.3-1.7-2.2-3.4-4.5-5.1-6.7-1.6-2.1-3.2-4.2-4.8-6.4-.3-.4-1,0-.7.4Z"/>
  <path class="cls-10" d="M307.4,215c1.4,2.5,5.3,5.8,5.5,9.5.2,3.8-5.7-3-7.7-4.2-2-1.2-6.2-3.7-10-8.5-.3-.4-.6-.7-1-1,.3,0,.6-.1.9-.1,2.1,0,9,.4,13.7,2.2-1.3,0-2.4.5-1.5,2.1Z"/>
  <path class="cls-10" d="M318.1,229.6s-2,1.1-3.2-2.1c-.2-.4-.5-1-.5-1.6-.3-4.5-2-10-3.2-11.8.4.3.8.5,1.1.8,1.7,1.5,3.3,3.1,4.6,4.4,0,.2,0,.4.1.6.7,3.6.3,8.3,1,9.7Z"/>
  <path class="cls-12" d="M91.3,428.6v9.6s29.4,6.6,37.8,1.4l1.4-8.3s-27.4,1.3-39.1-2.7Z"/>
  <path class="cls-12" d="M177.6,441l2.9,9.3s33.3-3.6,40.7-11.4l-1.1-8.6s-28.8,10.6-42.5,10.7Z"/>
  <path class="cls-17" d="M336.2,467.7c-7.4.8-13.1,1.2-14.8,1.2-3.2,0-12-1.1-16.5-1.7-1.7-.2-2.8-2-2.1-3.7,1-2.5,3.5-5.5,9.4-5.5,8.9,2.7,10.3,4.6,14.9,3.1,4.6-1.5,7.1,2.7,9.7,4.5.7.4.4,1.2-.5,2.1Z"/>
  <path class="cls-7" d="M267.8,378.9s11.3,6.3,24,3.4c12.6-2.9,32.9-14.4,30.5-16.7-2.3-2.3-12.1-12.1-16.6-10-4.5,2.1-30,10.4-30,10.4l-7.9,12.9Z"/>
  <path class="cls-10" d="M376.7,472.6c-1.4,1.2-3.5,2.1-6.5,2.9-8.6,2.2-21.5,4.1-32.2,5.3,0,0,0,0,0,0-1.5.2-3,.3-4.5.5-7.4.8-13.1,1.2-14.8,1.2-3.2,0-12-1.1-16.5-1.7-1.7-.2-2.8-2-2.1-3.7,1-2.5,3.5-5.5,9.4-5.5,10.2,0,13.3-2.5,13.3-2.5,0,0-4-6.3-6.1-12.9l-.3-1.1h0c-.8-2.7-1.2-5.3-.9-7.6,0-.3,0-.5.1-.8h0c1.3-7.9,7-15.3,7.3-15.5h0s1.5-7.2-2.4-11c-3.8-3.8-12.9-20-17-26.9-4.1-6.9-3.8-18.7-1.2-21.6,2.6-2.9,8.8-5,19.1-4.7,10.3.3,12.6-9.1,5.3-20-4.5-6.6-10.7-9.3-14.9-10.3l21.8-5.3c-.5.3,3.8.3,3.3,8.2-1.5,23.5,12,38.6,14.1,45.6,2.1,7,27.5,24.2,26.2,54.8-.7,18.2,6,27.4-.2,32.5Z"/>
  <path class="cls-3" d="M302,371.8c-2.6,2.9-2.9,14.7,1.2,21.6,4.1,6.9,13.2,23,17,26.9,3.8,3.8,2.4,11,2.4,11h0c-.2.3-5.9,7.7-7.3,15.5-.8-5.3-2-11.5-3.9-17.1-4.4-12.9-9.5-18.2-11.3-22.8-1.9-4.6-11.7-16.4-14.6-24.6-2.9-8.2-1.2-16.7-1.2-16.7,0,0-3.4-.6-2-3.8,1.4-3.2,3.3-10.3,3.3-10.3,0,0-4.1-2.9-1.2-5.6,1.5-1.4,3.7-3.8,5.4-5.8,0,0,.1-.2.2-.2l13.5-1.1,8.2-2c4.2,1,10.4,3.6,14.9,10.3,7.3,10.9,5,20.3-5.3,20-10.3-.3-16.4,1.8-19.1,4.7Z"/>
  <path class="cls-7" d="M336.8,321.9s-2.9-8.2-4.3-12.7c-1.4-4.5-1.2-13.3-3.2-14.4-2-1.2-4,1.9-4.4,4.8s-.2,9-1.8,11c-1.6,2-3.9,2.1-4.6,5.9-.7,3.7,4.8,5.9,7.3,7.1,2.5,1.2,11.1,1.8,10.9-1.6Z"/>
  <path class="cls-3" d="M278.7,307.3c0,1.3,0,5,.8,7.3.8,2.2.5,4.2,4.2,7.9,3.7,3.7,8.6,8.9,7.8,12.1-.9,3.2-2.5,3.2-1.7,4.8.8,1.6,3,2.2,7.4.4,4.2-1.7,7.7-1.4,12.7.9.1,0,.3.1.4.2,5.3,2.5,10.5-1.1,12.8-3.3,2.3-2.2,12.4,3.1,13.4,2.2s2.9-11.2,1.5-14.4c0,0-4.7-12.5-10.8-16.2-6.2-3.7-15.8-6.3-17.8-5.5-2,.8-5.9,5.4-10.5,3.2-1.5-.7-3.5-1.5-5.7-2.3-4.7-1.8-10.1-3.6-11.9-3.9-2.6-.5-2.6,5.4-2.7,6.7Z"/>
  <path class="cls-10" d="M293.3,304.5c-.7,1.8-1.2,4.1-.3,6,1.8,3.5,8,3.6,8.9,4.8.9,1.3,11,2.6,14.6,5.5s8,14.1.3,15.9c-4.7,1.1-6.4,2.8-6.9,3.9.1,0,.3.1.4.2,5.3,2.5,10.5-1.1,12.8-3.3,2.3-2.2,12.4,3.1,13.4,2.2s2.9-11.2,1.5-14.4c0,0-4.7-12.5-10.8-16.2-6.2-3.7-15.8-6.3-17.8-5.5-2,.8-5.9,5.4-10.5,3.2-1.5-.7-3.5-1.5-5.7-2.3Z"/>
  <path class="cls-10" d="M338.2,326.6s.2-8.7.4-13.4c.2-4.8,3.5-12.8,2-14.7-1.4-1.8-4.4.4-5.8,3-1.4,2.6-3.3,8.3-5.5,9.7s-4.4.6-6.3,3.9c-2,3.2,2.5,7.2,4.4,9.2,2,2,9.7,5.6,10.8,2.3Z"/>
  <path class="cls-13" d="M308.5,313.7s-.3-3.6-.2-5.1c.1-1.5.3-1.8.3-1.8,0,0-.5.6-.7,1.3s-.8,1.3.6,5.6Z"/>
  <path class="cls-13" d="M305.2,309.3c-.9.7-1.1,2-.5,2.7.6.8,1.9.8,2.8,0s1.1-1.9.5-2.7c-.6-.8-1.9-.8-2.8,0Z"/>
  <path class="cls-19" d="M305.4,311.4c-.2.2-.3.5-.1.6.1.2.4.2.6,0,.2-.2.3-.5.1-.6-.1-.2-.4-.2-.6,0Z"/>
  <path class="cls-13" d="M285.3,301.7s.4,2.5-.4,3.8c-.8,1.3-5.1.4-6.1,0s-.3-4.4.3-5.6,6.2,1.8,6.2,1.8Z"/>
  <path class="cls-3" d="M271.4,385c-.9.4-1.6.7-2.3.7-5,.2-17.9,7.1-17.9,7.1-2.7,5.4,2.9,9.2,3.5,9.8.4.4,8.2-1.6,13.2-2.8,3-4,6.3-10,3.5-14.7Z"/>
  <path class="cls-3" d="M254.7,402.6s-2.2,1.2-3.4-.2c-1.2-1.4-.5-2-.5-2,0,0-1.4.7-2.2-1.3s.1-2.7.1-2.7c0,0-.8-1.6-.2-2.8s3.7-1.3,3.7-1.3l1.4,8,1,2.3Z"/>
  <path class="cls-3" d="M275.6,366c-.9.2-1.7.2-2.4,0-4.9-1.3-19.2,1.2-19.2,1.2-4.3,4.3,0,9.7.3,10.4.3.5,8.3,1,13.4,1.4,4.1-2.9,9-7.5,7.9-12.9Z"/>
  <path class="cls-3" d="M254.3,377.5s-2.5.5-3.2-1.2c-.7-1.7.1-2,.1-2,0,0-1.5.2-1.6-1.9,0-2.1,1-2.5,1-2.5,0,0-.3-1.8.6-2.7s4-.1,4-.1l-1.1,8,.2,2.5Z"/>
  <path class="cls-7" d="M290.6,339c2.7,2.1,6.2.1,8.9-.8,2.9-1,5.4-.7,8.2.5,2.9,1.2,5.7,1.9,8.9,1.4,3-.5,5.8-2,7.9-4.2.5-.5,1.3,0,1.2.6-.4,2.6,4.5,1.7,6,1.5,2.1-.2,4.1-.7,5.9-1.8.8-.5,1.5.7.8,1.2-2.7,1.6-5.8,2-8.9,2.2-1.3,0-2.8.3-4-.5-1-.7-1.3-1.8-1.2-2.9.4.2.8.4,1.2.6-4.3,4.5-11,6.1-16.8,3.9-1.8-.7-3.6-1.7-5.5-1.7-1.9,0-3.6.7-5.3,1.4-2.7,1-5.8,1.7-8.3-.2-.7-.6.3-1.6,1-1.1Z"/>
  <path class="cls-7" d="M326.1,319.4c0,1.3,1.4,1.3,2.2.6.4-.4.7-1,.9-1.5.4-1.1.6-2.4.4-3.5-.4-1.7-.9-3-.6-4.8.2-.9,1.6-.6,1.4.3-.3,1.8.5,3.1.6,4.8.2,1.6-.3,3.6-1.1,5-.6,1-1.8,1.9-3,1.7-1.3-.1-2.3-1.2-2.2-2.5,0-.9,1.5-1,1.4,0Z"/>
  <path class="cls-17" d="M256,402.9c-1.4,1.3-3.7,1.4-5-.2-.5-.7-.7-1.5-.4-2.3.4-.9,1.4-1.4,2.3-1.7.9-.3,1.5,1,.7,1.3s-2.4,1-1.3,2.1c.8.8,2,.6,2.8-.2.7-.6,1.6.4,1,1.1Z"/>
  <path class="cls-17" d="M250.8,401.3c-1.8-.3-3.5-1.5-3.3-3.5.2-1.9,2-2.8,3.7-2.4.9.2.4,1.6-.5,1.4-.9-.2-1.9.5-1.8,1.4,0,1,1,1.6,1.9,1.7.9.1.8,1.6,0,1.4Z"/>
  <path class="cls-17" d="M250.5,375.3c-.5-2.1,2.5-2.8,3.9-2.8s.8,1.4,0,1.4-2.6.3-2.4,1c.2.9-1.2,1.2-1.4.3Z"/>
  <path class="cls-17" d="M250.1,374.7c-1.1-.9-1.2-2.6-.8-3.9.6-1.5,2.3-1.6,3.7-1.4.9.1.8,1.5,0,1.4-.7,0-1.7-.3-2.2.4-.3.5-.3,2,.2,2.4.7.6,0,1.8-.8,1.2Z"/>
  <path class="cls-17" d="M250,369.9c-1.3-4.2,5.7-4,8-4,.9,0,.8,1.4,0,1.4-1.3,0-7.3-.3-6.6,2.2.3.9-1.1,1.2-1.4.3Z"/>
  <path class="cls-17" d="M309.7,339.6c-.7-1.5-.6-3.3.3-4.8.5-.8,1.7-.1,1.3.7-.7,1.2-.7,2.5-.2,3.7.4.8-1,1.2-1.4.4Z"/>
  <path class="cls-17" d="M306.1,337.4c.3-.4.6-.8.9-1.2.2-.3.8-.3,1,0,.3.3.3.7,0,1-.3.4-.6.8-.9,1.2-.2.3-.8.3-1,0-.3-.3-.3-.7,0-1Z"/>
  <path class="cls-17" d="M292.5,339.4c1.1-1.3,3.5-2.7,3.1-4.7-.2-.9,1.2-1.3,1.4-.4.5,2.8-1.9,4.2-3.4,6.1-.6.7-1.6-.3-1.1-1Z"/>
  <path class="cls-13" d="M288.2,322.8s4.3,3.9,6.9,3.1c2.6-.8,2.1-2.7,1.2-3-.9-.3-3.4,3.4-8.2,0Z"/>
  <path class="cls-1" d="M290.5,324s-13.8-4.5-16.1-9c-2.3-4.5,1.6-2.3,3.6-1.4,2,.9,5.6,7.3,12.4,10.4Z"/>
  <path class="cls-10" d="M268,399.7s17.3.2,28.8,1.5c11.4,1.3,29.9-11.6,30.8-13.4.9-1.8,0-22.3-5.3-24.4-5.3-2-27.9,8.5-27.9,8.5l-22.9,13-3.5,14.7Z"/>
  <path class="cls-10" d="M375.2,452.8s-7,.7-2.8-14.3c4.2-15.1,4.1-10.1,4.1-10.1,0,0,19.4,17.5,18.2,30.9-1.1,13.5-5.5,21.3-29.7,19.8s10.3-26.3,10.3-26.3Z"/>
  <path class="cls-10" d="M337.8,480.8s10-.9,17.4,0c7.3.9,23.3-2.4,21.3-10-2-7.6-11.5-10.7-11.5-10.7l-27.2,20.7Z"/>
  <path class="cls-10" d="M295.1,375.9l-.7-4s7-5,9.6-10.3c2.5-5.3,22.3-11,24.8,4.3s-33.7,9.9-33.7,9.9Z"/>
  <path class="cls-23" d="M376.4,428.4s-3.6.9-5.4,5.6c-1.8,4.7-1.6,11-1.6,11,0,0-2.7,1.1-3.5,4.2-.8,3.2,3.1,6.8,3.1,6.8,0,0-2.4-6.2,1.9-9.2,0,0-.4-10.8,5.4-18.5Z"/>
  <path class="cls-7" d="M324,432.4c4.5-4,11.2-3.5,15.2,1,.4.4,1.1.2,1.3-.3.8-3.5,5.3-2.8,8-2.6,3.2.3,6.4.5,9.6.8,1,0,1-1.4,0-1.5-4.2-.3-8.4-.9-12.5-1-2.7,0-5.8.9-6.5,3.9.4-.1.8-.2,1.3-.3-4.6-5.1-12.2-5.5-17.4-1-.7.6.3,1.7,1.1,1.1Z"/>
  <path class="cls-7" d="M307.8,401c6.2.4,12.5-1.5,18.5-2.7,2.4-.5,4.7-1,6.6-2.6,1.9-1.5,3.1-3.6,3.7-5.9.2-1-1.2-1.4-1.5-.4-.5,2.3-1.9,4.3-3.9,5.6-2.1,1.4-4.7,1.6-7.1,2.1-5.4,1.1-10.9,2.7-16.4,2.3-1,0-1,1.5,0,1.5Z"/>
  <path class="cls-7" d="M310.1,360c2.2-.6,3.8-2.8,3.6-5.2,0-1-1.6-1-1.5,0,.1,1.7-.9,3.2-2.5,3.7-.9.3-.5,1.7.4,1.5Z"/>
  <path class="cls-7" d="M303.8,363.7c2.8-2.9,3.4-7.1,1.7-10.7-.4-.9-1.7-.1-1.3.8,1.4,3,.8,6.5-1.5,8.8-.7.7.4,1.8,1.1,1.1Z"/>
  <path class="cls-7" d="M322.8,470.6c4.4-1.6,8.1,2.3,11.9,4,1.5.7,3.2,1.1,4.9.9.7,0,1.4-.3,2.1-.6.9-.4,2.2-1.5,3.2-1,.9.5,1.6-.8.8-1.3-1.6-.9-2.9,0-4.3.8-2.5,1.2-5,.5-7.3-.8-3.6-2-7.3-4.9-11.6-3.4-.9.3-.5,1.8.4,1.5Z"/>
  <path class="cls-7" d="M323.4,432.6c2.2-2.9,4.6-5.6,8.6-5.3,3.1.3,5.8-.3,7.7-3.1.6-.8-.8-1.6-1.3-.8-1.2,1.7-3,2.6-5,2.5-1.7,0-3.2-.4-4.9.2-2.8,1-4.7,3.4-6.4,5.7-.6.8.7,1.5,1.3.8Z"/>
  <path class="cls-17" d="M333.3,481.3c-7.4.8-13.1,1.2-14.8,1.2-3.2,0-12-1.1-16.5-1.7-1.7-.2-2.8-2-2.1-3.7,1-2.5,3.5-5.5,9.4-5.5,8.9,2.7,10.3,4.6,14.9,3.1,4.5-1.5,7.1,2.7,9.7,4.5.7.4.4,1.2-.5,2.1Z"/>
  <path class="cls-22" d="M300.8,480.7h0c-.3,0-.6-.3-.5-.7.2-2.1,1.8-3.9,3.8-4.5.3,0,.7,0,.8.4s0,.7-.4.8c-1.5.4-2.7,1.9-2.9,3.4s-.3.5-.6.5Z"/>
  <path class="cls-22" d="M305.5,481.5c0,0-.2,0-.3,0-.3-.2-.4-.5-.2-.8.7-1.2,1.8-2.1,3.1-2.6.3-.1.7,0,.8.4s0,.7-.4.8c-1,.3-1.9,1.1-2.4,2-.1.2-.3.3-.5.3Z"/>
  <path class="cls-22" d="M304.1,466.7h0c-.3,0-.6-.3-.5-.7.2-2.1,1.8-3.9,3.8-4.5.3,0,.7.1.8.4s-.1.7-.4.8c-1.5.4-2.7,1.9-2.9,3.4s-.3.5-.6.5Z"/>
  <path class="cls-22" d="M308.8,467.6c-.1,0-.2,0-.3,0-.3-.2-.4-.5-.2-.8.7-1.2,1.8-2.1,3.1-2.5.3-.1.7,0,.8.4.1.3,0,.7-.4.8-1,.3-1.9,1.1-2.4,2-.1.2-.3.3-.5.3Z"/>
  <path class="cls-22" d="M376.5,313.5s-.9,2.3,4.2,5.4c5.1,3,4.5-1.7,4.5-1.7l-8.7-3.7Z"/>
  <path class="cls-22" d="M372,310.4s-2.8,1.9-1.2,3c1.6,1.1,4.8,1.9,5.6,1.1s-4.4-4.1-4.4-4.1Z"/>
  <path class="cls-22" d="M382.5,297.8s-2.5,1.6-3.1,4.8c-.6,3.2,2,5.1,3.1,5.7,1.2.6,0-10.5,0-10.5Z"/>
  <path class="cls-3" d="M458.5,308.5c.1,1.3-10.1,7.1-11.9,7.9-1.7.8-15.2,3.5-15.7,3.6-.5.1-7-3.7-8-4.3,0,0-.2,0-.2,0,3.6-1.5,4.3-7.7,4.1-10.8,0-.6,0-1-.1-1.3-.4-2-1.6-6.6.1-10,.9-1.7,3.4-4.1,5.8-5.9,2.3-1.7,4.5-2.8,5-2.1.3.4,1.3,1.4,2.7,2.6,3.9,3.4,10.5,8.6,11.4,8.2.4-.2,1.1-.7,2-1.4,2.3-1.7,5.6-4.5,5.6-4.5,0,0-.9,16.7-.8,18.1Z"/>
  <path class="cls-2" d="M432.2,317.2c-1,0-6.1-.9-9.3-1.5,0,0-.2,0-.2,0,3.6-1.5,4.3-7.7,4.1-10.8.3.5.5.9.9,1.3,3,3.3,10.7,7.2,14.3,5.5,3.6-1.6-8.4,5.7-9.9,5.6Z"/>
  <path class="cls-2" d="M383.8,310.8s-2.7-5.7-2.7-9,2.9-5.6,2.9-5.6c0,0,5,4.3,9.1,5.6,4.2,1.3,8.5,6.1,9.9,10,1.4,3.8,22.8,10.2,24.2,11.4,1.4,1.2-18.5,7.5-21.6,8.2-3.1.6-15.5-6.7-15.5-9,0-2.3-6.3-11.6-6.3-11.6Z"/>
  <path class="cls-3" d="M462.3,423.5c-.2,8.1-1.6,16.4-5.3,21-3.7,4.6-6.9,12-10.4,15-3.5,3-2.7,9.7-4.2,12.5-1.5,2.8-4.7,7.2-9.7,7.2s-8.7,3.5-11.4,2.8c-2.8-.7-14.3-1.4-13.6-5.1s6.2-8.5,8.5-9,4.3-.5,6.5-.5-1.9-2.8-1.9-6,0-2.5-2.5-8.1c-2.5-5.5-1.6-9.2-.7-12.5.9-3.2,3-9.9.9-13.6-2.1-3.7-5.5-4.6-8.1-12.7-2.5-8.1-3.2-12.6-7.4-18.4-2.1-2.9-3.4-4.9-4.7-7.2-1.2-2.3-2.4-5.1-4.1-9.7-3.5-9.3-2.8-24.5-1.9-28.2.1-.5.1-1,0-1.4,0,0,0-.2,0-.2-.4-1.2-1.7-2-3-3-1.2-.8-2.3-1.8-3-3.2-.2-.3-.3-.7-.3-1.2-.7-4.7,2.2-15.8,2.2-18.7s-2.8-3.3-2.8-3.3c0,0-14-7.1-15.1-8.1-1.2-1,3.8-7,7.5-5.6,1.3.5,2.5,0,4.6,1.2,0,0,0,0,0,0,.5.2.9.5,1.5.8,3.1,1.6,10,4.4,11.9,6.7,1.9,2.3,4.8,7.6,5.5,9.1.7,1.5,14.9-2.1,22.4-2.4.6,0,1.2,0,2,.2,8.7,1.9,26.1,15.7,26.1,15.7,0,0-2.5,6.7-3,11.8-.5,5.1-1.9,13.9-3.9,15.5-2.1,1.6-3.2,6.9-2.3,9.7s4.6,7.1,3.2,9c-1,1.3,1.3,2.7,2.9,4.5.7.8,1.3,1.6,1.4,2.5.3,3-.1,5.3,1.7,7.4,1.8,2.1,4.8,9.2,5.8,12,.5,1.4,1.7,2.8,2.7,4.8,1.1,2.1,2,4.8,1.9,8.8Z"/>
  <path class="cls-23" d="M406.4,336.8c-8.3-2.8-9.8-11.1-11.1-16.8-1.2-5.5-11.9-12-12.8-12.6.5.2.9.5,1.5.8,3.1,1.6,10,4.4,11.9,6.7,1.9,2.3,4.8,7.6,5.5,9.1.7,1.5,14.9-2.1,22.4-2.4.6,0,1.2,0,2,.2,1.5,1.3,2.5,2.5,2.9,3.5,1.4,4.2-14,14.3-22.3,11.5Z"/>
  <path class="cls-18" d="M424.7,317.9s-7.7,5.9-7.8,16.8l.9,5.5s11.1,3.1,14.8,3.2c3.7.2,15.7,2.7,20.6,0s-28.4-25.5-28.4-25.5Z"/>
  <path class="cls-20" d="M424.9,322.1s0,0,0,0c0,0,0,.1,0,.2h0c0,.9-1,1.9-1,1.9-1.2,0-1.8-.4-2-.7,0,0,0,0,0,0,0,0,0,0,0,0,0,0,0,0,0,0,0,0,0,0,0,0-.2-.4,0-.9.5-1.1.4-.2.9,0,1.1.5-.2-.4,0-.9.5-1.1.4-.2.9,0,1.1.5Z"/>
  <path class="cls-20" d="M430.6,330.9s0,0,0,0c0,0,0,0-.1.1h0s0,0,0,0c-.8.4-2.1,0-2.1,0-.7-1.1-.6-1.8-.4-2.1,0,0,0,0,0,0s0,0,0,0c0,0,0,0,0,0,0,0,0,0,0,0,.3-.4.8-.4,1.2-.1.4.3.4.8.1,1.2.3-.4.8-.4,1.2-.1.4.3.4.8.1,1.2Z"/>
  <path class="cls-13" d="M440.3,288.1c-5.6,1.3-7.2.2-7.7-.5,1-2.6,4.2-3.3,4.7-2.6.3.4,1.6,1.9,3,3.2Z"/>
  <path class="cls-2" d="M451.7,296.3s-3,2.7-6.2,3.6c-3.2.9-3.2,11.8-3.5,14.1-.2,2.3,15-3.2,16.4-6.5,1.4-3.2.9-17.1.9-17.1l-7.6,5.9Z"/>
  <path class="cls-13" d="M448.9,299.9c-.5,1.8,0,3.5.9,3.8s2.2-1,2.6-2.9,0-3.6-.9-3.8c-1-.3-2.2,1-2.6,2.9Z"/>
  <path class="cls-19" d="M449.3,301.2c0,.3,0,.7.2.7.2,0,.4-.2.5-.6,0-.4,0-.7-.2-.7-.2,0-.4.2-.5.6Z"/>
  <path class="cls-13" d="M452.4,299.5s-2-1.5-2.2-3.2c0,0-.2-.7,0-1l.3-.3s1.6,2.5,1.7,2.6c.1,0,.2,2,.2,2Z"/>
  <path class="cls-3" d="M459.3,290.4c-1.8,1.1-2.4,2.3-2.6,3.1-.2.9,0,1.5-.6,2.3-.6.8-1.2.6-1.8,1.3-.8,1,0,1.9-.6,3.4-.6,1.4-1.5,1-2.9,2.8-1.2,1.5-.9,2.2-2.1,3.6-1,1.2-2,1.7-2.9,2.3-7.7,4.2-6.8,4.1-8.4,4.7-4.6,1.8-14.6,1.7-14.6,1.7,0,2.1.4,3.7.7,4.8.5,1.7,1.6,5.3,4.7,7.4,1.2.8,1.9.9,2.5,1.9.9,1.6,0,2.8.6,4.2.8,1.6,2.9,1.4,5.2,2.2,3.8,1.2,5.3,3.9,7.2,5.7,4.9,4.4,14.3,3.8,20,1.6,12.6-4.9,18-21.9,14.1-32.6-2-5.4-6.5-10.1-10-13.4-4.5-4.2-6-7.5-8.5-7Z"/>
  <path class="cls-8" d="M475.6,309.7s5.1,2.4,5.4,7.7c.3,5.4-9.2,26.5-9.1,29.9l.2,3.4s-10.5.9-12.8-7.2c-2.3-8.2-1.8-13.2,1.5-16.3,3.4-3.1,18.1-11.2,14.8-17.5Z"/>
  <path class="cls-2" d="M461.2,324.5s6.3-3.1,7.6-6.5c1.3-3.4,7.5-11,7.6-5.2,0,0-3.8,6.5-8.2,8.4-4.5,1.9-6.9,4.1-6.9,4.1v-.8Z"/>
  <path class="cls-22" d="M457.5,291.9c-1.3,1.6-1.7,3.6-1.1,5.6.2.5,1,.4,1-.1-.2-1.4-1.9-2-2.9-1.1-.7.6-.9,1.5-1.1,2.3,0,.6,0,1.7-.3,2.2-.3.5-1.1.8-1.6,1.1-.8.6-1.4,1.3-2,2.2-.6.9-.8,2.2-1.4,2.9-.5.5-1.5,1-2.1,1.4-.6.4-1.3.8-1.9,1.2-1.4.9-2.7,1.8-4,2.7-.5.3,0,1.2.5.9l6-3.9c.8-.5,2.1-1.1,2.7-1.8.4-.5.5-1.5.8-2.1s1-1.6,1.6-2.2c.4-.4.9-.8,1.4-1.1.2-.1.6-.2.8-.4.5-.5.5-1.4.5-2,0-.5,0-1,.2-1.5,0-.4.3-.8.5-1.1.6-.4,1.1-.3,1.4.3.3,0,.6,0,1-.1-.5-1.6-.2-3.3.8-4.6.4-.5-.3-1.2-.7-.7Z"/>
  <path class="cls-22" d="M475.9,311.7c-1.3,6.1-7.8,8.5-12.5,11.3-2.2,1.3-4.7,2.9-5.9,5.2-1,1.9-.7,4.2,1.1,5.6,0-.3,0-.7-.1-1-2.8,3.4-1.3,7.6,0,11.3,1.4,3.7,3.8,6.5,7.7,7.5.8.2,1.2-1.1.3-1.3-3.5-.8-5.6-3.3-6.8-6.6-1.2-3.1-2.8-7.1-.4-10,.3-.4.2-.8-.1-1-2.8-2,.5-5.5,2.3-6.8,2.1-1.6,4.6-2.8,6.9-4.1,3.9-2.2,7.8-5.1,8.8-9.7.2-.8-1.1-1.2-1.3-.3Z"/>
  <path class="cls-22" d="M424.3,323.1c1.6,2.9,3.6,6.3,7.1,7.1,0-.3,0-.6-.1-.9-2.2,1.5-1.3,4.7.8,5.9s1.5.6,2.2.8c.7.1,1.7,0,2.3.4.7.5,1.4,1.4,2,2,.6.5,1.2,1,1.8,1.5,5.6,4.3,12.8,6.4,19.9,5.7.6,0,.6-1.1,0-1-6,.6-12-.9-17-4-1.3-.8-2.5-1.7-3.7-2.7-.5-.5-1-.9-1.5-1.4-.4-.4-.8-1.1-1.3-1.3-.5-.3-1.5-.1-2.1-.2-.8-.1-1.5-.3-2.2-.7-1.3-.8-2.4-3.1-.8-4.2.3-.2.3-.8-.1-.9-3.2-.7-5-4-6.5-6.7-.3-.6-1.1,0-.8.5Z"/>
  <path class="cls-22" d="M414.3,420.4c1.6,4.2,5.1,7.5,9.4,8.8,0-.4-.1-.8-.2-1.2-1.8,1.1-2.1,3.7-.5,5.2.2-.4.3-.8.5-1.1-5.1-.2-6.7,5.4-6.7,9.5,0,5.3,1,10.6,3.1,15.5.3.8,1.5.1,1.1-.7-1.7-4.1-2.7-8.5-2.9-12.9-.1-3.7.2-10.4,5.4-10.2.6,0,.9-.7.5-1.1-.9-.8-.9-2.4.2-3.1.5-.3.4-1-.2-1.2-3.9-1.2-7-4.1-8.5-7.9-.3-.8-1.6-.4-1.3.3Z"/>
  <path class="cls-23" d="M459.4,292.2s-1.3,4.9,0,6.4c1.3,1.5-3.6.8-3.9,4-.3,3.2,0,4.9,0,4.9,0,0-6.5,5.9-4.3,10.4s16.1.6,19.6-4.3c3.5-4.9,1.3-9,0-11.8s-11.5-9.6-11.5-9.6Z"/>
  <path class="cls-8" d="M398.4,388.8c-1.2-2.3-2.4-5.1-4.1-9.7-3.5-9.3-2.8-24.5-1.9-28.2.1-.5.1-1,0-1.4.2,0,.4.2.6.3,3.9,2.1,11,5.8,17.5,8.4,3.3,1.3,6.5,2.3,8.9,2.7,0,0-22.3,3.5-21.1,27.9Z"/>
  <path class="cls-22" d="M422.8,360.3c-6.7-1.3-13.4-2.6-19.7-5.2-3.3-1.4-6.4-3.1-9.2-5.3-3-2.4-5.2-5.2-7.4-8.3-.5-.7-1.6,0-1.1.7,2.2,3.1,4.4,6,7.4,8.4,2.7,2.2,5.8,4,9,5.4,6.6,2.9,13.6,4.3,20.7,5.6.8.2,1.2-1.1.3-1.3Z"/>
  <path class="cls-8" d="M423.2,318.6c4,1.1,8.2,1,12.2-.3.8-.3.5-1.5-.3-1.3-3.8,1.3-7.7,1.4-11.5.3-.8-.2-1.2,1-.3,1.3Z"/>
  <path class="cls-8" d="M425.6,322.6c2.2.1,4.2,1.1,6.3,0,.7-.4,0-1.5-.7-1.1-1.7,1-3.8,0-5.6-.2-.8,0-.8,1.3,0,1.3Z"/>
  <path class="cls-8" d="M445.9,340.5c-.4-5.4,1.4-10.6,5-14.6.6-.6-.4-1.6-.9-.9-3.8,4.3-5.8,9.9-5.4,15.6,0,.8,1.4.8,1.3,0Z"/>
  <path class="cls-8" d="M441,337.1c.5-1.7,1.2-3.3,2.2-4.8.5-.7-.6-1.4-1.1-.7-1.1,1.5-1.9,3.3-2.4,5.1-.2.8,1,1.2,1.3.3Z"/>
  <path class="cls-8" d="M432.9,330c3.7-.2,7-2.1,9-5.3.5-.7-.7-1.4-1.1-.7-1.7,2.7-4.6,4.4-7.9,4.6-.8,0-.8,1.4,0,1.3Z"/>
  <path class="cls-8" d="M426.6,367.5c2.1,2.3,5.6,1.9,7.1-.8-.4-.2-.8-.3-1.2-.5-.3,1.2.4,2.3,1.7,2.4,1.7.2,2.6-1.4,3.2-2.7h-1.1c2.6,3.7,7.9,3.4,10.1-.5.4-.8-.7-1.4-1.1-.7-1.7,3.1-5.8,3.4-7.8.5-.3-.4-.9-.5-1.1,0-.2.4-.3.8-.5,1.1-.1.2-.3.3-.4.5-.6.7-1.1.6-1.5-.3.2-.7-.8-1.2-1.2-.5-1.1,2-3.5,2.2-5,.5-.6-.6-1.5.3-.9.9Z"/>
  <path class="cls-3" d="M408.1,382c1.8.8,3.9,1,5.8.5-1.7-.2-3.2,1.7-2.7,3.3.5,1.6,2.8,2.2,4.1,1.1.1,2.5.7,5.1,2.5,6.8,1.8,1.7,5.2,1.8,6.5-.4-.5,2.6.2,5.4,1.8,7.5,1.6,2.1,4.2,3.5,6.8,3.7-.5,3.4,1.4,7,4.6,8.3,3.1,1.3,7.2,0,8.8-3.1.2,2.1.8,4.3,2.1,5.9s3.5,2.7,5.6,2.4c2.1-.3,4-2.2,3.9-4.4.7.7,1.4,1.4,2,2.1"/>
  <path class="cls-17" d="M430,289c-4.7,1.8-4.7,7.2-4.2,11.5,0,.8,1.4.8,1.3,0-.4-3.5-.7-8.6,3.3-10.2.8-.3.4-1.6-.3-1.3Z"/>
  <path class="cls-17" d="M434,292.5c-5.8,1.6-9.2,7.6-7.6,13.4.2.8,1.5.5,1.3-.3-1.4-5.2,1.6-10.4,6.7-11.8.8-.2.5-1.5-.3-1.3Z"/>
  <path class="cls-17" d="M434.5,296.3c-3.4,2.2-6.2,6.8-4.9,11,.6,1.8,2.1,3.2,4.1,3,2-.2,3.3-1.9,3.3-3.9,0-.8-1.3-.9-1.3,0,0,1.9-2,3.4-3.7,2.2-1.2-.9-1.5-2.6-1.4-4,.3-3,2-5.6,4.5-7.2.7-.5,0-1.6-.7-1.1Z"/>
  <path class="cls-17" d="M437.5,306.4c-.9,2.2-.3,4.8,1.6,6.3.7.5,1.6-.4.9-.9-1.6-1.3-2-3.1-1.3-5,.3-.8-.9-1.1-1.3-.3Z"/>
  <path class="cls-3" d="M452.4,413.2s7.2,6.2,17.1-4.3c9.9-10.5,6.2-19.2,7.1-25.5.9-6.3.9-6.6,4.5-7.2s2.3,4,2.3,4c0,0,7.7,5.5,7.1,21.4-.6,15.9-13.2,37.1-32.9,26.7-19.7-10.5-5.1-15.1-5.1-15.1Z"/>
  <path class="cls-17" d="M459.3,427.7c2.7,2.5,6.3,5.5,10.3,4,2.8-1.1,4.2-4.9,1.9-7.2-.5-.5-1.2,0-1.1.6.7,2.8,3.8,4.1,6.4,3.2,3.3-1.1,5-4.3,6.4-7.3.3-.8-.8-1.4-1.1-.7-1,2.2-2.2,4.7-4.3,6-2.1,1.3-5.4,1.1-6-1.7-.4.2-.7.4-1.1.6.9.9,1,2.2.5,3.3-.6,1.3-2.1,1.9-3.5,2-3,0-5.3-2.1-7.4-4-.6-.6-1.5.3-.9.9Z"/>
  <path class="cls-17" d="M476.1,415.4c4.3,3.6,10.8,1.6,12.3-3.8.2-.8-1-1.2-1.3-.4-1.2,4.4-6.5,6.2-10.1,3.2-.6-.5-1.6.4-.9.9Z"/>
  <path class="cls-17" d="M478.8,408.3c2.5,1.5,5.2,3,8.2,2.5,2.6-.4,4.3-2.3,4.8-4.8.7-2.9.4-6,0-8.9-.5-3.3-1.6-6.5-3.1-9.6-.4-.8-1.5,0-1.1.7,2.4,4.8,3.6,10.2,3.3,15.6-.2,2.5-1,5.1-3.7,5.7-2.8.6-5.4-.9-7.7-2.3-.7-.4-1.4.7-.7,1.1Z"/>
  <path class="cls-17" d="M482.6,392.9c2.8.2,5.2-1.9,5.2-4.7,0-1.3-.5-2.5-1.4-3.5-.9-1.1-2.3-1.9-2.9-3.2-1.1-2.2,1.7-6.5-1.9-7.5-3-.8-4.6,2.3-5.1,4.7-.2.8,1.1,1.2,1.3.3.2-1.1.5-2.5,1.5-3.2,1.2-1,2.9-.6,3,1.1,0,2-.9,3.7.2,5.6.9,1.5,2.6,2.3,3.4,3.8,1.5,2.6-.6,5.5-3.4,5.3-.8,0-.8,1.3,0,1.3Z"/>
  <path class="cls-20" d="M423.3,331.3s0,0,0,0c0,0,0,.1,0,.2h0c-.1.9-1.2,1.8-1.2,1.8-1.2,0-1.8-.6-2-.9,0,0,0,0,0,0,0,0,0,0,0,0,0,0,0,0,0,0,0,0,0,0,0,0-.1-.5.1-.9.6-1.1.5-.1.9.1,1.1.6-.1-.5.1-.9.6-1.1.4-.1.9.1,1,.6Z"/>
  <path class="cls-20" d="M428.6,339.8s0,0,0,0c0,0,0,0-.1.1h0s0,0,0,0c-.8.4-2.1,0-2.1,0-.7-1.1-.6-1.8-.4-2.1,0,0,0,0,0,0,0,0,0,0,0,0,0,0,0,0,0,0,0,0,0,0,0,0,.3-.4.8-.4,1.2-.1.4.3.4.8.1,1.2.3-.4.8-.4,1.2-.1.4.3.4.8.1,1.2Z"/>
  <path class="cls-20" d="M438.7,339.7s0,0,0,0c0,0,0,.1,0,.2h0c0,1-1,1.9-1,1.9-1.2,0-1.8-.4-2-.7,0,0,0,0,0,0,0,0,0,0,0,0,0,0,0,0,0,0,0,0,0,0,0,0-.2-.4,0-.9.5-1.1.4-.2.9,0,1.1.5-.2-.4,0-.9.5-1.1.4-.2.9,0,1.1.5Z"/>
  <path class="cls-8" d="M460.4,414.7c-4.5.9-6.7-1.3-10-11-1.9-5.3-1.9-11.2-1.5-15.7.7.8,1.3,1.6,1.4,2.5.3,3-.1,5.3,1.7,7.4,1.8,2.1,4.8,9.2,5.8,12,.5,1.4,1.7,2.8,2.7,4.8Z"/>
  <path class="cls-22" d="M410.2,479.6h0c-.3,0-.6-.3-.5-.7.3-2.1,1.2-4,2.8-5.4.2-.2.6-.2.9,0,.2.3.2.6,0,.9-1.3,1.2-2.2,2.9-2.4,4.7,0,.3-.3.5-.6.5Z"/>
  <path class="cls-22" d="M415.2,481.4c-.3,0-.5-.2-.6-.5-.4-1.7.3-3.5,1.6-4.5.3-.2.7-.2.9.1.2.3.2.6-.1.9-1,.7-1.5,2.1-1.2,3.3,0,.3-.1.7-.5.7s0,0-.1,0Z"/>
</svg>