<?xml version="1.0" encoding="UTF-8"?>
<svg id="Camada_1" data-name="Camada 1" xmlns="http://www.w3.org/2000/svg" version="1.1" xmlns:xlink="http://www.w3.org/1999/xlink" viewBox="0 0 1020 768">
  <defs>
    <style>
      .cls-1 {
        fill: #4c3f42;
      }

      .cls-1, .cls-2, .cls-3, .cls-4, .cls-5, .cls-6, .cls-7, .cls-8, .cls-9, .cls-10, .cls-11, .cls-12, .cls-13, .cls-14, .cls-15, .cls-16, .cls-17 {
        stroke-width: 0px;
      }

      .cls-2 {
        fill: #c62f24;
      }

      .cls-3 {
        fill: #ffb18f;
      }

      .cls-4 {
        fill: #372b2d;
      }

      .cls-5 {
        fill: #ff6a36;
      }

      .cls-6 {
        fill: #fcd7ca;
      }

      .cls-7 {
        fill: #e6bba8;
      }

      .cls-8 {
        fill: none;
      }

      .cls-9 {
        fill: #fcede8;
      }

      .cls-18 {
        clip-path: url(#clippath-1);
      }

      .cls-10 {
        fill: #f2ac9c;
      }

      .cls-11 {
        fill: #f9c4b4;
      }

      .cls-19 {
        clip-path: url(#clippath);
      }

      .cls-12 {
        fill: #ffa788;
      }

      .cls-13 {
        fill: #ad6b4e;
      }

      .cls-14 {
        fill: #fc9977;
      }

      .cls-15 {
        fill: #fff;
      }

      .cls-16 {
        fill: #cc9e87;
      }

      .cls-17 {
        fill: #ed6b55;
      }
    </style>
    <clipPath id="clippath">
      <rect class="cls-8" x="118.6" y="428.8" width="428.4" height="295.4"/>
    </clipPath>
    <clipPath id="clippath-1">
      <rect class="cls-8" x="964.4" y="477.8" width="36.6" height="62.9"/>
    </clipPath>
  </defs>
  <path class="cls-13" d="M704.6,291.2s-2.3,6,10.8,13.7c13.1,7.7,11.4-4.3,11.4-4.3l-22.3-9.4"/>
  <path class="cls-13" d="M693,283.4s-7.2,4.8-3.1,7.7c4.1,2.8,12.2,4.9,14.3,2.8,2.2-2.2-11.2-10.4-11.2-10.4"/>
  <path class="cls-13" d="M719.9,251.3s-6.5,4.2-8,12.3c-1.6,8.1,5.1,13,8,14.5,3,1.6,0-26.8,0-26.8"/>
  <path class="cls-6" d="M914.1,278.5c.3,3.4-25.9,18-30.4,20.1-4.5,2.1-38.8,8.9-40.1,9.2-1.2.2-17.8-9.4-20.6-11l-.4-.2c9.3-3.8,10.9-19.6,10.6-27.6,0-1.4-.2-2.6-.4-3.4-1.1-5.2-4.2-16.9.3-25.5,2.3-4.4,8.7-10.5,14.7-14.9,5.9-4.3,11.5-7,12.8-5.2.7,1,3.3,3.5,6.9,6.6,9.9,8.6,26.7,22,29.2,20.9.9-.4,2.8-1.8,5.1-3.5,5.9-4.5,14.3-11.4,14.3-11.4,0,0-2.4,42.6-2.1,46"/>
  <path class="cls-16" d="M846.8,300.6c-2.6,0-15.5-2.4-23.7-3.8l-.4-.2c9.3-3.8,10.9-19.6,10.6-27.6.6,1.2,1.4,2.3,2.3,3.3,7.6,8.4,27.3,18.2,36.6,14.1,9.3-4.2-21.4,14.5-25.3,14.3"/>
  <path class="cls-16" d="M723.3,284.3s-6.9-14.5-6.9-22.9,7.3-14.3,7.3-14.3c0,0,12.7,11,23.3,14.3,10.6,3.4,21.8,15.6,25.3,25.4s58.1,26,61.8,29.1c3.6,3.1-47.3,19.2-55.1,20.8s-39.5-17.1-39.6-22.9c-.1-5.8-16.1-29.4-16.1-29.4"/>
  <path class="cls-6" d="M923.9,571.4c-.6,20.6-4.1,41.8-13.5,53.6-9.4,11.8-17.7,30.6-26.5,38.3-8.8,7.7-7,24.7-10.9,31.8-3.9,7.1-11.9,18.2-24.7,18.2s-22.2,8.8-29.3,7.1c-7.1-1.8-36.5-3.5-34.8-13,1.8-9.4,15.9-21.8,21.8-23,5.9-1.2,11-1.2,16.7-1.2s-4.9-7.1-4.9-15.3,0-6.5-6.5-20.6c-6.5-14.1-4.1-23.5-1.8-31.8,2.4-8.2,7.7-25.3,2.4-34.7-5.3-9.4-14.2-11.8-20.6-32.4-6.5-20.6-8.2-32.1-18.9-47-5.4-7.5-8.8-12.4-11.9-18.5-3.1-5.9-6.1-13-10.4-24.6-8.8-23.5-7.1-62.4-4.7-71.8.3-1.4.3-2.6,0-3.6,0-.2,0-.4-.2-.6-1-3.1-4.3-5.2-7.7-7.6-2.9-2.1-6-4.5-7.6-8.2-.4-.8-.6-1.9-.8-3-1.8-12.1,5.5-40.3,5.5-47.7s-7.3-8.4-7.3-8.4c0,0-35.8-18.1-38.7-20.7s9.8-17.8,19.3-14.4c3.4,1.2,6.3,0,11.8,3.1,0,0,0,0,.2.1,1.2.6,2.4,1.3,3.8,2.1,8,4.1,25.7,11.2,30.4,17.1,4.7,5.9,12.4,19.3,14.1,23.2,1.8,3.9,38-5.4,57.3-6,1.5,0,3.2.1,5.1.6,22.1,4.9,66.7,40,66.7,40,0,0-6.5,17-7.7,30-1.2,13-4.7,35.4-10,39.5-5.3,4.1-8.3,17.7-5.9,24.7,2.4,7.1,11.8,18.1,8.3,22.9-2.5,3.3,3.4,6.9,7.5,11.4,1.8,1.9,3.2,4,3.5,6.4.9,7.7-.3,13.5,4.4,18.8,4.7,5.3,12.4,23.5,14.7,30.6,1.2,3.5,4.3,7.1,7,12.3,2.7,5.2,5.1,12.1,4.8,22.4"/>
  <path class="cls-9" d="M781,350.7c-21.2-7.1-25.1-28.3-28.3-42.9-3-14-30.3-30.6-32.8-32.2,1.2.6,2.4,1.3,3.8,2.1,8,4.1,25.7,11.2,30.4,17.1,4.7,5.9,12.4,19.3,14.1,23.2,1.8,3.9,38-5.4,57.3-6,1.5,0,3.2.1,5.1.6,3.7,3.2,6.5,6.3,7.3,8.9,3.5,10.7-35.7,36.4-56.9,29.3"/>
  <path class="cls-3" d="M636.8,224.6s-25.1,2.9-38.4,9.4c-5.9,2.9-16.1,7.5-26.3,12-12.6,5.5-25.2,10.9-29.9,12.6-8.4,3.1-18.3,3.1-18.3,2.3s-10.7-51.5-10.7-51.5l6-19.8s35-6.4,36.7-15.9c.5-2.8,7.7.4,17.6,6.4h0c23.8,14.4,63.2,44.5,63.2,44.5"/>
  <path class="cls-5" d="M636.8,224.6s-65.9,5.1-78-37.7c-12.1-42.8,31.8-16.9,31.8-16.9l46.2,54.6"/>
  <path class="cls-4" d="M509,529s26.1-10.4,20.6-112.8l-33,38.1s-3.6,60,12.4,74.7"/>
  <path class="cls-16" d="M509,463.1c-1.8,1.2-45.4,105.7-57.7,113.7s-71.9-17.2-71.9-17.2c0,0,19.4-45.9,22.4-49.4,2.9-3.5-18.5,17.7-26.4,23.3-7.8,5.6-29.6,20.3-55,5.6-25.3-14.7-91-69.3-83.1-80.1,8-10.7,119.6-77.4,124.3-79.3,4.7-1.9,74.3-5.8,78.4,0,4.1,5.8,68.9,83.5,68.9,83.5"/>
  <g class="cls-19">
    <path class="cls-7" d="M546.7,658c-1.2,15.3-12.4,34.1-33.6,47.7-21.2,13.5-86,27.1-169.7,11.8-34.4-6.3-70-11.1-101.7-14.8,21.4-10.9,22.8-39.9,22.3-52.9,22.2,1.5,45.9,1.8,45.9,1.8,0,0-18-1.5-46.4-8.2-15.2-3.6-33.3-8.7-53.2-15.9-17-6.1-31.9-14.2-44.5-23.8-29.9-22.8-46.6-54.7-46.2-91.6.6-52.4,30.1-79.5,30.1-82.4,0,0,149.7,25.9,146.2,35.3s9.3,34.7,9.3,34.7c0,0,144.5,68.9,187.6,92.4,43,23.6,55.4,50.6,54.2,65.9"/>
  </g>
  <path class="cls-3" d="M666.6,179.4c-2.3,2.5-5.2,5.1-7.6,5.1,0,0,0,0,0,.2,0,.9,0,2.6-2.5,9.9,0,0-.6,2.2-.9,2.1h-.4c0,0-1.3,4.8-2.2,7,0,.2-.1.4-.2.6.4.2.6.3.8.4-.1.3-.3.6-.5,1-.2.4-.3.7-.5,1-6.2,13.6-4.4,22.5-19.9,19.3-22.3-4.5-51.1-16.9-64.6-36.3-2.1-3-3.8-6.1-5.1-9.4-4.8-12.4-3.4-41,4.8-66.2.5-1.5,1-2.9,1.5-4.4.3-.8.6-1.6.9-2.5.4-1,.8-2,1.2-3,2.1-5.1,4.6-9.9,7.4-14.3,0,0,0-.2.1-.2.7-1.1,1.4-2.1,2.1-3.1,5.2,0,10.3.1,15.2.3,7.9.3,15.2.8,21.8,1.4.3,0,.5,0,.8,0,3.8.4,7.3.8,10.5,1.3.6,0-2.2-1.5-1.6-1.4,1.4.2-1-6.9.3-6.7,6,1.2,7.7-4.3,9.8-2.7,2.5-6.7,10,16.4,10.1,16.6.1.4.2.8.4,1.2.1.5.3,1,.4,1.5,2.6,9.5,4.6,21.9,3.1,35.1-2.4,21,7.9,33.2,13.9,38.4.6.6,1.1,1.2,1.5,2,.8,1.8.5,4.1-.9,5.6"/>
  <path class="cls-5" d="M643.1,143.7s.4-5.8-1.6-9c0,0-11-1.4-17.6,3.2l-3.6,4.5-.2.6,11.9-1.1,11.1,1.7"/>
  <path class="cls-4" d="M617.8,131.7s18-9.3,29-8.1c0,0,.9-3.6-.4-6.7s-26,9.1-28.6,14.8"/>
  <path class="cls-4" d="M632.7,145.3c-1.9,4.6-1.8,8.9.3,9.6,0,0,0,0,.1,0,.2,0,.4,0,.6,0,0,0,0,0,0,0,2-.1,4.7-3.1,6.4-7.1.5-1.2.8-2.3,1.1-3.4-.6-.8-1.3-1.5-2.3-1.9-1.6-.6-3.4-.3-5,.5-.4.7-.8,1.5-1.1,2.3"/>
  <path class="cls-4" d="M647.4,142.8s-3.2,3.7-7.3,1.6c-4.1-2.1-12.9-2.8-20-1.3,0,0,4.1-4,14-3,9.9,1,11.4,3.1,13.3,2.7"/>
  <path class="cls-5" d="M620.1,143.1s2.4-9,16-9.1c0,0-8,0-15.5,8.5s-.3.4-.5.5"/>
  <path class="cls-5" d="M659.1,184.7c0-.1,0-.2,0-.2,2.3,0,5.3-2.6,7.6-5.1,1.5-1.6,1.7-3.8.9-5.6-4,1.3-10.9,3.9-12.1,6.2-1.1,2.1,1.5,3.8,3.6,4.7"/>
  <path class="cls-12" d="M617.5,168.7c-.6,5,3.9,9.6,10,10.4,6.1.7,11.6-2.8,12.2-7.8.6-5-3.9-9.6-10-10.4-6.1-.7-11.6,2.7-12.2,7.8"/>
  <path class="cls-15" d="M656.6,196.8l-.9-.2c.3,0,.6.1.9.2"/>
  <path class="cls-4" d="M631.5,90c-.6.9-1.3,1.8-2,2.8-.1.2-.2.3-.4.5-.1.2-.2.3-.4.5,0,.1-.2.3-.3.4-.1.2-.3.4-.4.6-.1.2-.3.4-.5.6-.1.2-.3.4-.4.6,0,0-.1.2-.2.3-.2.2-.3.4-.5.6-1.1,1.5-2.2,3-3.5,4.7-.1.2-.2.3-.4.5-.8,1.1-1.6,2.2-2.5,3.4,0,0-.1.2-.2.2-1.4,1.8-2.8,3.7-4.3,5.7-5.3,7.1-10.9,13.5-16.4,19.2-9.7,10.1-19,17.8-25.7,23-6.3,4.8-10.3,7.3-10.3,7.3,0,0,4.3,20.8,5.1,28.8.2,1.7.2,2.8,0,3-.3.4-4-1.8-9.5-5.8,0,0,0,0,0,0-.9-.7-1.9-1.4-2.9-2.2,0,0,0,0-.1,0,0,0,0,0,0,0-.5-.4-1-.8-1.5-1.2,0,0,0,0-.1,0-16.8-12.9-42.6-37-44.6-57.2-.2-2.4-.4-4.8-.5-7.2-.1-3.8,0-7.6.3-11.3.3-3.3.8-6.5,1.5-9.6.2-1,.5-2,.8-3,.9-.7,2.2-1.4,4-2,9.6-3.5,31.7-6,58.1-6.4,2.1,0,4.2,0,6.3,0h1.3c5.2,0,10.3.1,15.2.3,7.9.3,15.2.8,21.8,1.4.3,0,.5,0,.8,0,3.8.4,7.3.8,10.5,1.3.6,0,1.2.2,1.8.3"/>
  <path class="cls-4" d="M554.1,183.4c-27.1-21.9-39-85.6-39-85.6,0,0-3,4.8-5.8,9.9-.5,6-.4,12.2.2,18.5,2,20.2,27.8,44.3,44.6,57.2"/>
  <path class="cls-4" d="M631.5,90c-.6.9-1.3,1.8-2,2.8-.1.2-.2.3-.4.5-.1.2-.2.3-.4.5,0,.1-.2.3-.3.4-.1.2-.3.4-.4.6-.2.2-.3.4-.5.6l-.4.6c0,0-.1.2-.2.3-.1.2-.3.4-.5.6-1.2,1.6-2.4,3.3-3.8,5.1-.8,1.1-1.6,2.2-2.5,3.4l-.2.2c-2.1.5-4.5.7-7.2.7-.9,0-1.8,0-2.7,0h0c-3.1-.1-5.7-.5-8.1-1-1-.2-1.9-.4-2.7-.7-.7-.2-1.4-.5-2.1-.7-3.4-1.3-6-3-8.2-4.9-.5-.4-.9-.8-1.3-1.2-2.9-2.7-5.4-5.5-8.5-8,0,0-.2-.2-.3-.2-.8-.6-1.5-1.1-2.4-1.7-.9-.5-1.8-1-2.7-1.4,2.1,0,4.2,0,6.3,0h1.3c5.2,0,10.3.1,15.2.3.6.6,1.1,1.3,1.8,2h0c.3.4.7.8,1,1.2.6.7,1.3,1.4,2,2.2,2.5,2.7,5.5,3.9,8.7,4.2.8,0,1.7,0,2.5,0,4.5-.3,9.1-2.2,12.9-4.2,1.6-.9,3-1.7,4.2-2.5.6,0,1.2.2,1.8.3"/>
  <path class="cls-15" d="M558.8,186.9c-.9-.6-1.8-1.4-2.9-2.2,1,.8,2,1.5,2.9,2.2"/>
  <path class="cls-4" d="M619.1,88.4c-.7,1-1.5,2-2.2,2.9-1.5,1.9-3,3.6-4.4,5.2-2.9,3.1-5.5,5.4-7.9,7.1-.9.7-1.8,1.3-2.7,1.8-1.1.7-2.1,1.2-3.1,1.6-5.3,2.3-8.3,1.4-8.3,1.4,1.3-.3,2.6-.7,3.9-1.3,1.6-.7,3.1-1.5,4.7-2.5.4-.3.9-.5,1.3-.8,3.3-2.1,6.5-4.8,9.4-7.4,2-1.8,3.9-3.6,5.6-5.3s1.9-2,2.7-2.8c.3,0,.5,0,.8,0"/>
  <path class="cls-4" d="M541,120.1s26.8-2.9,57.4-31.3c0,0-25.1,33.5-57.4,31.3"/>
  <path class="cls-17" d="M287.2,253.8s46-36.2,81.3-54c35.4-17.8,117.5-20.6,134-5,12.4,11.6,29.1,61.4,27.1,84.2-2,22.8.8,73-14.5,89.5-15.3,16.5-51.9,23.1-81.7,36.1-29.9,13-89.2,46.7-106.9,56.1-17.7,9.4-21.2,9.6-39.3,8.4-18.1-1.2-70.5-10-99.4-7.7-28.9,2.4-39.5-5.3-49.5-15.3-10-10,22.4-64.7,51.3-98.9,28.9-34.1,97.6-93.4,97.6-93.4"/>
  <path class="cls-3" d="M513.1,281.6s-3.5,47.1,0,60.4c3.5,13.3,9.4,45.1,13,59.6l3.5,14.5s3.2-7.5,11.4-21.6c8.2-14.1,38.5-53.4,44-71.4,5.5-18.1,7.7-26.7,17.6-34.9,9.9-8.2,25.3-19.6,31.7-21.2,6.5-1.6,48.1,2,54.8,0,6.7-2,9,2.4,4.7,7.1-4.3,4.7-17.3,8.2-29.9,9.4s3.5,2.7,18.9,6.7c15.3,3.9,42.4,16.5,40.9,25.9-1.6,9.4-9,3.5-14.9,2.3s-18.5-4.7-33,2.4c-14.5,7.1-29.8,11.8-45.7,12.9-15.9,1.2-28.8,38.9-39.5,59.7-10.7,20.8-54.7,115.7-74.3,122.4-19.7,6.7-37.3-21.2-43.6-33.3-6.3-12.2-28.7-84.4-30.6-121.3-2-36.9-7.5-58.6-11.8-67-4.3-8.4-4.7-42.9,14.5-48.8,19.2-5.9,60.1-7.9,68.4,36.1"/>
  <path class="cls-3" d="M241.7,702.6h0c-45.4-5.3-83-8.4-98.6-10.5-26.5-3.5-48.3,3.5-65.4,5.9-17.1,2.4-15.9-10.6-12.4-14.7,3.5-4.1,48.9-26.5,61.9-26.5s9.4-4.7,19.4-20.6c10-15.9,28.3-21.8,41.8-14.7,13.6,7.1,21,22.8,45.1,26.3,6.7,1,21.8,1.3,30.4,1.9.5,13-.9,42-22.3,52.9"/>
  <path class="cls-17" d="M427.8,251.8s25.8-23.6,56.5-13.5c30.7,10,31.8,31.8,33.6,63.6,1.8,31.8,2.4,66.8,6.5,77.8,4.1,11.1,5.5,26.4,5.5,26.4l-.2,10.2s-32.4,71-20.6,112.8c0,0-30.6-3.5-44.2-41.2-13.6-37.7-54-181.3-37-236"/>
  <path class="cls-3" d="M659.1,184.7s-1.7,6.2,2.5,9.1l-2.9,12.6s-6.4,2.2-9.2,9l-4.8-15.3,14.3-15.3"/>
  <path class="cls-4" d="M644.7,86.6c-9-2.8-13.3,3.4-13.3,3.4-5.2-.2-11.9,3.8-19,10.4-7.1,6.5-14.6,15.4-21.4,24.8-12.5,17.3-22.7,36.3-23.4,44.9-1.6,17.9,21.2,62.4,21.2,62.4-10.5,0-70.6-12.7-70.6-12.7-33.2-11.2-51.9-27.2-62.3-40l9.2-21.4c-.3.4-8.2,11.5-12.1,17.6-7.2-10.1-9.1-17.5-9.1-17.5,3-10.8,11.7-28.8,21.6-46.7,5.5-10,11.4-19.9,16.8-28.5,7.5-11.9,14.3-21.2,18.2-24.6,11.8-10.2,47.9-22.8,97.8-7.8,49.9,14.9,46.4,35.7,46.4,35.7"/>
  <path class="cls-14" d="M571.6,153.1c-1.2-4.4-3.9-8.3-7.8-10.9-3.9-2.6-9-4.2-12.5.8-6.5,9.4,10.7,40.6,18.7,32.7,5.3-5.2,3.5-16,1.6-22.7"/>
  <path class="cls-5" d="M562.6,152.2c-2.7,2.2-3.4,6.1-1.9,9.1,1.6,3,5.4,4.5,8.6,3.5,1.4-.4.8-2.6-.6-2.2-2.3.7-4.9-.4-6-2.5-1.1-2.2-.3-4.9,1.5-6.3.5-.4.4-1.2,0-1.6-.5-.5-1.1-.4-1.6,0"/>
  <path class="cls-3" d="M549.9,181.4s3.1,37.6,15.2,50h-13.2s-6.4-18.3-2-50"/>
  <path class="cls-2" d="M636.8,192.8s10.5,5.6,24.1,7.2c0,0,6.7-5.9,1.6-6.9,0,0-8.3,5.5-25.7-.2"/>
  <path class="cls-5" d="M644.7,196.2s10.2,10,14,10.1,3.9-5,1.4-6.3c-2.5-1.4-15.4-3.8-15.4-3.8"/>
  <path class="cls-5" d="M647.8,303.3c16.3,0,32.4.6,47.6,7.3,3.2,1.4,6.2,3,9.2,4.8,2.9,1.8,5.6,4,8.7,5.6,3.7,1.8,8.9,1.8,10.8-2.4.4-1-1-1.8-1.5-.8-3.4,7.5-13.2-1.3-17.2-3.7-5.3-3.2-11-5.8-16.9-7.7-13.2-4.4-26.9-4.6-40.7-4.5-1.1,0-1.1,1.7,0,1.7"/>
  <path class="cls-5" d="M663.3,314.6c14.9,1.4,29.8,2.8,44.7,4.2,1.1,0,1.1-1.6,0-1.7-14.9-1.4-29.8-2.8-44.7-4.2-1.1,0-1.1,1.6,0,1.7"/>
  <path class="cls-5" d="M658.5,283.6c-3.4,0-7.5-.6-10.9,0-1.2.2-2.2,1-1.9,2.3.4,2.1,2.8,1.8,4.4,1.7,3.9-.2,7.9-.6,11.8-.9,1.1,0,1.1-1.8,0-1.7-2,.1-3.9.3-5.9.4-1.8.1-4.7.9-6.5.5-1.1-.3-1.7-.4,0-.7.9-.2,1.9,0,2.8,0,2,0,4.1,0,6.1,0,1.1,0,1.1-1.7,0-1.7"/>
  <path class="cls-2" d="M443.8,399.9c-8.3-20.5-13.8-42.1-16.2-64-2.3-21.3-2.5-44,2.1-65.1,2.4-11,8.2-22.5,20.3-24.9,2.1-.4,1.2-3.7-.9-3.2-21.9,4.4-24.2,32-25.5,49.8-1.7,23.3,0,46.9,5,69.8,2.9,13.2,6.9,26,12,38.5.8,2,4,1.1,3.2-.9"/>
  <path class="cls-13" d="M312.4,503c29.1,13.9,57.6,29,86.3,43.6,26.3,13.4,53.3,25.2,79.4,38.9,14.2,7.5,28.1,15.8,40.4,26.2,1.6,1.4,4-1,2.4-2.4-21.4-18.2-47.2-30.2-72.5-42.1-28.7-13.5-56.9-28.1-85.2-42.6-16.3-8.3-32.6-16.6-49.1-24.5-1.9-.9-3.6,2-1.7,2.9"/>
  <path class="cls-13" d="M252.5,466.3c-3.2,11.6,2.5,23.4,12.2,30,11.4,7.8,25.6,7.9,38.7,5.4,2.1-.4,1.2-3.6-.9-3.2-11.5,2.2-24,2.2-34.3-3.9-9.4-5.6-15.4-16.4-12.4-27.4.6-2.1-2.7-3-3.2-.9"/>
  <path class="cls-13" d="M122.9,490c5.8.5,11.6.9,17.4,1.3,5.1.4,10.9,0,15.8,1.4,4.8,1.3,4,9.2,3.9,13,0,4.4-.6,8.7-1.6,12.9-3.9,16.9-14.3,32-28.9,41.3-1.8,1.1-.1,4.1,1.7,2.9,16.5-10.5,28-28,31.3-47.2.8-4.7,1.1-9.6.9-14.4-.2-3.8-.4-8.8-4.1-10.9-1.7-1-3.6-1.1-5.5-1.3-3.6-.3-7.1-.6-10.7-.8-6.7-.5-13.4-1-20-1.6-2.2-.2-2.2,3.2,0,3.3"/>
  <path class="cls-17" d="M827.8,302.5s-19.7,15.2-20,42.9l2.4,14s28.4,7.9,37.8,8.2c9.4.4,40.1,6.9,52.6,0,12.5-6.9-72.7-65.1-72.7-65.1"/>
  <path class="cls-4" d="M828.3,313c0,0,0,.1,0,.2,0,.2,0,.3,0,.5,0,0,0,.1,0,.2h0c0,2.2-2.6,4.6-2.6,4.6-3.2.2-4.6-1-5.2-1.7,0,0,0-.1-.1-.2,0,0,0,0,0,0,0,0,0-.1-.1-.2,0,0,0-.1,0-.1-.5-1.1,0-2.4,1.2-2.8,1.1-.4,2.4,0,2.8,1.2-.5-1.1,0-2.4,1.2-2.8,1.1-.5,2.4,0,2.8,1.2"/>
  <path class="cls-4" d="M842.9,335.6c0,0-.1.1-.2.2-.1.1-.2.2-.4.3,0,0-.1,0-.2.1,0,0,0,0,0,0-1.9,1-5.3,0-5.3,0-1.7-2.7-1.4-4.5-1.1-5.4,0,0,0-.1,0-.2,0,0,0,0,0,0,0,0,0-.1.1-.2h0c.7-1.1,2.1-1.2,3-.4.9.7,1.1,2.1.3,3,.7-.9,2.1-1.1,3-.3.9.7,1.1,2.1.3,3"/>
  <path class="cls-4" d="M867.6,226.5c-14.4,3.2-18.5.6-19.7-1.4,2.6-6.7,10.8-8.5,12.1-6.7.7,1,4,4.9,7.6,8.1"/>
  <path class="cls-16" d="M896.8,247.4s-7.7,6.8-16,9.2c-8.3,2.4-8.3,30-8.8,35.9s38.3-8.2,41.8-16.5c3.5-8.2,2.4-43.5,2.4-43.5l-19.4,14.9"/>
  <path class="cls-4" d="M889.7,256.5c-1.2,4.7-.1,9,2.4,9.7s5.5-2.7,6.7-7.4c1.2-4.7.1-9-2.4-9.7-2.5-.6-5.5,2.7-6.7,7.4"/>
  <path class="cls-15" d="M890.6,259.8c-.2.9,0,1.7.5,1.9.5.1,1.1-.5,1.3-1.4.2-.9,0-1.7-.5-1.9-.5-.1-1.1.5-1.3,1.4"/>
  <path class="cls-4" d="M898.4,255.5s-5-3.7-5.7-8.2c0,0-.4-1.8.2-2.6l.7-.8s4,6.4,4.3,6.6c.3.2.5,5,.5,5"/>
  <path class="cls-6" d="M916.2,232.5c-4.6,2.9-6.2,5.8-6.7,8-.5,2.2,0,4-1.5,5.9-1.5,2-3.1,1.4-4.6,3.2-2.1,2.5-.1,4.9-1.6,8.6-1.4,3.5-3.8,2.6-7.4,7.1-3.1,3.8-2.3,5.5-5.3,9.1-2.5,3-5.1,4.4-7.5,5.8-19.5,10.8-17.4,10.5-21.5,12.1-11.7,4.5-37.3,4.3-37.3,4.3,0,5.3.9,9.5,1.7,12.3,1.3,4.3,4,13.5,11.9,18.9,3,2.1,4.9,2.3,6.4,4.9,2.3,4.1-.2,7.2,1.6,10.7,2.1,4,7.5,3.7,13.3,5.5,9.8,3.1,13.6,10,18.5,14.4,12.5,11.1,36.5,9.7,51.1,4.1,32.2-12.4,46.1-55.8,36.2-83-5-13.7-16.6-25.8-25.5-34.1-11.4-10.6-15.3-19.1-21.6-17.8"/>
  <path class="cls-11" d="M957.8,281.5s13,6,13.7,19.7c.8,13.7-23.6,67.5-23.2,76.1l.4,8.6s-26.7,2.4-32.6-18.4c-5.9-20.8-4.7-33.8,3.9-41.6,8.6-7.8,46.4-28.5,37.7-44.5"/>
  <path class="cls-16" d="M920.9,319.2s16.1-8,19.4-16.7c3.3-8.7,19.1-28.1,19.4-13.2,0,0-9.7,16.6-21.1,21.4-11.4,4.8-17.7,10.4-17.7,10.4v-2"/>
  <path class="cls-13" d="M911.6,236.1c-3.2,4.1-4.3,9.1-2.7,14.2.4,1.3,2.7,1.1,2.5-.3-.5-3.6-4.7-5-7.5-2.7-1.8,1.5-2.4,3.7-2.7,5.9-.2,1.6.1,4.3-.7,5.7-.8,1.2-2.9,2-4,2.9-2,1.6-3.7,3.4-5.1,5.5-1.4,2.2-1.9,5.7-3.6,7.5-1.3,1.4-3.8,2.5-5.5,3.6-1.6,1.1-3.3,2.1-4.9,3.2-3.4,2.3-6.9,4.5-10.4,6.8-1.3.9,0,3.1,1.3,2.2,5.1-3.3,10.2-6.6,15.3-10,1.9-1.2,5.4-2.7,6.8-4.5,1-1.3,1.2-3.8,2-5.3,1-2.1,2.5-4,4.2-5.6,1.1-1.1,2.3-2,3.6-2.8.6-.4,1.5-.6,2-1.1,1.1-1.2,1.2-3.6,1.3-5.2.1-1.3.1-2.6.4-3.8.2-1,.7-2,1.4-2.8,1.6-1.1,2.8-.9,3.6.7l2.5-.3c-1.3-4.1-.6-8.3,2.1-11.7,1-1.3-.8-3.1-1.8-1.8"/>
  <path class="cls-13" d="M958.6,286.6c-3.4,15.5-19.8,21.6-32,28.8-5.5,3.3-12,7.3-15,13.3-2.5,4.9-1.9,10.8,2.7,14.1-.1-.9-.2-1.8-.3-2.6-7.1,8.6-3.4,19.4.2,28.7,3.6,9.4,9.6,16.6,19.7,19.1,2.1.5,3-2.7.9-3.2-8.9-2.1-14.2-8.4-17.4-16.7-3-7.8-7.2-18-1-25.4.7-.9.6-1.9-.3-2.6-7.1-5.2,1.2-13.9,5.8-17.3,5.5-4.1,11.6-7.1,17.6-10.4,9.9-5.5,19.9-13,22.5-24.7.5-2.1-2.8-3-3.2-.9"/>
  <path class="cls-13" d="M826.6,315.8c4,7.5,9.1,16.1,18,18.1,0-.8-.2-1.5-.3-2.3-5.6,3.9-3.2,12,2,14.9,1.7,1,3.7,1.6,5.7,1.9,1.9.3,4.3,0,5.9,1.1,1.8,1.1,3.5,3.7,5.1,5.1,1.5,1.3,3,2.6,4.6,3.8,14.4,11,32.8,16.3,50.8,14.6,1.6-.1,1.6-2.7,0-2.5-15.2,1.4-30.5-2.2-43.6-10.2-3.3-2-6.4-4.3-9.3-6.9-1.3-1.1-2.6-2.3-3.8-3.6-1-1-2-2.7-3.2-3.3-1.4-.7-3.9-.3-5.4-.6-1.9-.3-3.9-.8-5.6-1.8-3.4-2-6.1-7.8-2-10.6.8-.6.8-2-.3-2.3-8.2-1.9-12.8-10.1-16.5-17-.8-1.4-2.9-.2-2.2,1.3"/>
  <path class="cls-13" d="M801.3,563.5c4.2,10.8,12.9,19,24,22.4-.1-1-.3-2-.4-3.1-4.6,2.9-5.3,9.5-1.2,13.1.4-1,.8-1.9,1.2-2.9-13.1-.5-17,13.9-17.2,24.3-.2,13.6,2.6,27,7.9,39.5.8,2,3.7.3,2.9-1.7-4.4-10.4-7-21.6-7.4-32.9-.3-9.4.5-26.4,13.8-25.8,1.4,0,2.3-1.9,1.2-2.9-2.4-2.2-2.2-6.1.6-7.9,1.2-.8,1-2.6-.4-3.1-9.9-3-18-10.4-21.7-20-.8-2-4-1.1-3.2.9"/>
  <path class="cls-9" d="M916.4,237s-3.3,12.5,0,16.4c3.3,3.9-9.2,1.9-10,10.2s0,12.6,0,12.6c0,0-16.6,15-10.9,26.4,5.8,11.3,41.1,1.5,50.2-11.1,9-12.6,3.4-23,0-30-3.4-7.1-29.3-24.4-29.3-24.4"/>
  <path class="cls-11" d="M760.5,483.1c-3.1-5.9-6.1-13-10.4-24.6-8.8-23.5-7.1-62.4-4.7-71.8.3-1.4.3-2.6,0-3.6.5.3,1,.5,1.5.8,9.9,5.4,28.1,14.8,44.7,21.4,8.5,3.3,16.5,5.9,22.7,6.8,0,0-56.9,8.8-53.8,71.1"/>
  <path class="cls-13" d="M823,410.4c-17-3.3-34.3-6.6-50.3-13.3-8.4-3.5-16.4-7.9-23.5-13.6-7.6-6-13.3-13.2-18.8-21.2-1.2-1.8-4.1,0-2.9,1.7,5.6,8,11.3,15.3,18.9,21.5,7,5.6,14.7,10.2,22.9,13.7,16.8,7.3,34.9,10.9,52.8,14.3,2.1.4,3-2.8.9-3.2"/>
  <path class="cls-11" d="M823.8,304.2c10.3,2.9,21.1,2.6,31.2-.8,2-.7,1.2-3.9-.9-3.2-9.6,3.2-19.7,3.5-29.4.8-2.1-.6-3,2.7-.9,3.2"/>
  <path class="cls-11" d="M830.1,314.4c5.5.3,10.8,2.9,16.1,0,1.9-1,.2-3.9-1.7-2.9-4.4,2.5-9.7-.2-14.4-.5-2.2-.1-2.2,3.2,0,3.4"/>
  <path class="cls-11" d="M881.9,360.1c-1-13.6,3.5-27.1,12.7-37.3,1.4-1.6-.9-4-2.4-2.4-9.7,10.8-14.7,25.1-13.7,39.6.2,2.1,3.5,2.2,3.4,0"/>
  <path class="cls-11" d="M869.3,351.4c1.2-4.4,3.1-8.5,5.7-12.2,1.2-1.8-1.7-3.4-2.9-1.7-2.8,4-4.8,8.3-6.1,13-.6,2.1,2.7,3,3.2.9"/>
  <path class="cls-11" d="M848.6,333.4c9.4-.5,17.9-5.4,23-13.4,1.2-1.8-1.7-3.5-2.9-1.7-4.5,6.9-11.9,11.2-20.1,11.7-2.1.1-2.2,3.5,0,3.3"/>
  <path class="cls-11" d="M832.5,428.7c5.3,5.8,14.2,4.8,18-2-1-.4-2.1-.9-3.1-1.3-.8,3,1.1,5.8,4.2,6.1,4.3.4,6.7-3.6,8.1-6.9h-2.9c6.6,9.3,20.3,8.8,25.8-1.4,1-1.9-1.9-3.6-2.9-1.7-4.2,7.8-14.8,8.7-20,1.4-.6-.9-2.3-1.3-2.9,0-.4.9-.8,1.9-1.3,2.8-.3.4-.6.9-1,1.3-1.5,1.8-2.8,1.5-3.9-.7.5-1.8-2.1-3-3.1-1.3-2.8,5-8.9,5.6-12.7,1.4-1.5-1.6-3.8.8-2.4,2.4"/>
  <path class="cls-6" d="M785.2,465.7c4.6,2.1,9.9,2.6,14.8,1.3-4.2-.5-8.1,4.3-6.9,8.4,1.3,4.1,7.2,5.7,10.4,2.9.3,6.3,1.7,13.1,6.4,17.4,4.7,4.3,13.4,4.5,16.6-1-1.3,6.7.4,13.8,4.6,19.2,4.1,5.4,10.7,8.9,17.4,9.3-1.3,8.6,3.6,17.9,11.6,21.2,8,3.3,18.4-.1,22.4-7.8.4,5.4,2,10.9,5.4,15.1,3.4,4.2,8.9,7,14.3,6.1,5.4-.8,10.1-5.7,9.9-11.1,1.7,1.8,3.5,3.6,5.2,5.4"/>
  <path class="cls-10" d="M841.4,228.8c-12,4.6-12,18.4-10.9,29.2.2,2.1,3.6,2.1,3.4,0-.9-8.9-1.9-22,8.4-26,2-.8,1.1-4-.9-3.2"/>
  <path class="cls-10" d="M851.5,237.7c-14.9,4.1-23.5,19.3-19.5,34.2.6,2.1,3.8,1.2,3.2-.9-3.6-13.2,4-26.4,17.1-30.1,2.1-.6,1.2-3.8-.9-3.2"/>
  <path class="cls-10" d="M852.8,247.3c-8.8,5.6-15.9,17.4-12.5,28,1.5,4.6,5.4,8.2,10.5,7.7s8.5-4.9,8.3-9.9c0-2.2-3.4-2.2-3.3,0,.1,4.8-5,8.6-9.4,5.6-3.1-2.2-3.8-6.6-3.5-10.1.6-7.5,5.2-14.3,11.6-18.3,1.8-1.1.1-4-1.7-2.9"/>
  <path class="cls-10" d="M860.5,273c-2.4,5.7-.8,12.1,4.1,16,1.7,1.3,4.1-1,2.4-2.4-4-3.2-5.2-8-3.2-12.7.8-2-2.4-2.8-3.2-.9"/>
  <path class="cls-6" d="M898.4,545.3s18.5,15.7,43.6-11c25.2-26.7,15.9-48.8,18.2-64.8,2.3-16,2.4-16.8,11.4-18.4,9-1.6,5.9,10.2,5.9,10.2,0,0,19.6,14.1,18.1,54.5-1.6,40.4-33.7,94.6-84.1,67.9-50.3-26.7-13.1-38.5-13.1-38.5"/>
  <path class="cls-10" d="M916.2,582.3c7,6.5,16.2,14.1,26.4,10.2,7.2-2.7,10.8-12.5,4.7-18.2-1.2-1.2-3.2,0-2.8,1.6,1.7,7.1,9.6,10.4,16.3,8.3,8.5-2.7,12.7-11,16.2-18.5.9-1.9-2-3.6-2.9-1.7-2.7,5.7-5.5,12-11,15.4-5.3,3.3-13.7,2.7-15.4-4.4-.9.5-1.9,1.1-2.8,1.6,2.4,2.2,2.7,5.6,1.3,8.5-1.6,3.4-5.3,4.9-8.8,5-7.6.2-13.6-5.4-18.8-10.2-1.6-1.5-4,.9-2.4,2.4"/>
  <path class="cls-10" d="M959,550.8c11,9.1,27.5,4.2,31.3-9.7.6-2.1-2.7-3-3.2-.9-3.1,11.3-16.6,15.7-25.7,8.2-1.6-1.4-4,1-2.4,2.4"/>
  <g class="cls-18">
    <path class="cls-10" d="M966,532.7c6.4,3.7,13.3,7.6,21,6.3,6.7-1.1,10.9-5.9,12.4-12.3,1.7-7.3,1-15.4-.1-22.7-1.3-8.5-4.1-16.7-8-24.3-1-1.9-3.9-.2-2.9,1.7,6.2,12.2,9.3,26,8.4,39.7-.4,6.4-2.6,12.9-9.5,14.5-7,1.6-13.7-2.4-19.6-5.8-1.9-1.1-3.6,1.8-1.7,2.9"/>
  </g>
  <path class="cls-10" d="M975.7,493.6c7,.4,13.2-4.8,13.4-12,0-3.4-1.3-6.4-3.5-8.9-2.4-2.7-5.8-4.8-7.4-8.1-2.8-5.6,4.4-16.5-4.7-19.1-7.6-2.2-11.7,5.8-13,11.9-.4,2.1,2.8,3,3.2.9.6-2.9,1.4-6.3,3.8-8.3,3.1-2.5,7.4-1.6,7.6,2.8.2,5.1-2.4,9.4.6,14.2,2.3,3.8,6.6,6,8.8,9.8,3.9,6.6-1.5,14-8.7,13.5-2.2-.1-2.2,3.2,0,3.4"/>
  <path class="cls-1" d="M623,101.6c-.1.2-.2.3-.4.5-.8,1.1-1.6,2.2-2.5,3.4,0,0-.1.2-.2.2-1.4,1.8-2.8,3.7-4.3,5.7-5.3,7.1-10.9,13.5-16.4,19.2-2.1-2-4.8-4-8.2-5.4-5.2-2.2-12.2-3.2-21.3-1.1-24.9,5.7-46.4,6-60.7-5.1-1-.8-2-1.7-3-2.6-7.8-7.5-25.9-6.8-40.5-4.5,5.5-10,11.4-19.9,16.8-28.5,9.6-1.2,19.2-.3,26.6,5,2.3,1.7,4.5,3.2,6.7,4.7,18.9,13,34.8,19.9,67.1,11.5,12.8-3.3,22.5-4.3,29.7-4.2,4.4,0,7.9.6,10.5,1.2"/>
  <path class="cls-1" d="M785.7,135.6c0-.2.1-.4.1-.6,0,.2,0,.4-.1.6"/>
  <path class="cls-4" d="M824.2,336.5c0,0,0,.2,0,.2,0,.2,0,.3,0,.5,0,0,0,.1,0,.2h0c-.2,2.2-3,4.4-3,4.4-3.2-.1-4.5-1.4-5-2.2,0,0,0-.1-.1-.2,0,0,0,0,0,0,0,0,0-.1,0-.2,0,0,0-.1,0-.1-.3-1.1.3-2.3,1.5-2.7,1.1-.3,2.3.3,2.7,1.5-.3-1.1.3-2.3,1.5-2.7,1.1-.3,2.3.3,2.7,1.5"/>
  <path class="cls-4" d="M837.8,358.1c0,0-.1.1-.2.2-.1.1-.2.2-.4.3,0,0-.1,0-.2,0,0,0,0,0,0,0-1.9,1.1-5.3,0-5.3,0-1.7-2.7-1.4-4.5-1.1-5.4,0,0,0-.1,0-.2,0,0,0,0,0,0,0,0,0-.1.1-.2h0c.7-1.1,2.1-1.2,3-.5.9.7,1.1,2.1.3,3,.7-.9,2.1-1.1,3-.3.9.7,1.1,2.1.3,3"/>
  <path class="cls-1" d="M506,280.5c-.1.1-.2.2-.3.4-.2.2-.5.4-.8.6s-.2.1-.4.2c0,0,0,0,0,0-4,2.2-11,0-11,0-3.6-5.6-3-9.4-2.2-11.2,0-.2.1-.3.2-.4,0,0,0-.1,0-.2,0-.2.2-.3.2-.4.1-.2.2-.2.2-.2,1.6-1.9,4.4-2.2,6.3-.7,1.9,1.6,2.2,4.4.7,6.3,1.6-1.9,4.4-2.2,6.3-.7s2.2,4.4.7,6.3"/>
  <path class="cls-1" d="M469.9,337.7c.1.1.2.3.3.4.2.3.3.6.4.9,0,.1,0,.3.1.4,0,0,0,0,0,0,1.3,4.4-2.2,10.8-2.2,10.8-6.2,2.4-9.8,1-11.5-.1-.1,0-.3-.2-.4-.3,0,0-.1,0-.2-.1-.1-.1-.2-.2-.3-.3-.1-.1-.2-.2-.2-.2-1.6-1.9-1.3-4.7.6-6.3,1.9-1.6,4.8-1.3,6.3.6-1.6-1.9-1.3-4.7.6-6.3s4.7-1.3,6.3.6"/>
  <path class="cls-1" d="M511.2,422.6c0,.1-.2.3-.3.4-.2.3-.4.5-.6.7,0,0-.2.2-.3.3,0,0,0,0,0,0-3.6,2.9-10.8,2-10.8,2-4.6-4.9-4.6-8.7-4.2-10.7,0-.2,0-.3.1-.5,0,0,0-.1,0-.2,0-.2.1-.3.2-.4v-.3c1.3-2.2,4-3,6.2-1.8,2.2,1.2,3,3.9,1.8,6.1,1.2-2.2,3.9-3,6.1-1.8,2.2,1.2,3,3.9,1.8,6.1"/>
  <path class="cls-1" d="M415.9,228.5c0,.1-.2.3-.3.4-.2.3-.4.5-.6.7,0,0-.2.2-.3.3,0,0,0,0,0,0-3.6,2.9-10.8,2-10.8,2-4.6-4.9-4.6-8.7-4.2-10.7,0-.2,0-.3.1-.5s0-.1,0-.2c0-.2.1-.3.2-.4,0-.2.1-.3.1-.3,1.2-2.2,3.9-3,6.1-1.8,2.2,1.2,3,3.9,1.8,6.1,1.2-2.2,3.9-3,6.1-1.8s3,3.9,1.8,6.1"/>
  <path class="cls-1" d="M362.1,330.7c0,.1-.2.3-.3.4-.2.3-.4.5-.6.7,0,0-.2.2-.3.3,0,0,0,0,0,0-3.6,2.9-10.8,2-10.8,2-4.6-4.9-4.6-8.7-4.2-10.7,0-.2,0-.3.1-.5,0,0,0-.1,0-.2,0-.2.1-.3.2-.4v-.3c1.3-2.2,4-3,6.2-1.8,2.2,1.2,3,3.9,1.8,6.1,1.2-2.2,3.9-3,6.1-1.8,2.2,1.2,3,3.9,1.8,6.1"/>
  <path class="cls-1" d="M271.9,348.3c0,.1-.2.3-.3.4-.2.3-.4.5-.6.7,0,0-.2.2-.3.3,0,0,0,0,0,0-3.6,2.9-10.8,2-10.8,2-4.6-4.9-4.6-8.7-4.2-10.7,0-.2,0-.3.1-.5s0-.1,0-.2c0-.2.1-.3.2-.4,0-.2.1-.3.1-.3,1.2-2.2,3.9-3,6.1-1.8,2.2,1.2,3,3.9,1.8,6.1,1.2-2.2,3.9-3,6.1-1.8,2.2,1.2,3,3.9,1.8,6.1"/>
  <path class="cls-1" d="M387.6,404c0,.1-.2.3-.3.4-.2.3-.4.5-.6.7,0,0-.2.2-.3.3,0,0,0,0,0,0-3.6,2.9-10.8,2-10.8,2-4.6-4.9-4.6-8.7-4.2-10.7,0-.2,0-.3.1-.5,0,0,0-.1,0-.2,0-.2.1-.3.2-.4v-.3c1.3-2.2,4.1-3,6.2-1.8s3,3.9,1.8,6.1c1.2-2.2,3.9-3,6.1-1.8,2.2,1.2,3,3.9,1.8,6.1"/>
  <path class="cls-1" d="M206.1,390c0,.1-.2.3-.3.4-.2.3-.4.5-.6.7-.1,0-.2.2-.3.3h0c-3.6,2.9-10.8,2.1-10.8,2.1-4.6-4.9-4.6-8.7-4.2-10.7,0-.2,0-.3.1-.5v-.2c.1-.2.2-.3.2-.4,0-.2.1-.3.1-.3,1.2-2.2,3.9-3,6.1-1.8s3,3.9,1.8,6.1c1.2-2.2,3.9-3,6.1-1.8s3,3.9,1.8,6.1"/>
  <path class="cls-1" d="M483.5,212.7c.1.1.2.2.3.4.2.3.3.6.5.9,0,.1.1.3.1.4,0,0,0,0,0,0,1.4,4.4-2,10.8-2,10.8-6.2,2.5-9.8,1.2-11.5,0-.1,0-.3-.2-.4-.3,0,0-.1,0-.2-.1-.1-.1-.2-.2-.3-.3-.1-.1-.2-.2-.2-.2-1.6-1.9-1.4-4.7.5-6.3,1.9-1.6,4.7-1.4,6.3.5-1.6-1.9-1.4-4.7.5-6.3,1.9-1.6,4.7-1.4,6.3.5"/>
  <path class="cls-1" d="M412.9,285.1c.1.1.2.3.3.4.2.3.3.6.5.9,0,.1.1.3.1.4,0,0,0,0,0,0,1.4,4.4-2,10.8-2,10.8-6.2,2.5-9.8,1.2-11.5,0-.1,0-.3-.2-.4-.3,0,0-.1,0-.2-.1-.1-.1-.2-.2-.3-.3-.1-.1-.2-.2-.2-.2-1.6-1.9-1.4-4.7.5-6.3,1.9-1.6,4.7-1.4,6.3.5-1.6-1.9-1.4-4.7.5-6.3s4.7-1.4,6.3.5"/>
  <path class="cls-1" d="M309.6,405.5c0,.1.2.3.3.4.2.3.3.6.5.9,0,.1,0,.3.1.4,0,0,0,0,0,0,1.4,4.4-2,10.8-2,10.8-6.2,2.5-9.8,1.1-11.5,0-.1,0-.3-.2-.4-.3,0,0-.1,0-.2-.1-.1-.1-.3-.2-.3-.3-.1-.1-.2-.2-.2-.2-1.6-1.9-1.4-4.7.5-6.3s4.7-1.4,6.3.5c-1.6-1.9-1.4-4.7.5-6.3,1.9-1.6,4.7-1.4,6.3.5"/>
  <path class="cls-1" d="M232.3,426.8c.1.1.2.3.3.4.2.3.3.6.5.9,0,.1,0,.3.1.4,0,0,0,0,0,0,1.4,4.4-2,10.8-2,10.8-6.2,2.5-9.8,1.1-11.5,0-.1,0-.3-.2-.4-.3,0,0-.1,0-.2-.1-.1-.1-.3-.2-.3-.3-.1-.1-.2-.2-.2-.2-1.6-1.9-1.4-4.7.5-6.3s4.7-1.4,6.3.5c-1.6-1.9-1.4-4.7.5-6.3,1.9-1.6,4.7-1.4,6.3.5"/>
  <path class="cls-1" d="M322.6,272c0,.1.2.3.3.4.2.3.3.6.5.9,0,.1,0,.3.1.4,0,0,0,0,0,0,1.4,4.4-2,10.8-2,10.8-6.2,2.5-9.8,1.2-11.5,0-.1,0-.3-.2-.4-.3,0,0-.1,0-.2-.1-.1-.1-.3-.2-.3-.3-.1-.1-.2-.2-.2-.2-1.6-1.9-1.4-4.7.5-6.3s4.7-1.4,6.3.5c-1.6-1.9-1.4-4.7.5-6.3,1.9-1.6,4.7-1.4,6.3.5"/>
  <path class="cls-4" d="M863.4,358c0,0,0,.1,0,.2,0,.2,0,.3,0,.5,0,0,0,.1,0,.2,0,0,0,0,0,0,0,2.2-2.6,4.6-2.6,4.6-3.2.2-4.6-1-5.2-1.7,0,0,0-.1-.1-.2s0,0,0,0c0,0,0-.1-.1-.2,0,0,0-.1,0-.1-.4-1.1,0-2.4,1.2-2.8,1.1-.4,2.4,0,2.8,1.2-.5-1.1,0-2.4,1.2-2.8,1.1-.4,2.4,0,2.8,1.2"/>
  <path class="cls-1" d="M147.1,695.6s17.7-7.7,23-21.2c5.3-13.5,42.1-34.1,47.4-31.6,5.3,2.5-28.2-39.8-51.7-32.4,0,0-125.3,54.5-140.6,71.5,0,0-21.7,14.7-12.2,23,9.4,8.3,64,1.8,87-5.3,23-7.1,38.7-2,47.2-4.1"/>
  <path class="cls-1" d="M122.9,695.9s36.2-21.4,48.8-18.7c0,0,2.4,11.5-3.9,18.7-6.3,7.2-32.5-1.3-44.8,0"/>
  <path class="cls-9" d="M114.1,692.5c16.1-10.4,35-15.3,54.1-13.9,2.2.2,2.1-3.2,0-3.3-19.6-1.4-39.3,3.6-55.8,14.3-1.8,1.2-.1,4.1,1.7,2.9"/>
  <path class="cls-9" d="M158.4,675.1c12.3-20,34.2-33.2,57.7-34.6,2.2-.1,2.2-3.5,0-3.3-24.7,1.5-47.7,15.2-60.6,36.3-1.1,1.8,1.8,3.5,2.9,1.7"/>
  <path class="cls-11" d="M919.1,549c-11.5,2.2-17.1-3.4-25.7-28-4.7-13.5-4.9-28.5-3.9-40.1,1.8,1.9,3.2,4,3.5,6.4.9,7.7-.3,13.5,4.4,18.8,4.7,5.3,12.4,23.5,14.7,30.6,1.2,3.5,4.3,7.1,7,12.3"/>
</svg>